<?xml version="1.0" ?><svg id="Solid" viewBox="0 0 32 32" xmlns="http://www.w3.org/2000/svg"><defs><style>.cls-1{fill:#1a1a1a;}</style></defs><title/><path class="cls-1" d="M26.74,8.5a.65.65,0,0,0,0-.19.64.64,0,0,0,0-.07A.86.86,0,0,0,26.53,8L20.86,2.46a.83.83,0,0,0-.22-.14l-.07,0a.58.58,0,0,0-.18,0H6A.76.76,0,0,0,5.25,3V29a.76.76,0,0,0,.75.75H26a.76.76,0,0,0,.75-.75V8.55S26.74,8.52,26.74,8.5Zm-5.1,13.67A1.67,1.67,0,0,1,20,23.83H11.8a1.67,1.67,0,0,1-1.66-1.66V17a1.67,1.67,0,0,1,1.66-1.66H12V14.27a3.94,3.94,0,1,1,7.88,0v1.05H20A1.67,1.67,0,0,1,21.64,17ZM25.25,9.3H20.34a.75.75,0,0,1-.75-.75V3.75H20l1.06,1,3.07,3,1.09,1.06ZM20,16.82H11.8a.16.16,0,0,0-.16.16v5.19a.16.16,0,0,0,.16.16H20a.16.16,0,0,0,.16-.16V17A.16.16,0,0,0,20,16.82Zm-1.65-2.55a2.44,2.44,0,1,0-4.88,0v1.05h4.88Z"/></svg>