<?xml version="1.0" ?><svg id="Solid" viewBox="0 0 32 32" xmlns="http://www.w3.org/2000/svg"><defs><style>.cls-1{fill:#1a1a1a;}</style></defs><title/><path class="cls-1" d="M26,2.25H6A.76.76,0,0,0,5.25,3v7.92h21.5V3A.76.76,0,0,0,26,2.25Zm-8.5,5.5h-3a.75.75,0,0,1,0-1.5h3a.75.75,0,0,1,0,1.5Z"/><path class="cls-1" d="M5.25,19.58h21.5V12.42H5.25Zm9.25-4.33h3a.75.75,0,0,1,0,1.5h-3a.75.75,0,0,1,0-1.5Z"/><path class="cls-1" d="M5.25,29a.76.76,0,0,0,.75.75H26a.76.76,0,0,0,.75-.75V21.08H5.25Zm9.25-4.75h3a.75.75,0,0,1,0,1.5h-3a.75.75,0,0,1,0-1.5Z"/></svg>