<?xml version="1.0" ?><svg id="Solid" viewBox="0 0 32 32" xmlns="http://www.w3.org/2000/svg"><defs><style>.cls-1{fill:#1a1a1a;}</style></defs><title/><rect class="cls-1" height="2.5" width="21.5" x="5.25" y="16.75"/><path class="cls-1" d="M5.25,29a.76.76,0,0,0,.75.75H26a.76.76,0,0,0,.75-.75V20.75H5.25Z"/><path class="cls-1" d="M26.74,8.5a.65.65,0,0,0,0-.19.64.64,0,0,0,0-.07A.86.86,0,0,0,26.53,8L20.86,2.46a.83.83,0,0,0-.22-.14l-.07,0a.58.58,0,0,0-.18,0H6A.76.76,0,0,0,5.25,3V15.25h21.5V8.55S26.74,8.52,26.74,8.5Zm-1.49.8H20.34a.75.75,0,0,1-.75-.75V3.75H20l1.06,1,3.07,3,1.09,1.06Z"/></svg>