<?xml version="1.0" ?><svg id="Solid" viewBox="0 0 32 32" xmlns="http://www.w3.org/2000/svg"><defs><style>.cls-1{fill:#1a1a1a;}</style></defs><title/><path class="cls-1" d="M26.74,8.5a.65.65,0,0,0,0-.19.64.64,0,0,0,0-.07A.86.86,0,0,0,26.53,8L20.86,2.46a.83.83,0,0,0-.22-.14l-.07,0a.58.58,0,0,0-.18,0H6A.76.76,0,0,0,5.25,3V29a.76.76,0,0,0,.75.75H26a.76.76,0,0,0,.75-.75V8.55S26.74,8.52,26.74,8.5Zm-5.09,9.72-5.13,5a.7.7,0,0,1-.52.22.74.74,0,0,1-.53-.22l-5.12-5a3.62,3.62,0,0,1,0-5.2,3.87,3.87,0,0,1,5.27,0l.38.37.38-.37a3.77,3.77,0,0,1,5.27,0,3.62,3.62,0,0,1,0,5.2Zm3.6-8.92H20.34a.75.75,0,0,1-.75-.75V3.75H20l1.06,1,3.07,3,1.09,1.06Zm-7.82,4.79-.91.88a.74.74,0,0,1-1,0l-.9-.88a2.28,2.28,0,0,0-3.17,0,2.13,2.13,0,0,0,0,3.06l4.6,4.5,4.6-4.5a2.13,2.13,0,0,0,0-3.06A2.27,2.27,0,0,0,17.43,14.09Z"/></svg>