<?xml version="1.0" ?><svg id="Solid" viewBox="0 0 32 32" xmlns="http://www.w3.org/2000/svg"><defs><style>.cls-1{fill:#1a1a1a;}</style></defs><title/><path class="cls-1" d="M26.74,8.5a.65.65,0,0,0,0-.19.64.64,0,0,0,0-.07A.86.86,0,0,0,26.53,8L20.86,2.46a.83.83,0,0,0-.22-.14l-.07,0a.58.58,0,0,0-.18,0H6A.76.76,0,0,0,5.25,3V29a.76.76,0,0,0,.75.75H26a.76.76,0,0,0,.75-.75V8.55S26.74,8.52,26.74,8.5Zm-4.86,8.16L19,18.78l1.11,3.43a.76.76,0,0,1-.27.84.79.79,0,0,1-.44.14.77.77,0,0,1-.44-.14L16,20.93l-2.92,2.12a.75.75,0,0,1-1.15-.84L13,18.78l-2.92-2.12a.75.75,0,0,1,.44-1.36h3.61l1.12-3.43a.74.74,0,0,1,1.42,0l1.12,3.43h3.61a.75.75,0,0,1,.44,1.36ZM25.25,9.3H20.34a.75.75,0,0,1-.75-.75V3.75H20l1.06,1,3.07,3,1.09,1.06Zm-8.68,7L16,14.53l-.57,1.75a.75.75,0,0,1-.71.52H12.87l1.49,1.08a.74.74,0,0,1,.28.84l-.57,1.76,1.49-1.09a.76.76,0,0,1,.88,0l1.49,1.09-.57-1.76a.74.74,0,0,1,.28-.84l1.49-1.08H17.28A.75.75,0,0,1,16.57,16.28Z"/></svg>