<?xml version="1.0" ?><svg id="Solid" viewBox="0 0 32 32" xmlns="http://www.w3.org/2000/svg"><defs><style>.cls-1{fill:#1a1a1a;}</style></defs><title/><polygon class="cls-1" points="14.75 20.42 18.75 18 14.75 15.58 14.75 20.42"/><path class="cls-1" d="M27,9.25H14.37L11.6,5.55a.74.74,0,0,0-.6-.3H4A1.76,1.76,0,0,0,2.25,7V24A2.75,2.75,0,0,0,5,26.75H27A2.75,2.75,0,0,0,29.75,24V12A2.75,2.75,0,0,0,27,9.25ZM3.75,7A.25.25,0,0,1,4,6.75h6.63l1.87,2.5H3.75ZM20.59,18.64l-6.2,3.76a.78.78,0,0,1-.39.1.81.81,0,0,1-.37-.09.78.78,0,0,1-.38-.66v-7.5a.78.78,0,0,1,.38-.66.76.76,0,0,1,.76,0l6.2,3.76a.75.75,0,0,1,0,1.28Z"/></svg>