<?xml version="1.0" ?><svg id="Solid" viewBox="0 0 32 32" xmlns="http://www.w3.org/2000/svg"><defs><style>.cls-1{fill:#1a1a1a;}</style></defs><title/><path class="cls-1" d="M29.57,11.42a.77.77,0,0,0-.57-.26H26.87l-.13.87a.74.74,0,0,1-.74.63H6A.74.74,0,0,1,5.26,12l-.13-.87H3a.77.77,0,0,0-.57.26.78.78,0,0,0-.17.6L4.67,28.11a.74.74,0,0,0,.74.64H26.59a.74.74,0,0,0,.74-.64L29.74,12A.78.78,0,0,0,29.57,11.42Z"/><path class="cls-1" d="M23.5,7.27H25l.47-3.16a.74.74,0,0,0-.74-.86H7.25a.74.74,0,0,0-.74.86L7,7.27H23.5Z"/><path class="cls-1" d="M25.36,11.16h1.51l.46-3a.78.78,0,0,0-.17-.6.77.77,0,0,0-.57-.26H25l-.13.86a.74.74,0,0,1-.74.64H7.85a.74.74,0,0,1-.74-.64L7,7.27H5.41a.77.77,0,0,0-.57.26.78.78,0,0,0-.17.6l.46,3H25.36Z"/></svg>