<?xml version="1.0" ?><svg id="Solid" viewBox="0 0 32 32" xmlns="http://www.w3.org/2000/svg"><defs><style>.cls-1{fill:#1a1a1a;}</style></defs><title/><path class="cls-1" d="M27,9.25H14.38L11.6,5.55a.74.74,0,0,0-.6-.3H4A1.76,1.76,0,0,0,2.25,7V24A2.75,2.75,0,0,0,5,26.75H27A2.75,2.75,0,0,0,29.75,24V12A2.75,2.75,0,0,0,27,9.25ZM3.75,7A.25.25,0,0,1,4,6.75h6.63l1.87,2.5H3.75Zm17.76,8.28-6.49,6a.74.74,0,0,1-1,0L10.49,18a.76.76,0,0,1,0-1.06.75.75,0,0,1,1.06,0l3,2.79,6-5.53a.75.75,0,0,1,1.06,0A.76.76,0,0,1,21.51,15.28Z"/></svg>