<?xml version="1.0" ?><svg id="Solid" viewBox="0 0 32 32" xmlns="http://www.w3.org/2000/svg"><defs><style>.cls-1{fill:#1a1a1a;}</style></defs><title/><path class="cls-1" d="M29.74,11.61a.58.58,0,0,0,0-.18.19.19,0,0,0,0-.07.83.83,0,0,0-.14-.22L24,5.47a.86.86,0,0,0-.22-.15l-.07,0a.65.65,0,0,0-.19,0H3A.76.76,0,0,0,2.25,6V26a.76.76,0,0,0,.75.75H29a.76.76,0,0,0,.75-.75V11.66A.43.43,0,0,1,29.74,11.61ZM21,16.75H16.75V21a.75.75,0,0,1-1.5,0V16.75H11a.75.75,0,0,1,0-1.5h4.25V11a.75.75,0,0,1,1.5,0v4.25H21a.75.75,0,0,1,0,1.5Zm7.25-4.34h-4.8a.75.75,0,0,1-.75-.75V6.75h.44L24.2,7.84l3,3.07,1,1.06Z"/></svg>