<?xml version="1.0" ?><svg id="Solid" viewBox="0 0 32 32" xmlns="http://www.w3.org/2000/svg"><defs><style>.cls-1{fill:#1a1a1a;}</style></defs><title/><path class="cls-1" d="M26.74,8.5a.65.65,0,0,0,0-.19.64.64,0,0,0,0-.07A.86.86,0,0,0,26.53,8L20.86,2.46a.83.83,0,0,0-.22-.14l-.07,0a.58.58,0,0,0-.18,0H6A.76.76,0,0,0,5.25,3V29a.76.76,0,0,0,.75.75H26a.76.76,0,0,0,.75-.75V8.55S26.74,8.52,26.74,8.5ZM16.75,22a.75.75,0,0,1-1.5,0V14a.75.75,0,0,1,1.5,0Zm.17-10.62a1.15,1.15,0,0,1-.21.33l-.15.12a.76.76,0,0,1-.18.09.64.64,0,0,1-.18.06L16,12a1,1,0,0,1-.71-1.71,1.15,1.15,0,0,1,.33-.21A1,1,0,0,1,16.2,10a.64.64,0,0,1,.18.06.76.76,0,0,1,.18.09l.15.12A1.05,1.05,0,0,1,17,11,.84.84,0,0,1,16.92,11.38ZM25.25,9.3H20.34a.75.75,0,0,1-.75-.75V3.75H20l1.06,1,3.07,3,1.09,1.06Z"/></svg>