<?xml version="1.0" ?><svg id="Solid" viewBox="0 0 32 32" xmlns="http://www.w3.org/2000/svg"><defs><style>.cls-1{fill:#1a1a1a;}</style></defs><title/><path class="cls-1" d="M26.74,8.5a.65.65,0,0,0,0-.19.64.64,0,0,0,0-.07A.86.86,0,0,0,26.53,8L20.86,2.46a.83.83,0,0,0-.22-.14l-.07,0a.58.58,0,0,0-.18,0H6A.76.76,0,0,0,5.25,3V29a.76.76,0,0,0,.75.75H26a.76.76,0,0,0,.75-.75V8.55S26.74,8.52,26.74,8.5ZM17.55,20.8a4.71,4.71,0,0,1-2.79-.92L11,23.69a.75.75,0,0,1-1.06,0,.75.75,0,0,1,0-1.06l3.81-3.81a4.71,4.71,0,0,1-.93-2.8,4.78,4.78,0,1,1,4.78,4.78Zm7.7-11.5H20.34a.75.75,0,0,1-.75-.75V3.75H20l1.06,1,3.07,3,1.09,1.06Zm-7.7,3.45A3.28,3.28,0,1,0,20.83,16,3.28,3.28,0,0,0,17.55,12.75Z"/></svg>