<?xml version="1.0" ?><!DOCTYPE svg  PUBLIC '-//W3C//DTD SVG 1.1//EN'  'http://www.w3.org/Graphics/SVG/1.1/DTD/svg11.dtd'><svg height="512px" style="enable-background:new 0 0 512 512;" version="1.1" viewBox="0 0 512 512" width="512px" xml:space="preserve" xmlns="http://www.w3.org/2000/svg" xmlns:xlink="http://www.w3.org/1999/xlink"><g id="snapchat__x2C__social__x2C__media"><path d="M434.478,16H77.519C43.718,16,16,43.721,16,77.521v356.957   C16,468.278,43.718,496,77.519,496h356.959C468.281,496,496,468.278,496,434.479V77.521C496,43.721,468.281,16,434.478,16z    M415,343.98c0,0.036-0.064,0.036-0.064,0.059c-2.721,3.786-6.688,5.107-9.342,6.246c-0.073,0.007-0.166,0.043-0.238,0.08   c-7.164,2.554-14.708,5.527-23.068,6.5c-0.178,0.015-0.378,0.015-0.548,0.015c-2.496-0.029-4.691,0.588-5.983,1.828   c-2.844,3.25-3.805,8.474-5.567,14.277c-0.088,0.283-0.215,0.522-0.355,0.776c0.475-0.805,0.203-0.348-0.076,0.653   c-0.131,0.5-0.323,1.168-0.994,2.038c-0.679,0.813-2.054,1.676-3.313,1.843c-0.344,0.029-0.667,0.132-1.001,0.103   c-9.598-1.291-19.313-1.398-28.972-1.398c-0.048,0-0.102,0-0.167,0c-5.257,0-9.979,0.173-13.792,1.536   c-0.018,0-0.036-0.028-0.051-0.028c-11.677,5.143-22.342,13.301-34.341,20.113c-0.069,0.028-0.131,0.186-0.232,0.222   c-5.304,3.374-11.376,5.157-17.651,6.157c-0.039,0-0.09,0-0.127,0c-7.327,0-14.832,1-22.464,0c-0.037,0,0.348,0,0.348,0v0.277   c-11-0.326-19-4.984-27-9.736v0.021c0-0.021,0.026,0.153,0,0.153C208.607,388.838,198.53,381,186.872,378c-0.008,0-0.008,0-0.022,0   c-11.104-3-23.204-1.125-35.331,0.979c-0.12,0.036-0.25-0.069-0.392-0.055c-0.287,0.021-2.101,1.094-5.397,0.397   c-1.4-0.283-2.612-1.427-3.008-2.776c-1.498-4.919-2.093-9.625-3.366-13.609c-0.91-2.168-1.32-3.495-1.502-3.814   c-3.921-1.661-8.745-2.304-13.954-3.486c-0.036,0-0.069-0.001-0.087-0.022c-7.248-1.836-15.159-3.629-22.422-7.764   c-0.065-0.059-0.127-0.074-0.188-0.11c-1.149-0.624-2.481-1.465-3.682-2.895c-1.259-1.517-2.264-4.251-1.386-6.798   c0.112-0.326,0.261-0.616,0.45-0.899c2.658-3.976,6.841-4.39,8.611-5.064c0.108-0.043,0.232-0.102,0.352-0.13   c8.619-2.3,17.006-6.051,24.337-11.05C143.854,311.319,155,298.217,163,283.119v-0.021c3-5.659,4.882-11.621,3.697-16.735   c-0.922-4.02-5.134-7.362-9.849-9.362c0,0-0.008,0-0.029,0c-6.798-2-14.607-4.609-21.674-9.324   c-0.076-0.055-0.135-0.056-0.196-0.096c-0.849-0.656-2.213-1.446-3.638-2.693c-1.448-1.227-3.069-3.157-3.566-5.762   c-0.018-0.021,0-0.054-0.018-0.09c-0.037-0.231-0.073-0.505-0.055-0.766c0.159-4.426,3.341-6.985,5.655-8.487   c0.065-0.051,0.119-0.086,0.182-0.141c0.036-0.015,0.09-0.062,0.127-0.08c2.836-2.111,6.555-3.177,10.359-2.317   c0.072,0.018,0.138-0.088,0.199-0.059c3.896,1.074,7.346,2.814,10.578,2.814c0.029,0,0.055,0,0.069,0   c4.723,1,9.492,1.296,13.867,0.512c0.055-0.203-0.042-0.236,0.03-0.573C169.635,221,169,211.631,168,201.921v-0.019   c-1-13.828-1.166-28.751,4.399-42.774c0-0.025,0.048-0.065,0.07-0.091c5.815-13.606,15.107-25.816,26.886-34.994   c15.718-12.312,35.79-17.444,55.19-17.558c4.774-0.064,9.599,0.515,14.463,0.515c0,0,0.019,0,0.036,0   c14.332,1,28.457,6.015,40.337,14.351c16.36,11.521,29.273,28.832,32.959,48.917c0,0.04-0.117,0.124-0.1,0.171   c1.69,11.916,1.76,23.756,0.76,35.24c0,0.015,0,0.032,0,0.04c0,7.574-0.446,15.281-0.203,22.281h-0.04   c0.135,1,0.152,1.945,0.189,2.402c3.25,1.189,7.433,0.927,11.734,0.169c0.084-0.015,0.146-0.081,0.218-0.087   c3.025-0.359,6.294-2.023,10.291-3.246c0.021,0,0.051-0.238,0.08-0.238c0,0,0.007,0,0.018,0c3.7-1,7.984-1,11.645,1h0.018   c2.202,2,5.051,3.517,7.051,6.978c0,0,0,0.007,0,0.021c1,1.684,0.651,3.566,0.264,5.093c-0.138,0.505-0.356,0.947-0.552,1.347   c-0.82,1.646-1.944,2.749-2.848,3.602c-0.012,0.025-0.063,0.044-0.08,0.083c-5.866,5.119-12.964,7.73-19.462,9.958   c-0.033,0-0.062,0.018-0.072,0.036c-5.872,2.147-11.381,4.896-14.388,9.146c-0.019,0.021-0.056,0.059-0.063,0.072   c-1.93,2.554-1.861,6.791-0.548,10.665c0,0.036,0,0.072,0.014,0.108c3.327,8.932,8.354,17.274,14.325,24.986   c10.712,13.799,25.08,25.152,41.676,30.435c0.062,0.021,0.279,0.021,0.327,0.036c2.455,0.893,6.407,1.24,10.407,3.707v-0.015   c0,0.015-0.156,0.036-0.12,0.036c0.108,0.073,0.116,0.095,0.225,0.182l-0.108,0.059c3.221,1.951,4.004,6.289,2.004,9.438V343.98z" style="fill-rule:evenodd;clip-rule:evenodd;fill:#1A1A1A;"/></g><g id="Layer_1"/></svg>