<?xml version="1.0" ?><!DOCTYPE svg  PUBLIC '-//W3C//DTD SVG 1.1//EN'  'http://www.w3.org/Graphics/SVG/1.1/DTD/svg11.dtd'><svg height="512px" style="enable-background:new 0 0 512 512;" version="1.1" viewBox="0 0 512 512" width="512px" xml:space="preserve" xmlns="http://www.w3.org/2000/svg" xmlns:xlink="http://www.w3.org/1999/xlink"><g id="vimeo__x2C__social__x2C__media_x2C__icon_x2C_"><path d="M434.478,16H77.519C43.718,16,16,43.719,16,77.521v356.957   C16,468.282,43.718,496,77.519,496h356.959C468.278,496,496,468.282,496,434.479V77.521C496,43.719,468.278,16,434.478,16z    M414.581,183.301C396.69,284.186,296.656,369.583,266.573,389.084c-30.107,19.473-57.549-7.828-67.488-28.482   c-11.404-23.542-45.564-151.259-54.491-161.828c-8.945-10.598-35.785,10.569-35.785,10.569l-13-17.08   c0,0,54.487-65.048,95.945-73.229c43.961-8.573,43.896,67.538,54.492,109.813c10.211,40.91,17.081,64.264,26.022,64.264   c8.945,0,26.023-22.788,44.723-57.753c18.726-34.984-0.809-65.903-37.424-43.912C294.215,103.617,432.482,82.507,414.581,183.301z" style="fill-rule:evenodd;clip-rule:evenodd;fill:#1A1A1A;"/></g><g id="Layer_1"/></svg>