<?xml version="1.0" ?><!DOCTYPE svg  PUBLIC '-//W3C//DTD SVG 1.1//EN'  'http://www.w3.org/Graphics/SVG/1.1/DTD/svg11.dtd'><svg height="512px" style="enable-background:new 0 0 512 512;" version="1.1" viewBox="0 0 512 512" width="512px" xml:space="preserve" xmlns="http://www.w3.org/2000/svg" xmlns:xlink="http://www.w3.org/1999/xlink"><g id="apple_x2C__mac_x2C__iphone_x2C__apple"><path d="M434.478,16H77.519C43.718,16,16,43.721,16,77.521v356.957   C16,468.278,43.718,496,77.519,496h356.959C468.281,496,496,468.278,496,434.479V77.521C496,43.721,468.281,16,434.478,16z    M272.265,120.046c11.384-13.523,30.562-23.601,46.389-24.235c2.013,18.732-5.401,37.599-16.386,51.144   c-10.98,13.537-29.012,24.107-46.699,22.704C253.207,151.205,262.101,132.085,272.265,120.046z M362.331,376.396   c-13.099,19.537-26.713,38.974-48.15,39.351c-21.072,0.398-27.852-12.696-51.971-12.696c-24.097,0-31.628,12.319-51.578,13.095   c-20.695,0.813-36.449-21.061-49.675-40.519c-22.878-33.626-41.179-90.802-29.506-137.278c2.147-8.492,5.271-16.606,9.555-24.155   c13.767-24.369,38.404-39.782,65.109-40.192c20.328-0.377,39.532,13.947,51.948,13.947c12.442,0,35.738-17.193,60.252-14.69   c10.27,0.446,39.064,4.229,57.586,31.74c-1.026,0.688-16.712,9.997-26.426,28.809c-4.483,8.691-7.697,19.403-7.553,32.229   c0.402,48.47,41.745,64.568,42.23,64.786C383.772,331.944,377.522,353.833,362.331,376.396z" style="fill-rule:evenodd;clip-rule:evenodd;fill:#1A1A1A;"/></g><g id="Layer_1"/></svg>