<?xml version="1.0" ?><!DOCTYPE svg  PUBLIC '-//W3C//DTD SVG 1.1//EN'  'http://www.w3.org/Graphics/SVG/1.1/DTD/svg11.dtd'><svg height="512px" style="enable-background:new 0 0 512 512;" version="1.1" viewBox="0 0 512 512" width="512px" xml:space="preserve" xmlns="http://www.w3.org/2000/svg" xmlns:xlink="http://www.w3.org/1999/xlink"><g id="vk__x2C__logo__x2C__icon__x2C__social__x2C_media_x2C_"><path d="M434.478,16H77.521C43.72,16,16,43.719,16,77.521v356.957   C16,468.282,43.72,496,77.521,496h356.957C468.281,496,496,468.282,496,434.479V77.521C496,43.719,468.281,16,434.478,16z    M365.03,269.393c1.588,15.043,54.295,46.569,50.353,70.822c-1.774,10.868-20.013,8.945-36.191,9.457   c-14.941,0.482-29.553-0.493-36.169-3.145c-10.934-4.375-39.648-42.391-47.208-40.903c-16.799,3.271-10.716,38.443-15.725,40.903   c-7.176,3.519-30.469,2.467-39.302,1.56c-47.333-7.951-74.772-39.67-100.688-80.239c-31.686-49.597-50.429-86.834-42.473-91.261   c8.746-4.857,33.231-3.825,58.206-3.16c7.435,0.224,29.047,54.038,34.598,62.973c22.531,36.048,29.585,9.421,29.9,6.284   c6.107-64.668-9.724-61.751-18.883-62.956c6.905-20.966,55.045-17.301,55.045-17.301s16.105,3.896,22.025,7.864   c2.435,1.652,5.166,6.87,4.713,23.616c-0.643,25.215-3.203,59.608,7.878,59.777c8.547,0.125,22.088-19.979,33.035-40.903   c9.682-18.513,17.137-36.461,20.438-37.758c3.576-1.409,19.04-1.506,34.609-1.597c15.246-0.072,30.615-0.199,34.616,3.16   c8.064,6.805-5.959,28.878-18.892,47.196C384.328,238.843,363.895,258.667,365.03,269.393z" style="fill-rule:evenodd;clip-rule:evenodd;fill:#1A1A1A;"/></g><g id="Layer_1"/></svg>