<?xml version="1.0" ?><!DOCTYPE svg  PUBLIC '-//W3C//DTD SVG 1.1//EN'  'http://www.w3.org/Graphics/SVG/1.1/DTD/svg11.dtd'><svg height="512px" style="enable-background:new 0 0 512 512;" version="1.1" viewBox="0 0 512 512" width="512px" xml:space="preserve" xmlns="http://www.w3.org/2000/svg" xmlns:xlink="http://www.w3.org/1999/xlink"><g id="skype__x2C__social__x2C__media__x2C__icons"><g><path d="M323.314,251.617c-7.153-4.628-15.932-8.557-26.158-11.781    c-10.012-3.178-21.395-6.091-33.746-8.721c-7.998-1.821-14.179-3.286-18.514-4.411c-0.954-0.258-1.854-0.5-2.634-0.715    c-4.121-1.106-8.281-2.706-12.301-4.697c-3.878-1.894-6.946-4.204-9.102-6.823c-2.067-2.452-3.068-5.314-3.068-8.746    c0-5.618,3.127-10.327,9.479-14.459c6.599-4.283,15.529-6.445,26.455-6.445c11.796,0,20.383,1.959,25.537,5.804    c5.277,3.965,9.881,9.576,13.723,16.708c3.282,5.601,6.261,9.489,9.102,12.014c3.068,2.642,7.49,4.005,13.163,4.005    c6.232,0,11.521-2.162,15.7-6.438c4.143-4.273,6.268-9.159,6.268-14.564c0-5.586-1.632-11.361-4.803-17.169    c-3.104-5.745-8.133-11.295-14.847-16.45c-6.682-5.137-15.159-9.322-25.236-12.405c-10.016-3.076-21.979-4.644-35.646-4.644    c-17.078,0-32.14,2.351-44.85,6.994c-12.834,4.639-22.839,11.491-29.651,20.273c-6.902,8.829-10.389,19.109-10.389,30.478    c0,8.122,1.582,15.373,4.629,21.754c1.426,3.011,3.163,5.833,5.267,8.452c6.45,7.955,15.301,14.324,26.241,18.938    c10.701,4.473,24.177,8.448,40.047,11.782c11.662,2.42,21.101,4.748,28.033,6.855c6.642,2.075,12.134,5.039,16.305,8.892    c3.994,3.674,5.898,8.324,5.898,14.271c0,7.541-3.678,13.704-11.307,18.801c-7.777,5.264-18.145,7.911-30.768,7.911    c-9.192,0-16.65-1.327-22.207-3.903c-5.496-2.55-9.806-5.84-12.809-9.765c-3.084-4.049-6.047-9.221-8.761-15.355    c-2.423-5.607-5.444-9.957-8.963-12.898c-3.679-3.062-8.209-4.618-13.451-4.618c-6.42,0-11.778,1.977-15.964,5.854    c-4.223,3.896-6.377,8.695-6.377,14.224c0,8.825,3.308,18.01,9.769,27.22c6.424,9.174,14.919,16.557,25.163,22.016    c14.368,7.516,32.771,11.321,54.738,11.321c18.268,0,34.315-2.775,47.719-8.285c13.56-5.55,23.992-13.353,31.059-23.22    c7.084-9.881,10.704-21.224,10.719-33.586c0-10.371-2.089-19.306-6.225-26.553C336.431,262.322,330.663,256.315,323.314,251.617z" style="fill-rule:evenodd;clip-rule:evenodd;fill:#1A1A1A;"/><path d="M434.478,16H77.519C43.718,16,16,43.718,16,77.519v356.959    C16,468.281,43.718,496,77.519,496h356.959C468.281,496,496,468.281,496,434.478V77.519C496,43.718,468.281,16,434.478,16z     M327.544,416.184c-15.134,0-29.4-3.765-41.879-10.374c-9.08,1.657-18.424,2.518-27.993,2.518    c-84.385,0-152.791-67.428-152.791-150.67c0-4.585,0.229-9.142,0.646-13.628c0.515-5.648,1.31-11.206,2.444-16.65    c-7.712-12.968-12.162-28.051-12.162-44.179c0-48.274,39.655-87.407,88.611-87.407c17.32,0,33.455,4.94,47.146,13.422    c8.478-1.429,17.201-2.188,26.106-2.188c80.511,0,146.426,61.391,152.327,139.283c0.287,3.743,0.476,7.513,0.476,11.347    c0,11.122-1.212,21.902-3.508,32.346c5.888,11.695,9.195,24.849,9.195,38.774C416.162,377.051,376.507,416.169,327.544,416.184z" style="fill-rule:evenodd;clip-rule:evenodd;fill:#1A1A1A;"/></g></g><g id="Layer_1"/></svg>