<?xml version="1.0" ?><!DOCTYPE svg  PUBLIC '-//W3C//DTD SVG 1.1//EN'  'http://www.w3.org/Graphics/SVG/1.1/DTD/svg11.dtd'><svg height="512px" style="enable-background:new 0 0 512 512;" version="1.1" viewBox="0 0 512 512" width="512px" xml:space="preserve" xmlns="http://www.w3.org/2000/svg" xmlns:xlink="http://www.w3.org/1999/xlink"><g id="dropbox__x2C__social__x2C__media__x2C__icons_x2C_"><g><polygon points="160.965,220.723 160.968,220.726 160.965,220.728     255.989,279.383 351.01,220.726 255.989,162.064   " style="fill-rule:evenodd;clip-rule:evenodd;fill:#1A1A1A;"/><path d="M434.478,16H77.519C43.718,16,16,43.719,16,77.521v356.957    C16,468.282,43.718,496,77.519,496h356.959C468.281,496,496,468.282,496,434.479V77.521C496,43.719,468.281,16,434.478,16z     M351,348.297l-94.5,56.61l-94.5-56.61v-20.73l28.159,18.496l66.091-54.854l66.289,54.854L351,327.566V348.297z M416.177,272.883    l-94.252,61.488l-65.936-54.988l-65.954,54.988l-94.23-61.488l65.16-52.155l-0.004-0.002l0.004-0.002l-65.16-52.184l94.23-61.465    l65.954,54.99l65.936-54.99l94.252,61.465l-65.167,52.187L416.177,272.883z" style="fill-rule:evenodd;clip-rule:evenodd;fill:#1A1A1A;"/></g></g><g id="Layer_1"/></svg>