<?xml version="1.0" ?><!DOCTYPE svg  PUBLIC '-//W3C//DTD SVG 1.1//EN'  'http://www.w3.org/Graphics/SVG/1.1/DTD/svg11.dtd'><svg height="512px" style="enable-background:new 0 0 512 512;" version="1.1" viewBox="0 0 512 512" width="512px" xml:space="preserve" xmlns="http://www.w3.org/2000/svg" xmlns:xlink="http://www.w3.org/1999/xlink"><g id="evernote__x2C__social__x2C__media__x2C_"><g><path d="M330.671,228.507c-16.843-1.403-23.027,13.084-19.251,19.298    c9.279-2.408,26.553-1.501,32.73,1.938C344.854,247.667,347.19,229.882,330.671,228.507z" style="fill-rule:evenodd;clip-rule:evenodd;fill:#1A1A1A;"/><path d="M434.478,16H77.521C43.72,16,16,43.722,16,77.522v356.955    C16,468.281,43.72,496,77.521,496h356.957C468.281,496,496,468.281,496,434.478V77.522C496,43.722,468.281,16,434.478,16z     M182.352,108.754c3.305,1.267,4.318,47.161,0,50.215c-4.329,3.062-50.091,0.755-50.091,0    C132.261,158.196,179.046,107.47,182.352,108.754z M346.084,413.895c-5.841,3.313-60.724,5.046-78.97-9.646    c-15.253-12.285-16.081-46.253-9.455-56.029C272.396,326.484,296,331.258,306,330.852c0,3.907,0,23.169,0,23.169    s-9.155-0.366-15.591,0c-7.033,0.413-9.476,23.187,5.694,23.187c15.15,0,27.507,3.565,34.613-1.915    c10.65-8.234,6.067-47.527-5.787-54.082c-10.37-5.746-34.813-8.604-53.966-15.464c-6.692-2.391-9.463-17.259-11.556-17.372    c-2.039-0.108-2.84,26.245-13.489,32.836c-10.642,6.555-91.564-8.829-100.168-23.176c-5.396-9.047-24.872-102.349-21.19-115.9    c1.266-4.65,6.015-15.344,19.261-15.453c22.366-0.142,42.128,3.954,46.226-3.849c4.425-8.416,3.87-27.652,3.87-50.207    c0-22.179,83.4-25.135,86.669,7.712c18.445,1.222,25.689,1.527,67.438,3.87c41.896,2.336,36.59,48.277,36.59,48.277    S404.515,380.856,346.084,413.895z" style="fill-rule:evenodd;clip-rule:evenodd;fill:#1A1A1A;"/></g></g><g id="Layer_1"/></svg>