<?xml version="1.0" ?><!DOCTYPE svg  PUBLIC '-//W3C//DTD SVG 1.1//EN'  'http://www.w3.org/Graphics/SVG/1.1/DTD/svg11.dtd'><svg height="512px" style="enable-background:new 0 0 512 512;" version="1.1" viewBox="0 0 512 512" width="512px" xml:space="preserve" xmlns="http://www.w3.org/2000/svg" xmlns:xlink="http://www.w3.org/1999/xlink"><g id="viber_x2C__social__x2C__media_x2C__logo"><path d="M434.478,16H77.521C43.72,16,16,43.721,16,77.521v356.957   C16,468.278,43.72,496,77.521,496h356.957C468.281,496,496,468.278,496,434.479V77.521C496,43.721,468.281,16,434.478,16z    M253.14,116.367c0.689-11.745,11.751-7.382,17.091-8.129c70.822,2.332,131.821,65.918,130.962,134.495   c-0.029,1.592,0.102,3.352,0.166,5.136c0.196,5.731-0.21,11.499-8.017,11.354c-9.014-0.163-7.556-8.75-7.958-15.373   c-0.037-0.569-0.069-1.117-0.131-1.662c-9.388-72.817-43.402-107.184-117.142-118.305   C261.981,122.962,252.701,124.271,253.14,116.367z M364.66,239.389c-0.396,2.901-1.72,5.321-5.822,5.912   c-7.944,1.194-9.155-3.515-9.569-8.665c-0.185-2.119-0.232-4.288-0.552-6.171c-7.486-44.283-23.35-60.538-68.896-70.499   c-6.722-1.495-17.144-0.457-15.398-10.581c1.657-9.653,11.017-6.366,18.119-5.532c45.491,5.365,82.647,44.059,82.285,86.562   C364.475,232.965,365.066,236.429,364.66,239.389z M326.761,233.359c-0.951,0.649-2.159,1.132-3.711,1.31   c-2.576,0.298-4.676-0.707-6.152-2.43c-1.356-1.542-2.206-3.643-2.445-5.982c-1.85-18.264-11.691-29.06-30.372-32.001   c-5.604-0.871-11.086-2.662-8.492-10.052c1.745-4.977,6.396-5.459,11.129-5.575c20.19-0.508,43.853,23.187,43.515,43.739   C330.396,226.692,330.021,231.172,326.761,233.359z M402.019,360.979c-7.763,21.504-34.671,43.182-57.629,42.956   c-3.235-0.855-9.631-1.828-15.381-4.244c-82.074-34.656-145.896-87.341-189.252-159.762c-9.912-16.556-18.747-34.159-26.497-52.79   c-13.958-33.583,0.605-61.96,35.787-73.568c6.328-2.063,12.515-2.213,18.729,0.033c15.006,5.397,52.996,56.668,53.844,72.022   c0.664,11.764-7.5,18.138-15.593,23.521c-9.876,6.573-13.382,14.296-12.883,22.795c0.254,4.657,1.725,9.587,4.032,14.698   c14.762,32.54,39.988,54.893,72.641,69.409c11.844,5.274,23.169,4.774,31.266-7.247c14.419-21.395,32.077-20.372,51.386-7.066   c9.692,6.646,19.523,13.182,28.729,20.437C393.708,332.054,409.527,340.266,402.019,360.979z" style="fill-rule:evenodd;clip-rule:evenodd;fill:#1A1A1A;"/></g><g id="Layer_1"/></svg>