<?xml version="1.0" ?><!DOCTYPE svg  PUBLIC '-//W3C//DTD SVG 1.1//EN'  'http://www.w3.org/Graphics/SVG/1.1/DTD/svg11.dtd'><svg height="512px" style="enable-background:new 0 0 512 512;" version="1.1" viewBox="0 0 512 512" width="512px" xml:space="preserve" xmlns="http://www.w3.org/2000/svg" xmlns:xlink="http://www.w3.org/1999/xlink"><g id="flicker_x2C__social__x2C_media_x2C__icon"><g><path d="M161.357,232.924c-19.226,2.877-37.874,6.7-55.896,11.336    C123.483,239.646,142.132,235.801,161.357,232.924z" style="fill-rule:evenodd;clip-rule:evenodd;fill:#1A1A1A;"/><path d="M434.473,16H77.514C43.713,16,16,43.712,16,77.517v356.955    C16,468.275,43.713,496,77.514,496h356.959C468.276,496,496,468.275,496,434.472V77.517C496,43.712,468.276,16,434.473,16z     M166.882,326.069c-39.249,0-71.072-31.359-71.072-70.064c0-3.188,0.232-6.34,0.664-9.42c4.65-34.232,34.384-60.666,70.408-60.666    c28.624,0,53.291,16.741,64.543,40.802c4.165,8.917,6.493,18.834,6.493,29.284C237.918,294.71,206.12,326.069,166.882,326.069z     M345.142,326.069c-39.241,0-71.047-31.359-71.047-70.064c0-10.236,2.249-19.947,6.239-28.726    c11.11-24.361,35.938-41.36,64.808-41.36c37.319,0,67.913,28.41,70.786,64.529c0.142,1.832,0.254,3.686,0.254,5.557    C416.182,294.71,384.373,326.069,345.142,326.069z" style="fill-rule:evenodd;clip-rule:evenodd;fill:#1A1A1A;"/></g></g><g id="Layer_1"/></svg>