<?xml version="1.0" ?><!DOCTYPE svg  PUBLIC '-//W3C//DTD SVG 1.1//EN'  'http://www.w3.org/Graphics/SVG/1.1/DTD/svg11.dtd'><svg height="512px" style="enable-background:new 0 0 512 512;" version="1.1" viewBox="0 0 512 512" width="512px" xml:space="preserve" xmlns="http://www.w3.org/2000/svg" xmlns:xlink="http://www.w3.org/1999/xlink"><g id="google__x2C__plus__x2C__icon__x2C__social__x2C__media"><path d="M434.478,16H77.519C43.718,16,16,43.719,16,77.521v356.957   C16,468.282,43.718,496,77.519,496h356.959C468.281,496,496,468.282,496,434.479V77.521C496,43.719,468.281,16,434.478,16z    M268.957,329.682c-15.917,16.954-36.245,25.163-59.025,27.706c-46.66,5.097-90.335-21.354-107.235-64.79   c-6.982-17.901-8.43-36.456-5.379-53.937c7.168-40.892,39.114-75.886,83.572-83.161c30.91-5.063,58.504,2.398,82.528,22.691   c0.874,0.736,1.835,1.409,2.503,1.932c-10.251,10.354-19.867,20.031-29.752,30.02c-7.284-6.341-15.707-11.128-25.574-13.271   c-27.558-6.018-55.412,9.004-66.665,33.761c-1.926,4.301-3.453,8.871-4.31,13.693c-6.043,34.114,15.142,65.688,49.192,71.26   c27.398,4.49,52.968-7.601,61.325-32.349c0.624-1.857,1.081-4.236,1.8-6.236c-18.362,0-36.115,0-54.452,0   c0-14-0.072-26.502,0.16-39.29c0-0.853,2.165-2.38,3.369-2.415c6.338-0.252,12.704-0.184,19.056-0.184   c22.214,0,44.446,0.14,66.676-0.157c5.082-0.071,7.316,0.96,7.944,6.51C298.419,274.509,292.394,304.713,268.957,329.682z    M416,244.289c0,6.527,0,12.711,0,19.711c-11,0-23,0-35,0c0,12,0,24,0,35c-9,0-17,0-26,0c0-11,0-22.635,0-34.91   c-6,0-10.969,0.08-16.223-0.019c-6.303-0.127-12.532-0.409-18.818-0.649c-0.279-6.435-0.551-12.805-0.823-19.241   c-0.076-1.788,0.025-3.181,0.025-6.181c12.312,0,23.839,0,35.839,0c0-2,0-4.027,0-5.984c0-9.843,0-19.539,0-29.75   c8,0,15.948-0.107,23.732,0.199c0.856,0.017,2.219,2.548,2.259,3.932c0.214,8.512,0.009,17.025,0.009,25.556   c0,1.437,0,2.892,0,4.65c0,0.423,0,0.397,0,1.397c2,0,4.536,0,6.774,0c9.58,0,19.226,0,28.226,0C416,240,416,242.18,416,244.289z" style="fill-rule:evenodd;clip-rule:evenodd;fill:#1A1A1A;"/></g><g id="Layer_1"/></svg>