<?xml version="1.0" ?><!DOCTYPE svg  PUBLIC '-//W3C//DTD SVG 1.1//EN'  'http://www.w3.org/Graphics/SVG/1.1/DTD/svg11.dtd'><svg height="512px" style="enable-background:new 0 0 512 512;" version="1.1" viewBox="0 0 512 512" width="512px" xml:space="preserve" xmlns="http://www.w3.org/2000/svg" xmlns:xlink="http://www.w3.org/1999/xlink"><g id="behance__x2C__social__x2C__media"><g><path d="M205.918,215.982c0-11.053-9.094-19.982-20.176-19.982H136v40    h49.743C196.824,236,205.918,227.049,205.918,215.982z" style="fill-rule:evenodd;clip-rule:evenodd;fill:#1A1A1A;"/><path d="M185.743,266H136v50h59.972    c11.071,0,19.86-12.942,19.86-24.021C215.832,270.719,196.824,266,185.743,266z" style="fill-rule:evenodd;clip-rule:evenodd;fill:#1A1A1A;"/><path d="M434.479,16H77.521C43.717,16,16,43.718,16,77.522v356.955    C16,468.281,43.717,496,77.521,496h356.957C468.286,496,496,468.281,496,434.478V77.522C496,43.718,468.286,16,434.479,16z     M296,166h90v30h-90V166z M195.972,356H96V156h99.972c27.521,0,49.936,22.331,49.936,50.146c0,17.872-9.646,33.703-23.832,42.496    c19.573,6.805,34.058,25.445,34.058,47.293C256.133,329.107,228.88,356,195.972,356z M416,286H306.081    c1.407,22,16.164,40.031,35.179,40.031c18.718,0,29.23-12.031,32.916-30.031h40.576c-6.805,34-28.374,60.123-73.492,60.123    c-45.4,0-75.204-33.466-75.204-75.167c0-41.426,29.717-74.871,75.117-74.871c45.118,0,74.827,33.446,74.827,74.864    C416,282.64,416,284,416,286z" style="fill-rule:evenodd;clip-rule:evenodd;fill:#1A1A1A;"/><path d="M341.26,236.207c-17.593,0-30.927,11.793-33.213,29.793    h66.129C371.332,248,358.563,236.207,341.26,236.207z" style="fill-rule:evenodd;clip-rule:evenodd;fill:#1A1A1A;"/></g></g><g id="Layer_1"/></svg>