<?xml version="1.0" ?><!DOCTYPE svg  PUBLIC '-//W3C//DTD SVG 1.1//EN'  'http://www.w3.org/Graphics/SVG/1.1/DTD/svg11.dtd'><svg height="512px" style="enable-background:new 0 0 512 512;" version="1.1" viewBox="0 0 512 512" width="512px" xml:space="preserve" xmlns="http://www.w3.org/2000/svg" xmlns:xlink="http://www.w3.org/1999/xlink"><g id="last.fm__x2C__logo__x2C__social_x2C__media_x2C_"><path d="M434.478,16H77.519C43.718,16,16,43.722,16,77.522v356.955   C16,468.281,43.718,496,77.519,496h356.959C468.278,496,496,468.281,496,434.478V77.522C496,43.722,468.278,16,434.478,16z    M354.797,239.955c25.78,7.705,61.064,18.231,61.064,55.515c0,24.503-17.15,40.221-45.895,47.824   c-8.706,2.311-18.282,3.468-28.069,3.468c-32.113,0-66.578-8.941-81.385-33.728c-7.012-11.735-12.398-25.817-18.072-40.729   c-16.592-43.442-29.923-71.976-62.715-71.976c-33.71,0-48.104,18.975-48.104,63.415c0,0.537,2.002,50.639,47.008,50.639   c27.547,0,42.137-19.436,42.532-19.987l15.627,30.58c-1.904,3.119-10.233,20.629-58.159,20.629   c-57.129,0-82.821-46.435-82.821-81.86c0-85.594,52.598-98.373,83.917-98.373c60.132,0,81.033,54.721,96.287,94.702   c5.129,13.479,9.968,26.165,15.427,35.339c9.33,15.612,43.595,24.274,69.197,17.542c12.885-3.396,19.425-9.301,19.425-17.484   c0-9.667-9.373-14.176-35.737-22.055c-25.059-7.494-58.46-17.753-58.46-53.403c0-26.495,20.22-49.341,51.782-53.991   c30.826-4.57,67.782,10.479,78.53,44.454l-34.218,10.354c-5.34-16.89-26.252-22.109-38.966-20.238   c-2.278,0.37-22.269,5.579-22.269,19.422C320.725,228.312,329.67,232.457,354.797,239.955z" style="fill-rule:evenodd;clip-rule:evenodd;fill:#1A1A1A;"/></g><g id="Layer_1"/></svg>