<?xml version="1.0" ?><!DOCTYPE svg  PUBLIC '-//W3C//DTD SVG 1.1//EN'  'http://www.w3.org/Graphics/SVG/1.1/DTD/svg11.dtd'><svg height="512px" style="enable-background:new 0 0 512 512;" version="1.1" viewBox="0 0 512 512" width="512px" xml:space="preserve" xmlns="http://www.w3.org/2000/svg" xmlns:xlink="http://www.w3.org/1999/xlink"><g id="hike_x2C__social__x2C__media"><path d="M496,77.521C496,43.544,468.456,16,434.479,16H77.521   C43.544,16,16,43.544,16,77.521v356.957C16,468.456,43.544,496,77.521,496h356.957C468.456,496,496,468.456,496,434.479V77.521z    M399,344.808c0,40.068-39.826,57.313-75.43,57.313c-35.602,0-75.54-19.385-75.54-51.59c0-32.16-1.356-41.28-1.356-73.027   c0-47.445-76.253-41.38-77.055,2.865c-0.449,25.32,0.013,68.037,0.013,97.397c0,29.331-58.497,27.162-58.497,1.443   c0-25.732,1.61-263.575,1.61-263.575S158,90.747,170,144.284c0,26.03,0,45.438,0,85.945c5-35.437,115.233-73.395,133.983,35.805   c-0.388,38.132-0.246,61.361-0.246,87.378c0,26.037,38.263,21.691,38.263,1.437c0-20.249,0-96.321,0-134.656   c0-17.216,10.484-22.24,24.225-22.911C380.979,196.556,399,201.938,399,215.9C399,246.255,399,304.761,399,344.808z    M370.866,170.068c-31.254,0.787-32.824-28.657-32.824-28.657s-3.272-30.304,29.974-31.522c33.228-1.189,32.81,30.075,32.81,30.075   S402.099,169.263,370.866,170.068z" style="fill-rule:evenodd;clip-rule:evenodd;fill:#1A1A1A;"/></g><g id="Layer_1"/></svg>