<?xml version="1.0" ?><!DOCTYPE svg  PUBLIC '-//W3C//DTD SVG 1.1//EN'  'http://www.w3.org/Graphics/SVG/1.1/DTD/svg11.dtd'><svg height="512px" style="enable-background:new 0 0 512 512;" version="1.1" viewBox="0 0 512 512" width="512px" xml:space="preserve" xmlns="http://www.w3.org/2000/svg" xmlns:xlink="http://www.w3.org/1999/xlink"><g id="stumbleupon__x2C__icon_x2C__media__x2C__social"><path d="M434.478,16H77.519C43.718,16,16,43.719,16,77.521v356.957   C16,468.282,43.718,496,77.519,496h356.959C468.278,496,496,468.282,496,434.479V77.521C496,43.719,468.278,16,434.478,16z    M256.006,188.978c-9.294,0-17.006,7.534-17.006,16.775v100.411c0,39.475-31.98,71.552-71.498,71.552   c-39.51,0-71.502-32.096-71.502-71.552V264h55v42.164c0,9.286,7.219,16.828,16.505,16.828c9.271,0,16.495-7.542,16.495-16.828   V205.753c0-39.431,32.457-71.504,71.981-71.504S328,166.341,328,205.753v19.144l-33.064,10.559L273,224.896v-19.144   C273,196.512,265.292,188.978,256.006,188.978z M344.581,377.639c-39.524,0-71.581-32.019-71.581-71.456v-42.891l21.936,10.563   L328,263.292v42.891c0,9.268,7.209,16.81,16.51,16.81c9.287,0,16.49-7.542,16.49-16.81V264h55v42h0.177   C416.177,346,384.113,377.639,344.581,377.639z" style="fill-rule:evenodd;clip-rule:evenodd;fill:#1A1A1A;"/></g><g id="Layer_1"/></svg>