<?xml version="1.0" ?><!DOCTYPE svg  PUBLIC '-//W3C//DTD SVG 1.1//EN'  'http://www.w3.org/Graphics/SVG/1.1/DTD/svg11.dtd'><svg height="512px" style="enable-background:new 0 0 512 512;" version="1.1" viewBox="0 0 512 512" width="512px" xml:space="preserve" xmlns="http://www.w3.org/2000/svg" xmlns:xlink="http://www.w3.org/1999/xlink"><g id="chatapp__x2C__logo__x2C_social__x2C_media"><g><path d="M255.989,158.465c-62.928,0-113.933,35.792-113.933,79.923    c0,35.666,33.304,65.831,79.269,76.141c-2.719,9.932-10.035,33.173-20.209,39.002c0,0,56.043-1.566,84.556-38.052    c48.507-9.163,84.266-40.159,84.266-77.091C369.938,194.257,318.914,158.465,255.989,158.465z" style="fill-rule:evenodd;clip-rule:evenodd;fill:#1A1A1A;"/><path d="M434.478,16H77.521C43.72,16,16,43.718,16,77.519v356.959    C16,468.281,43.72,496,77.521,496h356.957C468.281,496,496,468.281,496,434.478V77.519C496,43.718,468.281,16,434.478,16z     M307.252,352.358c-39.841,38.931-97.946,41.741-104.983,41.944c-0.376,0.015-0.77,0.015-1.148,0.015    c-18.228,0-34.292-12.108-39.262-29.737c-2.751-9.755-1.699-19.85,2.401-28.509c-38.993-22.08-62.986-57.785-62.986-97.69    c0-67.674,67.956-120.707,154.708-120.707c86.775,0,154.743,53.033,154.743,120.707    C410.725,290.442,368.846,335.807,307.252,352.358z" style="fill-rule:evenodd;clip-rule:evenodd;fill:#1A1A1A;"/></g></g><g id="Layer_1"/></svg>