<?xml version="1.0" ?><!DOCTYPE svg  PUBLIC '-//W3C//DTD SVG 1.1//EN'  'http://www.w3.org/Graphics/SVG/1.1/DTD/svg11.dtd'><svg height="512px" style="enable-background:new 0 0 512 512;" version="1.1" viewBox="0 0 512 512" width="512px" xml:space="preserve" xmlns="http://www.w3.org/2000/svg" xmlns:xlink="http://www.w3.org/1999/xlink"><g id="whatsapp__x2C__logo__x2C__social__x2C_media__x2C__icons_x2C_"><g><path d="M258.905,120.652c-68.588,0-125.121,52.068-131.604,118.473    c-0.392,4.182-0.616,8.43-0.616,12.743c0,28.692,9.344,55.274,25.167,76.912l-16.523,48.717l50.813-16.153    c20.887,13.712,45.895,21.703,72.756,21.703c72.9,0,132.234-58.852,132.234-131.197c0-3.457-0.178-6.881-0.446-10.255    C385.387,174.045,328.331,120.652,258.905,120.652z M336.068,305.985c-3.229,8.935-18.964,17.564-26.023,18.192    c-7.056,0.646-7.056,5.749-46.282-9.569c-39.166-15.315-63.923-55.206-65.827-57.757c-1.473-1.926-9.878-13.022-13.756-26.527    c-1.215-4.175-1.995-8.586-1.995-13.026c0-18.822,9.965-28.065,13.506-31.878c3.519-3.834,7.693-4.817,10.272-4.817    c2.568,0,5.137,0.316,7.382,0.316c2.26,0,5.459-1.273,8.673,6.388c3.207,7.657,10.938,26.477,11.892,28.402    c0.968,1.908,1.617,4.146,0.322,6.711c-0.918,1.788-1.513,3.127-2.463,4.534c-0.392,0.588-0.834,1.19-1.393,1.832    c-1.927,2.231-4.049,4.984-5.79,6.693c-1.922,1.922-3.95,3.982-1.69,7.795c2.231,3.853,9.986,16.359,21.435,26.498    c14.734,13.026,27.159,17.086,31.004,18.99c3.859,1.926,6.104,1.581,8.351-0.961c2.245-2.562,9.646-11.158,12.213-14.996    c2.565-3.827,5.134-3.178,8.674-1.908c3.537,1.263,22.501,10.52,26.343,12.442c3.863,1.9,6.431,2.861,7.403,4.462    C339.264,289.372,339.264,297.048,336.068,305.985z" style="fill-rule:evenodd;clip-rule:evenodd;fill:#1A1A1A;"/><path d="M434.478,16H77.519C43.718,16,16,43.718,16,77.519v356.959    C16,468.281,43.718,496,77.519,496h356.959C468.281,496,496,468.281,496,434.478V77.519C496,43.718,468.281,16,434.478,16z     M258.905,407.921c-27.564,0-53.482-7.052-76.021-19.422l-87.073,27.678l28.363-83.747    c-14.311-23.517-22.552-51.085-22.552-80.562c0-2.314,0.069-4.593,0.174-6.882c3.632-83.007,72.567-149.183,157.108-149.183    c85.514,0,155.033,67.75,157.174,152.085c0.018,1.327,0.091,2.63,0.091,3.979C416.17,338.063,345.769,407.921,258.905,407.921z" style="fill-rule:evenodd;clip-rule:evenodd;fill:#1A1A1A;"/></g></g><g id="Layer_1"/></svg>