<?xml version="1.0" ?><svg data-name="Layer 1" id="Layer_1" viewBox="0 0 32 32" xmlns="http://www.w3.org/2000/svg"><title/><path d="M27.37,2H14.05A8.09,8.09,0,0,1,8.73,16.19a2.17,2.17,0,0,1-.36,0V28a2,2,0,0,0,2,2h17a2,2,0,0,0,2-2V4A2,2,0,0,0,27.37,2Z"/><path d="M8.73,14.19a6.1,6.1,0,0,0,1-12.1h0a6,6,0,0,0-1-.09,6.09,6.09,0,0,0-.36,12.17A2.17,2.17,0,0,0,8.73,14.19Zm-2-3.09A1,1,0,0,1,6,10.8,1,1,0,0,1,6,9.39L7.31,8.1,6,6.8A1,1,0,0,1,7.43,5.39l1.3,1.29.57-.57L10,5.39A1,1,0,0,1,11.43,6.8L10.14,8.1l1.29,1.29a1,1,0,0,1,0,1.41,1,1,0,0,1-1.41,0L8.89,9.67l-.16-.16L7.43,10.8A1,1,0,0,1,6.73,11.1Z"/></svg>