<?xml version="1.0" ?><svg data-name="Layer 1" id="Layer_1" viewBox="0 0 32 32" xmlns="http://www.w3.org/2000/svg"><title/><path d="M17.29,4.47H4a2,2,0,0,0-2,2V25.53a2,2,0,0,0,2,2H17.29a2,2,0,0,0,2-2V6.47A2,2,0,0,0,17.29,4.47Zm-1.5,16.65H5.5a1,1,0,0,1,0-2H15.79a1,1,0,0,1,0,2Zm0-4.12H5.5a1,1,0,0,1,0-2H15.79a.89.89,0,0,1,.48.13,1,1,0,0,1,.52.87A1,1,0,0,1,15.79,17Zm0-4.12H5.5a1,1,0,0,1,0-2H15.79a1,1,0,0,1,0,2Z"/><path d="M28.35,10.24H21.29V25.53a4.06,4.06,0,0,1-.53,2h7.59A1.65,1.65,0,0,0,30,25.88v-14A1.65,1.65,0,0,0,28.35,10.24Z"/></svg>