<?xml version="1.0" ?><svg data-name="Layer 1" id="Layer_1" viewBox="0 0 32 32" xmlns="http://www.w3.org/2000/svg"><title/><path d="M26.5,3.9H14.92a4.27,4.27,0,0,1,.1.93v6.5h9.39a1,1,0,0,1,1,1,1,1,0,0,1-1,1H14.94c0,.15,0,.29-.08.43A6.62,6.62,0,0,1,13.91,16h10.5a1,1,0,0,1,1,1,1,1,0,0,1-1,1H12.76a1,1,0,0,1-.56-.17A6.57,6.57,0,0,1,9,19H8.79v9.17A1.87,1.87,0,0,0,10.66,30H26.5a1.87,1.87,0,0,0,1.87-1.86V5.77A1.87,1.87,0,0,0,26.5,3.9ZM24.41,22.58H12.76a1,1,0,0,1,0-1.94H24.41a1,1,0,0,1,0,1.94Z"/><path d="M12.91,13.26a4.44,4.44,0,0,0,.11-1V4.83a2.83,2.83,0,0,0-5.66,0v8.39a1,1,0,0,0,1.93,0V4.83a.9.9,0,0,1,1.8,0v7.46a2.77,2.77,0,0,1-2,2.67,2.86,2.86,0,0,1-.73.09,2.77,2.77,0,0,1-2.76-2.76V4.83a1,1,0,1,0-1.93,0v7.46A4.7,4.7,0,0,0,8.32,17h.47A4.71,4.71,0,0,0,12.91,13.26Z"/></svg>