<?xml version="1.0" ?><svg data-name="Layer 1" id="Layer_1" viewBox="0 0 32 32" xmlns="http://www.w3.org/2000/svg"><title/><path d="M27.37,2H14.05A8.09,8.09,0,0,1,8.73,16.19a2.17,2.17,0,0,1-.36,0V28a2,2,0,0,0,2,2h17a2,2,0,0,0,2-2V4A2,2,0,0,0,27.37,2Z"/><path d="M8.73,14.19a6.1,6.1,0,0,0,1-12.1h0a6,6,0,0,0-1-.09,6.09,6.09,0,0,0-.36,12.17A2.17,2.17,0,0,0,8.73,14.19ZM7.19,10.47,5.52,8.8a1,1,0,0,1,0-1.42,1,1,0,0,1,1.41,0l1,1,1.3-1.3,1.32-1.33a1,1,0,0,1,1.41,0,1,1,0,0,1,0,1.42L8.82,10.25l-.22.22a1,1,0,0,1-1.41,0Z"/></svg>