<?xml version="1.0" ?><svg data-name="Layer 1" id="Layer_1" viewBox="0 0 32 32" xmlns="http://www.w3.org/2000/svg"><title/><path d="M26.5,3.9H14.92a4.27,4.27,0,0,1,.1.93v7.46A6.68,6.68,0,0,1,9,19H8.79v9.17A1.87,1.87,0,0,0,10.66,30H26.5a1.87,1.87,0,0,0,1.87-1.86V5.77A1.87,1.87,0,0,0,26.5,3.9ZM25.1,14.18H22.51l-4.32,5.6a1,1,0,0,1-.94.35L14,19.5l-1.18,1.72a1,1,0,0,1-.8.42.91.91,0,0,1-.54-.17,1,1,0,0,1-.25-1.34l1.53-2.24a.94.94,0,0,1,1-.39l3.25.62,4.25-5.49a1,1,0,0,1,.76-.38H25.1a1,1,0,1,1,0,1.93Z"/><path d="M13,12.29V4.83a2.83,2.83,0,0,0-5.66,0v8.39a1,1,0,0,0,1.93,0V4.83a.9.9,0,0,1,1.8,0v7.46a2.77,2.77,0,0,1-2,2.67,2.86,2.86,0,0,1-.73.09,2.77,2.77,0,0,1-2.76-2.76V4.83a1,1,0,1,0-1.93,0v7.46A4.7,4.7,0,0,0,8.32,17h.47A4.72,4.72,0,0,0,13,12.29Z"/></svg>