<?xml version="1.0" ?><svg id="Layer_2" style="enable-background:new 0 0 1000 1000;" version="1.1" viewBox="0 0 1000 1000" xml:space="preserve" xmlns="http://www.w3.org/2000/svg" xmlns:xlink="http://www.w3.org/1999/xlink"><path d="M152.231,245.86v72.8h695.537v-72.8c0-16.5-13.5-30-30-30H182.231  C165.731,215.86,152.231,229.36,152.231,245.86z M755.249,267.26c0-6.875,5.625-12.5,12.5-12.5h28c6.875,0,12.5,5.625,12.5,12.5  s-5.625,12.5-12.5,12.5h-28C760.874,279.76,755.249,274.135,755.249,267.26z M671.749,267.26c0-6.875,5.625-12.5,12.5-12.5h28  c6.875,0,12.5,5.625,12.5,12.5s-5.625,12.5-12.5,12.5h-28C677.374,279.76,671.749,274.135,671.749,267.26z M588.249,267.26  c0-6.875,5.625-12.5,12.5-12.5h28c6.875,0,12.5,5.625,12.5,12.5s-5.625,12.5-12.5,12.5h-28  C593.874,279.76,588.249,274.135,588.249,267.26z" style="fill:#231F20;"/><g><path d="M468.869,472.62c-43.953,24.152-75.699,55.52-92.201,91.075   c16.456,35.31,49.188,67.563,92.872,91.455c10.096,1.008,20.397,1.536,30.84,1.536c9.411,0,18.706-0.428,27.84-1.249   c43.947-23.926,76.864-56.279,93.397-91.737c-16.441-35.265-49.12-67.491-92.727-91.375c-9.349-0.862-18.87-1.307-28.511-1.307   C489.707,471.017,479.18,471.567,468.869,472.62z M564.232,563.851c0,35.264-28.587,63.851-63.851,63.851   s-63.851-28.587-63.851-63.851c0-35.264,28.587-63.851,63.851-63.851S564.232,528.587,564.232,563.851z" style="fill:#231F20;"/><path d="M351.478,568.547l-2.039-4.847l2.039-4.847c11.186-26.587,29.478-51.066,53.93-72.509   c-46.617,16.001-83.182,43.492-99.656,77.508c16.541,34.153,53.333,61.73,100.22,77.703   C381.235,619.993,362.75,595.344,351.478,568.547z" style="fill:#231F20;"/><path d="M516.325,568.449c10.779,0,19.518-8.739,19.518-19.518c0-10.78-8.738-19.518-19.518-19.518   c-10.78,0-19.518,8.739-19.518,19.518C496.806,559.71,505.545,568.449,516.325,568.449z" style="fill:#231F20;"/><path d="M152.231,343.66v410.48c0,16.5,13.5,30,30,30h635.537c16.5,0,30-13.5,30-30V343.66H152.231z    M787.455,594.929c-12.715,0-23.64-7.64-28.453-18.577h-42.307c-14.811,29.331-42.48,55.417-78.825,74.077   c-36.499,18.741-79.482,29.378-124.989,31.025v13.376c0,21.949-17.857,39.806-39.806,39.806H312.766   c-5.015,10.428-15.678,17.626-28.022,17.626c-17.164,0-31.077-13.914-31.077-31.077c0-17.163,13.914-31.077,31.077-31.077   c13.081,0,24.266,8.086,28.851,19.528h159.48c8.164,0,14.806-6.642,14.806-14.806v-13.376   c-45.507-1.647-88.49-12.284-124.989-31.025c-36.344-18.661-64.013-44.746-78.824-74.077H241.76   c-4.812,10.937-15.737,18.577-28.452,18.577c-17.164,0-31.077-13.914-31.077-31.077c0-17.163,13.914-31.077,31.077-31.077   c12.715,0,23.641,7.64,28.453,18.577h42.307c14.811-29.332,42.48-55.417,78.824-74.078c36.499-18.741,79.482-29.377,124.989-31.025   v-13.376c0-21.949,17.857-39.806,39.806-39.806h174.384c4.585-11.443,15.77-19.529,28.851-19.529   c17.163,0,31.077,13.914,31.077,31.077c0,17.163-13.914,31.077-31.077,31.077c-12.345,0-23.008-7.198-28.023-17.626H527.688   c-8.164,0-14.806,6.642-14.806,14.806v13.376c45.506,1.648,88.49,12.284,124.989,31.025c36.344,18.661,64.013,44.746,78.825,74.078   h42.307c4.812-10.937,15.737-18.577,28.453-18.577c17.163,0,31.077,13.914,31.077,31.077   C818.532,581.015,804.618,594.929,787.455,594.929z" style="fill:#231F20;"/><path d="M591.361,485.007c25.222,21.761,44.033,46.704,55.451,73.846l2.04,4.848l-2.04,4.848   c-11.512,27.353-30.515,52.463-56.016,74.333c48.79-15.745,87.207-43.913,104.215-79.03   C678.068,528.87,639.881,500.788,591.361,485.007z" style="fill:#231F20;"/></g></svg>