<?xml version="1.0" ?><svg id="Layer_2" style="enable-background:new 0 0 1000 1000;" version="1.1" viewBox="0 0 1000 1000" xml:space="preserve" xmlns="http://www.w3.org/2000/svg" xmlns:xlink="http://www.w3.org/1999/xlink"><g><path d="M817.769,151.731H182.231c-16.5,0-30,13.5-30,30v72.8h695.537v-72.8   C847.769,165.231,834.269,151.731,817.769,151.731z M628.749,215.631h-28c-6.875,0-12.5-5.625-12.5-12.5s5.625-12.5,12.5-12.5h28   c6.875,0,12.5,5.625,12.5,12.5S635.624,215.631,628.749,215.631z M712.249,215.631h-28c-6.875,0-12.5-5.625-12.5-12.5   s5.625-12.5,12.5-12.5h28c6.875,0,12.5,5.625,12.5,12.5S719.124,215.631,712.249,215.631z M795.749,215.631h-28   c-6.875,0-12.5-5.625-12.5-12.5s5.625-12.5,12.5-12.5h28c6.875,0,12.5,5.625,12.5,12.5S802.624,215.631,795.749,215.631z" style="fill:#231F20;"/><path d="M527.468,651.388c-0.059-0.593-0.143-1.177-0.238-1.758c28.117-5.075,48.06-17.766,48.06-32.63   c0-3.22-0.94-6.34-2.7-9.31c45.72-25.49,76.65-74.35,76.65-130.42c0-82.43-66.82-149.25-149.24-149.25s-149.24,66.82-149.24,149.25   c0,56.07,30.93,104.93,76.65,130.42c-1.76,2.97-2.7,6.09-2.7,9.31c0,14.864,19.943,27.555,48.06,32.63   c-0.095,0.581-0.179,1.165-0.238,1.758l-14.892,150.11c-2.485,25.048,17.189,46.771,42.36,46.771h0   c25.171,0,44.845-21.723,42.36-46.771L527.468,651.388z M449.8,590.91c-43.57-19.32-74.04-62.99-74.04-113.64   c0-68.51,55.73-124.25,124.24-124.25s124.24,55.74,124.24,124.25c0,50.65-30.47,94.32-74.04,113.64   c-15.36,6.82-32.34,10.6-50.2,10.6S465.16,597.73,449.8,590.91z M512.5,805.889c0,6.903-5.596,12.5-12.5,12.5   c-6.904,0-12.5-5.597-12.5-12.5v-56c0-6.904,5.596-12.5,12.5-12.5c6.904,0,12.5,5.596,12.5,12.5V805.889z" style="fill:#231F20;"/><path d="M540.38,568.06c7.74-3.43,14.89-7.77,21.34-12.87l-19.48-10.13c-11.54-6.01-18.8-17.92-18.84-30.93   c12.42-9.67,22.04-26.29,26.38-43.84c0.29,0.05,0.59,0.08,0.88,0.08c4.66,0,8.44-6.27,8.47-11.75c2.03-2.35,3.34-5.85,3.34-9.07   c0-5.49-3.8-9.94-8.47-9.94c-0.84,0-1.65,0.14-2.41,0.41c0,0,0,0,0-0.01h0.01c0,0,5.23-4.4,3.23-22.65s-12.64-25.25-12.64-25.25   c1.25-1.16,1.86-2.49,2.07-3.82c-4.47-2.22-9.14-4.11-13.96-5.64c-14.55,0.26-38.26-2.21-51-2.38   c-0.459-0.006-0.899-0.008-1.329-0.008c-2.569-0.009-4.622,0.09-5.971,0.348c-3.82,0.73-7.25,2.45-10.35,5.12   c0.211-0.089,0.429-0.165,0.641-0.253c-0.103,0.086-0.209,0.165-0.311,0.253c-5.41,4.66-9.83,12.21-13.65,22.38   c-4.47,11.92-2.28,25.5-0.87,31.65c-0.48-0.09-0.96-0.15-1.46-0.15c-4.68,0-8.47,4.45-8.47,9.94c0,3.22,1.31,6.72,3.33,9.07   c0.04,5.48,3.81,11.75,8.47,11.75c0.52,0,1.02-0.09,1.51-0.24c4.33,17.61,13.96,34.3,26.42,44c-0.04,13.01-7.3,24.92-18.84,30.93   l-19.48,10.13c6.45,5.1,13.59,9.44,21.32,12.87c12.64,5.61,26.12,8.45,40.07,8.45C514.28,576.51,527.76,573.67,540.38,568.06z" style="fill:#231F20;"/><path d="M152.231,645c0,16.5,13.5,30,30,30h262.835l0.666-6.711c-27.653-9.915-44.542-27.385-45.93-48.458   c-46.074-32.42-74.043-85.532-74.043-142.562c0-96.082,78.164-174.25,174.24-174.25s174.24,78.168,174.24,174.25   c0,57.029-27.969,110.142-74.043,142.562c-1.388,21.073-18.277,38.543-45.93,48.458l0.666,6.711h262.835c16.5,0,30-13.5,30-30   V279.532H152.231V645z M797.612,637.743h-42.667c-6.904,0-12.5-5.596-12.5-12.5c0-6.903,5.596-12.5,12.5-12.5h42.667   c6.904,0,12.5,5.597,12.5,12.5C810.112,632.147,804.515,637.743,797.612,637.743z M797.612,441.788h-20.333   c-6.904,0-12.5-5.596-12.5-12.5c0-6.903,5.596-12.5,12.5-12.5h20.333c6.904,0,12.5,5.597,12.5,12.5   C810.112,436.192,804.515,441.788,797.612,441.788z M777.278,316.788h20.333c6.904,0,12.5,5.597,12.5,12.5   c0,6.904-5.596,12.5-12.5,12.5h-20.333c-6.904,0-12.5-5.596-12.5-12.5C764.778,322.385,770.375,316.788,777.278,316.788z    M687.945,316.788h42.667c6.904,0,12.5,5.597,12.5,12.5c0,6.904-5.596,12.5-12.5,12.5h-42.667c-6.904,0-12.5-5.596-12.5-12.5   C675.445,322.385,681.041,316.788,687.945,316.788z M687.945,366.788h87c0.394,0,0.782,0.023,1.167,0.06   c0.385-0.036,0.773-0.06,1.167-0.06h20.333c6.904,0,12.5,5.597,12.5,12.5c0,6.903-5.596,12.5-12.5,12.5h-20.333   c-0.394,0-0.782-0.023-1.167-0.059c-0.385,0.035-0.773,0.059-1.167,0.059h-87c-6.904,0-12.5-5.597-12.5-12.5   C675.445,372.385,681.041,366.788,687.945,366.788z M687.945,612.743h20.333c6.904,0,12.5,5.597,12.5,12.5   c0,6.904-5.596,12.5-12.5,12.5h-20.333c-6.904,0-12.5-5.596-12.5-12.5C675.445,618.34,681.041,612.743,687.945,612.743z    M312.055,637.743h-20.333c-6.903,0-12.5-5.596-12.5-12.5c0-6.903,5.597-12.5,12.5-12.5h20.333c6.904,0,12.5,5.597,12.5,12.5   C324.555,632.147,318.959,637.743,312.055,637.743z M269.388,316.788h42.667c6.904,0,12.5,5.597,12.5,12.5   c0,6.904-5.596,12.5-12.5,12.5h-42.667c-6.904,0-12.5-5.596-12.5-12.5C256.888,322.385,262.485,316.788,269.388,316.788z    M202.388,316.788h20.333c6.903,0,12.5,5.597,12.5,12.5c0,6.904-5.596,12.5-12.5,12.5h-20.333c-6.904,0-12.5-5.596-12.5-12.5   C189.888,322.385,195.485,316.788,202.388,316.788z M202.388,366.788h20.333c0.394,0,0.782,0.023,1.167,0.06   c0.385-0.036,0.773-0.06,1.167-0.06h87c6.904,0,12.5,5.597,12.5,12.5c0,6.903-5.596,12.5-12.5,12.5h-87   c-0.394,0-0.782-0.023-1.167-0.059c-0.385,0.035-0.773,0.059-1.167,0.059h-20.333c-6.904,0-12.5-5.597-12.5-12.5   C189.888,372.385,195.485,366.788,202.388,366.788z M202.388,416.788h20.333c6.903,0,12.5,5.597,12.5,12.5   c0,6.904-5.596,12.5-12.5,12.5h-20.333c-6.904,0-12.5-5.596-12.5-12.5C189.888,422.385,195.485,416.788,202.388,416.788z    M202.388,612.743h42.667c6.904,0,12.5,5.597,12.5,12.5c0,6.904-5.596,12.5-12.5,12.5h-42.667c-6.904,0-12.5-5.596-12.5-12.5   C189.888,618.34,195.485,612.743,202.388,612.743z" style="fill:#231F20;"/></g></svg>