<?xml version="1.0" ?><svg id="Layer_2" style="enable-background:new 0 0 1000 1000;" version="1.1" viewBox="0 0 1000 1000" xml:space="preserve" xmlns="http://www.w3.org/2000/svg" xmlns:xlink="http://www.w3.org/1999/xlink"><g><path d="M835.269,761.115H786.11V238.89h49.16c3.45,0,6.57-1.4,8.84-3.66c2.26-2.27,3.66-5.39,3.66-8.84   c0-6.91-5.6-12.5-12.5-12.5h-31.49l38.35-38.35c4.89-4.88,4.89-12.79,0-17.67c-2.44-2.45-5.64-3.67-8.83-3.67   c-3.2,0-6.4,1.22-8.84,3.67l-38.35,38.35v-31.49c0-3.45-1.4-6.57-3.66-8.84c-2.26-2.26-5.39-3.66-8.84-3.66   c-6.9,0-12.5,5.6-12.5,12.5v49.16H238.89v-49.16c0-3.45-1.4-6.57-3.66-8.84c-2.27-2.26-5.39-3.66-8.84-3.66   c-6.91,0-12.5,5.6-12.5,12.5v31.49l-38.6-38.6c-2.44-2.44-5.64-3.67-8.83-3.67c-3.2,0-6.4,1.23-8.84,3.67   c-4.89,4.88-4.89,12.79,0,17.67l38.6,38.6h-31.49c-3.45,0-6.57,1.4-8.84,3.66c-2.26,2.26-3.66,5.39-3.66,8.84   c0,6.9,5.6,12.5,12.5,12.5h49.16v522.225h-49.159c-6.903,0-12.5,5.596-12.5,12.5v0c0,6.903,5.597,12.5,12.5,12.5h31.483   L157.87,824.46c-4.89,4.88-4.89,12.79,0,17.67c2.44,2.45,5.64,3.67,8.83,3.67c3.2,0,6.4-1.22,8.84-3.67l38.35-38.35v31.49   c0,3.45,1.4,6.57,3.66,8.84c2.26,2.26,5.39,3.66,8.84,3.66c6.9,0,12.5-5.6,12.5-12.5v-49.155h522.22v49.155   c0,3.45,1.4,6.57,3.66,8.84c2.27,2.26,5.39,3.66,8.84,3.66c6.91,0,12.5-5.6,12.5-12.5v-31.49l38.1,38.1   c2.44,2.44,5.64,3.67,8.83,3.67c3.2,0,6.4-1.23,8.84-3.67c4.89-4.88,4.89-12.79,0-17.67l-38.095-38.095h31.483   c6.903,0,12.5-5.597,12.5-12.5v0C847.769,766.711,842.172,761.115,835.269,761.115z M743.44,238.89h17.67v17.67v486.88v17.675   H238.89V743.44V256.56v-17.67h17.67H743.44z" style="fill:#231F20;"/><path d="M164.73,662.972c6.9,0,12.5-5.6,12.5-12.5v-328.52c0-3.45-1.4-6.57-3.66-8.84   c-2.27-2.261-5.39-3.66-8.84-3.66c-6.91,0-12.5,5.6-12.5,12.5v328.52c0,3.45,1.4,6.57,3.66,8.84   C158.15,661.572,161.28,662.972,164.73,662.972z" style="fill:#231F20;"/><path d="M835.269,309.452c-6.91,0-12.5,5.6-12.5,12.5v328.52c0,3.45,1.4,6.57,3.66,8.84   c2.26,2.261,5.39,3.66,8.84,3.66c6.9,0,12.5-5.6,12.5-12.5v-328.52c0-3.45-1.4-6.57-3.66-8.84   C841.838,310.852,838.718,309.452,835.269,309.452z" style="fill:#231F20;"/><path d="M335.74,177.231h328.52c3.45,0,6.57-1.4,8.84-3.66c2.261-2.271,3.66-5.391,3.66-8.84   c0-6.91-5.6-12.5-12.5-12.5H335.74c-3.45,0-6.57,1.4-8.84,3.659c-2.261,2.261-3.66,5.391-3.66,8.841   C323.24,171.631,328.84,177.231,335.74,177.231z" style="fill:#231F20;"/><path d="M664.26,822.769H335.74c-3.45,0-6.57,1.4-8.84,3.66c-2.261,2.26-3.66,5.39-3.66,8.84   c0,6.9,5.6,12.5,12.5,12.5h328.52c3.45,0,6.57-1.4,8.84-3.66c2.261-2.269,3.66-5.39,3.66-8.84   C676.76,828.358,671.16,822.769,664.26,822.769z" style="fill:#231F20;"/><path d="M278.479,360.984h72.845c6.647,0,12.037-5.389,12.037-12.036V275.37   c0-6.647-5.389-12.036-12.037-12.036h-72.845c-6.647,0-12.037,5.389-12.037,12.036v73.579   C266.442,355.596,271.832,360.984,278.479,360.984z" style="fill:#231F20;"/><path d="M401.878,360.984h72.845c6.647,0,12.037-5.389,12.037-12.036V275.37   c0-6.647-5.389-12.036-12.037-12.036h-72.845c-6.647,0-12.036,5.389-12.036,12.036v73.579   C389.842,355.596,395.23,360.984,401.878,360.984z" style="fill:#231F20;"/><path d="M525.277,360.984h72.845c6.647,0,12.036-5.389,12.036-12.036V275.37   c0-6.647-5.389-12.036-12.036-12.036h-72.845c-6.647,0-12.037,5.389-12.037,12.036v73.579   C513.241,355.596,518.63,360.984,525.277,360.984z" style="fill:#231F20;"/><path d="M648.676,360.984h72.845c6.648,0,12.037-5.389,12.037-12.036V275.37   c0-6.647-5.389-12.036-12.037-12.036h-72.845c-6.647,0-12.037,5.389-12.037,12.036v73.579   C636.64,355.596,642.029,360.984,648.676,360.984z" style="fill:#231F20;"/><path d="M278.479,486.212h72.845c6.647,0,12.037-5.389,12.037-12.037v-73.578   c0-6.647-5.389-12.037-12.037-12.037h-72.845c-6.647,0-12.037,5.389-12.037,12.037v73.578   C266.442,480.823,271.832,486.212,278.479,486.212z" style="fill:#231F20;"/><path d="M401.878,486.212h72.845c6.647,0,12.037-5.389,12.037-12.037v-73.578   c0-6.647-5.389-12.037-12.037-12.037h-72.845c-6.647,0-12.036,5.389-12.036,12.037v73.578   C389.842,480.823,395.23,486.212,401.878,486.212z" style="fill:#231F20;"/><path d="M525.277,486.212h72.845c6.647,0,12.036-5.389,12.036-12.037v-73.578   c0-6.647-5.389-12.037-12.036-12.037h-72.845c-6.647,0-12.037,5.389-12.037,12.037v73.578   C513.241,480.823,518.63,486.212,525.277,486.212z" style="fill:#231F20;"/><path d="M648.676,486.212h72.845c6.648,0,12.037-5.389,12.037-12.037v-73.578   c0-6.647-5.389-12.037-12.037-12.037h-72.845c-6.647,0-12.037,5.389-12.037,12.037v73.578   C636.64,480.823,642.029,486.212,648.676,486.212z" style="fill:#231F20;"/><path d="M278.479,611.44h72.845c6.647,0,12.037-5.389,12.037-12.037v-73.578   c0-6.648-5.389-12.037-12.037-12.037h-72.845c-6.647,0-12.037,5.389-12.037,12.037v73.578   C266.442,606.05,271.832,611.44,278.479,611.44z" style="fill:#231F20;"/><path d="M401.878,611.44h72.845c6.647,0,12.037-5.389,12.037-12.037v-73.578   c0-6.648-5.389-12.037-12.037-12.037h-72.845c-6.647,0-12.036,5.389-12.036,12.037v73.578   C389.842,606.05,395.23,611.44,401.878,611.44z" style="fill:#231F20;"/><path d="M525.277,611.44h72.845c6.647,0,12.036-5.389,12.036-12.037v-73.578   c0-6.648-5.389-12.037-12.036-12.037h-72.845c-6.647,0-12.037,5.389-12.037,12.037v73.578   C513.241,606.05,518.63,611.44,525.277,611.44z" style="fill:#231F20;"/><path d="M648.676,611.44h72.845c6.648,0,12.037-5.389,12.037-12.037v-73.578   c0-6.648-5.389-12.037-12.037-12.037h-72.845c-6.647,0-12.037,5.389-12.037,12.037v73.578   C636.64,606.05,642.029,611.44,648.676,611.44z" style="fill:#231F20;"/><path d="M278.479,736.667h72.845c6.647,0,12.037-5.389,12.037-12.036v-73.579   c0-6.648-5.389-12.036-12.037-12.036h-72.845c-6.647,0-12.037,5.389-12.037,12.036v73.579   C266.442,731.278,271.832,736.667,278.479,736.667z" style="fill:#231F20;"/><path d="M401.878,736.667h72.845c6.647,0,12.037-5.389,12.037-12.036v-73.579   c0-6.648-5.389-12.036-12.037-12.036h-72.845c-6.647,0-12.036,5.389-12.036,12.036v73.579   C389.842,731.278,395.23,736.667,401.878,736.667z" style="fill:#231F20;"/><path d="M525.277,736.667h72.845c6.647,0,12.036-5.389,12.036-12.036v-73.579   c0-6.648-5.389-12.036-12.036-12.036h-72.845c-6.647,0-12.037,5.389-12.037,12.036v73.579   C513.241,731.278,518.63,736.667,525.277,736.667z" style="fill:#231F20;"/><path d="M648.676,736.667h72.845c6.648,0,12.037-5.389,12.037-12.036v-73.579   c0-6.648-5.389-12.036-12.037-12.036h-72.845c-6.647,0-12.037,5.389-12.037,12.036v73.579   C636.64,731.278,642.029,736.667,648.676,736.667z" style="fill:#231F20;"/></g></svg>