<?xml version="1.0" ?><svg id="Layer_2" style="enable-background:new 0 0 1000 1000;" version="1.1" viewBox="0 0 1000 1000" xml:space="preserve" xmlns="http://www.w3.org/2000/svg" xmlns:xlink="http://www.w3.org/1999/xlink"><g><path d="M777.783,363h70.548l-3.249-40.849c-0.793-9.969-6.664-18.826-15.536-23.44l-18.582-9.663   c-9.572-4.978-15.586-14.855-15.624-25.639c10.302-8.014,18.269-21.791,21.873-36.34c0.24,0.041,0.483,0.063,0.729,0.063   c3.861,0,6.992-5.197,7.019-9.735c1.678-1.948,2.766-4.849,2.766-7.52c0-4.552-3.144-8.242-7.021-8.242   c-0.694,0-1.362,0.122-1.995,0.342c0-0.001,0-0.003-0.001-0.004l0.008,0c0,0,4.335-3.654,2.677-18.782   c-1.658-15.128-10.476-20.93-10.476-20.93c4.031-3.73,0-9.533,0-9.533c-5.088,4.559-49.207-1.658-57.911,0   c-8.704,1.658-14.921,9.533-19.894,22.796c-3.706,9.883-1.889,21.144-0.722,26.242c-0.395-0.081-0.798-0.131-1.212-0.131   c-3.878,0-7.022,3.69-7.022,8.242c0,2.671,1.087,5.572,2.766,7.52c0.027,4.538,3.158,9.735,7.019,9.735   c0.427,0,0.844-0.073,1.25-0.193c3.589,14.597,11.573,28.432,21.906,36.47c-0.038,10.784-6.052,20.661-15.624,25.639l-18.582,9.663   c-8.872,4.614-14.743,13.471-15.536,23.44L704.107,363h70.548H777.783z" style="fill:#231F20;"/><path d="M226.471,363h70.548l-3.249-40.849c-0.793-9.969-6.664-18.826-15.536-23.44l-18.582-9.663   c-9.572-4.978-15.586-14.855-15.624-25.639c10.302-8.014,18.269-21.791,21.873-36.34c0.24,0.041,0.483,0.063,0.729,0.063   c3.861,0,6.991-5.197,7.019-9.735c1.678-1.948,2.766-4.849,2.766-7.52c0-4.552-3.144-8.242-7.021-8.242   c-0.694,0-1.362,0.122-1.994,0.342c0-0.001,0-0.003-0.001-0.004l0.009,0c0,0,4.335-3.654,2.677-18.782   c-1.658-15.128-10.476-20.93-10.476-20.93c4.031-3.73,0-9.533,0-9.533c-5.088,4.559-49.207-1.658-57.911,0   c-8.704,1.658-14.921,9.533-19.894,22.796c-3.706,9.883-1.889,21.144-0.722,26.242c-0.394-0.081-0.798-0.131-1.212-0.131   c-3.878,0-7.022,3.69-7.022,8.242c0,2.671,1.087,5.572,2.766,7.52c0.027,4.538,3.158,9.735,7.019,9.735   c0.427,0,0.843-0.073,1.249-0.193c3.589,14.597,11.573,28.432,21.906,36.47c-0.038,10.784-6.051,20.661-15.624,25.639   l-18.582,9.663c-8.872,4.614-14.743,13.471-15.536,23.44L152.794,363h70.548H226.471z" style="fill:#231F20;"/><path d="M212.409,388v25.55c0,23.43,19.06,42.5,42.5,42.5h84.51v-25h-84.51c-9.65,0-17.5-7.85-17.5-17.5V388   H212.409z" style="fill:#231F20;"/><path d="M788.899,413.55V388h-25v25.55c0,9.65-7.85,17.5-17.5,17.5h-82.98v25h82.98   C769.829,456.05,788.899,436.98,788.899,413.55z" style="fill:#231F20;"/><path d="M829.545,782.687l-18.582-9.663c-9.573-4.978-15.586-14.855-15.624-25.638   c10.302-8.014,18.269-21.791,21.874-36.34c0.24,0.041,0.483,0.063,0.729,0.063c3.861,0,6.992-5.197,7.019-9.735   c1.678-1.948,2.766-4.849,2.766-7.521c0-4.552-3.144-8.242-7.022-8.242c-0.693,0-1.362,0.123-1.994,0.342c0-0.001,0-0.003,0-0.004   l0.008,0c0,0,4.335-3.654,2.677-18.782c-1.658-15.128-10.476-20.93-10.476-20.93c4.031-3.73,0-9.533,0-9.533   c-5.088,4.559-49.207-1.658-57.911,0c-8.704,1.658-14.921,9.533-19.894,22.795c-3.706,9.883-1.889,21.144-0.722,26.242   c-0.394-0.081-0.798-0.131-1.212-0.131c-3.878,0-7.022,3.69-7.022,8.242c0,2.671,1.087,5.573,2.766,7.521   c0.027,4.538,3.158,9.735,7.019,9.735c0.427,0,0.843-0.073,1.25-0.193c3.589,14.597,11.573,28.432,21.906,36.47   c-0.038,10.784-6.052,20.661-15.624,25.638l-18.582,9.663c-8.872,4.614-14.743,13.471-15.536,23.44l-3.249,40.849h70.548h3.128   h70.548l-3.249-40.849C844.289,796.158,838.418,787.301,829.545,782.687z" style="fill:#231F20;"/><path d="M278.233,782.687l-18.582-9.663c-9.572-4.978-15.586-14.855-15.624-25.638   c10.302-8.014,18.269-21.791,21.873-36.34c0.24,0.041,0.483,0.063,0.729,0.063c3.861,0,6.992-5.197,7.019-9.735   c1.678-1.948,2.766-4.849,2.766-7.521c0-4.552-3.144-8.242-7.022-8.242c-0.693,0-1.362,0.123-1.994,0.342   c0-0.001,0-0.003-0.001-0.004l0.008,0c0,0,4.335-3.654,2.677-18.782c-1.658-15.128-10.476-20.93-10.476-20.93   c4.03-3.73,0-9.533,0-9.533c-5.088,4.559-49.207-1.658-57.911,0c-8.704,1.658-14.921,9.533-19.894,22.795   c-3.706,9.883-1.889,21.144-0.722,26.242c-0.395-0.081-0.798-0.131-1.212-0.131c-3.878,0-7.022,3.69-7.022,8.242   c0,2.671,1.087,5.573,2.766,7.521c0.027,4.538,3.158,9.735,7.019,9.735c0.427,0,0.843-0.073,1.249-0.193   c3.589,14.597,11.573,28.432,21.906,36.47c-0.038,10.784-6.051,20.661-15.624,25.638l-18.582,9.663   c-8.872,4.614-14.743,13.471-15.536,23.44l-3.249,40.849h70.548h3.128h70.548l-3.249-40.849   C292.976,796.158,287.105,787.301,278.233,782.687z" style="fill:#231F20;"/><path d="M777.569,612.37c3.75,0.24,7.55,0.49,11.15,0.69v-27.19c0-23.44-19.07-42.5-42.5-42.5h-82.8v25h82.8   c9.65,0,17.5,7.85,17.5,17.5v25.69C767.919,611.74,772.649,612.05,777.569,612.37z" style="fill:#231F20;"/><path d="M212.229,585.87v25.68c4.25,0.18,9.04,0.49,14.03,0.82c3.68,0.24,7.43,0.49,10.97,0.68v-27.18   c0-9.65,7.85-17.5,17.5-17.5h84.69v-25h-84.69C231.289,543.37,212.229,562.43,212.229,585.87z" style="fill:#231F20;"/><path d="M805.439,457.108c-19.34,0-35.685,12.802-41.036,30.392H638.419V393c0-16.57-13.43-30-30-30h-94.5   V235.598c17.59-5.352,30.392-21.697,30.392-41.036c0-23.689-19.203-42.892-42.892-42.892c-23.689,0-42.892,19.203-42.892,42.892   c0,19.34,12.802,35.685,30.392,41.036V363h-94.5c-16.57,0-30,13.43-30,30v94.5H235.598c-5.352-17.59-21.697-30.392-41.036-30.392   c-23.689,0-42.892,19.204-42.892,42.892c0,23.689,19.204,42.892,42.892,42.892c19.34,0,35.685-12.802,41.036-30.392h128.822V607   c0,16.57,13.43,30,30,30h20.97l2.96-37.27c0.87-11,6.86-20.87,16.08-26.74l43.54,64.01h10.95v127.403   c-17.59,5.352-30.392,21.696-30.392,41.036c0,23.689,19.203,42.892,42.892,42.892c23.689,0,42.892-19.203,42.892-42.892   c0-19.34-12.802-35.685-30.392-41.036V637h10.95l43.54-64.01c9.22,5.87,15.21,15.74,16.08,26.74l2.96,37.27h20.97   c16.57,0,30-13.43,30-30v-94.5h125.983c5.352,17.59,21.696,30.392,41.036,30.392c23.689,0,42.892-19.203,42.892-42.892   C848.331,476.311,829.127,457.108,805.439,457.108z M560.219,473.36c-0.03,5.47-3.81,11.74-8.47,11.74c-0.29,0-0.59-0.03-0.88-0.08   c-4.34,17.55-13.96,34.18-26.38,43.84c0.04,13.01,7.3,24.93,18.84,30.93l2.82,1.47L510.279,614l-8.86,13.03l-8.86-13.03   l-35.87-52.74l2.82-1.47c11.54-6,18.8-17.92,18.84-30.93c-12.46-9.69-22.09-26.38-26.42-43.99c-0.49,0.14-0.99,0.23-1.51,0.23   c-4.66,0-8.43-6.27-8.47-11.74c-2.02-2.35-3.33-5.85-3.33-9.08c0-5.49,3.79-9.94,8.47-9.94c0.5,0,0.98,0.06,1.46,0.16   c-1.41-6.15-3.6-19.74,0.87-31.66c6-16,13.5-25.5,24-27.5s63.72,5.5,69.86,0c0,0,4.86,7,0,11.5c0,0,10.64,7,12.64,25.25   c1.95,17.77-2.96,22.42-3.22,22.65c0.75-0.25,1.56-0.4,2.39-0.4c4.67,0,8.47,4.45,8.47,9.94   C563.559,467.51,562.249,471.01,560.219,473.36z" style="fill:#231F20;"/></g></svg>