<?xml version="1.0" ?><svg id="Layer_2" style="enable-background:new 0 0 1000 1000;" version="1.1" viewBox="0 0 1000 1000" xml:space="preserve" xmlns="http://www.w3.org/2000/svg" xmlns:xlink="http://www.w3.org/1999/xlink"><g><path d="M817.769,151.731H182.231c-16.5,0-30,13.5-30,30v72.8h695.537v-72.8   C847.769,165.231,834.269,151.731,817.769,151.731z M628.749,215.631h-28c-6.875,0-12.5-5.625-12.5-12.5s5.625-12.5,12.5-12.5h28   c6.875,0,12.5,5.625,12.5,12.5S635.624,215.631,628.749,215.631z M712.249,215.631h-28c-6.875,0-12.5-5.625-12.5-12.5   s5.625-12.5,12.5-12.5h28c6.875,0,12.5,5.625,12.5,12.5S719.124,215.631,712.249,215.631z M795.749,215.631h-28   c-6.875,0-12.5-5.625-12.5-12.5s5.625-12.5,12.5-12.5h28c6.875,0,12.5,5.625,12.5,12.5S802.624,215.631,795.749,215.631z" style="fill:#231F20;"/><path d="M336.217,545.617l28.433-16.416l28.433-16.416c9.611-5.549,9.611-19.421,0-24.97l-28.433-16.416   l-28.433-16.417c-9.611-5.549-21.625,1.388-21.625,12.486V500.3v32.832C314.591,544.23,326.605,551.166,336.217,545.617z" style="fill:#231F20;"/><path d="M152.231,710.548c0,16.5,13.5,30,30,30c9.97,0,18.053,8.083,18.053,18.052v75.547   c0,11.051,12.138,17.806,21.53,11.981l132.69-82.301c24.533-15.217,52.828-23.279,81.697-23.279h381.568c16.5,0,30-13.5,30-30   V279.532H152.231V710.548z M764.792,487.8H659.114c-6.904,0-12.5-5.597-12.5-12.5c0-6.903,5.596-12.5,12.5-12.5h105.677   c6.903,0,12.5,5.597,12.5,12.5C777.291,482.203,771.695,487.8,764.792,487.8z M777.291,525.3c0,6.904-5.596,12.5-12.5,12.5h-73   c-6.904,0-12.5-5.596-12.5-12.5c0-6.903,5.596-12.5,12.5-12.5h73C771.695,512.8,777.291,518.396,777.291,525.3z M561.114,412.8   h203.677c6.904,0,12.5,5.597,12.5,12.5c0,6.904-5.596,12.5-12.5,12.5H561.114c-6.904,0-12.5-5.596-12.5-12.5   C548.614,418.396,554.21,412.8,561.114,412.8z M561.114,462.8h41.677c6.904,0,12.5,5.597,12.5,12.5c0,6.904-5.596,12.5-12.5,12.5   h-41.677c-6.904,0-12.5-5.596-12.5-12.5C548.614,468.396,554.21,462.8,561.114,462.8z M561.114,512.8h73   c6.904,0,12.5,5.597,12.5,12.5c0,6.904-5.596,12.5-12.5,12.5h-73c-6.904,0-12.5-5.596-12.5-12.5   C548.614,518.396,554.21,512.8,561.114,512.8z M561.114,562.8h203.677c6.904,0,12.5,5.597,12.5,12.5c0,6.904-5.596,12.5-12.5,12.5   H561.114c-6.904,0-12.5-5.596-12.5-12.5C548.614,568.396,554.21,562.8,561.114,562.8z M242.333,409.218   c13.083-13.084,30.226-19.618,47.369-19.618c17.143,0,34.286,6.534,47.356,19.618l6.635,6.635   c7.592,7.592,19.902,7.59,27.492-0.004l6.626-6.63c13.083-13.084,30.226-19.618,47.369-19.618c17.143,0,34.286,6.534,47.369,19.618   c26.166,26.152,26.166,68.572,0,94.725l-20.383,20.383l-80.981,80.982c-7.591,7.59-19.897,7.59-27.488,0L242.333,503.943   C216.167,477.79,216.167,435.37,242.333,409.218z" style="fill:#231F20;"/></g></svg>