<?xml version="1.0" ?><svg id="Layer_2" style="enable-background:new 0 0 1000 1000;" version="1.1" viewBox="0 0 1000 1000" xml:space="preserve" xmlns="http://www.w3.org/2000/svg" xmlns:xlink="http://www.w3.org/1999/xlink"><g><path d="M818.596,202.797H181.404c-16.568,0-30,13.431-30,30v74.433h697.192v-74.433   C848.596,216.228,835.165,202.797,818.596,202.797z M635.371,267.513h-28c-6.875,0-12.5-5.625-12.5-12.5s5.625-12.5,12.5-12.5h28   c6.875,0,12.5,5.625,12.5,12.5S642.246,267.513,635.371,267.513z M718.871,267.513h-28c-6.875,0-12.5-5.625-12.5-12.5   s5.625-12.5,12.5-12.5h28c6.875,0,12.5,5.625,12.5,12.5S725.746,267.513,718.871,267.513z M802.371,267.513h-28   c-6.875,0-12.5-5.625-12.5-12.5s5.625-12.5,12.5-12.5h28c6.875,0,12.5,5.625,12.5,12.5S809.246,267.513,802.371,267.513z" style="fill:#231F20;"/><polygon points="545.678,490.904 465.197,490.904 454.322,533.199 534.803,533.199  " style="fill:#231F20;"/><path d="M151.404,661.873c0,16.569,13.432,30,30,30h393.089L707.41,794.521   c8.38,6.472,20.542,0.498,20.542-10.091v-92.558h90.644c16.568,0,30-13.431,30-30V332.23H151.404V661.873z M792.938,614.132   h-19.589c-6.903,0-12.5-5.596-12.5-12.5c0-6.904,5.597-12.5,12.5-12.5h19.589c6.903,0,12.5,5.596,12.5,12.5   C805.438,608.536,799.841,614.132,792.938,614.132z M792.938,554.412h-40.927c-6.904,0-12.5-5.596-12.5-12.5   c0-6.904,5.596-12.5,12.5-12.5h40.927c6.903,0,12.5,5.596,12.5,12.5C805.438,548.815,799.841,554.412,792.938,554.412z    M792.938,494.691H728.76c-6.904,0-12.5-5.596-12.5-12.5c0-6.904,5.596-12.5,12.5-12.5h64.177c6.903,0,12.5,5.596,12.5,12.5   C805.438,489.094,799.841,494.691,792.938,494.691z M703.063,409.97h89.875c6.903,0,12.5,5.597,12.5,12.5   c0,6.904-5.597,12.5-12.5,12.5h-89.875c-6.903,0-12.5-5.596-12.5-12.5C690.563,415.566,696.159,409.97,703.063,409.97z    M410.625,533.199h17.883l10.876-42.295h-12.759c-6.903,0-12.5-5.597-12.5-12.5c0-6.904,5.597-12.5,12.5-12.5h19.188l11.243-43.725   c1.719-6.686,8.533-10.712,15.219-8.993c6.686,1.719,10.712,8.533,8.993,15.219l-9.643,37.499h80.481l11.243-43.725   c1.719-6.686,8.533-10.712,15.219-8.993c6.686,1.719,10.712,8.533,8.993,15.219l-9.643,37.499h11.455c6.903,0,12.5,5.596,12.5,12.5   c0,6.903-5.597,12.5-12.5,12.5h-17.883l-10.876,42.295h12.759c6.903,0,12.5,5.596,12.5,12.5c0,6.903-5.597,12.5-12.5,12.5h-19.188   l-11.243,43.724c-1.719,6.686-8.533,10.712-15.219,8.993c-6.686-1.719-10.712-8.533-8.993-15.219l9.643-37.498h-80.481   l-11.243,43.724c-1.719,6.686-8.533,10.712-15.219,8.993c-6.686-1.719-10.712-8.533-8.993-15.219l9.643-37.498h-11.455   c-6.903,0-12.5-5.597-12.5-12.5C398.125,538.795,403.722,533.199,410.625,533.199z M207.063,409.97h89.875   c6.903,0,12.5,5.597,12.5,12.5c0,6.904-5.597,12.5-12.5,12.5h-89.875c-6.903,0-12.5-5.596-12.5-12.5   C194.563,415.566,200.159,409.97,207.063,409.97z M207.063,469.691h64.177c6.904,0,12.5,5.596,12.5,12.5   c0,6.904-5.596,12.5-12.5,12.5h-64.177c-6.903,0-12.5-5.596-12.5-12.5C194.563,475.287,200.159,469.691,207.063,469.691z    M207.063,529.412h40.927c6.904,0,12.5,5.596,12.5,12.5c0,6.904-5.596,12.5-12.5,12.5h-40.927c-6.903,0-12.5-5.596-12.5-12.5   C194.563,535.008,200.159,529.412,207.063,529.412z M207.063,589.132h19.589c6.903,0,12.5,5.596,12.5,12.5   c0,6.904-5.597,12.5-12.5,12.5h-19.589c-6.903,0-12.5-5.596-12.5-12.5C194.563,594.729,200.159,589.132,207.063,589.132z" style="fill:#231F20;"/></g></svg>