<?xml version="1.0" ?><svg id="Layer_2" style="enable-background:new 0 0 1000 1000;" version="1.1" viewBox="0 0 1000 1000" xml:space="preserve" xmlns="http://www.w3.org/2000/svg" xmlns:xlink="http://www.w3.org/1999/xlink"><g><path d="M236.5,746.68c-11.07,0-21.37-3.28-30-8.93v18.08c0,16.57,13.43,30,30,30h114.58v25h-82.4   c-5.1,0-9.72,2.07-13.06,5.41c-3.34,3.34-5.41,7.96-5.41,13.06c0,10.2,8.269,18.47,18.47,18.47h82.4h36.93h82.4   c5.1,0,9.72-2.07,13.06-5.41c3.34-3.34,5.41-7.96,5.41-13.06c0-10.2-8.271-18.47-18.47-18.47h-82.4v-25h114.58   c16.57,0,30-13.43,30-30v-18.08c-8.63,5.65-18.94,8.93-30,8.93H236.5z" style="fill:#231F20;"/><rect height="27.181" style="fill:#231F20;" width="188.668" x="275.211" y="323.456"/><polygon points="463.879,608.376 275.211,608.376 275.211,635.557 463.879,635.557 463.879,610.6    463.88,610.6 463.88,608.38 463.879,608.38  " style="fill:#231F20;"/><rect height="27.181" style="fill:#231F20;" width="188.668" x="275.211" y="465.916"/><path d="M502.59,152.23H236.5c-16.57,0-30,13.43-30,30v509.45c0,16.56,13.43,30,30,30h266.09   c16.57,0,30-13.44,30-30V182.23C532.59,165.66,519.16,152.23,502.59,152.23z M327.425,213.354h29.62   c6.903,0,12.5,5.597,12.5,12.501c0,6.904-5.597,12.5-12.5,12.5h-29.62c-6.903,0-12.5-5.596-12.5-12.5   C314.925,218.95,320.522,213.354,327.425,213.354z M262.712,213.354h19.666c6.903,0,12.5,5.597,12.5,12.501   c0,6.904-5.597,12.5-12.5,12.5h-19.666c-6.904,0-12.501-5.596-12.501-12.5C250.211,218.95,255.808,213.354,262.712,213.354z    M488.879,644.729c0,8.741-7.086,15.827-15.828,15.827H266.039c-8.742,0-15.828-7.086-15.828-15.827v-45.527   c0-8.741,7.086-15.827,15.828-15.827h207.012c8.742,0,15.828,7.086,15.828,15.827V644.729z M488.879,502.27   c0,8.741-7.086,15.827-15.828,15.827H266.039c-8.742,0-15.828-7.086-15.828-15.827v-45.527c0-8.741,7.086-15.827,15.828-15.827   h207.012c8.742,0,15.828,7.086,15.828,15.827V502.27z M488.879,359.81c0,8.741-7.086,15.827-15.828,15.827H266.039   c-8.742,0-15.828-7.086-15.828-15.827v-45.527c0-8.741,7.086-15.827,15.828-15.827h207.012c8.742,0,15.828,7.086,15.828,15.827   V359.81z" style="fill:#231F20;"/><path d="M674.12,237.14c-31.981-17.24-68.57-27.02-107.45-27.02c-3.04,0-6.07,0.06-9.08,0.18v25.03   c3.01-0.14,6.04-0.21,9.08-0.21c23.479,0,46.03,4.03,67.01,11.44c-8.59,6.08-23.67,17.54-25.09,23.94c-2,9,21,26,21,40   s-41,21.27-51,40.14c-10,18.86-14,39.86,0,48.86s30,1,44,15s24,20,17,29s-22,38-9,56s35,11.85,62,0.93c27-10.93,41,4.87,41,10.47   c0,0.98,0.7,2.34,1.87,3.91c3.45,4.68,8.22,7.69,13.39,8.99c-28.43,59.39-85.05,102.81-152.43,112.8   c3.64-12.9,2.35-16.73-0.83-23.1c-4-8-9-23-7-28s20-22,9-41c-3.6-6.22-8.92-10.84-14.44-14.23   c-10.909-6.69-16.64-19.33-14.449-31.94c0.939-5.4,1.37-11.69,0.83-18.82c-1.681-22.08,0.09-12.74-11.94-21.74V663.6   c0.66,0.04,1.33,0.06,2,0.08c2.35,0.07,4.71,0.11,7.08,0.11c7.57,0,15.05-0.37,22.43-1.1c91.311-8.96,166.73-72.07,193.73-156.78   c6.93-21.74,10.67-44.91,10.67-68.95C793.5,350.56,745.19,275.44,674.12,237.14z" style="fill:#231F20;"/></g></svg>