<?xml version="1.0" ?><svg id="Layer_2" style="enable-background:new 0 0 1000 1000;" version="1.1" viewBox="0 0 1000 1000" xml:space="preserve" xmlns="http://www.w3.org/2000/svg" xmlns:xlink="http://www.w3.org/1999/xlink"><g><path d="M817.769,152.732H182.231c-16.5,0-30,13.5-30,30v72.8h695.537v-72.8   C847.769,166.232,834.269,152.732,817.769,152.732z M628.749,216.632h-28c-6.875,0-12.5-5.625-12.5-12.5s5.625-12.5,12.5-12.5h28   c6.875,0,12.5,5.625,12.5,12.5S635.624,216.632,628.749,216.632z M712.249,216.632h-28c-6.875,0-12.5-5.625-12.5-12.5   s5.625-12.5,12.5-12.5h28c6.875,0,12.5,5.625,12.5,12.5S719.124,216.632,712.249,216.632z M795.749,216.632h-28   c-6.875,0-12.5-5.625-12.5-12.5s5.625-12.5,12.5-12.5h28c6.875,0,12.5,5.625,12.5,12.5S802.624,216.632,795.749,216.632z" style="fill:#231F20;"/><path d="M424.315,649.795c5.49-2.45,9.96-6.48,12.92-11.58c0.78-1.33,1.46-2.74,2.02-4.21   c1.22-3.2,1.85-6.52,1.88-9.85c0.05-3.69-0.64-7.37-2.06-10.87c-0.13-0.34-0.27-0.68-0.42-1.01c-1.43-3.21-3.41-6.08-5.83-8.49   c-0.19-0.2-0.38-0.39-0.57-0.57c-0.6-0.57-1.23-1.11-1.88-1.63c-2.24-1.77-4.76-3.21-7.51-4.26c-3.29-1.26-6.73-1.89-10.15-1.89   c-1.18,0-2.37,0.07-3.54,0.24c-2.74,0.33-5.45,1.09-8.04,2.25c-14.3,6.39-20.74,23.22-14.35,37.52   C393.175,649.755,410.015,656.185,424.315,649.795z" style="fill:#231F20;"/><path d="M464.305,434.865c6.17,6.16,14.93,9.19,23.64,8.1c1.36-0.17,2.71-0.44,4.06-0.81   c1.34-0.38,2.67-0.85,3.98-1.44c6.73-3,11.93-8.38,14.7-15.18c0.09-0.2,0.17-0.41,0.25-0.61c0.32-0.83,0.59-1.67,0.84-2.52   c1.78-6.37,1.3-13.09-1.44-19.21c-0.85-1.92-1.91-3.72-3.14-5.37c-0.97-1.33-2.07-2.56-3.26-3.69c-2.67-2.53-5.84-4.54-9.39-5.89   c-3.3-1.26-6.73-1.89-10.16-1.89c-3.94,0-7.87,0.83-11.57,2.49c-14.31,6.39-20.74,23.23-14.35,37.53   C459.925,429.635,461.915,432.485,464.305,434.865z" style="fill:#231F20;"/><path d="M573.595,477.665c12.87-5.75,26.83-5.98,39.2-1.69l31.4-57.86c-5.47-4.92-9.9-10.979-13-17.91v-0.01   l-93.44,17.38c-0.29,5.5-1.45,10.98-3.47,16.28c-1.57,4.09-3.59,7.93-6.03,11.44l34.53,38.83   C566.055,481.595,569.665,479.425,573.595,477.665z" style="fill:#231F20;"/><path d="M454.205,590.215l91.69-43.74c-5.76-14.18-4.96-29.52,1.07-42.51l-37.41-42.07   c-1.1,0.59-2.22,1.14-3.37,1.65c-7.05,3.15-14.44,4.64-21.71,4.64c-1.7,0-3.4-0.08-5.08-0.25l-38.01,110.88   C446.185,581.865,450.535,585.685,454.205,590.215z" style="fill:#231F20;"/><path d="M588.345,553.925c1.2,0.31,2.42,0.54,3.66,0.69c1.08,0.13,2.17,0.2,3.26,0.21   c1.09,0.01,2.18-0.05,3.28-0.17c2.84-0.32,5.68-1.07,8.43-2.3c5.09-2.27,9.3-5.9,12.24-10.48c1.08-1.65,1.98-3.43,2.7-5.31   c2.71-7.08,2.5-14.8-0.59-21.73c-0.17-0.39-0.36-0.77-0.55-1.15c-1.5-2.99-3.48-5.66-5.85-7.91c-2.68-2.53-5.85-4.54-9.4-5.89   c-1.62-0.62-3.28-1.09-4.95-1.4c-1.72-0.32-3.46-0.48-5.2-0.48c-3.94,0-7.87,0.83-11.58,2.48c-1.54,0.69-2.98,1.49-4.33,2.41   c-7.91,5.34-12.49,14.28-12.49,23.57c0,3.07,0.5,6.18,1.55,9.21c0.27,0.79,0.57,1.57,0.92,2.34   C573.115,546.235,580.235,551.845,588.345,553.925z" style="fill:#231F20;"/><path d="M666.175,430.015l-32.25,59.44c4.15,4.31,7.64,9.41,10.22,15.18c5.82,13.02,6.22,27.54,1.13,40.86   c-1.64,4.28-3.78,8.27-6.36,11.91l71.4,56.31c1.9-1.73,3.92-3.33,6.07-4.78l-37.8-177.1   C674.425,431.725,670.265,431.125,666.175,430.015z" style="fill:#231F20;"/><path d="M720.475,664.715c6.39,14.3,23.22,20.74,37.52,14.35c6.93-3.09,12.24-8.7,14.95-15.79   c2.71-7.09,2.49-14.81-0.6-21.73c-1.55-3.47-3.73-6.53-6.4-9.06c-2.68-2.53-5.85-4.53-9.39-5.89c-3.3-1.26-6.73-1.89-10.16-1.89   c-0.36,0-0.71,0.01-1.07,0.03c-3.58,0.13-7.14,0.95-10.51,2.46c-1.54,0.69-2.99,1.5-4.34,2.42c-7.47,5.04-11.96,13.3-12.43,22.03   v0.01c-0.13,2.45,0.05,4.94,0.59,7.4C719.035,660.965,719.645,662.865,720.475,664.715z" style="fill:#231F20;"/><path d="M152.231,721.012c0,16.5,13.5,30,30,30h178.717l121.684,90.506c10.309,7.667,24.426,7.667,34.736,0   l121.684-90.506h178.717c16.5,0,30-13.5,30-30v-440.48H152.231V721.012z M390.935,575.105c8.71-3.89,17.92-5.26,26.8-4.4   l38.01-110.87c-8.56-5.42-15.67-13.33-20.11-23.26c-5.82-13.03-6.22-27.54-1.12-40.87c5.09-13.32,15.07-23.86,28.1-29.68   c13.02-5.82,27.53-6.22,40.86-1.13c13.32,5.1,23.87,15.07,29.69,28.1l93.44-17.38c0.29-5.5,1.45-10.979,3.47-16.27   c5.09-13.33,15.07-23.87,28.1-29.69c13.02-5.82,27.53-6.22,40.86-1.13c13.32,5.1,23.86,15.08,29.68,28.1   c5.82,13.03,6.22,27.54,1.13,40.86c-4.93,12.89-14.42,23.17-26.82,29.1l37.04,173.51c22.6-2.69,45.34,9.4,55.1,31.25   c5.82,13.02,6.22,27.53,1.13,40.86c-5.1,13.32-15.08,23.87-28.1,29.69c-6.97,3.11-14.36,4.67-21.77,4.67   c-6.44,0-12.89-1.18-19.09-3.55c-13.33-5.09-23.87-15.07-29.69-28.1c-2.55-5.7-4.06-11.69-4.52-17.75l-229.55-17   c-0.29,0.93-0.62,1.85-0.97,2.77c-5.09,13.32-15.07,23.87-28.09,29.69c-7.06,3.15-14.44,4.64-21.71,4.64   c-20.44,0-39.98-11.78-48.84-31.62C351.945,618.765,364.045,587.115,390.935,575.105z M212.659,332.476h92.383   c6.904,0,12.5,5.597,12.5,12.5c0,6.904-5.596,12.5-12.5,12.5h-92.383c-6.904,0-12.5-5.596-12.5-12.5   C200.159,338.073,205.755,332.476,212.659,332.476z M212.659,382.476h59.05c6.904,0,12.5,5.597,12.5,12.5   c0,6.904-5.596,12.5-12.5,12.5h-59.05c-6.904,0-12.5-5.596-12.5-12.5C200.159,388.073,205.755,382.476,212.659,382.476z    M212.659,432.476h19.716c6.904,0,12.5,5.597,12.5,12.5c0,6.904-5.596,12.5-12.5,12.5h-19.716c-6.904,0-12.5-5.596-12.5-12.5   C200.159,438.073,205.755,432.476,212.659,432.476z M212.659,672.04h92.383c6.904,0,12.5,5.597,12.5,12.5   c0,6.904-5.596,12.5-12.5,12.5h-92.383c-6.904,0-12.5-5.596-12.5-12.5C200.159,677.637,205.755,672.04,212.659,672.04z" style="fill:#231F20;"/><path d="M617.175,575.185c-7.06,3.15-14.44,4.64-21.71,4.64c-12.7,0.01-25.04-4.54-34.7-12.74l-95.78,45.69   v0.01c0.18,0.82,0.33,1.63,0.46,2.45l227.81,16.87l-73.64-58.08C618.815,574.425,617.995,574.815,617.175,575.185z" style="fill:#231F20;"/><path d="M656.795,394.885c0.12,0.16,0.24,0.32,0.36,0.479c3.18,4.31,7.53,7.62,12.66,9.58   c1.07,0.41,2.15,0.75,3.24,1.03c1.89,0.48,3.8,0.75,5.72,0.83c4.34,0.19,8.69-0.63,12.77-2.45c2.16-0.96,4.16-2.17,5.97-3.59   c4.01-3.14,7.11-7.32,8.98-12.21c2.71-7.08,2.5-14.8-0.6-21.73c-1.55-3.47-3.72-6.52-6.4-9.05c-2.67-2.53-5.84-4.54-9.39-5.89   c-3.3-1.26-6.73-1.89-10.16-1.89c-3.94,0-7.87,0.83-11.58,2.48c-8.02,3.58-13.56,10.45-15.75,18.31   c-1.73,6.16-1.4,12.93,1.41,19.22C654.795,391.735,655.735,393.375,656.795,394.885z" style="fill:#231F20;"/></g></svg>