<?xml version="1.0" ?><svg id="Layer_2" style="enable-background:new 0 0 1000 1000;" version="1.1" viewBox="0 0 1000 1000" xml:space="preserve" xmlns="http://www.w3.org/2000/svg" xmlns:xlink="http://www.w3.org/1999/xlink"><g><path d="M152.09,182.23v58.88h695.82v-58.88c0-16.5-13.5-30-30-30H182.09   C165.59,152.23,152.09,165.73,152.09,182.23z M767,196.67c0-6.88,5.62-12.5,12.5-12.5h28.37c3.43,0,6.56,1.4,8.83,3.67   c2.26,2.27,3.67,5.39,3.67,8.83c0,6.87-5.63,12.5-12.5,12.5H779.5c-3.44,0-6.56-1.41-8.83-3.67C768.4,203.23,767,200.11,767,196.67   z M690.33,196.67c0-6.88,5.63-12.5,12.5-12.5h28.37c3.44,0,6.56,1.4,8.83,3.67c2.27,2.27,3.67,5.39,3.67,8.83   c0,6.87-5.62,12.5-12.5,12.5h-28.37c-3.43,0-6.56-1.41-8.83-3.67C691.74,203.23,690.33,200.11,690.33,196.67z M613.67,196.67   c0-6.88,5.62-12.5,12.5-12.5h28.37c3.44,0,6.56,1.4,8.83,3.67c2.26,2.27,3.67,5.39,3.67,8.83c0,6.87-5.63,12.5-12.5,12.5h-28.37   c-3.44,0-6.57-1.41-8.83-3.67C615.08,203.23,613.67,200.11,613.67,196.67z" style="fill:#231F20;"/><path d="M495.51,575.63c-84.49,0-152.99,18.06-152.99,40.33c0,0.39,0.03,0.77,0.07,1.16h-0.07v73.49   c0,22.28,68.5,40.34,152.99,40.34c84.5,0,153-18.06,153-40.34v-73.49h-0.07c0.04-0.39,0.07-0.77,0.07-1.16   C648.51,593.69,580.01,575.63,495.51,575.63z M382.25,678.29c-6.9,0-12.5-5.6-12.5-12.5c0-6.91,5.6-12.5,12.5-12.5   s12.5,5.59,12.5,12.5C394.75,672.69,389.15,678.29,382.25,678.29z" style="fill:#231F20;"/><path d="M647.74,728.72c-9.62,5.63-22.28,10.53-37.67,14.59c-30.92,8.15-71.6,12.64-114.56,12.64   c-42.95,0-83.63-4.49-114.55-12.64c-15.4-4.06-28.06-8.96-37.67-14.59c-0.51,1.34-0.77,2.69-0.77,4.07c0,0.38,0.03,0.77,0.07,1.15   h-0.07v73.5c0,22.27,68.5,40.33,152.99,40.33c84.5,0,153-18.06,153-40.33v-73.5h-0.07c0.04-0.38,0.07-0.77,0.07-1.15   C648.51,731.41,648.25,730.06,647.74,728.72z M382.25,800.74c-6.9,0-12.5-5.6-12.5-12.5c0-6.9,5.6-12.5,12.5-12.5   s12.5,5.6,12.5,12.5C394.75,795.14,389.15,800.74,382.25,800.74z" style="fill:#231F20;"/><path d="M495.51,345.96c-43.65,0-79.16,35.51-79.16,79.16c0,43.66,35.51,79.17,79.16,79.17   c43.6,0,79.07-35.42,79.17-78.99c0-0.06-0.01-0.12-0.01-0.18s0.01-0.12,0.01-0.18C574.58,381.37,539.11,345.96,495.51,345.96z    M540.19,456.08c-2.42,3.5-6.32,5.38-10.28,5.38c-2.46,0-4.94-0.72-7.11-2.22l-34.41-23.84c-3.37-2.34-5.38-6.18-5.38-10.28v-44.33   c0-6.9,5.6-12.5,12.5-12.5c6.91,0,12.5,5.6,12.5,12.5v37.79l29.03,20.11C542.71,442.62,544.13,450.41,540.19,456.08z" style="fill:#231F20;"/><path d="M152.09,630.6c0,16.5,13.5,30,30,30h135.43v-43.48c0-0.18,0-0.36,0.01-0.54   c-0.01-0.2-0.01-0.41-0.01-0.62c0-10.07,4.13-24.65,23.8-36.91c9.83-6.13,23.17-11.44,39.64-15.78   c27.9-7.36,63.76-11.73,102.05-12.51v-22.22c-47.46-5.71-85.21-43.45-90.91-90.92h-13.92c-6.9,0-12.5-5.59-12.5-12.5   c0-6.9,5.6-12.5,12.5-12.5h13.92c5.7-47.46,43.45-85.21,90.91-90.91v-13.92c0-6.9,5.6-12.5,12.5-12.5c6.91,0,12.5,5.6,12.5,12.5   v13.92c47.47,5.7,85.22,43.45,90.92,90.91h13.9c6.91,0,12.5,5.6,12.5,12.5c0,6.91-5.59,12.5-12.5,12.5h-13.9   c-5.7,47.47-43.45,85.21-90.92,90.92v22.22c38.3,0.78,74.16,5.15,102.06,12.51c16.47,4.34,29.81,9.65,39.64,15.78   c19.67,12.26,23.8,26.84,23.8,36.91c0,0.2,0,0.41-0.01,0.62c0.01,0.18,0.01,0.36,0.01,0.54v43.48h144.4c16.5,0,30-13.5,30-30   V266.11H152.09V630.6z M737.73,571.96c-2.27,2.26-5.39,3.67-8.83,3.67h-36.95c-6.88,0-12.5-5.63-12.5-12.5   c0-3.44,1.41-6.56,3.67-8.83c2.26-2.27,5.39-3.67,8.83-3.67h36.95c6.87,0,12.5,5.62,12.5,12.5   C741.4,566.57,739.99,569.69,737.73,571.96z M737.73,368.29c-2.27,2.26-5.39,3.67-8.83,3.67h-36.95c-6.88,0-12.5-5.63-12.5-12.5   c0-3.44,1.41-6.57,3.67-8.83c2.26-2.26,5.39-3.67,8.83-3.67h36.95c6.87,0,12.5,5.62,12.5,12.5   C741.4,362.89,739.99,366.02,737.73,368.29z M762,301.03c2.26-2.26,5.39-3.67,8.83-3.67h32.74c6.87,0,12.5,5.63,12.5,12.5   c0,3.44-1.41,6.57-3.67,8.83c-2.27,2.26-5.4,3.67-8.83,3.67h-32.74c-6.88,0-12.5-5.62-12.5-12.5   C758.33,306.43,759.74,303.3,762,301.03z M762,350.63c2.26-2.26,5.39-3.67,8.83-3.67h32.74c6.87,0,12.5,5.62,12.5,12.5   c0,3.43-1.41,6.56-3.67,8.83c-2.27,2.26-5.4,3.67-8.83,3.67h-32.74c-6.88,0-12.5-5.63-12.5-12.5   C758.33,356.02,759.74,352.89,762,350.63z M762,554.3c2.26-2.27,5.39-3.67,8.83-3.67h32.74c6.87,0,12.5,5.62,12.5,12.5   c0,3.44-1.41,6.56-3.67,8.83c-2.27,2.26-5.4,3.67-8.83,3.67h-32.74c-6.88,0-12.5-5.63-12.5-12.5   C758.33,559.69,759.74,556.57,762,554.3z M621.17,301.03c2.27-2.26,5.39-3.67,8.83-3.67h98.9c6.87,0,12.5,5.63,12.5,12.5   c0,3.44-1.41,6.57-3.67,8.83c-2.27,2.26-5.39,3.67-8.83,3.67H630c-6.88,0-12.5-5.62-12.5-12.5   C617.5,306.43,618.9,303.3,621.17,301.03z M253.29,301.03c2.27-2.26,5.39-3.67,8.83-3.67h98.9c6.88,0,12.5,5.63,12.5,12.5   c0,3.44-1.4,6.57-3.67,8.83s-5.39,3.67-8.83,3.67h-98.9c-6.87,0-12.5-5.62-12.5-12.5C249.62,306.43,251.03,303.3,253.29,301.03z    M253.29,350.63c2.27-2.26,5.39-3.67,8.83-3.67h36.95c6.88,0,12.5,5.62,12.5,12.5c0,3.43-1.41,6.56-3.67,8.83   c-2.26,2.26-5.39,3.67-8.83,3.67h-36.95c-6.87,0-12.5-5.63-12.5-12.5C249.62,356.02,251.03,352.89,253.29,350.63z M253.29,554.3   c2.27-2.27,5.39-3.67,8.83-3.67h36.95c6.88,0,12.5,5.62,12.5,12.5c0,3.44-1.41,6.56-3.67,8.83c-2.26,2.26-5.39,3.67-8.83,3.67   h-36.95c-6.87,0-12.5-5.63-12.5-12.5C249.62,559.69,251.03,556.57,253.29,554.3z M178.63,301.03c2.27-2.26,5.39-3.67,8.83-3.67   h32.73c6.88,0,12.5,5.63,12.5,12.5c0,3.44-1.41,6.57-3.67,8.83c-2.26,2.26-5.39,3.67-8.83,3.67h-32.73c-6.88,0-12.5-5.62-12.5-12.5   C174.96,306.43,176.36,303.3,178.63,301.03z M178.63,350.63c2.27-2.26,5.39-3.67,8.83-3.67h32.73c6.88,0,12.5,5.62,12.5,12.5   c0,3.43-1.41,6.56-3.67,8.83c-2.26,2.26-5.39,3.67-8.83,3.67h-32.73c-6.88,0-12.5-5.63-12.5-12.5   C174.96,356.02,176.36,352.89,178.63,350.63z M178.63,554.3c2.27-2.27,5.39-3.67,8.83-3.67h32.73c6.88,0,12.5,5.62,12.5,12.5   c0,3.44-1.41,6.56-3.67,8.83c-2.26,2.26-5.39,3.67-8.83,3.67h-32.73c-6.88,0-12.5-5.63-12.5-12.5   C174.96,559.69,176.36,556.57,178.63,554.3z" style="fill:#231F20;"/></g></svg>