<?xml version="1.0" ?><svg id="Layer_2" style="enable-background:new 0 0 1000 1000;" version="1.1" viewBox="0 0 1000 1000" xml:space="preserve" xmlns="http://www.w3.org/2000/svg" xmlns:xlink="http://www.w3.org/1999/xlink"><g><path d="M152.088,727.341c0,16.569,13.432,30,30,30h635.824c16.568,0,30-13.431,30-30v-59.193H152.088   V727.341z" style="fill:#231F20;"/><polygon points="437.39,782.338 392.1,827.638 392.1,848.418 607.9,848.418 607.9,827.638 562.61,782.338     " style="fill:#231F20;"/><path d="M575.82,312.742h5.615v-28.831c0-15.795,6.106-30.186,16.07-40.957h-60.368v48.67h1.678   C554.54,291.625,568.321,300.111,575.82,312.742z" style="fill:#231F20;"/><path d="M417.839,312.742h5.615c7.499-12.631,21.28-21.117,37.005-21.117h1.679v-48.67h-60.369   c9.965,10.771,16.07,25.162,16.07,40.957V312.742z" style="fill:#231F20;"/><path d="M817.912,242.954H715.697c-2.428,30.76-27.996,55.115-59.262,55.578v28.837   c0,19.725-9.51,37.271-24.183,48.295c14.674,11.024,24.183,28.571,24.183,48.296v28.837c32.873,0.486,59.469,27.379,59.469,60.366   v2.449c14.532,11.382,23.521,29.07,23.521,48.113c0,33.648-27.374,61.022-61.021,61.022s-61.023-27.375-61.023-61.022   c0-13.673,4.635-26.648,12.628-37.092c-27.659-5.503-48.574-29.963-48.574-59.215v-28.831h-8.01   c-7.815,10.595-20.386,17.394-34.61,17.394h-1.678v59.63c14.533,11.383,23.523,29.071,23.523,48.114   c0,33.648-27.375,61.022-61.023,61.022s-61.022-27.375-61.022-61.022c0-19.044,8.989-36.732,23.522-48.114v-59.63h-1.679   c-14.225,0-26.794-6.797-34.609-17.394h-8.011v28.831c0,29.253-20.914,53.712-48.573,59.215   c7.993,10.443,12.628,23.418,12.628,37.092c0,33.648-27.375,61.022-61.022,61.022s-61.022-27.375-61.022-61.022   c0-19.044,8.989-36.732,23.522-48.114v-2.448c0-32.987,26.595-59.879,59.468-60.366v-28.837c0-19.725,9.51-37.271,24.184-48.296   c-14.674-11.024-24.184-28.57-24.184-48.295v-28.837c-31.266-0.462-56.833-24.817-59.261-55.578h-101.49c-16.568,0-30,13.431-30,30   v370.193h695.824V272.954C847.912,256.386,834.481,242.954,817.912,242.954z" style="fill:#231F20;"/><path d="M308.371,221.396v16.771c0,19.504,15.868,35.372,35.372,35.372h13.724   c5.719,0,10.372,4.653,10.372,10.373v43.458c0,19.504,15.868,35.373,35.373,35.373h39.247v25.846h-39.247   c-19.505,0-35.373,15.868-35.373,35.372v43.458c0,5.719-4.653,10.373-10.372,10.373h-13.724c-19.504,0-35.372,15.868-35.372,35.372   v16.77c-13.732,5.082-23.522,18.292-23.522,33.792c0,19.895,16.128,36.023,36.022,36.023s36.022-16.128,36.022-36.023   c0-15.499-9.79-28.71-23.522-33.791v-16.771c0-5.719,4.653-10.372,10.372-10.372h13.724c19.504,0,35.372-15.868,35.372-35.373   v-43.458c0-5.719,4.653-10.372,10.373-10.372h39.277c0.323,9.658,8.233,17.394,17.97,17.394h26.679v98.952   c-13.732,5.082-23.522,18.292-23.522,33.792c0,19.895,16.127,36.023,36.022,36.023c19.895,0,36.023-16.128,36.023-36.023   c0-15.499-9.79-28.709-23.523-33.791v-98.953h26.678c9.736,0,17.647-7.736,17.97-17.394h39.277c5.72,0,10.373,4.653,10.373,10.372   v43.458c0,19.504,15.868,35.373,35.372,35.373h13.724c5.72,0,10.373,4.653,10.373,10.372v16.77   c-13.732,5.082-23.523,18.292-23.523,33.792c0,19.895,16.127,36.023,36.023,36.023c19.895,0,36.021-16.128,36.021-36.023   c0-15.499-9.789-28.709-23.521-33.791v-16.771c0-19.504-15.868-35.372-35.373-35.372h-13.724c-5.719,0-10.372-4.653-10.372-10.373   v-43.458c0-19.504-15.868-35.372-35.373-35.372h-39.247v-25.846h39.247c19.505,0,35.373-15.868,35.373-35.373v-43.458   c0-5.719,4.653-10.373,10.372-10.373h13.724c19.505,0,35.373-15.868,35.373-35.372v-16.771   c13.732-5.082,23.521-18.292,23.521-33.791c0-19.895-16.127-36.022-36.021-36.022c-19.896,0-36.023,16.128-36.023,36.022   c0,15.499,9.79,28.71,23.523,33.792v16.771c0,5.719-4.653,10.372-10.373,10.372h-13.724c-19.504,0-35.372,15.868-35.372,35.373   v43.458c0,5.719-4.653,10.373-10.373,10.373h-39.247v-3.117c0-9.941-8.059-18-18-18h-26.678v-95.229   c13.732-5.082,23.523-18.292,23.523-33.791c0-19.895-16.128-36.022-36.023-36.022c-19.896,0-36.022,16.128-36.022,36.022   c0,15.499,9.79,28.71,23.522,33.792v95.229h-26.679c-9.941,0-18,8.059-18,18v3.117h-39.247c-5.72,0-10.373-4.653-10.373-10.373   v-43.458c0-19.504-15.868-35.373-35.372-35.373h-13.724c-5.719,0-10.372-4.653-10.372-10.372v-16.771   c13.732-5.082,23.522-18.292,23.522-33.792c0-19.895-16.128-36.022-36.022-36.022s-36.022,16.128-36.022,36.022   C284.849,203.104,294.639,216.315,308.371,221.396z" style="fill:#231F20;"/></g></svg>