<?xml version="1.0" ?><svg id="Layer_2" style="enable-background:new 0 0 1000 1000;" version="1.1" viewBox="0 0 1000 1000" xml:space="preserve" xmlns="http://www.w3.org/2000/svg" xmlns:xlink="http://www.w3.org/1999/xlink"><path d="M152.231,181.96v72.8h695.537v-72.8c0-16.5-13.5-30-30-30H182.231  C165.731,151.96,152.231,165.46,152.231,181.96z M755.249,203.36c0-6.875,5.625-12.5,12.5-12.5h28c6.875,0,12.5,5.625,12.5,12.5  s-5.625,12.5-12.5,12.5h-28C760.874,215.86,755.249,210.235,755.249,203.36z M671.749,203.36c0-6.875,5.625-12.5,12.5-12.5h28  c6.875,0,12.5,5.625,12.5,12.5s-5.625,12.5-12.5,12.5h-28C677.374,215.86,671.749,210.235,671.749,203.36z M588.249,203.36  c0-6.875,5.625-12.5,12.5-12.5h28c6.875,0,12.5,5.625,12.5,12.5s-5.625,12.5-12.5,12.5h-28  C593.874,215.86,588.249,210.235,588.249,203.36z" style="fill:#231F20;"/><g><polygon points="607.401,346.51 238.831,346.51 423.121,445.33  " style="fill:#231F20;"/><rect height="34.01" style="fill:#231F20;" width="84.96" x="546.591" y="747.51"/><rect height="34.01" style="fill:#231F20;" width="84.96" x="380.641" y="747.51"/><rect height="34.01" style="fill:#231F20;" width="84.96" x="214.681" y="747.51"/><polygon points="631.551,557.09 631.551,361.93 449.571,459.51  " style="fill:#231F20;"/><polygon points="214.681,361.92 214.681,557.1 396.671,459.51  " style="fill:#231F20;"/><path d="M152.231,279.76v538.51c0,16.5,13.5,30,30,30H694V279.76H152.231z M324.641,794.019   c0,6.91-5.59,12.5-12.5,12.5h-109.96c-6.9,0-12.5-5.59-12.5-12.5v-59.01c0-6.91,5.6-12.5,12.5-12.5h109.96   c6.91,0,12.5,5.59,12.5,12.5V794.019z M189.685,685.009c0-6.903,5.596-12.5,12.5-12.5h83.866c6.903,0,12.5,5.597,12.5,12.5   c0,6.903-5.596,12.5-12.5,12.5h-83.866C195.281,697.509,189.685,691.912,189.685,685.009z M490.601,794.019   c0,6.91-5.6,12.5-12.5,12.5h-109.96c-6.91,0-12.5-5.59-12.5-12.5v-59.01c0-6.91,5.59-12.5,12.5-12.5h109.96   c6.9,0,12.5,5.59,12.5,12.5V794.019z M656.551,794.019c0,6.91-5.6,12.5-12.5,12.5h-109.96c-6.9,0-12.5-5.59-12.5-12.5v-59.01   c0-6.91,5.6-12.5,12.5-12.5h109.96c6.9,0,12.5,5.59,12.5,12.5V794.019z M644.051,647.509H202.185c-6.903,0-12.5-5.596-12.5-12.499   c0-6.904,5.596-12.5,12.5-12.5h441.866c6.903,0,12.5,5.596,12.5,12.5C656.551,641.913,650.954,647.509,644.051,647.509z    M656.551,348.52V570.5v12.76c0,5.07-2.65,9.519-6.64,12.05c-2.2,1.391-4.81,2.2-7.61,2.2h-438.37c-2.8,0-5.41-0.81-7.61-2.2   c-3.99-2.53-6.64-6.979-6.64-12.05V570.5V348.52v-12.76c0-5.07,2.65-9.52,6.64-12.05c2.2-1.391,4.81-2.2,7.61-2.2h438.37   c2.8,0,5.41,0.81,7.61,2.2c3.99,2.53,6.64,6.98,6.64,12.05V348.52z" style="fill:#231F20;"/><polygon points="238.831,572.51 607.401,572.51 423.121,473.69  " style="fill:#231F20;"/></g><path d="M719,279.76v568.51h98.769c16.5,0,30-13.5,30-30V279.76H719z M813.634,793.764  c0,7.87-6.38,14.25-14.25,14.25h-32c-7.87,0-14.25-6.38-14.25-14.25v-32c0-7.87,6.38-14.25,14.25-14.25h32  c7.87,0,14.25,6.38,14.25,14.25V793.764z M813.634,708.264c0,7.87-6.38,14.25-14.25,14.25h-32c-7.87,0-14.25-6.38-14.25-14.25v-32  c0-7.869,6.38-14.25,14.25-14.25h32c7.87,0,14.25,6.381,14.25,14.25V708.264z M813.634,622.765c0,7.87-6.38,14.25-14.25,14.25h-32  c-7.87,0-14.25-6.38-14.25-14.25v-32c0-7.87,6.38-14.25,14.25-14.25h32c7.87,0,14.25,6.38,14.25,14.25V622.765z M813.634,537.265  c0,7.87-6.38,14.25-14.25,14.25h-32c-7.87,0-14.25-6.38-14.25-14.25v-32c0-7.87,6.38-14.25,14.25-14.25h32  c7.87,0,14.25,6.38,14.25,14.25V537.265z M813.634,451.765c0,7.87-6.38,14.25-14.25,14.25h-32c-7.87,0-14.25-6.38-14.25-14.25v-32  c0-7.87,6.38-14.25,14.25-14.25h32c7.87,0,14.25,6.38,14.25,14.25V451.765z M813.634,366.266c0,7.87-6.38,14.25-14.25,14.25h-32  c-7.87,0-14.25-6.38-14.25-14.25v-32c0-7.87,6.38-14.25,14.25-14.25h32c7.87,0,14.25,6.38,14.25,14.25V366.266z" style="fill:#231F20;"/></svg>