<?xml version="1.0" ?><svg id="Layer_2" style="enable-background:new 0 0 1000 1000;" version="1.1" viewBox="0 0 1000 1000" xml:space="preserve" xmlns="http://www.w3.org/2000/svg" xmlns:xlink="http://www.w3.org/1999/xlink"><g><path d="M676.497,791.644c-9.57,2.82-19.62,5.01-29.3,6.85c-39.56,7.51-91.84,11.64-147.2,11.64   c-55.35,0-107.63-4.13-147.19-11.64c-9.68-1.84-19.73-4.03-29.3-6.85c-15.98,5.481-25.08,11.78-25.08,18.49   c0,21.12,90.25,38.25,201.57,38.25c111.33,0,201.57-17.13,201.57-38.25C701.567,803.434,692.477,797.125,676.497,791.644z" style="fill:#231F20;"/><path d="M152.232,640.941c0,16.568,13.432,30,30,30h157.764c30.784,0,36.02,44.165,6.062,51.247   c-0.302,0.071-0.605,0.142-0.908,0.21c-0.081,0.019-0.159,0.037-0.239,0.056c-0.528,0.121-1.047,0.242-1.567,0.364   c-0.437,0.102-0.874,0.204-1.305,0.308c-0.508,0.121-1.009,0.244-1.51,0.366c-0.431,0.106-0.861,0.212-1.287,0.318   c-0.49,0.123-0.975,0.246-1.457,0.37c-0.424,0.109-0.843,0.218-1.261,0.328c-0.47,0.123-0.939,0.247-1.402,0.371   c-0.421,0.114-0.835,0.228-1.25,0.342c-0.447,0.124-0.896,0.246-1.336,0.371c-0.429,0.121-0.847,0.243-1.268,0.365   c-0.411,0.119-0.828,0.238-1.233,0.358c-0.78,0.232-1.548,0.465-2.302,0.7c-0.365,0.114-0.718,0.23-1.077,0.344   c-0.423,0.135-0.848,0.27-1.263,0.405c-0.37,0.121-0.729,0.244-1.092,0.366c-0.391,0.132-0.783,0.263-1.167,0.396   c-0.357,0.123-0.707,0.248-1.057,0.372c-0.374,0.133-0.747,0.267-1.113,0.4c-0.343,0.125-0.681,0.251-1.017,0.378   c-0.36,0.136-0.716,0.271-1.068,0.408c-0.324,0.126-0.647,0.251-0.964,0.377c-0.354,0.141-0.701,0.283-1.047,0.425   c-0.299,0.123-0.599,0.246-0.891,0.37c-0.36,0.152-0.709,0.306-1.059,0.459c-0.262,0.115-0.53,0.23-0.786,0.345   c-0.445,0.201-0.876,0.403-1.303,0.606c-0.234,0.11-0.467,0.221-0.695,0.333c-0.464,0.226-0.92,0.452-1.362,0.68   c-0.212,0.109-0.412,0.219-0.619,0.329c-0.317,0.168-0.634,0.337-0.939,0.506c-0.217,0.121-0.426,0.242-0.637,0.364   c-0.28,0.161-0.557,0.321-0.826,0.482c-0.207,0.125-0.408,0.25-0.609,0.375c-0.258,0.161-0.511,0.321-0.757,0.483   c-0.192,0.125-0.381,0.252-0.567,0.378c-0.241,0.164-0.474,0.328-0.704,0.493c-0.172,0.124-0.345,0.247-0.511,0.372   c-0.233,0.174-0.455,0.35-0.676,0.525c-0.145,0.115-0.294,0.229-0.433,0.345c-0.248,0.206-0.481,0.413-0.712,0.621   c-0.096,0.086-0.199,0.171-0.291,0.257c-0.314,0.292-0.609,0.585-0.888,0.879c-0.075,0.079-0.14,0.159-0.212,0.238   c-0.199,0.218-0.394,0.437-0.573,0.656c-0.092,0.112-0.173,0.225-0.259,0.337c-0.145,0.189-0.287,0.377-0.418,0.566   c-0.084,0.122-0.161,0.245-0.239,0.367c-0.115,0.181-0.226,0.363-0.328,0.545c-0.071,0.126-0.137,0.252-0.201,0.378   c-0.092,0.182-0.177,0.363-0.255,0.545c-0.054,0.125-0.108,0.251-0.155,0.377c-0.072,0.188-0.132,0.376-0.189,0.565   c-0.036,0.12-0.076,0.239-0.106,0.359c-0.052,0.207-0.09,0.415-0.125,0.623c-0.017,0.102-0.041,0.203-0.054,0.305   c-0.039,0.31-0.062,0.621-0.062,0.933c0,13.14,34.94,24.74,88.15,31.62c32.31,4.19,71.36,6.63,113.42,6.63s81.11-2.44,113.42-6.63   c53.22-6.88,88.15-18.48,88.15-31.62c0-0.312-0.023-0.623-0.062-0.933c-0.013-0.102-0.037-0.203-0.054-0.304   c-0.035-0.209-0.073-0.417-0.125-0.625c-0.03-0.12-0.069-0.239-0.105-0.358c-0.057-0.19-0.118-0.379-0.189-0.567   c-0.048-0.125-0.101-0.25-0.155-0.375c-0.079-0.183-0.164-0.366-0.256-0.548c-0.064-0.126-0.13-0.251-0.2-0.376   c-0.103-0.184-0.214-0.366-0.331-0.549c-0.077-0.121-0.153-0.243-0.236-0.364c-0.132-0.191-0.276-0.382-0.422-0.573   c-0.085-0.11-0.164-0.22-0.253-0.329c-0.184-0.226-0.384-0.45-0.589-0.675c-0.067-0.073-0.126-0.147-0.195-0.22   c-0.28-0.296-0.578-0.591-0.893-0.885c-0.082-0.077-0.174-0.152-0.259-0.229c-0.241-0.217-0.486-0.434-0.746-0.65   c-0.132-0.11-0.274-0.219-0.412-0.329c-0.228-0.181-0.457-0.363-0.699-0.543c-0.159-0.119-0.325-0.238-0.49-0.356   c-0.237-0.171-0.479-0.341-0.729-0.511c-0.178-0.121-0.359-0.242-0.544-0.362c-0.255-0.167-0.517-0.334-0.784-0.5   c-0.192-0.12-0.385-0.239-0.583-0.358c-0.28-0.168-0.569-0.336-0.861-0.503c-0.2-0.115-0.397-0.229-0.603-0.344   c-0.322-0.179-0.656-0.356-0.991-0.534c-0.19-0.101-0.374-0.202-0.568-0.302c-0.49-0.253-0.994-0.504-1.511-0.754   c-0.133-0.064-0.27-0.128-0.405-0.193c-0.479-0.228-0.965-0.455-1.466-0.681c-0.234-0.105-0.479-0.21-0.719-0.315   c-0.371-0.163-0.743-0.326-1.126-0.488c-0.277-0.117-0.563-0.234-0.846-0.351c-0.362-0.149-0.725-0.298-1.096-0.446   c-0.304-0.121-0.613-0.241-0.924-0.362c-0.366-0.142-0.735-0.283-1.109-0.423c-0.325-0.122-0.651-0.244-0.983-0.365   c-0.378-0.138-0.762-0.276-1.148-0.413c-0.341-0.121-0.682-0.243-1.03-0.363c-0.391-0.136-0.792-0.27-1.191-0.404   c-0.356-0.12-0.708-0.24-1.071-0.359c-0.425-0.14-0.861-0.277-1.295-0.416c-0.349-0.111-0.692-0.223-1.046-0.333   c-0.755-0.235-1.522-0.469-2.303-0.7c-0.411-0.122-0.835-0.243-1.253-0.364c-0.414-0.12-0.826-0.24-1.247-0.359   c-0.448-0.126-0.906-0.252-1.361-0.378c-0.404-0.111-0.806-0.223-1.216-0.333c-0.475-0.127-0.956-0.254-1.439-0.381   c-0.403-0.106-0.807-0.212-1.216-0.316c-0.497-0.128-0.997-0.254-1.502-0.381c-0.406-0.102-0.815-0.203-1.227-0.304   c-0.522-0.128-1.046-0.256-1.576-0.382c-0.396-0.095-0.797-0.189-1.198-0.282c-0.557-0.131-1.114-0.261-1.68-0.391   c-0.069-0.016-0.135-0.032-0.204-0.047c-0.303-0.069-0.605-0.139-0.906-0.21c-29.958-7.082-24.722-51.247,6.062-51.247h157.769   c16.568,0,30-13.432,30-30v-60.326H152.232V640.941z M500,618.551c13.807,0,25,11.193,25,25c0,13.807-11.193,25-25,25   c-13.807,0-25-11.193-25-25C475,629.744,486.193,618.551,500,618.551z" style="fill:#231F20;"/><path d="M631.347,386.384c20.815-10.445,38.703-23.378,52.707-37.886   c-14.004-14.508-31.892-27.44-52.707-37.886c-18.769-9.418-39.304-16.646-61.015-21.564c13.595,16.058,21.806,36.812,21.806,59.45   c0,22.638-8.212,43.392-21.806,59.45C592.044,403.031,612.579,395.803,631.347,386.384z" style="fill:#231F20;"/><path d="M631.347,253.3c-38.136-19.138-83.555-29.253-131.347-29.253   c-47.792,0-93.211,10.115-131.347,29.253c-33.751,16.936-59.82,40.405-74.082,66.542c1.665,3.051,3.496,6.063,5.476,9.035   C344.562,284.216,418.566,256.36,500,256.36c81.434,0,155.438,27.856,199.953,72.517c1.98-2.972,3.811-5.984,5.476-9.035   C691.168,293.706,665.099,270.237,631.347,253.3z" style="fill:#231F20;"/><path d="M567.139,348.499c0-37.021-30.118-67.139-67.139-67.139s-67.139,30.118-67.139,67.139   S462.98,415.637,500,415.637S567.139,385.519,567.139,348.499z M474.736,348.499c0-13.953,11.311-25.264,25.264-25.264   c13.953,0,25.264,11.311,25.264,25.264c0,13.953-11.311,25.264-25.264,25.264C486.047,373.762,474.736,362.451,474.736,348.499z" style="fill:#231F20;"/><path d="M500,440.637c-81.434,0-155.438-27.856-199.953-72.517c-1.98,2.972-3.811,5.984-5.476,9.035   c14.262,26.137,40.331,49.606,74.082,66.542C406.789,462.835,452.208,472.95,500,472.95c47.792,0,93.211-10.115,131.347-29.253   c33.751-16.936,59.82-40.405,74.082-66.542c-1.665-3.051-3.496-6.063-5.476-9.035C655.438,412.781,581.434,440.637,500,440.637z" style="fill:#231F20;"/><path d="M368.653,310.613c-20.815,10.445-38.703,23.378-52.707,37.886   c14.004,14.508,31.892,27.44,52.707,37.886c18.769,9.418,39.304,16.646,61.015,21.564c-13.595-16.058-21.806-36.812-21.806-59.45   c0-22.638,8.212-43.392,21.806-59.45C407.956,293.966,387.421,301.194,368.653,310.613z" style="fill:#231F20;"/><path d="M817.768,151.616H182.232c-16.568,0-30,13.432-30,30v373.661h695.537V181.616   C847.768,165.047,834.337,151.616,817.768,151.616z M202.024,193.694h53.392c6.795,0,12.304,5.509,12.304,12.304   c0,6.796-5.509,12.304-12.304,12.304h-53.392c-6.795,0-12.304-5.509-12.304-12.304C189.72,199.203,195.229,193.694,202.024,193.694   z M255.416,513.198h-53.392c-6.795,0-12.304-5.509-12.304-12.304c0-6.795,5.509-12.304,12.304-12.304h53.392   c6.795,0,12.304,5.509,12.304,12.304C267.72,507.689,262.211,513.198,255.416,513.198z M500,497.95   c-105.088,0-197.817-46.381-230.744-115.413l-2.567-5.382l2.567-5.382c3.855-8.083,8.541-15.85,13.96-23.274   c-5.419-7.424-10.104-15.191-13.96-23.274l-2.567-5.382l2.567-5.382C302.183,245.428,394.912,199.047,500,199.047   c105.088,0,197.817,46.381,230.744,115.413l2.567,5.382l-2.567,5.382c-3.855,8.083-8.541,15.851-13.96,23.274   c5.419,7.424,10.104,15.191,13.96,23.274l2.567,5.382l-2.567,5.382C697.817,451.569,605.088,497.95,500,497.95z M797.976,513.198   h-53.392c-6.795,0-12.304-5.509-12.304-12.304c0-6.795,5.509-12.304,12.304-12.304h53.392c6.795,0,12.304,5.509,12.304,12.304   C810.28,507.689,804.771,513.198,797.976,513.198z M797.976,218.302h-53.392c-6.795,0-12.304-5.509-12.304-12.304   c0-6.795,5.509-12.304,12.304-12.304h53.392c6.795,0,12.304,5.509,12.304,12.304C810.28,212.794,804.771,218.302,797.976,218.302z" style="fill:#231F20;"/></g></svg>