<?xml version="1.0" ?><svg id="Layer_2" style="enable-background:new 0 0 1000 1000;" version="1.1" viewBox="0 0 1000 1000" xml:space="preserve" xmlns="http://www.w3.org/2000/svg" xmlns:xlink="http://www.w3.org/1999/xlink"><path d="M817.91,308h-33.45v307c0,30.33-24.68,55-55,55H270.83c-30.33,0-55-24.67-55-55V308h-33.45  c-16.57,0-30,13.43-30,30v380c0,16.57,13.43,30,30,30h635.53c16.57,0,30-13.43,30-30V338C847.91,321.43,834.48,308,817.91,308z   M500.14,721.5c-6.9,0-12.5-5.6-12.5-12.5s5.6-12.5,12.5-12.5c6.91,0,12.5,5.6,12.5,12.5S507.05,721.5,500.14,721.5z" style="fill:#231F20;"/><path d="M591.31,843.96l-1.93,4.309H410.91l-1.94-4.309c-7.26-16.24-3.76-35.27,8.82-47.85L440.9,773h118.49  l23.11,23.11C595.07,808.69,598.58,827.72,591.31,843.96z" style="fill:#231F20;"/><path d="M240.831,182.731v72.8h518.688v-72.8c0-16.5-13.5-30-30-30H270.831  C254.331,152.731,240.831,166.231,240.831,182.731z M667,204.132c0-6.875,5.625-12.5,12.5-12.5h28c6.875,0,12.5,5.625,12.5,12.5  s-5.625,12.5-12.5,12.5h-28C672.625,216.632,667,211.007,667,204.132z M583.5,204.132c0-6.875,5.625-12.5,12.5-12.5h28  c6.875,0,12.5,5.625,12.5,12.5s-5.625,12.5-12.5,12.5h-28C589.125,216.632,583.5,211.007,583.5,204.132z M500,204.132  c0-6.875,5.625-12.5,12.5-12.5h28c6.875,0,12.5,5.625,12.5,12.5s-5.625,12.5-12.5,12.5h-28C505.625,216.632,500,211.007,500,204.132  z" style="fill:#231F20;"/><g><path d="M609.471,360c-14.146,0-25.614,11.468-25.614,25.613c0,14.146,11.468,25.614,25.614,25.614   s25.614-11.468,25.614-25.614C635.085,371.468,623.618,360,609.471,360z" style="fill:#231F20;"/><path d="M609.472,528c-6.892,0-12.5,5.346-12.5,11.917s5.608,11.918,12.5,11.918   c6.893,0,12.5-5.347,12.5-11.918S616.364,528,609.472,528z" style="fill:#231F20;"/><path d="M240.831,280.531V615c0,16.5,13.5,30,30,30h458.688c16.5,0,30-13.5,30-30V280.531H240.831z    M540.748,473.476c0,5.418-4.055,9.98-9.436,10.614l-17.161,2.023c-2.112,9.752-5.96,18.864-11.209,26.993l10.723,13.59   c3.356,4.253,2.998,10.346-0.833,14.178l-6.693,6.692c-3.831,3.832-9.924,4.19-14.178,0.833l-13.589-10.723   c-8.129,5.249-17.241,9.098-26.994,11.209l-2.023,17.162c-0.635,5.381-5.196,9.436-10.614,9.436h-9.465   c-5.418,0-9.979-4.056-10.614-9.436l-2.023-17.162c-9.752-2.111-18.865-5.96-26.994-11.209l-13.589,10.723   c-4.254,3.357-10.346,2.999-14.178-0.833l-6.693-6.692c-3.831-3.832-4.189-9.925-0.833-14.178l10.723-13.59   c-5.249-8.129-9.098-17.241-11.209-26.993l-17.161-2.023c-5.382-0.635-9.436-5.196-9.436-10.614v-9.466   c0-5.418,4.055-9.979,9.436-10.614l17.161-2.023c2.112-9.752,5.96-18.864,11.209-26.993l-10.723-13.59   c-3.356-4.254-2.999-10.346,0.833-14.178l6.693-6.692c3.832-3.832,9.924-4.189,14.178-0.833l13.589,10.723   c8.129-5.25,17.241-9.098,26.994-11.209l2.023-17.162c0.634-5.381,5.195-9.436,10.614-9.436h9.465c5.419,0,9.98,4.056,10.614,9.436   l2.023,17.162c9.752,2.111,18.865,5.959,26.994,11.209l13.589-10.723c4.254-3.356,10.346-2.999,14.178,0.833l6.693,6.692   c3.831,3.832,4.189,9.924,0.833,14.178l-10.723,13.59c5.25,8.129,9.098,17.241,11.209,26.993l17.161,2.023   c5.381,0.635,9.436,5.196,9.436,10.614V473.476z M673.085,542.738c0,3.229-2.417,5.947-5.624,6.325l-10.228,1.206   c-1.259,5.813-3.552,11.242-6.68,16.087l6.39,8.099c2,2.535,1.787,6.166-0.496,8.449l-3.989,3.989   c-2.283,2.283-5.914,2.497-8.449,0.496l-8.099-6.39c-4.844,3.128-10.275,5.422-16.087,6.68l-1.206,10.228   c-0.378,3.207-3.096,5.624-6.326,5.624h-5.641c-3.229,0-5.947-2.417-6.326-5.624l-1.206-10.228   c-5.812-1.258-11.243-3.552-16.087-6.68l-8.099,6.39c-2.535,2.001-6.166,1.787-8.449-0.496l-3.989-3.989   c-2.283-2.283-2.497-5.914-0.496-8.449l6.39-8.099c-3.129-4.845-5.422-10.275-6.68-16.087l-10.228-1.206   c-3.207-0.378-5.624-3.097-5.624-6.325v-5.642c0-3.229,2.417-5.947,5.624-6.325l10.228-1.206c1.258-5.813,3.552-11.243,6.68-16.087   l-6.39-8.1c-2-2.535-1.787-6.166,0.496-8.449l3.989-3.988c2.284-2.283,5.914-2.497,8.449-0.497l8.099,6.391   c4.844-3.128,10.275-5.422,16.087-6.681l1.206-10.228c0.378-3.207,3.096-5.623,6.326-5.623h5.641c3.229,0,5.948,2.416,6.326,5.623   l1.206,10.228c5.812,1.259,11.243,3.553,16.087,6.681l8.099-6.391c2.535-2,6.166-1.786,8.449,0.497l3.989,3.988   c2.283,2.283,2.497,5.914,0.496,8.449l-6.39,8.1c3.129,4.844,5.422,10.274,6.68,16.087l10.228,1.206   c3.207,0.378,5.624,3.096,5.624,6.325V542.738z M673.085,388.435c0,3.229-2.417,5.947-5.624,6.325l-10.228,1.206   c-1.259,5.813-3.552,11.243-6.68,16.087l6.39,8.1c2,2.535,1.787,6.166-0.496,8.449l-3.989,3.988   c-2.283,2.283-5.914,2.497-8.449,0.497l-8.099-6.391c-4.844,3.128-10.275,5.422-16.087,6.681l-1.206,10.227   c-0.378,3.207-3.096,5.623-6.326,5.623h-5.641c-3.229,0-5.947-2.416-6.326-5.623l-1.206-10.227   c-5.812-1.259-11.243-3.553-16.087-6.681l-8.099,6.391c-2.535,2-6.166,1.786-8.449-0.497l-3.989-3.988   c-2.283-2.283-2.497-5.914-0.496-8.449l6.39-8.1c-3.129-4.844-5.422-10.274-6.68-16.087l-10.228-1.206   c-3.207-0.378-5.624-3.096-5.624-6.325v-5.642c0-3.228,2.417-5.947,5.624-6.325l10.228-1.206c1.258-5.811,3.552-11.243,6.68-16.087   l-6.39-8.099c-2-2.535-1.787-6.166,0.496-8.45l3.989-3.988c2.284-2.283,5.914-2.497,8.449-0.496l8.099,6.39   c4.844-3.128,10.275-5.422,16.087-6.68l1.206-10.228c0.378-3.207,3.096-5.624,6.326-5.624h5.641c3.229,0,5.948,2.417,6.326,5.624   l1.206,10.228c5.812,1.258,11.243,3.552,16.087,6.68l8.099-6.39c2.535-2.001,6.166-1.787,8.449,0.496l3.989,3.988   c2.283,2.284,2.497,5.915,0.496,8.45l-6.39,8.099c3.129,4.844,5.422,10.274,6.68,16.087l10.228,1.206   c3.207,0.378,5.624,3.097,5.624,6.325V388.435z" style="fill:#231F20;"/><path d="M434.006,411.742c-31.43,0-57,25.57-57,57s25.57,57,57,57c31.43,0,57-25.57,57-57   S465.436,411.742,434.006,411.742z M434.006,500.742c-17.645,0-32-14.355-32-32s14.355-32,32-32c17.645,0,32,14.355,32,32   S451.651,500.742,434.006,500.742z" style="fill:#231F20;"/></g></svg>