<?xml version="1.0" ?><svg id="Layer_2" style="enable-background:new 0 0 1000 1000;" version="1.1" viewBox="0 0 1000 1000" xml:space="preserve" xmlns="http://www.w3.org/2000/svg" xmlns:xlink="http://www.w3.org/1999/xlink"><g><rect height="178.881" style="fill:#231F20;" width="107.757" x="600.757" y="323.975"/><rect height="178.881" style="fill:#231F20;" width="107.757" x="235.243" y="323.975"/><path d="M818.596,152.232H181.404c-16.568,0-30,13.431-30,30V574.6h697.191V182.232   C848.596,165.663,835.164,152.232,818.596,152.232z M309.167,198.975h117.667c6.903,0,12.5,5.596,12.5,12.5   c0,6.904-5.597,12.5-12.5,12.5H309.167c-6.903,0-12.5-5.596-12.5-12.5C296.667,204.572,302.264,198.975,309.167,198.975z    M222.743,198.975h37.091c6.903,0,12.5,5.596,12.5,12.5c0,6.904-5.597,12.5-12.5,12.5h-37.091c-6.903,0-12.5-5.596-12.5-12.5   C210.243,204.572,215.84,198.975,222.743,198.975z M368,515.357c0,6.904-5.596,12.5-12.5,12.5H222.743   c-6.903,0-12.5-5.596-12.5-12.5V311.475c0-6.904,5.597-12.5,12.5-12.5H355.5c6.904,0,12.5,5.596,12.5,12.5V515.357z    M550.757,514.455c0,6.652-5.392,12.045-12.045,12.045H405.045c-6.652,0-12.045-5.393-12.045-12.045v-0.91   c0-6.652,5.393-12.045,12.045-12.045h133.667c6.652,0,12.045,5.393,12.045,12.045V514.455z M550.757,465.812   c0,6.652-5.392,12.045-12.045,12.045H405.045c-6.651,0-12.045-5.393-12.045-12.045v-0.91c0-6.652,5.394-12.045,12.045-12.045   h133.667c6.652,0,12.045,5.393,12.045,12.045V465.812z M550.757,415.357c0,6.904-5.597,12.5-12.5,12.5H405.5   c-6.903,0-12.5-5.596-12.5-12.5V311.475c0-6.904,5.597-12.5,12.5-12.5h132.757c6.903,0,12.5,5.596,12.5,12.5V415.357z    M538.257,273.975H222.743c-6.903,0-12.5-5.597-12.5-12.5c0-6.904,5.597-12.5,12.5-12.5h315.514c6.903,0,12.5,5.596,12.5,12.5   C550.757,268.379,545.16,273.975,538.257,273.975z M733.514,515.357c0,6.904-5.597,12.5-12.5,12.5H588.257   c-6.903,0-12.5-5.596-12.5-12.5V311.475c0-6.904,5.597-12.5,12.5-12.5h132.757c6.903,0,12.5,5.596,12.5,12.5V515.357z    M721.014,273.975H588.257c-6.903,0-12.5-5.597-12.5-12.5c0-6.904,5.597-12.5,12.5-12.5h132.757c6.903,0,12.5,5.596,12.5,12.5   C733.514,268.379,727.917,273.975,721.014,273.975z M789.757,515.357c0,6.904-5.597,12.5-12.5,12.5c-6.903,0-12.5-5.596-12.5-12.5   V261.475c0-6.904,5.597-12.5,12.5-12.5c6.903,0,12.5,5.596,12.5,12.5V515.357z" style="fill:#231F20;"/><path d="M701.5,822.768h-0.121c-18.723,0-36.588-7.265-50.464-19.836   c-10.912-9.887-28.89-18.719-58.233-23.099c-42.625-6.362-49.126-33.518-44.271-60.176h-96.82   c4.854,26.658-1.646,53.814-44.271,60.176c-29.344,4.38-47.321,13.212-58.233,23.099c-13.876,12.571-31.741,19.836-50.464,19.836   H298.5c-6.903,0-12.5,5.596-12.5,12.5c0,6.904,5.597,12.5,12.5,12.5h35.484h159.555h12.922h159.555H701.5   c6.903,0,12.5-5.596,12.5-12.5C714,828.365,708.403,822.768,701.5,822.768z" style="fill:#231F20;"/><path d="M151.404,664.657c0,16.568,13.432,30,30,30h637.191c16.568,0,30-13.432,30-30V599.6H151.404V664.657   z M546.5,634.629c6.903,0,12.5,5.596,12.5,12.5c0,6.903-5.597,12.5-12.5,12.5s-12.5-5.597-12.5-12.5   C534,640.225,539.597,634.629,546.5,634.629z M453.5,634.629c6.903,0,12.5,5.596,12.5,12.5c0,6.903-5.597,12.5-12.5,12.5   s-12.5-5.597-12.5-12.5C441,640.225,446.597,634.629,453.5,634.629z" style="fill:#231F20;"/></g></svg>