<?xml version="1.0" ?><svg id="Layer_2" style="enable-background:new 0 0 1000 1000;" version="1.1" viewBox="0 0 1000 1000" xml:space="preserve" xmlns="http://www.w3.org/2000/svg" xmlns:xlink="http://www.w3.org/1999/xlink"><g><path d="M836.096,234.857c6.903,0,12.5-5.596,12.5-12.5l0,0c0-6.904-5.597-12.5-12.5-12.5h-45.358v-46.111   c0-6.904-5.596-12.5-12.5-12.5s-12.5,5.596-12.5,12.5v46.111h-74.959C635.997,173.868,570.444,152.93,500,152.93   s-135.997,20.937-190.778,56.926h-74.96v-46.111c0-6.904-5.596-12.5-12.5-12.5c-6.904,0-12.5,5.596-12.5,12.5v46.111h-45.358   c-6.903,0-12.5,5.596-12.5,12.5l0,0c0,6.904,5.597,12.5,12.5,12.5h45.358v74.829c-36.141,54.858-57.174,120.55-57.174,191.156   s21.033,136.298,57.174,191.156v74.58h-45.358c-6.903,0-12.5,5.596-12.5,12.5c0,6.904,5.597,12.5,12.5,12.5h45.358v44.36   c0,6.903,5.596,12.5,12.5,12.5c6.904,0,12.5-5.597,12.5-12.5v-44.36h74.58C363.7,827.72,429.393,848.754,500,848.754   s136.3-21.034,191.158-57.176h74.58v44.36c0,6.903,5.596,12.5,12.5,12.5s12.5-5.597,12.5-12.5v-44.36h45.358   c6.903,0,12.5-5.596,12.5-12.5c0-6.904-5.597-12.5-12.5-12.5h-45.358v-74.58c36.141-54.857,57.174-120.55,57.174-191.156   s-21.033-136.298-57.174-191.156v-74.829H836.096z M500,177.93c49.412,0,97.121,11.043,140.336,31.926H359.664   C402.879,188.973,450.588,177.93,500,177.93z M683.212,234.857c15.979,11.056,31.087,23.619,45.121,37.652   c13.928,13.928,26.409,28.914,37.405,44.76v367.146c-10.996,15.846-23.477,30.832-37.405,44.76   c-13.927,13.927-28.913,26.407-44.758,37.403h-367.15c-15.845-10.996-30.831-23.476-44.758-37.403   c-13.928-13.928-26.409-28.914-37.405-44.76V317.269c10.996-15.846,23.477-30.832,37.405-44.76   c14.033-14.033,29.142-26.596,45.121-37.652H683.212z M234.262,234.857h41.464c-14.953,12.621-28.827,26.479-41.464,41.417V234.857   z M177.088,500.842c0-49.606,11.131-97.495,32.174-140.844v281.688C188.219,598.337,177.088,550.448,177.088,500.842z    M234.262,766.578V725.41c12.554,14.84,26.328,28.614,41.167,41.168H234.262z M500,823.754c-49.607,0-97.497-11.132-140.847-32.176   h281.693C597.497,812.622,549.607,823.754,500,823.754z M765.738,766.578H724.57c14.84-12.554,28.614-26.328,41.167-41.168V766.578   z M822.912,500.842c0,49.606-11.131,97.495-32.174,140.844V359.998C811.781,403.348,822.912,451.236,822.912,500.842z    M765.738,276.274c-12.637-14.939-26.512-28.796-41.464-41.417h41.464V276.274z" style="fill:#231F20;"/><rect height="73.995" style="fill:#231F20;" width="73.995" x="561.998" y="364.849"/><rect height="73.995" style="fill:#231F20;" width="79.745" x="660.993" y="364.849"/><rect height="79.745" style="fill:#231F20;" width="73.995" x="463.002" y="260.104"/><rect height="73.995" style="fill:#231F20;" width="79.745" x="660.993" y="463.845"/><rect height="79.745" style="fill:#231F20;" width="73.995" x="561.998" y="260.104"/><rect height="73.995" style="fill:#231F20;" width="73.995" x="463.002" y="364.849"/><rect height="73.995" style="fill:#231F20;" width="73.995" x="561.998" y="463.845"/><rect height="73.995" style="fill:#231F20;" width="79.745" x="259.262" y="463.845"/><rect height="73.995" style="fill:#231F20;" width="73.995" x="463.002" y="463.845"/><rect height="73.995" style="fill:#231F20;" width="73.995" x="463.002" y="562.84"/><rect height="73.995" style="fill:#231F20;" width="73.995" x="364.007" y="364.849"/><rect height="73.995" style="fill:#231F20;" width="73.995" x="364.007" y="463.845"/><rect height="79.745" style="fill:#231F20;" width="73.995" x="364.007" y="260.104"/><path d="M259.26,339.852h79.75v-79.75h-14.6c-12.33,9.03-24.06,19.07-35.07,30.08   c-11.01,11.01-21.05,22.74-30.08,35.07V339.852z" style="fill:#231F20;"/><path d="M740.74,325.252c-9.03-12.33-19.07-24.06-30.08-35.07c-11.01-11.01-22.74-21.05-35.07-30.08h-14.6   v79.75h79.75V325.252z" style="fill:#231F20;"/><rect height="73.995" style="fill:#231F20;" width="79.745" x="660.993" y="562.84"/><path d="M710.66,711.502c11.01-11.01,21.05-22.74,30.08-35.07v-14.6h-79.75v79.75h14.6   C687.92,732.552,699.65,722.512,710.66,711.502z" style="fill:#231F20;"/><path d="M259.26,676.432c9.03,12.33,19.07,24.06,30.08,35.07c11.01,11.01,22.74,21.05,35.07,30.08h14.6   v-79.75h-79.75V676.432z" style="fill:#231F20;"/><rect height="73.995" style="fill:#231F20;" width="73.995" x="561.998" y="562.84"/><rect height="79.745" style="fill:#231F20;" width="73.995" x="561.998" y="661.835"/><rect height="73.995" style="fill:#231F20;" width="79.745" x="259.262" y="562.84"/><rect height="73.995" style="fill:#231F20;" width="73.995" x="364.007" y="562.84"/><rect height="73.995" style="fill:#231F20;" width="79.745" x="259.262" y="364.849"/><rect height="79.745" style="fill:#231F20;" width="73.995" x="364.007" y="661.835"/><rect height="79.745" style="fill:#231F20;" width="73.995" x="463.002" y="661.835"/></g></svg>