<?xml version="1.0" ?><svg id="Layer_2" style="enable-background:new 0 0 1000 1000;" version="1.1" viewBox="0 0 1000 1000" xml:space="preserve" xmlns="http://www.w3.org/2000/svg" xmlns:xlink="http://www.w3.org/1999/xlink"><g><path d="M242.14,291.89c-6.4-2.59-13.39,2.12-13.39,9.04V472.5c0,3.97,2.41,7.53,6.08,9.02l252.86,102.35   v-192.6L242.14,291.89z M447.69,524.52L268.75,452.1V345.82l178.94,72.42V524.52z" style="fill:#231F20;"/><polygon points="422.69,435.085 293.75,382.895 293.75,435.245 422.69,487.435  " style="fill:#231F20;"/><path d="M757.86,291.88l-245.55,99.38v192.6l252.86-102.35c3.67-1.49,6.08-5.05,6.08-9.02V300.92   C771.25,294,764.26,289.29,757.86,291.88z M731.25,452.09l-178.94,72.42V418.23l178.94-72.42V452.09z" style="fill:#231F20;"/><polygon points="706.25,382.89 577.31,435.08 577.31,487.43 706.25,435.24  " style="fill:#231F20;"/><path d="M373.26,720.805v74.49h0.8c-0.53,1.8-0.8,3.62-0.8,5.47c0,26.92,56.74,48.75,126.74,48.75   s126.74-21.83,126.74-48.75c0-1.85-0.269-3.67-0.8-5.47h0.8v-74.49c-35.76,11.62-80.16,17.95-126.74,17.95   S409.03,732.425,373.26,720.805z" style="fill:#231F20;"/><path d="M512.31,608.865c-0.427,0-0.854-0.011-1.28-0.033c-7.345-0.378-14.715-0.378-22.06,0   c-0.426,0.022-0.853,0.033-1.28,0.033c-3.17,0-6.36-0.61-9.38-1.83l-162.91-65.93v93.68h1.17c-0.76,2.62-1.17,5.27-1.17,7.97   c0,39.21,82.65,71,184.6,71c101.95,0,184.6-31.79,184.6-71c0-2.7-0.41-5.35-1.17-7.97h1.17v-93.69l-162.91,65.94   C518.67,608.256,515.48,608.865,512.31,608.865z" style="fill:#231F20;"/><path d="M748.96,250.49L503.65,151.2c-2.34-0.95-4.96-0.95-7.3,0l-245.31,99.29   c-8.11,3.28-8.11,14.76,0,18.04l245.31,99.28c2.34,0.94,4.96,0.94,7.3,0l245.31-99.28C757.07,265.25,757.07,253.77,748.96,250.49z    M643.67,272h-46.23l-17.19,28.61c-2.26,3.76-6.33,6.06-10.71,6.06c-0.11,0-0.23,0-0.34-0.01c-4.5-0.12-8.6-2.65-10.71-6.64   l-28.32-53.42l-26.82,30.22c-2.5,2.81-6.13,4.36-9.9,4.19c-3.77-0.17-7.26-2.03-9.5-5.06l-21.99-29.74l-28.91,41.12   c-3.87,5.51-11.4,6.96-17.04,3.29L382.03,268.5h-25.7c-6.9,0-12.5-5.6-12.5-12.5c0-6.91,5.6-12.5,12.5-12.5h29.41   c2.42,0,4.79,0.7,6.82,2.02l26.98,17.56l31.94-45.43c2.31-3.29,6.06-5.27,10.08-5.31c4.01-0.06,7.81,1.83,10.2,5.06l23.13,31.29   l28.54-32.15c2.72-3.07,6.76-4.6,10.83-4.12c4.07,0.49,7.64,2.94,9.56,6.56l26.4,49.79l9.43-15.71c2.26-3.76,6.33-6.06,10.72-6.06   h53.3c6.9,0,12.5,5.6,12.5,12.5S650.57,272,643.67,272z" style="fill:#231F20;"/></g></svg>