<?xml version="1.0" ?><svg id="Layer_2" style="enable-background:new 0 0 1000 1000;" version="1.1" viewBox="0 0 1000 1000" xml:space="preserve" xmlns="http://www.w3.org/2000/svg" xmlns:xlink="http://www.w3.org/1999/xlink"><g><path d="M817.769,183.796H182.231c-16.5,0-30,13.5-30,30v72.8h695.537v-72.8   C847.769,197.296,834.269,183.796,817.769,183.796z M628.749,247.696h-28c-6.875,0-12.5-5.625-12.5-12.5s5.625-12.5,12.5-12.5h28   c6.875,0,12.5,5.625,12.5,12.5S635.624,247.696,628.749,247.696z M712.249,247.696h-28c-6.875,0-12.5-5.625-12.5-12.5   s5.625-12.5,12.5-12.5h28c6.875,0,12.5,5.625,12.5,12.5S719.124,247.696,712.249,247.696z M795.749,247.696h-28   c-6.875,0-12.5-5.625-12.5-12.5s5.625-12.5,12.5-12.5h28c6.875,0,12.5,5.625,12.5,12.5S802.624,247.696,795.749,247.696z" style="fill:#231F20;"/><path d="M604.905,389.483h-50.814c-10.303,0-18.686-8.382-18.686-18.685v-0.815h-53.5v89.834h123V389.483z" style="fill:#231F20;"/><path d="M697.428,702.604c0,11.35,9.234,20.584,20.584,20.584c11.35,0,20.583-9.234,20.583-20.584   s-9.234-20.583-20.583-20.583C706.662,682.021,697.428,691.255,697.428,702.604z" style="fill:#231F20;"/><path d="M535.405,668.798v-0.815h-53.5v89.834h123v-70.334h-50.814   C543.788,687.483,535.405,679.102,535.405,668.798z" style="fill:#231F20;"/><path d="M738.595,563.9c0-11.35-9.234-20.584-20.583-20.584c-11.35,0-20.584,9.234-20.584,20.584   s9.234,20.583,20.584,20.583C729.361,584.483,738.595,575.25,738.595,563.9z" style="fill:#231F20;"/><path d="M152.231,786.204c0,16.5,13.5,30,30,30h635.537c16.5,0,30-13.5,30-30V311.596H152.231V786.204z    M629.905,760.567c0,12.268-9.981,22.25-22.25,22.25h-128.5c-12.269,0-22.25-9.982-22.25-22.25v-35.165h-116.5   c-23.43,0-42.5-19.07-42.5-42.5v-36.58h25v36.58c0,9.65,7.85,17.5,17.5,17.5h116.5v-35.169c0-12.269,9.981-22.25,22.25-22.25h59   c11.338,0,20.722,8.523,22.081,19.5h47.419c12.269,0,22.25,9.981,22.25,22.25V760.567z M672.428,563.9   c0-20.802,14.011-38.381,33.087-43.828v-51.049c-19.077-5.447-33.087-23.027-33.087-43.828c0-25.135,20.449-45.583,45.584-45.583   c25.135,0,45.583,20.448,45.583,45.583c0,20.798-14.007,38.376-33.08,43.826v51.053c19.072,5.45,33.08,23.027,33.08,43.826   c0,20.798-14.007,38.375-33.08,43.825v51.054c19.072,5.45,33.08,23.026,33.08,43.825c0,25.135-20.449,45.584-45.583,45.584   c-25.135,0-45.584-20.449-45.584-45.584c0-20.802,14.011-38.38,33.087-43.827v-51.05C686.438,602.28,672.428,584.701,672.428,563.9   z M297.905,444.902c0-23.44,19.07-42.5,42.5-42.5h116.5v-35.169c0-12.269,9.981-22.25,22.25-22.25h59   c11.338,0,20.722,8.523,22.081,19.5h47.419c12.269,0,22.25,9.981,22.25,22.25v75.834c0,12.268-9.981,22.25-22.25,22.25h-128.5   c-12.269,0-22.25-9.982-22.25-22.25v-35.165h-116.5c-9.65,0-17.5,7.85-17.5,17.5v41.46c-5.2-3.101-11.27-4.88-17.75-4.88h-7.25   V444.902z M236.405,588.233v-52.5v-19.5c0-5.385,4.365-9.75,9.75-9.75h59c5.385,0,9.75,4.365,9.75,9.75v9.75h59.75   c5.385,0,9.75,4.365,9.75,9.75v75.833c0,5.385-4.365,9.75-9.75,9.75h-128.5c-5.385,0-9.75-4.365-9.75-9.75V588.233z" style="fill:#231F20;"/><path d="M738.595,425.195c0-11.35-9.234-20.583-20.583-20.583c-11.35,0-20.584,9.233-20.584,20.583   c0,11.35,9.234,20.584,20.584,20.584C729.361,445.779,738.595,436.545,738.595,425.195z" style="fill:#231F20;"/></g></svg>