<?xml version="1.0" ?><svg id="Layer_2" style="enable-background:new 0 0 1000 1000;" version="1.1" viewBox="0 0 1000 1000" xml:space="preserve" xmlns="http://www.w3.org/2000/svg" xmlns:xlink="http://www.w3.org/1999/xlink"><g><path d="M817.769,215.86H182.231c-16.5,0-30,13.5-30,30v72.8h695.537v-72.8   C847.769,229.36,834.269,215.86,817.769,215.86z M628.749,279.76h-28c-6.875,0-12.5-5.625-12.5-12.5s5.625-12.5,12.5-12.5h28   c6.875,0,12.5,5.625,12.5,12.5S635.624,279.76,628.749,279.76z M712.249,279.76h-28c-6.875,0-12.5-5.625-12.5-12.5   s5.625-12.5,12.5-12.5h28c6.875,0,12.5,5.625,12.5,12.5S719.124,279.76,712.249,279.76z M795.749,279.76h-28   c-6.875,0-12.5-5.625-12.5-12.5s5.625-12.5,12.5-12.5h28c6.875,0,12.5,5.625,12.5,12.5S802.624,279.76,795.749,279.76z" style="fill:#231F20;"/><path d="M535.083,587.875h79c3.584,0,6.5-2.916,6.5-6.5v-34.949c0-3.584-2.916-6.5-6.5-6.5h-79   c-3.584,0-6.5,2.916-6.5,6.5v34.949C528.583,584.959,531.499,587.875,535.083,587.875z" style="fill:#231F20;"/><path d="M535.083,711.733h79c3.584,0,6.5-2.916,6.5-6.5v-34.949c0-3.584-2.916-6.5-6.5-6.5h-79   c-3.584,0-6.5,2.916-6.5,6.5v34.949C528.583,708.817,531.499,711.733,535.083,711.733z" style="fill:#231F20;"/><path d="M233.75,650.45h79c3.584,0,6.5-2.916,6.5-6.5v-160.1c0-3.584-2.916-6.5-6.5-6.5h-79   c-3.584,0-6.5,2.916-6.5,6.5v160.1C227.25,647.534,230.166,650.45,233.75,650.45z" style="fill:#231F20;"/><path d="M152.231,754.14c0,16.5,13.5,30,30,30h635.537c16.5,0,30-13.5,30-30V343.66H152.231V754.14z    M797.75,576.396c0,7.503-6.083,13.587-13.587,13.587H727.67c-7.504,0-13.587-6.083-13.587-13.587v-24.992   c0-7.504,6.083-13.587,13.587-13.587h56.493c7.504,0,13.587,6.083,13.587,13.587V576.396z M202.25,483.851   c0-17.369,14.131-31.5,31.5-31.5h79c17.369,0,31.5,14.131,31.5,31.5v7.6h40.833c9.649,0,17.5-7.851,17.5-17.5v-3.909   c0-23.435,19.065-42.5,42.5-42.5h58.5v-4.974c0-17.369,14.131-31.5,31.5-31.5h79c17.369,0,31.5,14.131,31.5,31.5v4.974h13.43   c2.704,0,4.903-2.199,4.903-4.903c0-16.489,13.415-29.904,29.904-29.904h20.263c0.002-7.502,6.085-13.583,13.587-13.583h56.493   c7.504,0,13.587,6.083,13.587,13.587v24.992c0,7.504-6.083,13.587-13.587,13.587H727.67c-7.502,0-13.585-6.081-13.587-13.583   H693.82c-2.704,0-4.904,2.2-4.904,4.904c0,16.488-13.415,29.903-29.903,29.903h-13.43v4.975c0,17.369-14.131,31.5-31.5,31.5h-79   c-17.369,0-31.5-14.131-31.5-31.5v-4.975h-58.5c-9.649,0-17.5,7.851-17.5,17.5v3.909c0,23.435-19.065,42.5-42.5,42.5H344.25v34.95   h159.333v-4.975c0-17.369,14.131-31.5,31.5-31.5h79c12.93,0,24.06,7.833,28.907,19h16.023c2.704,0,4.903-2.2,4.903-4.904v-27.051   c0-16.488,13.415-29.903,29.904-29.903h20.263c0.002-7.503,6.084-13.584,13.587-13.584h56.493c7.504,0,13.587,6.083,13.587,13.587   v24.992c0,7.504-6.083,13.587-13.587,13.587H727.67c-7.502,0-13.584-6.081-13.587-13.582H693.82c-2.704,0-4.904,2.199-4.904,4.903   v27.051c0,16.489-13.415,29.904-29.903,29.904h-13.43v9.949h13.43c16.488,0,29.903,13.415,29.903,29.903v27.052   c0,2.704,2.2,4.903,4.904,4.903h20.263c0.002-7.502,6.085-13.583,13.587-13.583h56.493c7.504,0,13.587,6.083,13.587,13.587v24.992   c0,7.504-6.083,13.587-13.587,13.587H727.67c-7.502,0-13.585-6.081-13.587-13.583H693.82c-16.489,0-29.904-13.415-29.904-29.903   v-27.052c0-2.704-2.199-4.903-4.903-4.903H642.99c-4.848,11.167-15.977,19-28.907,19h-79c-17.369,0-31.5-14.131-31.5-31.5V576.4   H344.25v34.95h40.833c23.435,0,42.5,19.065,42.5,42.5v3.908c0,9.649,7.851,17.5,17.5,17.5h58.5v-4.975   c0-17.369,14.131-31.5,31.5-31.5h79c17.369,0,31.5,14.131,31.5,31.5v5.306h13.43c16.488,0,29.903,13.415,29.903,29.904   c0,2.704,2.2,4.904,4.904,4.904h20.263v-0.328c0-7.504,6.083-13.587,13.587-13.587h56.493c7.504,0,13.587,6.083,13.587,13.587   v24.992c0,7.504-6.083,13.587-13.587,13.587H727.67c-7.391,0-13.391-5.904-13.57-13.252H693.82   c-16.489,0-29.904-13.415-29.904-29.904c0-2.704-2.199-4.904-4.903-4.904h-13.43v4.644c0,17.369-14.131,31.5-31.5,31.5h-79   c-17.369,0-31.5-14.131-31.5-31.5v-4.975h-58.5c-23.435,0-42.5-19.065-42.5-42.5v-3.908c0-9.649-7.851-17.5-17.5-17.5H344.25v7.6   c0,17.369-14.131,31.5-31.5,31.5h-79c-17.369,0-31.5-14.131-31.5-31.5V483.851z" style="fill:#231F20;"/><path d="M535.083,464.016h79c3.584,0,6.5-2.916,6.5-6.5v-34.948c0-3.584-2.916-6.5-6.5-6.5h-79   c-3.584,0-6.5,2.916-6.5,6.5v34.948C528.583,461.1,531.499,464.016,535.083,464.016z" style="fill:#231F20;"/></g></svg>