<?xml version="1.0" ?><svg id="Layer_2" style="enable-background:new 0 0 1000 1000;" version="1.1" viewBox="0 0 1000 1000" xml:space="preserve" xmlns="http://www.w3.org/2000/svg" xmlns:xlink="http://www.w3.org/1999/xlink"><path d="M152.231,245.86v72.8h695.537v-72.8c0-16.5-13.5-30-30-30H182.231  C165.731,215.86,152.231,229.36,152.231,245.86z M755.249,267.26c0-6.875,5.625-12.5,12.5-12.5h28c6.875,0,12.5,5.625,12.5,12.5  s-5.625,12.5-12.5,12.5h-28C760.874,279.76,755.249,274.135,755.249,267.26z M671.749,267.26c0-6.875,5.625-12.5,12.5-12.5h28  c6.875,0,12.5,5.625,12.5,12.5s-5.625,12.5-12.5,12.5h-28C677.374,279.76,671.749,274.135,671.749,267.26z M588.249,267.26  c0-6.875,5.625-12.5,12.5-12.5h28c6.875,0,12.5,5.625,12.5,12.5s-5.625,12.5-12.5,12.5h-28  C593.874,279.76,588.249,274.135,588.249,267.26z" style="fill:#231F20;"/><g><path d="M502.86,648.19c4.21,0,6.31-2.233,6.31-6.697v-30.347l14.766,33.045   c1.143,2.672,3.015,3.999,5.598,3.999c1.002,0,2.004-0.308,3.015-0.914c1.002-0.615,1.793-1.608,2.373-2.971l15.188-33.59v30.778   c0,4.465,2.101,6.697,6.311,6.697c4.288,0,6.433-2.233,6.433-6.697v-54.209c0-5.115-2.127-7.672-6.39-7.672   c-4.104,0-6.811,1.512-8.111,4.535l-18.817,41.799l-18.825-41.58c-1.441-3.173-3.709-4.755-6.812-4.755   c-4.974,0-7.461,2.523-7.461,7.558v54.323C496.436,645.957,498.572,648.19,502.86,648.19z" style="fill:#231F20;"/><path d="M454.646,592.46h8.965v49.252c0,4.315,2.136,6.478,6.425,6.478c4.209,0,6.318-2.162,6.318-6.478   V592.46h9.396c4.245,0,6.372-2.153,6.372-6.478c0-4.245-2.127-6.372-6.372-6.372h-31.103c-4.465,0-6.697,2.092-6.697,6.266   C447.948,590.271,450.181,592.46,454.646,592.46z" style="fill:#231F20;"/><path d="M152.231,343.66v410.48c0,16.5,13.5,30,30,30h635.537c16.5,0,30-13.5,30-30V343.66H152.231z    M193.5,510.98c0-6.63,5.37-12,12-12h234c6.63,0,12,5.37,12,12v27.99H383c-20.4,0-37,16.6-37,37v22.86H205.5c-6.63,0-12-5.37-12-12   V510.98z M617,563.971c6.627,0,12,5.373,12,12v75.858c0,6.627-5.373,12-12,12H383c-6.627,0-12-5.373-12-12v-75.858   c0-6.627,5.373-12,12-12H617z M451.5,716.82c0,6.63-5.37,12-12,12h-234c-6.63,0-12-5.37-12-12v-75.85c0-6.63,5.37-12,12-12H346   v22.86c0,20.4,16.6,37,37,37h68.5V716.82z M806.5,716.82c0,6.63-5.37,12-12,12h-306c-6.63,0-12-5.37-12-12v-27.99H617   c20.4,0,37-16.6,37-37v-75.86c0-20.4-16.6-37-37-37H476.5v-27.99c0-6.63,5.37-12,12-12h306c6.63,0,12,5.37,12,12V716.82z    M794,473.976H206c-6.903,0-12.5-5.596-12.5-12.5s5.597-12.5,12.5-12.5h588c6.903,0,12.5,5.596,12.5,12.5   S800.903,473.976,794,473.976z M794,423.976H206c-6.903,0-12.5-5.596-12.5-12.5s5.597-12.5,12.5-12.5h588   c6.903,0,12.5,5.596,12.5,12.5S800.903,423.976,794,423.976z" style="fill:#231F20;"/><path d="M576.291,648.19h24.898c1.793,0,3.331-0.607,4.588-1.819c1.257-1.213,1.89-2.716,1.89-4.5   c0-1.854-0.633-3.41-1.89-4.658c-1.257-1.248-2.795-1.872-4.588-1.872h-18.474v-49.235c0-4.333-2.136-6.495-6.425-6.495   c-4.21,0-6.31,2.127-6.31,6.372v55.835c0,1.802,0.589,3.314,1.767,4.535C572.925,647.574,574.437,648.19,576.291,648.19z" style="fill:#231F20;"/><path d="M398.863,648.19c4.14,0,6.205-2.048,6.205-6.152v-23.22h25.602v23.22   c0,4.104,2.206,6.152,6.636,6.152c4.069,0,6.108-2.048,6.108-6.152v-55.835c0-4.394-2.004-6.591-6.003-6.591   c-4.5,0-6.741,2.197-6.741,6.591v19.757h-25.602v-19.757c0-4.394-2.03-6.591-6.1-6.591c-4.43,0-6.636,2.197-6.636,6.591v55.835   C392.333,646.142,394.504,648.19,398.863,648.19z" style="fill:#231F20;"/></g></svg>