<?xml version="1.0" ?><svg id="Layer_2" style="enable-background:new 0 0 1000 1000;" version="1.1" viewBox="0 0 1000 1000" xml:space="preserve" xmlns="http://www.w3.org/2000/svg" xmlns:xlink="http://www.w3.org/1999/xlink"><g><path d="M817.765,152.23h-635.53c-16.57,0-30,13.43-30,30v13.53c8.63-5.65,18.94-8.93,30-8.93h635.53   c11.07,0,21.37,3.28,30,8.93v-13.53C847.765,165.66,834.335,152.23,817.765,152.23z" style="fill:#231F20;"/><path d="M182.235,681.96c-11.06,0-21.37-3.28-30-8.93v13.53c0,16.57,13.43,30,30,30h635.53   c16.57,0,30-13.43,30-30v-13.53c-8.63,5.65-18.93,8.93-30,8.93H182.235z" style="fill:#231F20;"/><path d="M599.175,815.99l-1.15-0.51c-24.35-10.83-35.23-39.42-24.23-63.7l4.63-10.22h-156.85l4.63,10.22   c11,24.28,0.12,52.87-24.23,63.7l-1.15,0.51c-12.56,5.58-20.66,18.03-20.66,31.78h239.67c0-6.87-2.02-13.43-5.62-18.95   C610.615,823.29,605.455,818.78,599.175,815.99z" style="fill:#231F20;"/><polygon points="381.884,489.315 488.744,538.376 488.744,444.806 381.884,395.745  " style="fill:#231F20;"/><polygon points="513.744,538.376 620.604,489.315 620.604,395.745 513.744,444.806  " style="fill:#231F20;"/><polygon points="501.244,329.464 399.342,376.25 501.244,423.035 603.146,376.25  " style="fill:#231F20;"/><path d="M817.765,211.83h-635.53c-16.57,0-30,13.43-30,30v385.13c0,16.56,13.43,30,30,30h635.53   c16.57,0,30-13.44,30-30V241.83C847.765,225.26,834.335,211.83,817.765,211.83z M197.432,260.812h171.952   c6.903,0,12.5,5.597,12.5,12.5c0,6.903-5.597,12.5-12.5,12.5H197.432c-6.903,0-12.5-5.597-12.5-12.5   C184.932,266.409,190.529,260.812,197.432,260.812z M241.596,438.728h-44.164c-6.903,0-12.5-5.597-12.5-12.5s5.597-12.5,12.5-12.5   h44.164c6.903,0,12.5,5.597,12.5,12.5S248.499,438.728,241.596,438.728z M289.748,388.062h-92.315c-6.903,0-12.5-5.597-12.5-12.5   c0-6.903,5.597-12.5,12.5-12.5h92.315c6.903,0,12.5,5.597,12.5,12.5C302.248,382.465,296.651,388.062,289.748,388.062z    M289.748,337.395h-92.315c-6.903,0-12.5-5.597-12.5-12.5c0-6.903,5.597-12.5,12.5-12.5h92.315c6.903,0,12.5,5.597,12.5,12.5   C302.248,331.798,296.651,337.395,289.748,337.395z M513.744,565.886v47.009c0,6.903-5.597,12.5-12.5,12.5   c-6.903,0-12.5-5.597-12.5-12.5v-47.009l-118.293-54.31l-36.212,23.723c-2.111,1.384-4.488,2.045-6.838,2.045   c-4.074,0-8.068-1.988-10.468-5.651c-3.783-5.774-2.169-13.523,3.607-17.306l36.345-23.81V376.25c0-0.61,0.044-1.214,0.131-1.807   c0.423-2.9,1.855-5.539,4.004-7.475c0.925-0.834,1.98-1.541,3.149-2.078l124.575-57.196v-51.799c0-6.903,5.597-12.5,12.5-12.5   c6.903,0,12.5,5.597,12.5,12.5v51.798l58.646,26.927l65.93,30.27c3.329,1.529,5.762,4.407,6.77,7.812   c0.336,1.134,0.514,2.328,0.514,3.549v114.326l36.345,23.81c5.775,3.783,7.39,11.531,3.606,17.306   c-2.399,3.663-6.394,5.651-10.468,5.651c-2.35,0-4.726-0.661-6.838-2.045l-36.212-23.723L513.744,565.886z M802.568,625.395   H675.099c-6.903,0-12.5-5.597-12.5-12.5c0-6.903,5.597-12.5,12.5-12.5h127.469c6.903,0,12.5,5.597,12.5,12.5   C815.068,619.798,809.471,625.395,802.568,625.395z M802.568,575.395h-44.163c-6.903,0-12.5-5.597-12.5-12.5   c0-6.903,5.597-12.5,12.5-12.5h44.163c6.903,0,12.5,5.597,12.5,12.5C815.068,569.798,809.471,575.395,802.568,575.395z" style="fill:#231F20;"/></g></svg>