<?xml version="1.0" ?><svg id="Layer_2" style="enable-background:new 0 0 1000 1000;" version="1.1" viewBox="0 0 1000 1000" xml:space="preserve" xmlns="http://www.w3.org/2000/svg" xmlns:xlink="http://www.w3.org/1999/xlink"><g><path d="M372.985,498.66h254.02c9.649,0,17.5-7.85,17.5-17.5v-127.5c0-9.65-7.851-17.5-17.5-17.5h-254.02   c-9.65,0-17.5,7.85-17.5,17.5v127.5C355.485,490.81,363.335,498.66,372.985,498.66z M453.145,376.86c0-8.64,9.35-14.05,16.84-9.73   l35.12,20.28l35.12,20.28c7.49,4.32,7.49,15.12,0,19.45l-35.12,20.27l-35.12,20.28c-7.49,4.32-16.84-1.08-16.84-9.72V376.86z" style="fill:#231F20;"/><path d="M152.235,609.6c0,16.5,13.5,30,30,30h611.416c-3.25,19.098-19.907,33.69-39.916,33.69h-535.86   c-36.199,0-65.64,29.45-65.64,65.64c0,36.2,29.44,65.65,65.64,65.65h406.301c5.5,24.71,27.55,43.19,53.92,43.19h114.43   c15.25,0,29.07-6.18,39.06-16.18c10-10,16.18-23.8,16.18-39.06c0-30.51-24.73-55.24-55.24-55.24h-114.43   c-15.26,0-29.06,6.18-39.06,16.18c-7.08,7.08-12.239,16.06-14.649,26.11H217.874c-22.409,0-40.64-18.23-40.64-40.65   c0-22.41,18.23-40.64,40.64-40.64h535.86c33.821,0,61.745-25.775,65.149-58.72h0.001c15.989-0.59,28.88-13.84,28.88-29.97V272.46   h-695.53V609.6z M669.505,780.03h29.85c6.88,0,12.5,5.62,12.5,12.5c0,3.44-1.4,6.56-3.67,8.83c-2.271,2.26-5.39,3.67-8.83,3.67   h-29.85c-3.57,0-6.811-1.52-9.091-3.95c-2.109-2.24-3.409-5.25-3.409-8.55c0-3.44,1.409-6.56,3.67-8.83   c0.06-0.06,0.12-0.12,0.18-0.16C663.105,781.36,666.165,780.03,669.505,780.03z M330.485,353.66c0-23.43,19.07-42.5,42.5-42.5   h254.02c23.439,0,42.5,19.07,42.5,42.5v127.5c0,23.44-19.061,42.5-42.5,42.5h-254.02c-23.43,0-42.5-19.06-42.5-42.5V353.66z    M297.125,575.9h405.74c6.91,0,12.5,5.6,12.5,12.5c0,6.9-5.59,12.5-12.5,12.5h-405.74c-6.899,0-12.5-5.6-12.5-12.5   C284.625,581.5,290.225,575.9,297.125,575.9z" style="fill:#231F20;"/><path d="M152.235,182.23v65.23h695.53v-65.23c0-16.5-13.5-30-30-30h-635.53   C165.735,152.23,152.235,165.73,152.235,182.23z M752.725,199.84c0-6.87,5.63-12.5,12.5-12.5h28c6.88,0,12.5,5.63,12.5,12.5   c0,6.88-5.62,12.5-12.5,12.5h-28C758.355,212.34,752.725,206.72,752.725,199.84z M669.225,199.84c0-6.87,5.63-12.5,12.5-12.5h28   c6.88,0,12.5,5.63,12.5,12.5c0,6.88-5.62,12.5-12.5,12.5h-28C674.855,212.34,669.225,206.72,669.225,199.84z M585.725,199.84   c0-6.87,5.63-12.5,12.5-12.5h28c6.88,0,12.5,5.63,12.5,12.5c0,6.88-5.62,12.5-12.5,12.5h-28   C591.355,212.34,585.725,206.72,585.725,199.84z" style="fill:#231F20;"/></g></svg>