<?xml version="1.0" ?><svg id="Layer_2" style="enable-background:new 0 0 1000 1000;" version="1.1" viewBox="0 0 1000 1000" xml:space="preserve" xmlns="http://www.w3.org/2000/svg" xmlns:xlink="http://www.w3.org/1999/xlink"><g><path d="M281.36,818.268c0,16.569,13.432,30,30,30h365.895c16.568,0,30-13.431,30-30v-61.563H281.36V818.268   z M494.307,782.333c11.131,0,20.153,9.023,20.153,20.154c0,11.13-9.022,20.153-20.153,20.153c-11.131,0-20.153-9.023-20.153-20.153   C474.154,791.356,483.176,782.333,494.307,782.333z" style="fill:#231F20;"/><path d="M500,522c-14.867,0-26.92,12.052-26.92,26.919c0,14.867,12.053,26.919,26.92,26.919   c14.866,0,26.919-12.052,26.919-26.919C526.919,534.052,514.867,522,500,522z" style="fill:#231F20;"/><path d="M718.64,274.667v-26c0-6.348-5.073-11.502-11.386-11.652v-54.283c0-16.569-13.432-30-30-30H311.36   c-16.568,0-30,13.431-30,30v548.973h425.895V367.652c6.313-0.15,11.386-5.304,11.386-11.652v-26   c0-6.349-5.073-11.502-11.386-11.653v-32.028C713.567,286.169,718.64,281.015,718.64,274.667z M480,185.919h40   c6.899,0,12.5,5.59,12.5,12.5c0,6.899-5.601,12.5-12.5,12.5h-40c-6.9,0-12.5-5.601-12.5-12.5   C467.5,191.509,473.1,185.919,480,185.919z M360.722,252.252h33.17c6.903,0,12.5,5.597,12.5,12.5c0,6.904-5.597,12.5-12.5,12.5   h-33.17c-6.903,0-12.5-5.596-12.5-12.5C348.222,257.849,353.819,252.252,360.722,252.252z M360.722,306.252h33.17   c6.903,0,12.5,5.596,12.5,12.5c0,6.904-5.597,12.5-12.5,12.5h-33.17c-6.903,0-12.5-5.596-12.5-12.5   C348.222,311.849,353.819,306.252,360.722,306.252z M635.64,553.825c0,18.286-13.694,33.69-31.852,35.83l-1.688,0.199   c-0.312,0.775-0.632,1.546-0.961,2.313l1.054,1.335c11.327,14.353,10.119,34.928-2.811,47.861l-6.938,6.937   c-6.814,6.814-15.875,10.567-25.514,10.567c-8.071,0-16.008-2.754-22.346-7.755l-1.336-1.055c-0.767,0.329-1.539,0.649-2.313,0.961   l-0.199,1.686c-2.14,18.161-17.543,31.856-35.83,31.856h-9.812c-18.286,0-33.689-13.695-35.829-31.853l-0.199-1.688   c-0.775-0.312-1.545-0.631-2.313-0.96l-1.336,1.054c-6.339,5.001-14.274,7.755-22.346,7.755c-9.639,0-18.7-3.753-25.516-10.568   l-6.935-6.936c-12.932-12.931-14.141-33.507-2.814-47.86l1.055-1.337c-0.329-0.768-0.649-1.539-0.961-2.313l-1.686-0.199   c-18.16-2.14-31.855-17.544-31.855-35.83v-9.811c0-18.286,13.695-33.69,31.854-35.83l1.688-0.199   c0.311-0.775,0.632-1.546,0.961-2.314l-1.054-1.335c-11.328-14.355-10.119-34.931,2.811-47.86l6.938-6.939   c6.814-6.814,15.876-10.567,25.516-10.567c8.071,0,16.007,2.755,22.345,7.755l1.336,1.054c0.769-0.329,1.538-0.649,2.313-0.96   l0.199-1.686c2.14-18.161,17.543-31.856,35.829-31.856h9.812c18.287,0,33.69,13.695,35.83,31.854l0.199,1.687   c0.774,0.311,1.546,0.632,2.313,0.961l1.335-1.054c6.339-5.001,14.274-7.756,22.347-7.756c9.638,0,18.699,3.753,25.514,10.567   l6.94,6.939c12.928,12.931,14.136,33.506,2.81,47.858l-1.055,1.336c0.329,0.767,0.649,1.539,0.961,2.313l1.686,0.199   c18.16,2.14,31.854,17.544,31.854,35.83V553.825z M627.892,385.252h-267.17c-6.903,0-12.5-5.596-12.5-12.5   c0-6.903,5.597-12.5,12.5-12.5h267.17c6.903,0,12.5,5.597,12.5,12.5C640.392,379.656,634.795,385.252,627.892,385.252z    M431.222,318.752c0-6.904,5.597-12.5,12.5-12.5h33.17c6.903,0,12.5,5.596,12.5,12.5c0,6.904-5.597,12.5-12.5,12.5h-33.17   C436.819,331.252,431.222,325.656,431.222,318.752z M627.892,331.252h-101.17c-6.903,0-12.499-5.596-12.499-12.5   c0-6.904,5.596-12.5,12.499-12.5h101.17c6.903,0,12.5,5.596,12.5,12.5C640.392,325.656,634.795,331.252,627.892,331.252z    M627.892,277.252h-184.17c-6.903,0-12.5-5.596-12.5-12.5c0-6.903,5.597-12.5,12.5-12.5h184.17c6.903,0,12.5,5.597,12.5,12.5   C640.392,271.656,634.795,277.252,627.892,277.252z" style="fill:#231F20;"/><path d="M600.86,533.012l-17.789-2.097c-2.188-10.109-6.177-19.554-11.618-27.98l11.114-14.086   c3.479-4.409,3.107-10.724-0.863-14.696l-6.938-6.937c-2.15-2.15-4.987-3.245-7.836-3.245c-2.414,0-4.837,0.786-6.859,2.382   l-14.086,11.115c-8.425-5.441-17.872-9.43-27.981-11.619l-2.097-17.788c-0.657-5.578-5.386-9.781-11.002-9.781h-9.812   c-5.616,0-10.344,4.203-11.001,9.781l-2.098,17.788c-10.108,2.189-19.555,6.178-27.979,11.619l-14.086-11.115   c-2.022-1.596-4.445-2.382-6.859-2.382c-2.85,0-5.686,1.095-7.837,3.245l-6.936,6.937c-3.972,3.971-4.344,10.287-0.864,14.696   l11.114,14.086c-5.44,8.425-9.43,17.871-11.618,27.979l-17.788,2.097c-5.579,0.657-9.781,5.385-9.781,11.002v9.811   c0,5.617,4.202,10.344,9.781,11.002l17.788,2.097c2.189,10.109,6.178,19.554,11.618,27.98l-11.114,14.086   c-3.479,4.409-3.107,10.724,0.864,14.696l6.936,6.937c2.15,2.15,4.987,3.245,7.837,3.245c2.414,0,4.837-0.786,6.859-2.381   l14.086-11.115c8.425,5.441,17.871,9.43,27.979,11.619l2.098,17.788c0.657,5.578,5.385,9.781,11.001,9.781h9.812   c5.616,0,10.345-4.203,11.002-9.781l2.097-17.788c10.108-2.189,19.556-6.178,27.981-11.619l14.086,11.115   c2.023,1.595,4.445,2.381,6.859,2.381c2.85,0,5.686-1.095,7.836-3.245l6.938-6.937c3.971-3.971,4.343-10.287,0.863-14.696   l-11.114-14.086c5.441-8.426,9.43-17.871,11.618-27.98l17.789-2.097c5.578-0.658,9.78-5.385,9.78-11.002v-9.811   C610.64,538.397,606.438,533.669,600.86,533.012z M500,600.838c-28.629,0-51.92-23.291-51.92-51.919S471.372,497,500,497   c28.628,0,51.919,23.291,51.919,51.919S528.628,600.838,500,600.838z" style="fill:#231F20;"/></g></svg>