<?xml version="1.0" ?><svg id="Layer_2" style="enable-background:new 0 0 1000 1000;" version="1.1" viewBox="0 0 1000 1000" xml:space="preserve" xmlns="http://www.w3.org/2000/svg" xmlns:xlink="http://www.w3.org/1999/xlink"><g><path d="M240.688,649.365v37.497c0,16.569,13.432,30,30,30h458.625c16.568,0,30-13.431,30-30v-37.497   H240.688z" style="fill:#231F20;"/><path d="M578.52,803.745c-14.24-9.43-35.34-26.11-40.52-44.88c-1.4-5.09-1.76-10.89-1.4-17h-73.2   c0.36,6.11,0,11.91-1.4,17c-5.18,18.77-26.28,35.45-40.52,44.88c-2.39,1.58-4.52,3.48-6.33,5.61c-4.56,5.36-7.15,12.22-7.15,19.43   v18.35h184v-18.35c0-7.21-2.59-14.07-7.15-19.43C583.04,807.225,580.91,805.325,578.52,803.745z" style="fill:#231F20;"/><path d="M643.333,285.865c6.6,0,12-5.4,12-12v-1c0-6.6-5.4-12-12-12h-22.275H378.941h-22.275   c-6.6,0-12,5.4-12,12v1c0,6.6,5.4,12,12,12h23.71h239.247H643.333z" style="fill:#231F20;"/><path d="M474.503,518.528l38.893,20.344c8.691,4.546,19.104-1.758,19.104-11.567v-89.912   c0-12.089,3.528-23.915,10.153-34.027l60.594-92.501H396.753l60.594,92.501c6.625,10.112,10.153,21.938,10.153,34.027v69.568   C467.5,511.82,470.198,516.276,474.503,518.528z" style="fill:#231F20;"/><path d="M564.387,196.622c3.197-3.428,7.737-5.587,12.783-5.587h79.16c9.65,0,17.5,7.85,17.5,17.5v43.42   v42.82v100.85c0,9.65-7.85,17.5-17.5,17.5h-90.18l-2.58,3.94c-3.97,6.06-6.07,13.09-6.07,20.33v0.73h98.83   c23.44,0,42.5-19.07,42.5-42.5v-187.09c0-23.44-19.06-42.5-42.5-42.5h-79.16c-18.768,0-34.718,12.225-40.334,29.129   c-23.352,3.641-42.674,19.428-51.309,40.701h123.28C601.037,216.723,584.612,202.028,564.387,196.622z" style="fill:#231F20;"/><path d="M343.67,438.125h98.83v-0.73c0-7.24-2.1-14.27-6.06-20.33l-2.58-3.94h-90.19   c-9.65,0-17.5-7.85-17.5-17.5v-100.85v-42.82v-32.09c0-9.65,7.85-17.5,17.5-17.5h47c5.127,14.283,18.783,24.5,34.83,24.5   c20.435,0,37-16.565,37-37s-16.565-37-37-37c-16.047,0-29.703,10.217-34.83,24.5h-47c-23.44,0-42.5,19.07-42.5,42.5v175.76   C301.17,419.055,320.23,438.125,343.67,438.125z" style="fill:#231F20;"/><path d="M759.31,407.365c0-16.57-13.43-30-30-30h-5.48v18.26c0,37.22-30.28,67.5-67.5,67.5H557.5v64.18   c0,10.45-4.13,20.18-11.63,27.39c-7.16,6.89-16.54,10.68-26.43,10.68c0,0,0,0-0.01,0c-6.08,0-12.18-1.5-17.62-4.35l-38.89-20.34   c-12.6-6.59-20.42-19.51-20.42-33.72v-43.84h-98.83c-37.22,0-67.5-30.28-67.5-67.5v-18.26h-5.48c-16.57,0-30,13.43-30,30v217   h518.62V407.365z M343.5,590.455c-2.26,2.26-5.39,3.66-8.84,3.66h-49.44c-6.91,0-12.5-5.6-12.5-12.5c0-3.45,1.4-6.58,3.66-8.84   c2.26-2.26,5.38-3.66,8.84-3.66h49.44c6.9,0,12.5,5.59,12.5,12.5C347.16,585.065,345.76,588.185,343.5,590.455z M403.5,539.455   c-2.26,2.26-5.39,3.66-8.84,3.66H285.22c-6.91,0-12.5-5.6-12.5-12.5c0-3.45,1.4-6.58,3.66-8.84c2.26-2.26,5.38-3.66,8.84-3.66   h109.44c6.9,0,12.5,5.59,12.5,12.5C407.16,534.065,405.76,537.185,403.5,539.455z M663.62,590.455c-2.26,2.26-5.38,3.66-8.84,3.66   h-49.44c-6.9,0-12.5-5.6-12.5-12.5c0-3.45,1.4-6.58,3.66-8.84s5.39-3.66,8.84-3.66h49.44c6.91,0,12.5,5.59,12.5,12.5   C667.28,585.065,665.88,588.185,663.62,590.455z M723.62,539.455c-2.26,2.26-5.38,3.66-8.84,3.66H605.34c-6.9,0-12.5-5.6-12.5-12.5   c0-3.45,1.4-6.58,3.66-8.84s5.39-3.66,8.84-3.66h109.44c6.91,0,12.5,5.59,12.5,12.5C727.28,534.065,725.88,537.185,723.62,539.455z   " style="fill:#231F20;"/></g></svg>