<?xml version="1.0" ?><svg id="Layer_2" style="enable-background:new 0 0 1000 1000;" version="1.1" viewBox="0 0 1000 1000" xml:space="preserve" xmlns="http://www.w3.org/2000/svg" xmlns:xlink="http://www.w3.org/1999/xlink"><g><path d="M817.24,305.419h-67.17v499h67.17c16.569,0,30-13.43,30-30v-439   C847.24,318.859,833.81,305.419,817.24,305.419z M811.16,736.209c0,6.9-5.601,12.5-12.5,12.5c-6.91,0-12.5-5.6-12.5-12.5v-6.73   c0-6.9,5.59-12.5,12.5-12.5c6.899,0,12.5,5.6,12.5,12.5V736.209z M811.16,574.919c0,6.9-5.601,12.5-12.5,12.5   c-6.91,0-12.5-5.6-12.5-12.5v-40c0-6.9,5.59-12.5,12.5-12.5c6.899,0,12.5,5.6,12.5,12.5V574.919z M811.16,380.359   c0,6.91-5.601,12.5-12.5,12.5c-6.91,0-12.5-5.59-12.5-12.5v-6.72c0-6.91,5.59-12.5,12.5-12.5c6.899,0,12.5,5.59,12.5,12.5V380.359z   " style="fill:#231F20;"/><path d="M425.541,364.569c8.369,0.68,17.211,1.048,26.365,1.048c9.143,0,17.995-0.369,26.365-1.048   c39.608-3.241,68.571-13.603,68.571-25.874c0-5.233-5.262-10.117-14.368-14.246c-2.352-41.517-21.472-80.474-53.202-107.756   l-22.438-19.286c-2.834-2.436-7.022-2.435-9.856,0.001l-22.43,19.285c-31.73,27.281-50.851,66.239-53.203,107.756   c-9.115,4.129-14.377,9.012-14.377,14.246C356.969,350.966,385.932,361.328,425.541,364.569z" style="fill:#231F20;"/><path d="M451.83,444.719c-11.85,0-21.5,9.64-21.5,21.5c0,11.86,9.65,21.51,21.5,21.51   c11.86,0,21.51-9.65,21.51-21.51C473.34,454.359,463.69,444.719,451.83,444.719z" style="fill:#231F20;"/><path d="M480.2,388.109c-9.21,0.75-18.72,1.12-28.29,1.12c-9.57,0-19.09-0.37-28.28-1.12   c-14.06-1.15-27.04-3.14-38.36-5.85v127.554l-26.936,16.267c-34.357,20.748-57.823,55.584-64.143,95.22l-10.817,67.86   c12.404,10.15,29.919,11.201,43.45,2.61l9.515-6.042c13.928-8.844,22.364-24.195,22.364-40.693l0,0   c0-29.299,9.435-57.588,26.567-80.844v69.399c-0.09,0.41-0.149,0.83-0.149,1.25c0,10.84,29.87,19.62,66.71,19.62   c36.84,0,66.72-8.78,66.72-19.62v-70.451c17.04,23.218,26.418,51.431,26.418,80.646l0,0c0,16.498,8.437,31.849,22.364,40.693   l9.515,6.042c13.531,8.592,31.046,7.54,43.45-2.61l-10.817-67.86c-6.319-39.636-29.785-74.472-64.143-95.22l-26.787-16.177V382.249   C507.23,384.969,494.25,386.959,480.2,388.109z M485.84,562.799h-68.01c-6.91,0-12.5-5.6-12.5-12.5c0-6.91,5.59-12.5,12.5-12.5   h68.01c6.91,0,12.5,5.59,12.5,12.5C498.34,557.199,492.75,562.799,485.84,562.799z M451.83,512.729c-25.64,0-46.5-20.86-46.5-46.51   c0-25.64,20.86-46.5,46.5-46.5c25.65,0,46.51,20.86,46.51,46.5C498.34,491.869,477.48,512.729,451.83,512.729z" style="fill:#231F20;"/><path d="M556.14,309.479c12.65,9.64,15.7,20.75,15.7,29.22c0,11.13-5.26,26.17-29.149,37.05   c0.56,2.09,0.859,4.28,0.859,6.5v113.55l14.71,8.88c40.75,24.61,68.41,65.68,75.91,112.68l10.82,67.87   c1.399,8.78-1.98,17.65-8.86,23.28c-11.08,9.06-25.06,14.05-39.37,14.05c-11.81,0-23.34-3.35-33.31-9.69l-9.521-6.04   c-15.22-9.66-26.05-24.24-30.97-40.99c-4.61,2.56-10.18,4.88-16.9,6.86c-14.829,4.36-34.09,6.76-54.229,6.76   c-20.14,0-39.4-2.4-54.22-6.76c-6.73-1.98-12.29-4.3-16.9-6.86c-4.92,16.75-15.75,31.33-30.97,40.99l-9.521,6.04   c-9.97,6.34-21.5,9.69-33.31,9.69c-14.311,0-28.29-4.99-39.37-14.05c-6.88-5.63-10.26-14.5-8.86-23.28l10.82-67.86   c7.5-47.01,35.16-88.08,75.91-112.69l14.859-8.97v-113.45c0-2.22,0.301-4.41,0.86-6.51c-23.899-10.88-29.16-25.92-29.16-37.05   c0-8.47,3.05-19.58,15.71-29.22c0.181-1.36,0.38-2.71,0.59-4.06H182.76c-16.569,0-30,13.43-30,30v439c0,16.57,13.431,30,30,30   H442.5v-52.45c0-6.9,5.6-12.5,12.5-12.5s12.5,5.6,12.5,12.5v52.45h257.57v-499H555.55   C555.76,306.769,555.96,308.119,556.14,309.479z M417.5,759.849c0,6.9-5.6,12.5-12.5,12.5s-12.5-5.6-12.5-12.5v-40.38   c0-6.9,5.6-12.5,12.5-12.5s12.5,5.6,12.5,12.5V759.849z M517.5,759.849c0,6.9-5.6,12.5-12.5,12.5s-12.5-5.6-12.5-12.5v-40.38   c0-6.9,5.6-12.5,12.5-12.5s12.5,5.6,12.5,12.5V759.849z" style="fill:#231F20;"/></g></svg>