<?xml version="1.0" ?><svg id="Layer_2" style="enable-background:new 0 0 1000 1000;" version="1.1" viewBox="0 0 1000 1000" xml:space="preserve" xmlns="http://www.w3.org/2000/svg" xmlns:xlink="http://www.w3.org/1999/xlink"><g><path d="M367.859,616.062l-45.503-78.814l-45.503-78.813c-6.928-12-24.248-12-31.177,0l-45.503,78.813   l-45.503,78.814c-6.928,12,1.732,27,15.589,27h91.006h91.006C366.127,643.062,374.787,628.062,367.859,616.062z" style="fill:#231F20;"/><path d="M441.566,471.421l-42.529-73.67c-6.931-12-24.25-12-31.181,0l-42.53,73.67H441.566z" style="fill:#231F20;"/><path d="M462.057,506.911l-6.06-10.49H327.647l61.86,107.14c7.12,12.31,7.72,26.81,1.819,39.5h118.16   c13.86,0,22.52-15,15.59-27L462.057,506.911z" style="fill:#231F20;"/><path d="M202.066,454.274c27.523,0,49.835-22.312,49.835-49.835c0-27.523-22.312-49.835-49.835-49.835   c-27.523,0-49.835,22.312-49.835,49.835C152.231,431.962,174.544,454.274,202.066,454.274z M202.066,379.604   c13.694,0,24.835,11.141,24.835,24.835c0,13.694-11.141,24.835-24.835,24.835c-13.694,0-24.835-11.141-24.835-24.835   C177.231,390.745,188.372,379.604,202.066,379.604z" style="fill:#231F20;"/><ellipse cx="655.398" cy="441.935" rx="14.07" ry="14.07" style="fill:#231F20;" transform="matrix(0.9871 -0.1602 0.1602 0.9871 -62.3272 110.6895)"/><path d="M817.769,354.604H620.856c-16.568,0-30,13.432-30,30v228.458c0,16.568,13.432,30,30,30h196.912   c16.568,0,30-13.432,30-30V384.604C847.769,368.036,834.337,354.604,817.769,354.604z M737.178,464.011   c3.691-6.4,12.92-6.4,16.62,0l22.67,39.28h-54.939l-3.521-6.09L737.178,464.011z M616.328,441.935   c0-21.543,17.526-39.07,39.07-39.07c21.544,0,39.07,17.527,39.07,39.07s-17.526,39.07-39.07,39.07   C633.854,481.006,616.328,463.479,616.328,441.935z M728.863,594.802h-48.521h-48.521c-7.388,0-12.005-7.997-8.311-14.396   l24.261-42.021l24.261-42.021c3.693-6.398,12.929-6.398,16.622,0l24.261,42.021l24.261,42.021   C740.868,586.804,736.251,594.802,728.863,594.802z M812.688,594.801h-50.591c2.57-8.92,1.48-18.67-3.27-26.9l-22.87-39.61h40.51   c4.471,0,8.761-1.19,12.5-3.35l32.03,55.46C824.688,586.801,820.078,594.801,812.688,594.801z" style="fill:#231F20;"/><path d="M280.036,288.055c6.881-0.126,12.265-6.03,12.265-12.912v-81.309c0-9.665,7.835-17.5,17.5-17.5   h352.933c9.665,0,17.5,7.835,17.5,17.5v34.697c0,4.43-3.591,8.021-8.021,8.021h0c-5.337,0-8.673,5.778-6.005,10.4l10.261,17.772   l10.261,17.772c2.669,4.622,9.34,4.622,12.009,0l10.261-17.772l10.261-17.772c2.669-4.623-0.667-10.401-6.005-10.401l0,0   c-4.43,0-8.021-3.591-8.021-8.021v-34.697c0-23.472-19.028-42.5-42.5-42.5H309.801c-23.472,0-42.5,19.028-42.5,42.5v81.724   C267.301,282.539,273.025,288.184,280.036,288.055z" style="fill:#231F20;"/><path d="M719.964,678.11c-6.881,0.126-12.265,6.03-12.265,12.913v115.144c0,9.665-7.835,17.5-17.5,17.5   H337.267c-9.665,0-17.5-7.835-17.5-17.5v-69.161c0-4.43,3.591-8.021,8.021-8.021h0c5.337,0,8.673-5.778,6.005-10.4l-10.261-17.772   l-10.261-17.773c-2.669-4.622-9.341-4.622-12.009,0l-10.261,17.773l-10.261,17.772c-2.669,4.622,0.667,10.401,6.005,10.401l0,0   c4.43,0,8.022,3.591,8.022,8.021v69.161c0,23.472,19.028,42.5,42.5,42.5h352.933c23.472,0,42.5-19.028,42.5-42.5V690.608   C732.699,683.626,726.975,677.981,719.964,678.11z" style="fill:#231F20;"/><path d="M379.711,285.964h37.911c6.904,0,12.5-5.597,12.5-12.5c0-6.904-5.596-12.5-12.5-12.5h-37.911   c-6.903,0-12.5,5.596-12.5,12.5C367.211,280.367,372.808,285.964,379.711,285.964z" style="fill:#231F20;"/><path d="M632.789,273.464c0-6.904-5.597-12.5-12.5-12.5H478.167c-6.903,0-12.5,5.596-12.5,12.5   c0,6.903,5.597,12.5,12.5,12.5h142.123C627.192,285.964,632.789,280.367,632.789,273.464z" style="fill:#231F20;"/><path d="M379.711,695.025c-6.903,0-12.5,5.596-12.5,12.5l0,0c0,6.904,5.597,12.5,12.5,12.5h37.911   c6.904,0,12.5-5.596,12.5-12.5l0,0c0-6.904-5.596-12.5-12.5-12.5H379.711z" style="fill:#231F20;"/><path d="M465.667,707.525L465.667,707.525c0,6.904,5.597,12.5,12.5,12.5h142.123   c6.903,0,12.5-5.596,12.5-12.5l0,0c0-6.903-5.597-12.5-12.5-12.5H478.167C471.263,695.025,465.667,700.622,465.667,707.525z" style="fill:#231F20;"/></g></svg>