<?xml version="1.0" ?><svg id="Layer_2" style="enable-background:new 0 0 1000 1000;" version="1.1" viewBox="0 0 1000 1000" xml:space="preserve" xmlns="http://www.w3.org/2000/svg" xmlns:xlink="http://www.w3.org/1999/xlink"><g><path d="M191.136,659.499c0,16.568,13.432,30,30,30h557.728c16.568,0,30-13.432,30-30v-38.5H191.136V659.499   z" style="fill:#231F20;"/><path d="M619.59,800.399c-13.2-3.6-28.91-9.12-43.1-17.4c-15.67-9.11-29.48-21.58-35.99-38.5   c-4.2-10.91-5.05-20.95-3.77-30h-73.46c1.28,9.05,0.43,19.09-3.77,30c-6.51,16.92-20.32,29.39-35.99,38.5   c-14.19,8.28-29.9,13.8-43.1,17.4c-16.14,4.41-25.51,21.23-20.84,37.3c0.87,2.98,2.67,5.5,5.03,7.269c2.36,1.771,5.28,2.8,8.38,2.8   h254.04c6.21,0,11.67-4.1,13.41-10.07c0.81-2.8,1.2-5.62,1.2-8.4C641.63,816.149,632.92,804.039,619.59,800.399z" style="fill:#231F20;"/><path d="M500,489.266c6.903,0,12.5-5.596,12.5-12.5V177.231c0-6.904-5.597-12.5-12.5-12.5   c-6.904,0-12.5,5.596-12.5,12.5v299.535C487.5,483.67,493.096,489.266,500,489.266z" style="fill:#231F20;"/><path d="M587.126,419.939c39.793,0,72.167-32.374,72.167-72.167v-50.166h-50.167   c-39.793,0-72.167,32.373-72.167,72.166v50.167H587.126z M609.126,322.606h25.167v25.166c0,26.008-21.159,47.167-47.167,47.167   h-7.489l27.328-27.328c4.881-4.882,4.881-12.796,0-17.678c-4.882-4.882-12.796-4.882-17.678,0l-27.328,27.328v-7.489   C561.959,343.764,583.118,322.606,609.126,322.606z" style="fill:#231F20;"/><path d="M412.255,419.939h50.167v-50.167c0-39.793-32.374-72.166-72.167-72.166h-50.167v50.166   C340.088,387.565,372.462,419.939,412.255,419.939z M365.088,322.606h25.167c26.008,0,47.167,21.159,47.167,47.166v7.489   l-27.328-27.328c-4.881-4.881-12.796-4.881-17.678,0c-4.881,4.881-4.881,12.796,0,17.678l27.328,27.328h-7.489   c-26.008,0-47.167-21.159-47.167-47.167V322.606z" style="fill:#231F20;"/><path d="M778.864,297.794h-94.571v49.978c0,53.578-43.589,97.167-97.167,97.167H537.5v31.827   c0,20.678-16.822,37.5-37.5,37.5c-20.678,0-37.5-16.822-37.5-37.5v-31.829c-0.026,0-0.052,0.002-0.078,0.002h-50.167   c-53.578,0-97.167-43.589-97.167-97.167v-49.978h-93.952c-16.568,0-30,13.431-30,30v268.205h617.728V327.794   C808.864,311.225,795.432,297.794,778.864,297.794z M261.224,561.999h-23.742c-6.903,0-12.5-5.596-12.5-12.5   c0-6.903,5.597-12.5,12.5-12.5h23.742c6.903,0,12.5,5.597,12.5,12.5C273.724,556.403,268.127,561.999,261.224,561.999z    M388.224,561.999h-76.871c-6.903,0-12.5-5.596-12.5-12.5c0-6.903,5.597-12.5,12.5-12.5h76.871c6.903,0,12.5,5.597,12.5,12.5   C400.724,556.403,395.127,561.999,388.224,561.999z M431.724,512.499h-145.5c-6.904,0-12.5-5.597-12.5-12.5   c0-6.903,5.596-12.5,12.5-12.5h145.5c6.903,0,12.5,5.597,12.5,12.5C444.224,506.903,438.627,512.499,431.724,512.499z    M688.648,561.999h-76.871c-6.903,0-12.5-5.596-12.5-12.5c0-6.903,5.597-12.5,12.5-12.5h76.871c6.903,0,12.5,5.597,12.5,12.5   C701.148,556.403,695.551,561.999,688.648,561.999z M713.776,512.499h-145.5c-6.903,0-12.5-5.597-12.5-12.5   c0-6.903,5.597-12.5,12.5-12.5h145.5c6.904,0,12.5,5.597,12.5,12.5C726.276,506.903,720.68,512.499,713.776,512.499z    M762.518,561.999h-23.742c-6.903,0-12.5-5.596-12.5-12.5c0-6.903,5.597-12.5,12.5-12.5h23.742c6.903,0,12.5,5.597,12.5,12.5   C775.018,556.403,769.421,561.999,762.518,561.999z" style="fill:#231F20;"/><path d="M587.435,274.564c39.793,0,72.167-32.374,72.167-72.167v-50.167h-50.167   c-39.793,0-72.167,32.374-72.167,72.167v50.167H587.435z M609.435,177.231h25.167v25.167c0,26.008-21.159,47.166-47.167,47.166   h-7.489l27.328-27.328c4.881-4.881,4.881-12.796,0-17.678c-4.881-4.881-12.796-4.88-17.678,0l-27.328,27.328v-7.489   C562.269,198.39,583.428,177.231,609.435,177.231z" style="fill:#231F20;"/><path d="M412.565,274.564h50.166v-50.167c0-39.793-32.374-72.167-72.166-72.167h-50.167v50.167   C340.398,242.191,372.772,274.564,412.565,274.564z M365.398,177.231h25.167c26.008,0,47.166,21.159,47.166,47.167v7.489   l-27.328-27.328c-4.882-4.882-12.796-4.882-17.678,0c-4.881,4.881-4.881,12.796,0,17.678l27.328,27.328h-7.489   c-26.008,0-47.167-21.159-47.167-47.166V177.231z" style="fill:#231F20;"/></g></svg>