<?xml version="1.0" ?><svg id="Layer_2" style="enable-background:new 0 0 1000 1000;" version="1.1" viewBox="0 0 1000 1000" xml:space="preserve" xmlns="http://www.w3.org/2000/svg" xmlns:xlink="http://www.w3.org/1999/xlink"><g><path d="M647.597,624.729c-9.62,5.63-22.28,10.53-37.67,14.59c-30.92,8.15-71.6,12.64-114.56,12.64   c-42.95,0-83.63-4.49-114.55-12.64c-15.4-4.06-28.06-8.96-37.67-14.59c-0.51,1.34-0.77,2.69-0.77,4.07c0,0.38,0.03,0.77,0.07,1.15   h-0.07v73.5c0,21.16,61.84,38.52,140.49,40.19v22.698c-0.701,0.117-1.402,0.296-2.097,0.54l-91.437,32.146   c-6.513,2.29-9.937,9.426-7.647,15.938c2.29,6.513,9.426,9.936,15.939,7.647l85.242-29.968v42.63c0,3.45,1.4,6.57,3.66,8.84   c2.27,2.26,5.39,3.66,8.84,3.66c6.91,0,12.5-5.6,12.5-12.5v-42.633l85.253,29.971c6.513,2.29,13.648-1.134,15.938-7.647   c2.29-6.513-1.134-13.649-7.647-15.938l-91.437-32.146c-0.698-0.245-1.402-0.424-2.107-0.541v-22.696   c78.66-1.67,140.5-19.03,140.5-40.19v-73.5h-0.07c0.04-0.38,0.07-0.77,0.07-1.15C648.367,627.419,648.107,626.069,647.597,624.729z    M495.366,709.249c-6.9,0-12.5-5.6-12.5-12.5c0-6.91,5.6-12.5,12.5-12.5c6.9,0,12.5,5.59,12.5,12.5   C507.866,703.649,502.267,709.249,495.366,709.249z" style="fill:#231F20;"/><path d="M334.857,182.231c0-16.569-13.432-30-30-30H182.232c-16.568,0-30,13.431-30,30v4.435h182.625   V182.231z" style="fill:#231F20;"/><path d="M665.147,281.499c0,16.57,13.43,30,30,30h43.22v96.99c0,9.66-7.85,17.51-17.5,17.51h-97.99   c-23.44,0-42.51,19.07-42.51,42.51v9.93c-21.06-3.72-45.81-6.1-72.5-6.66c-4.12-0.1-8.29-0.14-12.5-0.14   c-4.21,0-8.38,0.04-12.5,0.14c-26.69,0.56-51.44,2.94-72.5,6.66v-9.93c0-23.44-19.06-42.51-42.5-42.51h-97.99   c-9.65,0-17.51-7.85-17.51-17.51v-96.99h52.49c16.57,0,30-13.43,30-30v-69.83h-182.62v69.83c0,16.57,13.43,30,30,30h45.13v96.99   c0,23.44,19.07,42.51,42.51,42.51h97.99c9.65,0,17.5,7.85,17.5,17.51v15.43c-26.62,7.26-42.99,17.15-42.99,28.03   c0,0.39,0.03,0.77,0.07,1.16h-0.07v73.49c0,22.28,68.5,40.34,152.99,40.34c84.5,0,153-18.06,153-40.34v-73.49h-0.07   c0.04-0.39,0.07-0.77,0.07-1.16c0-10.88-16.38-20.78-43-28.04v-15.42c0-9.66,7.86-17.51,17.51-17.51h97.99   c23.44,0,42.5-19.07,42.5-42.51v-96.99h54.4c16.57,0,30-13.43,30-30v-69.83h-182.62V281.499z M208.717,263.339   c-2.26,2.26-5.39,3.66-8.84,3.66h-12.67c-6.9,0-12.5-5.6-12.5-12.5c0-3.45,1.4-6.58,3.66-8.84c2.27-2.26,5.39-3.66,8.84-3.66h12.67   c6.9,0,12.5,5.6,12.5,12.5C212.377,257.949,210.977,261.079,208.717,263.339z M225.047,254.499c0-3.45,1.4-6.58,3.66-8.84   c2.26-2.26,5.39-3.66,8.84-3.66h62.33c6.9,0,12.5,5.6,12.5,12.5c0,3.45-1.4,6.58-3.66,8.84c-2.26,2.26-5.39,3.66-8.84,3.66h-47.51   h-14.82c-4.2,0-7.91-2.07-10.18-5.24C225.906,259.719,225.047,257.209,225.047,254.499z M495.366,599.299   c-6.9,0-12.5-5.6-12.5-12.5c0-6.91,5.6-12.5,12.5-12.5c6.9,0,12.5,5.59,12.5,12.5C507.866,593.699,502.267,599.299,495.366,599.299   z M800.127,241.999h12.66c3.45,0,6.58,1.4,8.84,3.66c2.26,2.26,3.66,5.39,3.66,8.84c0,6.9-5.59,12.5-12.5,12.5h-12.66   c-3.45,0-6.58-1.4-8.84-3.66c-2.26-2.26-3.66-5.39-3.66-8.84C787.627,247.599,793.217,241.999,800.127,241.999z M700.127,241.999   h62.33c3.45,0,6.58,1.4,8.84,3.66c2.26,2.26,3.66,5.39,3.66,8.84c0,6.59-5.11,12-11.59,12.46c-0.3,0.03-0.6,0.04-0.91,0.04h-24.09   h-38.24c-3.45,0-6.58-1.4-8.84-3.66c-2.26-2.26-3.66-5.39-3.66-8.84C687.627,247.599,693.217,241.999,700.127,241.999z" style="fill:#231F20;"/><path d="M817.768,152.231H695.143c-16.568,0-30,13.431-30,30v4.435h182.625v-4.435   C847.768,165.662,834.337,152.231,817.768,152.231z" style="fill:#231F20;"/><path d="M438.687,311.499h44.18v135.27c4.14-0.09,8.31-0.13,12.5-0.13c4.19,0,8.36,0.04,12.5,0.13v-135.27   h53.45c16.56,0,30-13.43,30-30v-69.83h-182.63v69.83C408.687,298.069,422.116,311.499,438.687,311.499z M459.997,245.659   c2.26-2.26,5.38-3.66,8.84-3.66h62.33c6.9,0,12.5,5.6,12.5,12.5c0,3.45-1.4,6.58-3.66,8.84c-2.27,2.26-5.39,3.66-8.84,3.66h-23.3   h-25h-14.03c-6.91,0-12.5-5.6-12.5-12.5C456.337,251.049,457.737,247.919,459.997,245.659z" style="fill:#231F20;"/><path d="M591.313,182.231c0-16.569-13.432-30-30-30H438.688c-16.568,0-30,13.431-30,30v4.435h182.625   V182.231z" style="fill:#231F20;"/></g></svg>