<?xml version="1.0" ?><svg id="Layer_2" style="enable-background:new 0 0 1000 1000;" version="1.1" viewBox="0 0 1000 1000" xml:space="preserve" xmlns="http://www.w3.org/2000/svg" xmlns:xlink="http://www.w3.org/1999/xlink"><g><path d="M762.423,152.231H237.577c-16.5,0-30,13.5-30,30v72.8h584.846v-72.8   C792.423,165.731,778.923,152.231,762.423,152.231z M573.403,216.132h-28c-6.875,0-12.5-5.625-12.5-12.5s5.625-12.5,12.5-12.5h28   c6.875,0,12.5,5.625,12.5,12.5S580.278,216.132,573.403,216.132z M656.903,216.132h-28c-6.875,0-12.5-5.625-12.5-12.5   s5.625-12.5,12.5-12.5h28c6.875,0,12.5,5.625,12.5,12.5S663.778,216.132,656.903,216.132z M740.403,216.132h-28   c-6.875,0-12.5-5.625-12.5-12.5s5.625-12.5,12.5-12.5h28c6.875,0,12.5,5.625,12.5,12.5S747.278,216.132,740.403,216.132z" style="fill:#231F20;"/><path d="M512.5,424.26V396.5h24.167c4.418,0,8-3.582,8-8v-45.333c0-4.418-3.582-8-8-8h-73.334   c-4.418,0-8,3.582-8,8V388.5c0,4.418,3.582,8,8,8H487.5v27.76c-78.646,1.676-140.495,19.034-140.495,40.195   c0,0.39,0.03,0.77,0.07,1.16h-0.07v73.49c0,22.28,68.5,40.34,152.99,40.34c84.5,0,153-18.06,153-40.34v-73.49h-0.07   c0.04-0.39,0.07-0.77,0.07-1.16C652.995,443.295,591.15,425.938,512.5,424.26z M386.735,526.785c-6.9,0-12.5-5.6-12.5-12.5   c0-6.91,5.6-12.5,12.5-12.5c6.899,0,12.5,5.59,12.5,12.5C399.235,521.185,393.635,526.785,386.735,526.785z M428.735,536.952   c-6.9,0-12.5-5.6-12.5-12.5c0-6.91,5.6-12.5,12.5-12.5c6.899,0,12.5,5.59,12.5,12.5   C441.235,531.352,435.635,536.952,428.735,536.952z" style="fill:#231F20;"/><path d="M652.226,577.215c-9.62,5.63-22.28,10.53-37.671,14.59c-30.92,8.15-71.6,12.64-114.56,12.64   c-42.95,0-83.63-4.49-114.55-12.64c-15.4-4.06-28.061-8.96-37.67-14.59c-0.51,1.34-0.77,2.69-0.77,4.07   c0,0.38,0.03,0.769,0.07,1.15h-0.07v73.5c0,21.174,61.925,38.54,140.639,40.198v21.749h-105.5c-6.903,0-12.5,5.597-12.5,12.5   c0,6.904,5.597,12.5,12.5,12.5h105.5V764.5h-105.5c-6.903,0-12.5,5.597-12.5,12.5v58.269c0,6.903,5.597,12.5,12.5,12.5   c6.903,0,12.5-5.597,12.5-12.5V789.5h93v45.769c0,6.903,5.597,12.5,12.5,12.5c6.903,0,12.5-5.597,12.5-12.5V789.5h93v45.769   c0,6.903,5.597,12.5,12.5,12.5c6.903,0,12.5-5.597,12.5-12.5V777c0-6.903-5.597-12.5-12.5-12.5h-105.5v-21.618h105.5   c6.903,0,12.5-5.596,12.5-12.5c0-6.903-5.597-12.5-12.5-12.5h-105.5v-21.756c78.581-1.696,140.352-19.044,140.352-40.191v-73.5   h-0.07c0.04-0.38,0.07-0.77,0.07-1.15C652.995,579.905,652.735,578.555,652.226,577.215z M386.735,648.285   c-6.9,0-12.5-5.6-12.5-12.5c0-6.91,5.6-12.5,12.5-12.5c6.899,0,12.5,5.59,12.5,12.5   C399.235,642.685,393.635,648.285,386.735,648.285z M428.735,658c-6.9,0-12.5-5.6-12.5-12.5c0-6.91,5.6-12.5,12.5-12.5   c6.899,0,12.5,5.59,12.5,12.5C441.235,652.4,435.635,658,428.735,658z" style="fill:#231F20;"/><path d="M678,495.53v25.89c20.11-3.34,35.5-20.87,35.5-41.92v-83h24.167c4.418,0,8-3.582,8-8v-45.333   c0-4.418-3.582-8-8-8h-73.334c-4.418,0-8,3.582-8,8V388.5c0,4.418,3.582,8,8,8H688.5v83C688.5,486.66,684.18,492.83,678,495.53z" style="fill:#231F20;"/><path d="M335.667,396.5c4.418,0,8-3.582,8-8v-45.333c0-4.418-3.582-8-8-8h-73.334c-4.418,0-8,3.582-8,8   V388.5c0,4.418,3.582,8,8,8H286.5v83c0,21.05,15.39,38.58,35.5,41.92v-25.89c-6.18-2.7-10.5-8.87-10.5-16.03v-83H335.667z" style="fill:#231F20;"/><path d="M207.577,633.137c0,16.5,13.5,30,30,30h85.117c-0.454-2.335-0.689-4.735-0.689-7.202v-73.5   c0-0.181,0.002-0.361,0.006-0.541c-0.004-0.204-0.006-0.407-0.006-0.609c0-4.406,0.809-8.766,2.404-12.96   c1.073-2.822,2.642-5.385,4.59-7.602c-3.472-4.961-5.352-9.865-6.261-14.335c-0.247,0.007-0.491,0.032-0.738,0.032   c-1.362,0-2.731-0.111-4.096-0.338c-32.683-5.428-56.404-33.43-56.404-66.582v-58.021c-17.811-0.445-32.167-15.062-32.167-32.979   v-45.333c0-18.196,14.804-33,33-33h73.334c18.196,0,33,14.804,33,33V388.5c0,17.917-14.355,32.534-32.167,32.979v12.987   c2.629-2.358,5.705-4.68,9.306-6.924c9.83-6.126,23.166-11.435,39.638-15.777c14.241-3.754,30.559-6.729,48.211-8.849   c-2.125-4.358-3.321-9.25-3.321-14.415v-45.333c0-18.196,14.804-33,33-33h73.334c18.196,0,33,14.804,33,33V388.5   c0,5.167-1.196,10.058-3.321,14.416c17.652,2.119,33.969,5.094,48.21,8.849c16.472,4.342,29.808,9.65,39.639,15.776   c3.601,2.244,6.677,4.566,9.306,6.924v-12.986c-17.812-0.445-32.167-15.062-32.167-32.979v-45.333c0-18.196,14.804-33,33-33h73.334   c18.196,0,33,14.804,33,33V388.5c0,17.917-14.355,32.534-32.167,32.979V479.5c0,33.152-23.722,61.154-56.404,66.582   c-1.363,0.227-2.734,0.338-4.096,0.338c-0.247,0-0.491-0.025-0.738-0.032c-0.909,4.469-2.789,9.373-6.26,14.335   c1.947,2.217,3.516,4.78,4.59,7.602c1.595,4.192,2.403,8.553,2.403,12.961c0,0.203-0.002,0.406-0.006,0.61   c0.004,0.18,0.006,0.36,0.006,0.54v73.5c0,2.467-0.235,4.866-0.689,7.202h85.117c16.5,0,30-13.5,30-30V280.032H207.577V633.137z" style="fill:#231F20;"/></g></svg>