<?xml version="1.0" ?><svg id="Layer_2" style="enable-background:new 0 0 1000 1000;" version="1.1" viewBox="0 0 1000 1000" xml:space="preserve" xmlns="http://www.w3.org/2000/svg" xmlns:xlink="http://www.w3.org/1999/xlink"><g><path d="M149.538,448.214v81.145c0,4.605,2.459,8.858,6.46,11.146l105.986,60.637V490.389l-93.227-53.33   C160.19,432.16,149.538,438.348,149.538,448.214z" style="fill:#231F20;"/><path d="M831.234,437.058l-93.227,53.34v110.742l105.986-60.637c4.001-2.288,6.47-6.54,6.47-11.146v-81.145   C850.462,438.348,839.8,432.16,831.234,437.058z" style="fill:#231F20;"/><path d="M287.18,817.036c0,16.697,13.536,30.233,30.233,30.233h365.172   c16.697,0,30.233-13.535,30.233-30.233V504.807H287.18V817.036z M346.732,723.738h51.451c6.957,0,12.597,5.64,12.597,12.597   c0,6.957-5.64,12.597-12.597,12.597h-51.451c-6.957,0-12.597-5.64-12.597-12.597C334.135,729.378,339.775,723.738,346.732,723.738z    M346.732,774.126h123.393c6.957,0,12.597,5.64,12.597,12.597c0,6.957-5.64,12.597-12.597,12.597H346.732   c-6.957,0-12.597-5.64-12.597-12.597C334.135,779.766,339.775,774.126,346.732,774.126z" style="fill:#231F20;"/><path d="M665.35,182.964c0-16.697-13.536-30.233-30.233-30.233H364.879   c-16.697,0-30.233,13.536-30.233,30.233v36.547H665.35V182.964z M466.323,198.718c-6.957,0-12.597-5.64-12.597-12.597   c0-6.957,5.64-12.597,12.597-12.597c6.957,0,12.597,5.64,12.597,12.597C478.919,193.079,473.28,198.718,466.323,198.718z    M533.673,198.72h-23.848c-6.958,0-12.598-5.641-12.598-12.598c0-6.957,5.64-12.598,12.598-12.598h23.848   c6.958,0,12.598,5.641,12.598,12.598C546.271,193.079,540.631,198.72,533.673,198.72z" style="fill:#231F20;"/><path d="M512.325,339.82c-3.056-2.737-6.637-4.867-10.747-6.394c-4.109-1.525-8.48-2.291-13.116-2.291   h-12.484v62.526h12.484c4.74,0,9.164-0.763,13.274-2.289c4.109-1.525,7.665-3.684,10.668-6.474   c3.002-2.789,5.375-6.079,7.112-9.869c1.737-3.789,2.608-7.946,2.608-12.474c0-4.735-0.871-9.023-2.608-12.867   C517.778,345.847,515.381,342.556,512.325,339.82z" style="fill:#231F20;"/><path d="M665.347,244.708H334.643v234.908h330.705V244.708z M496.159,269.334h7.673   c6.957,0,12.597,5.64,12.597,12.597c0,6.957-5.64,12.597-12.597,12.597h-7.673c-6.957,0-12.597-5.64-12.597-12.597   C483.562,274.974,489.202,269.334,496.159,269.334z M445.66,397.126c-1.838,3.78-4.228,6.929-7.166,9.45   c-2.941,2.519-6.248,4.41-9.923,5.67c-3.676,1.26-7.402,1.89-11.182,1.89c-4.41,0-8.584-0.787-12.521-2.362   c-3.938-1.575-7.378-3.623-10.316-6.142c-2.941-2.52-5.276-5.356-7.008-8.505c-1.733-3.15-2.599-6.301-2.599-9.45   c0-3.045,0.945-5.38,2.835-7.009c1.889-1.627,4.04-2.441,6.457-2.441c2.099,0,4.016,0.578,5.749,1.732   c1.733,1.156,2.859,3.047,3.386,5.67c0.525,3.047,2.099,5.433,4.725,7.167c2.623,1.732,5.721,2.598,9.292,2.598   c3.044,0,5.827-0.917,8.347-2.756c2.52-1.836,3.78-4.646,3.78-8.426c0-3.044-0.684-5.537-2.048-7.481   c-1.366-1.942-3.125-3.647-5.276-5.118c-2.153-1.469-4.489-2.808-7.009-4.016c-2.52-1.206-4.883-2.544-7.087-4.016   c-2.205-1.468-4.358-3.174-6.457-5.118c-2.102-1.942-3.992-4.095-5.67-6.457c-1.68-2.363-3.019-4.882-4.016-7.56   c-0.999-2.677-1.496-5.537-1.496-8.584c0-4.304,0.812-8.056,2.441-11.26c1.627-3.201,3.726-5.879,6.3-8.033   c2.572-2.15,5.458-3.753,8.662-4.804c3.202-1.048,6.43-1.575,9.686-1.575c3.15,0,6.324,0.551,9.529,1.653   c3.201,1.102,6.063,2.678,8.583,4.725c2.52,2.048,4.567,4.489,6.142,7.324c1.575,2.834,2.362,5.984,2.362,9.45   c0,2.731-0.92,5.066-2.756,7.008c-1.838,1.945-4.07,2.914-6.694,2.914c-2.417,0-4.464-0.682-6.142-2.047   c-1.68-1.364-2.677-3.568-2.992-6.615c-0.212-1.89-1.208-3.308-2.992-4.253c-1.787-0.945-3.519-1.417-5.197-1.417   c-2.626,0-4.595,0.684-5.906,2.047c-1.314,1.366-1.969,2.993-1.969,4.882c0,2.417,0.576,4.437,1.733,6.064   c1.154,1.629,2.623,3.046,4.41,4.253c1.784,1.208,3.725,2.311,5.827,3.307c2.099,1,4.041,2.023,5.827,3.071   c2.938,1.786,5.694,3.78,8.268,5.985c2.572,2.205,4.804,4.622,6.694,7.245c1.89,2.626,3.386,5.433,4.489,8.426   c1.103,2.992,1.654,6.221,1.654,9.686C448.416,388.936,447.496,393.346,445.66,397.126z M503.831,454.99h-7.673   c-6.957,0-12.597-5.64-12.597-12.597c0-6.957,5.64-12.597,12.597-12.597h7.673c6.957,0,12.597,5.64,12.597,12.597   C516.428,449.351,510.789,454.99,503.831,454.99z M536.928,383.03c-2.835,6.142-6.669,11.393-11.497,15.749   c-4.831,4.358-10.449,7.718-16.852,10.079c-6.406,2.363-13.178,3.544-20.317,3.544h-21.577c-2.732,0-4.961-0.891-6.694-2.678   c-1.732-1.783-2.599-3.989-2.599-6.614v-81.425c0-2.623,0.867-4.828,2.599-6.614c1.732-1.784,3.962-2.678,6.694-2.678h23.625   c7.245,0,13.963,1.315,20.159,3.938c6.194,2.626,11.576,6.196,16.143,10.709c4.567,4.516,8.136,9.82,10.71,15.908   c2.571,6.091,3.859,12.6,3.859,19.529C541.181,370.037,539.763,376.887,536.928,383.03z M611.895,409.882   c-2.102,1.681-4.358,2.52-6.772,2.52c-2.311,0-4.41-1.048-6.3-3.15l-29.924-31.499v25.672c0,5.984-3.071,8.977-9.214,8.977   c-6.248,0-9.371-2.993-9.371-8.977V322c0-6.403,3.175-9.607,9.526-9.607c6.039,0,9.058,3.204,9.058,9.607v17.01l25.042-24.726   c0.734-0.733,1.6-1.233,2.599-1.497c0.997-0.261,2.02-0.394,3.071-0.394c2.729,0,4.934,0.945,6.615,2.835   c1.678,1.89,2.52,3.885,2.52,5.985c0,1.26-0.158,2.417-0.473,3.465c-0.315,1.051-1.051,2.153-2.205,3.308l-31.184,29.924   l37.326,38.587c1.89,2.101,2.835,4.41,2.835,6.929C615.045,406.051,613.995,408.204,611.895,409.882z" style="fill:#231F20;"/></g></svg>