<?xml version="1.0" ?><svg id="Layer_2" style="enable-background:new 0 0 1000 1000;" version="1.1" viewBox="0 0 1000 1000" xml:space="preserve" xmlns="http://www.w3.org/2000/svg" xmlns:xlink="http://www.w3.org/1999/xlink"><g><path d="M182.23,627.08c-11.063,0-21.365-3.294-30-8.938v26.067c0,16.56,13.43,30,30,30h160.98   c7.34,0,13.29,5.95,13.29,13.29l0,0c0,16.568,13.431,30,30,30h227c16.569,0,30-13.432,30-30l0,0c0-7.34,5.95-13.29,13.29-13.29   h160.98c16.57,0,30-13.44,30-30v-26.067c-8.635,5.643-18.937,8.938-30,8.938H182.23z" style="fill:#231F20;"/><path d="M583,818.5c-2.44,0-4.87-0.55-7.03-1.7c-21.24-11.32-34.16-45.25-41.57-74.3h-68.8   c-7.41,29.05-20.33,62.98-41.57,74.3c-2.16,1.15-4.59,1.7-7.03,1.7c-4.24,0-8.07,1.72-10.84,4.49c-2.78,2.77-4.49,6.61-4.49,10.84   v13.94h196.66v-13.94C598.33,825.36,591.47,818.5,583,818.5z" style="fill:#231F20;"/><path d="M697.13,245.221H302.87c-2.773,5.38-7.275,9.72-12.777,12.284v230.692l37.423-52.759l3.04-4.29   h116.48l3.04,4.29l47.66,67.19c0.741,1.045,1.285,2.143,1.656,3.26h25.404c-0.638-6.257-2.866-12.365-6.67-17.72l-57.82-81.51   l6.9-9.72l21.61-30.46h133.96l21.61,30.46l64.742,91.258V257.125C703.981,254.524,699.771,250.345,697.13,245.221z    M348.297,406.147l30.59-43.12c4.84-6.829,14.98-6.829,19.82,0l30.59,43.12H348.297z M506.547,341.478l39.34-55.45   c4.84-6.829,14.98-6.829,19.82,0l39.34,55.45H506.547z" style="fill:#231F20;"/><path d="M817.77,152.23H182.23c-16.57,0-30,13.43-30,30v389.85c0,16.57,13.43,30,30,30h635.54   c16.57,0,30-13.43,30-30V182.23C847.77,165.66,834.34,152.23,817.77,152.23z M748.768,521.589   c0,15.096-12.237,27.333-27.333,27.333c-11.831,0-21.903-7.517-25.708-18.035H304.273c-3.805,10.518-13.878,18.035-25.708,18.035   c-15.096,0-27.333-12.238-27.333-27.333c0-10.196,5.586-19.081,13.862-23.779V256.501c-8.275-4.699-13.862-13.584-13.862-23.78   c0-15.096,12.238-27.334,27.333-27.334c10.59,0,19.766,6.026,24.305,14.833h394.26c4.539-8.807,13.715-14.833,24.305-14.833   c15.096,0,27.333,12.238,27.333,27.334c0,10.512-5.938,19.633-14.64,24.206v240.456   C742.83,501.956,748.768,511.076,748.768,521.589z" style="fill:#231F20;"/></g></svg>