<?xml version="1.0" ?><svg id="Layer_2" style="enable-background:new 0 0 1000 1000;" version="1.1" viewBox="0 0 1000 1000" xml:space="preserve" xmlns="http://www.w3.org/2000/svg" xmlns:xlink="http://www.w3.org/1999/xlink"><g><path d="M610.905,581.835h-458.67v44.94c0,16.56,13.43,30,30,30h428.67V581.835z M217.195,625.345   c-2.26,2.26-5.39,3.66-8.84,3.66h-15.24c-6.899,0-12.5-5.6-12.5-12.5c0-3.45,1.4-6.58,3.66-8.84c2.26-2.26,5.39-3.66,8.84-3.66   h15.24c6.9,0,12.5,5.59,12.5,12.5C220.855,619.955,219.455,623.075,217.195,625.345z M273.695,625.345   c-2.26,2.26-5.39,3.66-8.84,3.66h-15.24c-6.899,0-12.5-5.6-12.5-12.5c0-3.45,1.4-6.58,3.66-8.84c2.26-2.26,5.39-3.66,8.84-3.66   h15.24c6.9,0,12.5,5.59,12.5,12.5C277.355,619.955,275.955,623.075,273.695,625.345z" style="fill:#231F20;"/><rect height="52.83" style="fill:#231F20;" width="439.3" x="218.965" y="281.335"/><path d="M553.585,411.505c-6.9,0-12.5-5.6-12.5-12.5c0-3.45,1.4-6.58,3.659-8.84   c2.27-2.26,5.391-3.66,8.841-3.66h117.18c6.9,0,12.5,5.59,12.5,12.5c0,3.45-1.4,6.57-3.66,8.84c-2.27,2.26-5.39,3.66-8.84,3.66   h54.23v-165.61c0-16.56-13.43-30-30-30h-512.76c-16.57,0-30,13.44-30,30v310.94h458.67v-36h-57.319c-6.9,0-12.5-5.6-12.5-12.5v-57   c0-6.9,5.6-12.5,12.5-12.5h58.779c4.55-15.76,19.101-27.33,36.311-27.33H553.585z M336.145,508.335c0,6.9-5.6,12.5-12.5,12.5   h-117.18c-6.9,0-12.5-5.6-12.5-12.5v-57c0-6.9,5.6-12.5,12.5-12.5h117.18c6.9,0,12.5,5.6,12.5,12.5V508.335z M332.485,407.845   c-2.27,2.26-5.39,3.66-8.84,3.66h-117.18c-6.9,0-12.5-5.6-12.5-12.5c0-3.45,1.399-6.58,3.659-8.84   c2.271-2.26,5.391-3.66,8.841-3.66h117.18c6.9,0,12.5,5.59,12.5,12.5C336.145,402.455,334.745,405.575,332.485,407.845z    M509.705,508.335c0,6.9-5.6,12.5-12.5,12.5h-117.18c-6.9,0-12.5-5.6-12.5-12.5v-57c0-6.9,5.6-12.5,12.5-12.5h117.18   c6.9,0,12.5,5.6,12.5,12.5V508.335z M506.045,407.845c-2.271,2.26-5.391,3.66-8.841,3.66h-117.18c-6.9,0-12.5-5.6-12.5-12.5   c0-3.45,1.4-6.58,3.66-8.84c2.27-2.26,5.39-3.66,8.84-3.66h117.18c6.9,0,12.5,5.59,12.5,12.5   C509.705,402.455,508.305,405.575,506.045,407.845z M206.465,359.165c-6.9,0-12.5-5.59-12.5-12.5v-77.83c0-6.9,5.6-12.5,12.5-12.5   h464.3c6.9,0,12.5,5.6,12.5,12.5v77.83c0,6.91-5.6,12.5-12.5,12.5H206.465z" style="fill:#231F20;"/><path d="M611.855,733.629c-40.487-11.052-90.824-28.343-98.24-47.464c-0.569-1.47-1.04-2.93-1.41-4.39   h-147.18c-0.37,1.46-0.84,2.92-1.41,4.39c-8.37,21.58-71.41,40.83-113.26,51.41c-23.53,5.96-42.39,23.51-50.07,46.53h413.721   c-1.388-3.913-2.15-8.118-2.15-12.5V733.629z" style="fill:#231F20;"/><path d="M636.855,771.605c0,6.9,5.6,12.5,12.5,12.5h185.91c6.91,0,12.5-5.6,12.5-12.5v-38.67h-210.91   V771.605z" style="fill:#231F20;"/><path d="M835.265,438.835h-185.91c-6.9,0-12.5,5.6-12.5,12.5v256.6h210.91v-256.6   C847.765,444.435,842.175,438.835,835.265,438.835z M800.898,666.245H683.722c-6.903,0-12.5-5.597-12.5-12.5   c0-6.904,5.597-12.5,12.5-12.5h117.176c6.903,0,12.5,5.596,12.5,12.5C813.398,660.648,807.801,666.245,800.898,666.245z    M813.398,600.025c0,6.904-5.597,12.5-12.5,12.5H683.722c-6.903,0-12.5-5.596-12.5-12.5v-57c0-6.903,5.597-12.5,12.5-12.5h117.176   c6.903,0,12.5,5.597,12.5,12.5V600.025z M800.898,505.525H683.722c-6.903,0-12.5-5.596-12.5-12.5c0-6.903,5.597-12.5,12.5-12.5   h117.176c6.903,0,12.5,5.597,12.5,12.5C813.398,499.929,807.801,505.525,800.898,505.525z" style="fill:#231F20;"/></g></svg>