<?xml version="1.0" ?><svg id="Layer_2" style="enable-background:new 0 0 1000 1000;" version="1.1" viewBox="0 0 1000 1000" xml:space="preserve" xmlns="http://www.w3.org/2000/svg" xmlns:xlink="http://www.w3.org/1999/xlink"><g><path d="M847.315,181.98c0-16.5-13.5-30-30-30H181.778c-16.5,0-30,13.5-30,30v72.8h695.537V181.98z    M628.296,215.88h-28c-6.875,0-12.5-5.625-12.5-12.5s5.625-12.5,12.5-12.5h28c6.875,0,12.5,5.625,12.5,12.5   S635.171,215.88,628.296,215.88z M711.796,215.88h-28c-6.875,0-12.5-5.625-12.5-12.5s5.625-12.5,12.5-12.5h28   c6.875,0,12.5,5.625,12.5,12.5S718.671,215.88,711.796,215.88z M795.296,215.88h-28c-6.875,0-12.5-5.625-12.5-12.5   s5.625-12.5,12.5-12.5h28c6.875,0,12.5,5.625,12.5,12.5S802.171,215.88,795.296,215.88z" style="fill:#231F20;"/><path d="M625.839,519.166c-0.006-0.005-0.014-0.011-0.02-0.017c-0.009-0.007-0.017-0.015-0.025-0.022   c-0.429-0.373-0.884-0.761-1.35-1.155c-0.07-0.06-0.132-0.114-0.203-0.173c-0.559-0.471-1.147-0.958-1.773-1.469   c-34.543-28.289-78.196-43.869-122.92-43.869c-44.724,0-88.377,15.58-122.908,43.859c-0.312,0.255-0.613,0.503-0.907,0.746   c-0.173,0.143-0.337,0.281-0.504,0.42c-0.119,0.1-0.243,0.202-0.359,0.3c-0.121,0.102-0.235,0.199-0.354,0.299   c-0.156,0.132-0.315,0.266-0.467,0.396c-0.117,0.101-0.229,0.198-0.344,0.296c-0.135,0.117-0.272,0.234-0.404,0.349   c-0.006,0.005-0.011,0.01-0.017,0.014c-0.009,0.008-0.019,0.017-0.028,0.025c-43.125,36.961-67.858,90.701-67.858,147.454   c0,56.78,24.763,110.551,67.916,147.504c1.089,0.938,2.199,1.865,3.315,2.777c34.543,28.289,78.197,43.868,122.92,43.868   c44.723,0,88.377-15.579,122.913-43.863c1.122-0.917,2.232-1.845,3.298-2.762c0,0,0.014-0.012,0.021-0.018   c0,0,0.002-0.002,0.003-0.003c43.162-36.973,67.916-90.734,67.916-147.504C693.697,609.867,668.964,556.127,625.839,519.166z    M372.047,777.745c-23.98-27.502-38.477-62.046-41.177-98.628h41.177V777.745z M372.047,654.116H330.87   c2.702-36.586,17.197-71.13,41.177-98.625V654.116z M487.047,835.294c-30.64-2.284-60.218-12.91-85.264-30.644   c25.042-17.734,54.622-28.361,85.264-30.645V835.294z M487.047,748.937c-31.934,2.073-62.927,12.048-90,28.86v-98.68h90V748.937z    M487.047,654.116h-90v-98.683c27.074,16.812,58.067,26.787,90,28.86V654.116z M487.047,559.225   c-30.641-2.284-60.221-12.911-85.264-30.645c25.042-17.734,54.622-28.361,85.264-30.645V559.225z M512.047,497.935   c0.685,0.051,1.37,0.097,2.054,0.156c29.905,2.597,58.722,13.149,83.209,30.489c-25.042,17.734-54.622,28.36-85.263,30.644V497.935   z M512.047,835.294v-61.289c30.642,2.284,60.222,12.911,85.264,30.645C572.269,822.384,542.688,833.01,512.047,835.294z    M602.047,777.796c-27.073-16.811-58.066-26.787-90-28.86v-69.82h90V777.796z M602.047,654.116h-90v-69.822   c31.933-2.073,62.926-12.048,90-28.86V654.116z M627.047,777.741v-98.625h41.177C665.523,715.692,651.031,750.231,627.047,777.741z    M627.047,654.116v-98.625c23.98,27.495,38.475,62.039,41.177,98.625H627.047z" style="fill:#231F20;"/><path d="M152.685,280.686v410.48c0,16.5,13.5,30,30,30h104.608c-4.528-17.643-6.896-35.949-6.896-54.547   c0-63.997,27.865-124.609,76.456-166.322c0.07-0.061,0.916-0.79,0.916-0.79l1.994-1.678l1.043-0.857   c38.984-31.927,88.26-49.513,138.741-49.513c50.481,0,99.761,17.589,138.76,49.527c0.672,0.548,1.334,1.098,1.967,1.63   c0.126,0.105,0.247,0.207,0.368,0.312c0.508,0.429,1.036,0.881,1.537,1.316c48.63,41.715,76.519,102.351,76.519,166.375   c0,18.597-2.369,36.902-6.899,54.547h106.424c16.5,0,30-13.5,30-30v-410.48H152.685z M264.982,423.214   c4.881,4.881,4.881,12.796,0,17.678c-4.882,4.881-12.797,4.881-17.678,0l-42.191-42.191c-4.881-4.881-4.881-12.796,0-17.678   l42.191-42.19c4.881-4.882,12.796-4.882,17.678,0c4.881,4.881,4.881,12.796,0,17.678l-33.352,33.352L264.982,423.214z    M360.663,330.633l-49.892,127.42c-2.475,6.444-9.706,9.663-16.15,7.188c-6.445-2.475-9.663-9.705-7.189-16.15l49.892-127.42   c2.475-6.445,9.706-9.663,16.15-7.188C359.919,316.957,363.138,324.189,360.663,330.633z M442.982,398.701l-42.191,42.191   c-4.881,4.881-12.796,4.881-17.678,0c-4.881-4.882-4.881-12.796,0-17.678l33.352-33.352l-33.352-33.352   c-4.881-4.882-4.881-12.796,0-17.678c4.882-4.882,12.797-4.882,17.678,0l42.191,42.19   C447.863,385.905,447.863,393.82,442.982,398.701z M735.048,348h51c6.903,0,12.5,5.597,12.5,12.5s-5.597,12.5-12.5,12.5h-51   c-6.903,0-12.5-5.597-12.5-12.5S728.144,348,735.048,348z M633.548,348h51c6.903,0,12.5,5.597,12.5,12.5s-5.597,12.5-12.5,12.5h-51   c-6.903,0-12.5-5.597-12.5-12.5S626.644,348,633.548,348z M786.954,423.906h-152.5c-6.903,0-12.5-5.596-12.5-12.5   c0-6.903,5.597-12.5,12.5-12.5h152.5c6.903,0,12.5,5.597,12.5,12.5C799.454,418.31,793.857,423.906,786.954,423.906z" style="fill:#231F20;"/></g></svg>