<?xml version="1.0" ?><svg id="Layer_2" style="enable-background:new 0 0 1000 1000;" version="1.1" viewBox="0 0 1000 1000" xml:space="preserve" xmlns="http://www.w3.org/2000/svg" xmlns:xlink="http://www.w3.org/1999/xlink"><path d="M818.596,152.732H181.404c-16.569,0-30,13.431-30,30v33.128h697.192v-33.128  C848.596,166.163,835.165,152.732,818.596,152.732z" style="fill:#231F20;"/><path d="M570.771,684.094c-0.048-0.331-0.095-0.663-0.141-0.994H429.37c-0.046,0.331-0.093,0.662-0.141,0.994  c-6.605,45.937-38.03,84.235-81.394,100.768c-16.599,6.329-26.169,13.773-26.169,21.74c0,23.012,79.843,41.667,178.333,41.667  s178.333-18.655,178.333-41.667c0-7.967-9.569-15.411-26.169-21.74C608.801,768.329,577.376,730.03,570.771,684.094z" style="fill:#231F20;"/><g><polygon points="564.228,384.122 589.302,384.122 576.545,354.868  " style="fill:#231F20;"/><path d="M151.404,240.86v280.805h697.192V240.86H151.404z M251.144,440.252h-39.798   c-6.904,0-12.5-5.597-12.5-12.5c0-6.904,5.596-12.5,12.5-12.5h39.798c6.903,0,12.5,5.596,12.5,12.5   C263.644,434.655,258.047,440.252,251.144,440.252z M345.548,374.266l-17.106,9.876l-17.107,9.876   c-3.475,2.006-7.819-0.501-7.819-4.514v-7.253h-92.17c-6.904,0-12.5-5.597-12.5-12.5c0-6.904,5.596-12.5,12.5-12.5h92.17v-7.253   c0-4.013,4.344-6.521,7.819-4.514l17.107,9.876l17.106,9.876C349.023,367.244,349.023,372.26,345.548,374.266z M430.937,449.557   c-2.055,1.688-4.767,2.529-8.138,2.529c-3.08,0-5.609-0.842-7.588-2.529c-1.979-1.684-3.557-3.849-4.729-6.489l-48.389-110.415   c-0.736-1.32-1.248-2.602-1.54-3.849c-0.295-1.244-0.44-2.454-0.44-3.629c0-3.371,1.282-6.341,3.849-8.908   c2.564-2.564,5.681-3.849,9.348-3.849c2.492,0,4.839,0.698,7.039,2.089c2.199,1.396,3.959,3.557,5.279,6.489l37.171,86.88   l38.271-87.1c1.32-2.932,3.114-5.059,5.389-6.378c2.272-1.32,4.653-1.979,7.148-1.979c3.224,0,6.159,1.065,8.798,3.189   c2.639,2.128,3.959,5.025,3.959,8.688c-0.296,1.028-0.516,2.055-0.66,3.08c-0.147,1.027-0.368,2.128-0.66,3.299l-49.268,112.614   C434.601,445.783,432.989,447.873,430.937,449.557z M463.257,468.98L463.257,468.98c-6.356-2.694-9.324-10.031-6.63-16.387   l64.612-152.419c2.694-6.356,10.031-9.325,16.387-6.63l0,0c6.356,2.694,9.324,10.031,6.63,16.387L479.645,462.35   C476.95,468.706,469.613,471.675,463.257,468.98z M636.921,448.347c-2.567,2.495-5.684,3.739-9.348,3.739   c-3.375,0-5.977-0.694-7.809-2.089c-1.835-1.392-3.409-3.554-4.728-6.489l-14.517-33.212h-47.949l-13.857,32.553   c-1.175,2.639-2.935,4.839-5.279,6.599c-2.347,1.759-4.767,2.639-7.258,2.639c-3.375,0-6.379-1.172-9.018-3.519   c-2.639-2.344-3.959-5.423-3.959-9.238c0-2.491,0.512-4.691,1.54-6.598l49.708-113.494c1.172-2.492,2.75-4.581,4.729-6.268   c1.979-1.684,4.509-2.529,7.588-2.529c3.372,0,6.011,0.879,7.918,2.639c1.904,1.76,3.444,3.959,4.619,6.599l49.269,112.614   c0.44,0.735,0.915,1.76,1.43,3.079c0.512,1.32,0.77,2.567,0.77,3.739C640.771,442.776,639.485,445.855,636.921,448.347z    M788.654,440.252h-39.798c-6.904,0-12.5-5.597-12.5-12.5c0-6.904,5.596-12.5,12.5-12.5h39.798c6.904,0,12.5,5.596,12.5,12.5   C801.154,434.655,795.558,440.252,788.654,440.252z M788.654,382.252h-92.17v7.253c0,4.013-4.344,6.521-7.819,4.514l-17.107-9.876   l-17.106-9.876c-3.475-2.006-3.475-7.022,0-9.029l17.106-9.876l17.107-9.876c3.475-2.006,7.819,0.501,7.819,4.514v7.253h92.17   c6.904,0,12.5,5.596,12.5,12.5C801.154,376.655,795.558,382.252,788.654,382.252z" style="fill:#231F20;"/></g><path d="M151.404,546.665v71.042c0,16.569,13.431,30,30,30l637.192,0c16.569,0,30-13.432,30-30v-71.042  H151.404z M500,619.186c-12.15,0-22-9.85-22-22c0-12.15,9.85-22,22-22s22,9.85,22,22C522,609.336,512.15,619.186,500,619.186z" style="fill:#231F20;"/></svg>