<?xml version="1.0" ?><svg id="Layer_2" style="enable-background:new 0 0 1000 1000;" version="1.1" viewBox="0 0 1000 1000" xml:space="preserve" xmlns="http://www.w3.org/2000/svg" xmlns:xlink="http://www.w3.org/1999/xlink"><g><path d="M551.907,644.563l-45.125,29.148c-2.064,1.333-4.423,2-6.782,2s-4.718-0.667-6.782-2l-45.125-29.148   L223.692,789.506l-68.266,44.097c5.188,8.965,14.874,15.001,25.977,15.001h637.192c11.103,0,20.79-6.036,25.977-15.001   l-68.266-44.097L551.907,644.563z" style="fill:#231F20;"/><path d="M231.84,475.116L500,648.326l49.97-32.27c-5.42,1.61-11.08,2.44-16.76,2.44   c-15.42,0-30-5.91-41.07-16.64l-70.17-68.05c-4.37,1.61-9,2.45-13.66,2.45c-10.01,0-19.48-3.79-26.65-10.34   c-8.86,3.71-18.4,5.65-28,5.65c-13.17,0-25.83-3.57-36.8-10.02c-10.97-6.45-20.24-15.78-26.63-27.29l-17.47-31.47   c-6.18-11.11-9.26-23.36-9.15-35.73H181.4c-6.05,0-11.68,1.8-16.4,4.89l7.96,5.14L231.84,475.116z" style="fill:#231F20;"/><path d="M717.14,455.526c-2.75,9.63-9.09,17.61-17.85,22.48c-5.56,3.08-11.85,4.72-18.19,4.72   c-4.23,0-8.36-0.71-12.24-2.06c-3.88-1.34-7.52-3.31-10.75-5.81l-25.56,5.13l-25.72,5.17l-54.34,10.91l21.78,21.12   c13.53,13.12,19.88,31.38,17.4,50.07c-1.53,11.6-6.3,22.15-13.64,30.67l190.13-122.81l58.88-38.03l7.96-5.14   c-4.72-3.09-10.35-4.89-16.4-4.89H713.89C718.73,435.796,719.89,445.906,717.14,455.526z" style="fill:#231F20;"/><path d="M848.33,453.096l-34.09,22.02l-239.3,154.57l214.93,138.82l58.73,37.93v-349.38   C848.6,455.716,848.5,454.386,848.33,453.096z" style="fill:#231F20;"/><path d="M425.06,629.686l-239.3-154.57l-34.09-22.02c-0.17,1.29-0.27,2.62-0.27,3.96v349.38l58.73-37.93   L425.06,629.686z" style="fill:#231F20;"/><path d="M482.418,209.664l137.394,247.382l47.374-9.515c0.265-0.053,0.514-0.137,0.772-0.205l2.201,3.962   c3.352,6.035,10.962,8.21,16.997,4.858c6.035-3.352,8.21-10.961,4.859-16.997l-44.62-80.34   c33.261-18.473,45.292-60.561,26.819-93.823c-18.473-33.261-60.561-45.292-93.823-26.819l-44.62-80.34   c-3.352-6.035-10.962-8.21-16.997-4.858c-6.035,3.352-8.21,10.961-4.858,16.997l2.2,3.962c-0.193,0.184-0.396,0.35-0.581,0.547   L482.418,209.664z M652.357,277.126c11.78,21.21,4.108,48.049-17.102,59.829l-42.727-76.931   C613.738,248.244,640.577,255.916,652.357,277.126z" style="fill:#231F20;"/><path d="M312.09,482.122c12.737,22.934,41.654,31.2,64.588,18.463l13.113-7.283l5.826,10.491   c3.888,7.001,12.716,9.524,19.717,5.636l0.15-0.083c7.203-4,16.098-2.199,21.503,4.019c0.639,0.735,1.317,1.452,2.033,2.146   l70.526,68.401c10.752,10.427,27.062,12.586,40.155,5.314c19.927-11.067,23.521-38.228,7.159-54.098l-55.896-54.211l93.12-18.703   l-129.65-233.44l-95.627,101.612c-1.5,1.594-2.56,3.472-3.177,5.469c-0.56,0.225-1.115,0.474-1.656,0.775l-34.095,18.936   c-7.001,3.888-9.524,12.716-5.636,19.716l1.942,3.497l-13.113,7.283c-22.934,12.737-31.2,41.654-18.463,64.588L312.09,482.122z    M325.212,407.917l13.113-7.283l39.328,70.811l-13.113,7.283c-10.846,6.024-24.57,2.101-30.594-8.745l-17.479-31.472   C310.442,427.665,314.366,413.941,325.212,407.917z" style="fill:#231F20;"/><path d="M671.546,225.664c2.155,1.47,4.605,2.173,7.03,2.173c3.994,0,7.919-1.91,10.339-5.46l30-44   c3.889-5.704,2.418-13.48-3.286-17.369c-5.703-3.89-13.48-2.419-17.369,3.286l-30,44   C664.371,213.998,665.842,221.775,671.546,225.664z" style="fill:#231F20;"/><path d="M754.266,339.48c1.789,0.891,3.69,1.313,5.561,1.313c4.593,0,9.014-2.542,11.2-6.933   c3.076-6.18,0.56-13.684-5.62-16.761l-47.674-23.731c-6.181-3.077-13.685-0.56-16.761,5.62c-3.076,6.18-0.56,13.684,5.62,16.761   L754.266,339.48z" style="fill:#231F20;"/><path d="M691.673,266.082c2.42,3.548,6.344,5.458,10.338,5.458c2.426,0,4.877-0.704,7.032-2.174   l88.748-60.53c5.703-3.89,7.173-11.666,3.283-17.37c-3.89-5.703-11.667-7.174-17.37-3.283l-88.748,60.53   C689.253,252.602,687.783,260.379,691.673,266.082z" style="fill:#231F20;"/></g></svg>