<?xml version="1.0" ?><svg id="Layer_2" style="enable-background:new 0 0 1000 1000;" version="1.1" viewBox="0 0 1000 1000" xml:space="preserve" xmlns="http://www.w3.org/2000/svg" xmlns:xlink="http://www.w3.org/1999/xlink"><path d="M607.445,774.497H392.556c-6.875,0-12.5-5.625-12.5-12.5l0,0c0-6.875,5.625-12.5,12.5-12.5h214.889  c6.875,0,12.5,5.625,12.5,12.5l0,0C619.945,768.872,614.32,774.497,607.445,774.497z" style="fill:#231F20;"/><g><path d="M500.753,426.792c-6.875,0-12.5,5.625-12.5,12.5V759.55c0,6.875,5.625,12.5,12.5,12.5   s12.5-5.625,12.5-12.5V439.292C513.253,432.417,507.628,426.792,500.753,426.792z" style="fill:#231F20;"/><path d="M578.423,306.652c7.47,0,14.77,0.83,21.82,2.42c-6.32-44.69-42.06-79.93-86.99-85.51v36.99   c0,6.87-5.62,12.5-12.5,12.5c-3.44,0-6.56-1.41-8.83-3.67c-2.27-2.27-3.67-5.39-3.67-8.83v-36.99   c-44.93,5.58-80.67,40.82-86.99,85.51c7.05-1.59,14.35-2.42,21.82-2.42H578.423z" style="fill:#231F20;"/><path d="M811.166,462.502c-16.325,0-30.207,10.436-35.356,24.998H662.019   c1.778-31.35-1.569-63.288-10.45-94.583l90.122-28.087c19.149-5.968,35.555-17.663,47.441-33.819   c11.888-16.156,18.171-35.298,18.171-55.357V171.628c0-6.903-5.597-12.5-12.5-12.5s-12.5,5.597-12.5,12.5v104.026   c0,30.105-19.311,56.35-48.052,65.307l-91.517,28.522c-12.795-23.029-37.244-37.836-64.315-37.836H423.087   c-27.582,0-52.439,15.373-65.024,39.151l-95.739-29.838c-28.741-8.958-48.052-35.202-48.052-65.307V171.628   c0-6.903-5.597-12.5-12.5-12.5s-12.5,5.597-12.5,12.5v104.026c0,20.058,6.283,39.2,18.171,55.357   c11.888,16.156,28.293,27.85,47.442,33.819l94.654,29.5c-8.584,30.843-11.804,62.291-10.053,93.17H224.19   c-5.149-14.562-19.03-24.998-35.356-24.998c-20.709,0-37.498,16.789-37.498,37.498c0,20.71,16.789,37.498,37.498,37.498   c16.326,0,30.207-10.436,35.356-24.998h117.813c4.481,30.873,13.953,60.833,28.032,88.652l-109.15,34.018   c-19.149,5.968-35.555,17.663-47.441,33.819c-11.888,16.156-18.171,35.298-18.171,55.356v104.027c0,6.904,5.597,12.5,12.5,12.5   s12.5-5.596,12.5-12.5V724.345c0-30.105,19.311-56.35,48.052-65.307l112.659-35.111c0.538-0.168,1.048-0.379,1.545-0.61   c19.171,30.778,44.36,58.245,74.97,80.484l0.001,0c1.871,1.359,3.794,2.608,5.754,3.77V439.292c0-20.678,16.822-37.5,37.5-37.5   c20.678,0,37.5,16.822,37.5,37.5v268.279c1.96-1.162,3.883-2.411,5.754-3.77l0,0c30.148-21.904,55.042-48.875,74.103-79.09   l110.141,34.326c28.742,8.958,48.053,35.203,48.053,65.307v104.027c0,6.904,5.597,12.5,12.5,12.5c6.903,0,12.5-5.596,12.5-12.5   V724.345c0-20.058-6.283-39.2-18.171-55.356c-11.888-16.156-28.293-27.85-47.442-33.819l-104.904-32.694   c14.452-28.193,24.164-58.611,28.717-89.976h116.308c5.149,14.562,19.03,24.998,35.356,24.998   c20.709,0,37.498-16.789,37.498-37.498C848.664,479.29,831.876,462.502,811.166,462.502z" style="fill:#231F20;"/></g></svg>