<?xml version="1.0" ?><svg id="Layer_2" style="enable-background:new 0 0 1000 1000;" version="1.1" viewBox="0 0 1000 1000" xml:space="preserve" xmlns="http://www.w3.org/2000/svg" xmlns:xlink="http://www.w3.org/1999/xlink"><g><path d="M817.768,685.783H570.231c-7.583,0-13.731,6.147-13.731,13.731   c0,16.717-13.552,30.269-30.269,30.269h-52.462c-16.717,0-30.269-13.552-30.269-30.269c0-7.583-6.147-13.731-13.731-13.731H182.232   c-16.569,0-30,13.432-30,30v39.476c0,16.568,13.431,30,30,30h635.537c16.569,0,30-13.432,30-30v-39.476   C847.768,699.215,834.337,685.783,817.768,685.783z M234.357,748.021h-18.902c-6.904,0-12.5-5.596-12.5-12.5   c0-6.903,5.596-12.5,12.5-12.5h18.902c6.904,0,12.5,5.597,12.5,12.5C246.857,742.425,241.26,748.021,234.357,748.021z    M365.69,748.021h-66.902c-6.904,0-12.5-5.596-12.5-12.5c0-6.903,5.596-12.5,12.5-12.5h66.902c6.903,0,12.5,5.597,12.5,12.5   C378.19,742.425,372.593,748.021,365.69,748.021z M700.925,748.021h-66.902c-6.903,0-12.5-5.596-12.5-12.5   c0-6.903,5.596-12.5,12.5-12.5h66.902c6.904,0,12.5,5.597,12.5,12.5C713.425,742.425,707.829,748.021,700.925,748.021z    M784.259,748.021h-18.902c-6.904,0-12.5-5.596-12.5-12.5c0-6.903,5.596-12.5,12.5-12.5h18.902c6.903,0,12.5,5.597,12.5,12.5   C796.759,742.425,791.162,748.021,784.259,748.021z" style="fill:#231F20;"/><path d="M796.759,353.295c0-16.568-13.431-30-30-30h-30.142c3.812,12.22,5.751,24.775,5.751,37.577   c0,24.512-7.039,48.128-20.921,70.193c-12.819,20.374-30.918,38.503-53.796,53.883c-6.578,4.422-13.47,8.545-20.625,12.378   c0.739,37.9,12,68.508,12.168,68.956c2.963,7.779,1.85,16.496-2.953,23.295c-4.69,6.64-12.319,10.549-20.425,10.549   c-0.194,0-0.388-0.002-0.582-0.007c-58.131-1.341-109.329-36.88-143.376-68.224c-59.95-1.377-116.323-17.917-159.506-46.948   c-22.877-15.38-40.977-33.509-53.796-53.883c-13.882-22.065-20.921-45.681-20.921-70.193c0-12.802,1.939-25.356,5.751-37.577   h-30.429c-16.569,0-30,13.432-30,30v307.488h593.804V353.295z" style="fill:#231F20;"/><path d="M499.997,507.001c0.64,0,1.29,0,1.93-0.01c30.68,29.83,79.55,66.88,133.88,68.14   c0,0-16.33-42.87-13.51-93.44c57.39-26.31,95.07-70.61,95.07-120.82c0-80.7-97.32-146.13-217.37-146.13   c-120.05,0-217.36,65.43-217.36,146.13C282.637,441.571,379.947,507.001,499.997,507.001z M591.397,368.191   c-4.89-4.89-4.89-12.8,0-17.68c4.88-4.88,12.79-4.88,17.67,0l42.19,42.19c4.89,4.88,4.89,12.79,0,17.68l-17.97,17.97l-24.22,24.22   c-4.88,4.88-12.79,4.88-17.67,0c-2.78-2.78-3.98-6.53-3.6-10.15c0.29-2.75,1.49-5.42,3.6-7.53l33.35-33.35L591.397,368.191z    M548.966,303.611h12.31c6.9,0,12.5,5.59,12.5,12.5c0,6.9-5.6,12.5-12.5,12.5h-12.31c-6.9,0-12.5-5.6-12.5-12.5   C536.466,309.201,542.067,303.611,548.966,303.611z M548.966,389.041h12.31c6.9,0,12.5,5.59,12.5,12.5c0,6.9-5.6,12.5-12.5,12.5   h-12.31c-6.9,0-12.5-5.6-12.5-12.5C536.466,394.631,542.067,389.041,548.966,389.041z M491.617,303.611h12.31   c6.9,0,12.5,5.59,12.5,12.5c0,6.9-5.6,12.5-12.5,12.5h-12.31c-6.9,0-12.5-5.6-12.5-12.5   C479.117,309.201,484.716,303.611,491.617,303.611z M491.617,389.041h12.31c6.9,0,12.5,5.59,12.5,12.5c0,6.9-5.6,12.5-12.5,12.5   h-12.31c-6.9,0-12.5-5.6-12.5-12.5C479.117,394.631,484.716,389.041,491.617,389.041z M434.267,303.611h12.31   c6.9,0,12.5,5.59,12.5,12.5c0,6.9-5.6,12.5-12.5,12.5h-12.31c-6.91,0-12.5-5.6-12.5-12.5   C421.767,309.201,427.357,303.611,434.267,303.611z M434.267,389.041h12.31c6.9,0,12.5,5.59,12.5,12.5c0,6.9-5.6,12.5-12.5,12.5   h-12.31c-6.91,0-12.5-5.6-12.5-12.5C421.767,394.631,427.357,389.041,434.267,389.041z M348.737,311.361l42.19-42.19   c4.88-4.88,12.8-4.88,17.68,0c4.88,4.89,4.88,12.8,0,17.68l-33.35,33.35l33.35,33.36c4.88,4.88,4.88,12.79,0,17.67   c-4.88,4.88-12.8,4.88-17.68,0l-42.19-42.19C343.857,324.161,343.857,316.251,348.737,311.361z" style="fill:#231F20;"/></g></svg>