<?xml version="1.0" ?><svg id="Layer_2" style="enable-background:new 0 0 1000 1000;" version="1.1" viewBox="0 0 1000 1000" xml:space="preserve" xmlns="http://www.w3.org/2000/svg" xmlns:xlink="http://www.w3.org/1999/xlink"><g><path d="M817.768,639.801H604.138c0.076,0.471,0.126,0.951,0.126,1.443c0,8.572-6.949,15.521-15.521,15.521   H410.924c-8.572,0-15.521-6.949-15.521-15.521c0-0.493,0.05-0.972,0.126-1.443H182.232c-16.568,0-30,13.431-30,30   c0,28.545,23.141,51.686,51.686,51.686h592.165c28.545,0,51.686-23.141,51.686-51.686   C847.768,653.232,834.337,639.801,817.768,639.801z M254.357,693.144h-31.086c-6.904,0-12.5-5.596-12.5-12.5   c0-6.904,5.596-12.5,12.5-12.5h31.086c6.903,0,12.5,5.596,12.5,12.5C266.857,687.547,261.26,693.144,254.357,693.144z    M773.758,693.144h-31.086c-6.904,0-12.5-5.596-12.5-12.5c0-6.904,5.596-12.5,12.5-12.5h31.086c6.904,0,12.5,5.596,12.5,12.5   C786.258,687.547,780.662,693.144,773.758,693.144z" style="fill:#231F20;"/><g><circle cx="672.48" cy="358.523" r="15.25" style="fill:#231F20;"/><path d="M605.34,521.028c-8.085-2.313-16.544,2.383-18.857,10.468c-2.313,8.085,2.384,16.543,10.468,18.856    c8.085,2.313,16.544-2.383,18.857-10.468C618.12,531.8,613.424,523.341,605.34,521.028z" style="fill:#231F20;"/><circle cx="398.761" cy="425.566" r="16" style="fill:#231F20;"/><path d="M756.258,278.513H243.455c-16.568,0-30,13.431-30,30V614.8h572.804V308.513    C786.258,291.945,772.827,278.513,756.258,278.513z M337.261,467.316h-9.5c-22.37,0-40.5-18.14-40.5-40.5v-2.5    c0-22.37,18.13-40.5,40.5-40.5h9.5V467.316z M403.45,566.486h-24c-5.52,0-10.52-2.24-14.14-5.86c-3.62-3.62-5.86-8.62-5.86-14.14    c0-7.35,3.98-13.76,9.891-17.24l-4.25-36.93h36.62c0,0,0.26,0,0.35,0c0.24,0,0.47,0.01,0.71,0.03c0.04,0.01,0.09,0.01,0.14,0.01    c0.28,0.02,0.56,0.04,0.841,0.08c0.55,0.06,1.1,0.14,1.649,0.25l3.99,34.69c4.07,1.26,7.58,3.8,10.08,7.14    c2.5,3.34,3.98,7.48,3.98,11.97C423.45,557.526,414.501,566.486,403.45,566.486z M537.011,349.206v37.99v76.73v38v16.64    c0,6.9-5.601,12.5-12.5,12.5c-6.311,0-11.51-4.68-12.36-10.75h-8.34c-9.14,0-18.04-2.86-25.47-8.18l-51.16-36.64    c-4.76-3.41-10.12-5.81-15.76-7.08c-0.28-0.07-0.561-0.13-0.841-0.19c-0.109-0.03-0.229-0.05-0.35-0.07    c-0.11-0.03-0.22-0.05-0.34-0.06c-0.4-0.09-0.811-0.16-1.21-0.22c-0.17-0.03-0.33-0.05-0.5-0.07c-0.38-0.06-0.76-0.11-1.14-0.16    c-0.2-0.03-0.4-0.05-0.61-0.07c-0.46-0.05-0.93-0.09-1.4-0.13c-0.109-0.01-0.22-0.02-0.319-0.02c-0.391-0.03-0.79-0.05-1.181-0.06    c-0.319-0.02-0.649-0.03-0.97-0.04c-0.27-0.01-0.56-0.01-0.85-0.01h-36.62c-0.95,0-1.9,0.05-2.83,0.17v-0.91v-82.76h39.45    c9.14,0,18.04-2.86,25.47-8.18l51.16-36.64c7.43-5.32,16.33-8.18,25.47-8.18h8.34c0.851-6.07,6.05-10.75,12.36-10.75    c6.899,0,12.5,5.6,12.5,12.5V349.206z M562.011,462.396c14.59-5.87,24.91-20.17,24.91-36.83c0-16.66-10.32-30.96-24.91-36.84    v-22.78c6.64,1.65,12.85,4.38,18.439,7.99l10.181-8.03c3.19-2.52,7.75-2.25,10.62,0.62l5.01,5.01c2.87,2.87,3.14,7.44,0.63,10.62    l-8.04,10.18c3.94,6.09,6.82,12.91,8.4,20.22l12.85,1.51c4.03,0.48,7.07,3.89,7.07,7.95v7.09c0,4.06-3.04,7.48-7.07,7.95    l-12.85,1.52c-1.58,7.3-4.46,14.13-8.4,20.21l8.04,10.18c2.51,3.19,2.24,7.75-0.63,10.62l-5.01,5.01    c-2.87,2.87-7.431,3.14-10.62,0.63l-10.181-8.03c-5.59,3.61-11.8,6.33-18.439,7.98V462.396z M640.066,544.98l-0.976,3.408    c-0.558,1.951-2.487,3.175-4.49,2.85l-6.388-1.039c-1.765,3.294-4.089,6.178-6.815,8.565l2.461,5.997    c0.77,1.877,0.014,4.034-1.76,5.019l-3.1,1.72c-1.774,0.985-4.005,0.486-5.19-1.16l-3.788-5.26    c-3.468,1.053-7.145,1.5-10.874,1.256l-2.496,5.971c-0.782,1.872-2.843,2.862-4.793,2.304l-3.408-0.975    c-1.951-0.558-3.176-2.488-2.85-4.491l1.039-6.387c-3.294-1.765-6.179-4.089-8.564-6.816l-5.998,2.461    c-1.877,0.771-4.033,0.014-5.018-1.76l-1.721-3.099c-0.984-1.774-0.486-4.005,1.16-5.191l5.261-3.788    c-1.053-3.468-1.5-7.145-1.256-10.874l-5.971-2.496c-1.872-0.783-2.862-2.843-2.304-4.794l0.975-3.408    c0.558-1.951,2.487-3.176,4.49-2.85l6.388,1.039c1.765-3.294,4.089-6.178,6.817-8.565l-2.462-5.997    c-0.769-1.877-0.014-4.034,1.761-5.019l3.099-1.72c1.774-0.985,4.005-0.486,5.19,1.16l3.789,5.261    c3.467-1.053,7.144-1.5,10.873-1.256l2.496-5.97c0.783-1.872,2.843-2.863,4.794-2.305l3.407,0.975    c1.951,0.558,3.176,2.488,2.851,4.491l-1.039,6.387c3.294,1.765,6.178,4.089,8.565,6.816l5.997-2.461    c1.877-0.77,4.034-0.014,5.018,1.76l1.721,3.099c0.984,1.774,0.486,4.004-1.16,5.19l-5.261,3.788    c1.053,3.468,1.5,7.145,1.256,10.874l5.971,2.496C639.633,540.969,640.623,543.029,640.066,544.98z M712.452,360.295    c0,2.029-1.519,3.737-3.533,3.975l-6.427,0.758c-0.791,3.652-2.232,7.064-4.198,10.109l4.016,5.089    c1.257,1.593,1.123,3.875-0.312,5.31l-2.507,2.506c-1.435,1.435-3.716,1.569-5.31,0.312l-5.089-4.016    c-3.044,1.966-6.457,3.407-10.108,4.198l-0.758,6.427c-0.238,2.015-1.946,3.534-3.976,3.534h-3.544    c-2.029,0-3.737-1.519-3.976-3.534l-0.758-6.427c-3.651-0.791-7.064-2.232-10.108-4.198l-5.089,4.016    c-1.593,1.257-3.875,1.123-5.31-0.312l-2.507-2.506c-1.435-1.435-1.568-3.716-0.312-5.31l4.016-5.089    c-1.966-3.044-3.407-6.457-4.198-10.109l-6.427-0.758c-2.015-0.238-3.533-1.946-3.533-3.975v-3.544    c0-2.029,1.519-3.737,3.533-3.975l6.427-0.758c0.791-3.652,2.232-7.065,4.198-10.109l-4.016-5.089    c-1.257-1.593-1.123-3.874,0.312-5.31l2.507-2.506c1.435-1.435,3.717-1.569,5.31-0.312l5.089,4.016    c3.044-1.966,6.457-3.407,10.108-4.198l0.758-6.427c0.238-2.015,1.946-3.534,3.976-3.534h3.544c2.029,0,3.737,1.519,3.976,3.534    l0.758,6.427c3.651,0.791,7.064,2.232,10.108,4.198l5.089-4.016c1.594-1.257,3.875-1.123,5.31,0.312l2.507,2.506    c1.435,1.435,1.568,3.717,0.312,5.31l-4.016,5.089c1.966,3.044,3.407,6.457,4.198,10.109l6.427,0.758    c2.015,0.238,3.533,1.946,3.533,3.975V360.295z" style="fill:#231F20;"/></g></g></svg>