<?xml version="1.0" ?><svg id="Layer_2" style="enable-background:new 0 0 1000 1000;" version="1.1" viewBox="0 0 1000 1000" xml:space="preserve" xmlns="http://www.w3.org/2000/svg" xmlns:xlink="http://www.w3.org/1999/xlink"><g><path d="M839.663,273.556l-98.676-98.676c-5.626-5.626-13.257-8.787-21.213-8.787h-10.769v141.664H848.45   v-12.988C848.45,286.812,845.289,279.182,839.663,273.556z" style="fill:#231F20;"/><path d="M439.935,532.897V253.873c0-2.757-2.243-5-5-5h-16c-2.757,0-5,2.243-5,5v279.024   c0,10.796-6.843,19.994-16.429,23.492l29.429,50.972l29.429-50.972C446.778,552.891,439.935,543.693,439.935,532.897z" style="fill:#231F20;"/><path d="M684.005,320.257L684.005,320.257V166.092H181.55c-16.5,0-30,13.5-30,30v474.44   c0,16.5,13.5,30,30,30H556.7v-8.074c0-20.127,13.063-37.26,31.157-43.364c-3.428-6.494-5.246-13.767-5.246-21.32   c0-12.221,4.759-23.709,13.4-32.35l12.727-12.727c8.642-8.642,20.131-13.4,32.351-13.4c7.394,0,14.52,1.742,20.909,5.032   c0.61-0.263,1.223-0.521,1.837-0.775c6.035-18.217,23.23-31.396,43.444-31.396h18c20.215,0,37.409,13.177,43.443,31.394   c0.268,0.111,0.536,0.222,0.803,0.335c6.052-2.876,12.718-4.393,19.618-4.393c12.22,0,23.709,4.759,32.35,13.4l12.728,12.728   c8.641,8.641,13.4,20.13,13.4,32.35c0,6.974-1.549,13.709-4.486,19.813c0.261,0.628,0.518,1.257,0.769,1.888   c1.558,0.592,3.075,1.269,4.547,2.022V332.757H696.505C689.63,332.757,684.005,327.132,684.005,320.257z M512.5,307.757h64.935   c6.875,0,12.5,5.625,12.5,12.5s-5.625,12.5-12.5,12.5H512.5c-6.875,0-12.5-5.625-12.5-12.5S505.625,307.757,512.5,307.757z    M512.5,362.424h108.935c6.875,0,12.5,5.625,12.5,12.5s-5.625,12.5-12.5,12.5H512.5c-6.875,0-12.5-5.625-12.5-12.5   S505.625,362.424,512.5,362.424z M500,429.59c0-6.875,5.625-12.5,12.5-12.5h157.935c6.875,0,12.5,5.625,12.5,12.5v0   c0,6.875-5.625,12.5-12.5,12.5H512.5C505.625,442.09,500,436.465,500,429.59L500,429.59z M272.611,307.757h64.935   c6.875,0,12.5,5.625,12.5,12.5s-5.625,12.5-12.5,12.5h-64.935c-6.875,0-12.5-5.625-12.5-12.5S265.736,307.757,272.611,307.757z    M333.94,496.757h-61.329c-6.875,0-12.5-5.625-12.5-12.5s5.625-12.5,12.5-12.5h61.329c6.875,0,12.5,5.625,12.5,12.5   S340.815,496.757,333.94,496.757z M346.44,429.59c0,6.875-5.625,12.5-12.5,12.5h-61.329c-6.875,0-12.5-5.625-12.5-12.5v0   c0-6.875,5.625-12.5,12.5-12.5h61.329C340.815,417.09,346.44,422.715,346.44,429.59L346.44,429.59z M339.079,387.424h-66.467   c-6.875,0-12.5-5.625-12.5-12.5s5.625-12.5,12.5-12.5h66.467c6.875,0,12.5,5.625,12.5,12.5S345.954,387.424,339.079,387.424z    M486.143,554.81l-23.278,40.319l-23.278,40.319c-5.623,9.739-19.68,9.739-25.303,0l-23.278-40.319l-23.278-40.319   c-5.623-9.739,1.406-21.913,12.651-21.913h8.556V253.873c0-16.569,13.431-30,30-30h16c16.569,0,30,13.431,30,30v279.024h8.556   C484.737,532.897,491.766,545.071,486.143,554.81z M739.889,484.257c0,6.875-5.625,12.5-12.5,12.5H512.5   c-6.875,0-12.5-5.625-12.5-12.5s5.625-12.5,12.5-12.5h214.889C734.264,471.757,739.889,477.382,739.889,484.257z" style="fill:#231F20;"/><path d="M827.7,671.709c-0.932,0-1.844,0.083-2.744,0.202c-2.516-9.577-6.261-18.656-11.062-27.054   c0.925-0.66,1.819-1.383,2.649-2.213h0c8.103-8.103,8.103-21.241,0-29.345l-12.728-12.728c-8.103-8.103-21.241-8.104-29.345,0v0   c-0.802,0.802-1.502,1.665-2.146,2.557c-8.293-4.782-17.256-8.529-26.711-11.079c0.271-1.338,0.415-2.722,0.415-4.141v0   c0-11.46-9.29-20.75-20.75-20.75h-18c-11.46,0-20.75,9.29-20.75,20.75v0c0,1.418,0.144,2.802,0.415,4.141   c-10.053,2.712-19.548,6.781-28.275,12.003c-0.816-1.303-1.774-2.544-2.908-3.677c-8.103-8.103-21.242-8.103-29.345,0   l-12.728,12.728c-8.103,8.103-8.103,21.242,0,29.345c1.353,1.353,2.856,2.46,4.443,3.361c-4.616,8.261-8.226,17.162-10.648,26.541   c-1.614-0.403-3.294-0.641-5.033-0.641c-11.46,0-20.75,9.29-20.75,20.75v18c0,11.46,9.29,20.75,20.75,20.75   c1.908,0,3.747-0.279,5.502-0.761c2.574,9.343,6.322,18.198,11.079,26.396c-1.362,0.836-2.657,1.823-3.837,3.002   c-8.103,8.103-8.103,21.242,0,29.345l12.728,12.728c8.103,8.104,21.242,8.103,29.345,0c1.206-1.206,2.21-2.532,3.056-3.928   c8.268,4.757,17.2,8.484,26.621,11.026c-0.271,1.338-0.415,2.722-0.415,4.141c0,11.46,9.29,20.75,20.75,20.75h18   c11.46,0,20.75-9.29,20.75-20.75c0-1.418-0.144-2.802-0.415-4.141c8.811-2.377,17.193-5.797,25.005-10.122   c0.691,0.991,1.461,1.944,2.345,2.828h0c8.103,8.103,21.242,8.103,29.345,0l12.728-12.728c8.103-8.103,8.103-21.242,0-29.345v0   c-0.664-0.664-1.373-1.254-2.099-1.809c4.953-8.336,8.861-17.363,11.537-26.908c1.054,0.165,2.125,0.276,3.225,0.276   c11.46,0,20.75-9.29,20.75-20.75v-18C848.45,680.999,839.16,671.709,827.7,671.709z M716.279,739.467   c-21.503,0-38.935-17.432-38.935-38.935c0-21.503,17.432-38.935,38.935-38.935c21.503,0,38.935,17.432,38.935,38.935   C755.214,722.036,737.782,739.467,716.279,739.467z" style="fill:#231F20;"/></g></svg>