<?xml version="1.0" ?><svg id="Layer_2" style="enable-background:new 0 0 1000 1000;" version="1.1" viewBox="0 0 1000 1000" xml:space="preserve" xmlns="http://www.w3.org/2000/svg" xmlns:xlink="http://www.w3.org/1999/xlink"><g><path d="M668.73,801.293h-11.97c-4.42,0-8.76-1.21-12.55-3.49l-22.31-13.47   c-36.39-21.98-62.13-57.08-72.64-97.18h-98.52c-3.53,13.46-8.771,26.36-15.56,38.39c-13.43,23.8-32.9,44.19-57.08,58.79   l-22.31,13.47c-3.79,2.28-8.13,3.49-12.55,3.49h-11.97c-13.4,0-24.27,10.87-24.27,24.27h386c0-6.7-2.72-12.77-7.11-17.16   C681.5,804.013,675.43,801.293,668.73,801.293z" style="fill:#231F20;"/><path d="M152.088,632.148c0,16.569,13.431,30,30,30h635.823c16.569,0,30-13.431,30-30v-38.855H152.088   V632.148z" style="fill:#231F20;"/><path d="M664.74,442.894h-13.341V328.925c0-7.995-6.505-14.5-14.5-14.5c-7.996,0-14.5,6.505-14.5,14.5   v113.969h-13.341c-0.177,0-0.378,0-0.567,0.327c-0.189,0.327-0.088,0.501,0,0.654l27.842,48.223   c0.089,0.153,0.189,0.327,0.566,0.327c0.378,0,0.478-0.174,0.567-0.327l27.842-48.223c0.088-0.153,0.189-0.327,0-0.654   C665.117,442.894,664.917,442.894,664.74,442.894z" style="fill:#231F20;"/><path d="M751.697,314.752c-0.089-0.153-0.189-0.327-0.566-0.327s-0.478,0.174-0.566,0.327l-27.842,48.223   c-0.088,0.153-0.189,0.327,0,0.654c0.189,0.327,0.39,0.327,0.566,0.327h13.341v113.969c0,7.995,6.505,14.5,14.5,14.5   c7.996,0,14.501-6.505,14.501-14.5V363.956h13.341c0.177,0,0.377,0,0.566-0.327c0.189-0.327,0.088-0.501,0-0.654L751.697,314.752z" style="fill:#231F20;"/><path d="M817.912,174.437H182.088c-16.569,0-30,13.431-30,30v363.855h695.823V204.437   C847.912,187.868,834.481,174.437,817.912,174.437z M754.348,225.305h28c6.875,0,12.5,5.625,12.5,12.5s-5.625,12.5-12.5,12.5h-28   c-6.875,0-12.5-5.625-12.5-12.5S747.473,225.305,754.348,225.305z M670.848,225.305h28c6.875,0,12.5,5.625,12.5,12.5   s-5.625,12.5-12.5,12.5h-28c-6.875,0-12.5-5.625-12.5-12.5S663.973,225.305,670.848,225.305z M207.833,315.925h100.015   c6.903,0,12.5,5.597,12.5,12.5c0,6.903-5.597,12.5-12.5,12.5H207.833c-6.903,0-12.5-5.597-12.5-12.5   C195.333,321.522,200.93,315.925,207.833,315.925z M207.833,365.925h34.015c6.903,0,12.5,5.596,12.5,12.5   c0,6.903-5.597,12.5-12.5,12.5h-34.015c-6.903,0-12.5-5.597-12.5-12.5C195.333,371.521,200.93,365.925,207.833,365.925z    M207.833,415.925h34.015c6.903,0,12.5,5.596,12.5,12.5c0,6.903-5.597,12.5-12.5,12.5h-34.015c-6.903,0-12.5-5.597-12.5-12.5   C195.333,421.521,200.93,415.925,207.833,415.925z M307.848,490.925H207.833c-6.903,0-12.5-5.597-12.5-12.5   c0-6.903,5.597-12.5,12.5-12.5h100.015c6.903,0,12.5,5.597,12.5,12.5C320.348,485.328,314.751,490.925,307.848,490.925z    M328.181,440.925h-34.014c-6.904,0-12.5-5.597-12.5-12.5c0-6.904,5.596-12.5,12.5-12.5h34.014c6.904,0,12.5,5.596,12.5,12.5   C340.681,435.328,335.085,440.925,328.181,440.925z M527.181,490.925H364.5c-6.904,0-12.5-5.597-12.5-12.5   c0-6.903,5.596-12.5,12.5-12.5h162.681c6.904,0,12.5,5.597,12.5,12.5C539.681,485.328,534.084,490.925,527.181,490.925z    M527.181,440.925H385.514c-6.903,0-12.5-5.597-12.5-12.5c0-6.903,5.597-12.5,12.5-12.5h141.667c6.904,0,12.5,5.597,12.5,12.5   C539.681,435.328,534.084,440.925,527.181,440.925z M527.181,390.925H294.167c-6.904,0-12.5-5.597-12.5-12.5   c0-6.904,5.596-12.5,12.5-12.5h233.014c6.904,0,12.5,5.596,12.5,12.5C539.681,385.328,534.084,390.925,527.181,390.925z    M527.181,340.925H364.5c-6.904,0-12.5-5.597-12.5-12.5c0-6.903,5.596-12.5,12.5-12.5h162.681c6.904,0,12.5,5.597,12.5,12.5   C539.681,335.328,534.084,340.925,527.181,340.925z M574.848,237.805c0-6.875,5.625-12.5,12.5-12.5h28   c6.875,0,12.5,5.625,12.5,12.5s-5.625,12.5-12.5,12.5h-28C580.473,250.305,574.848,244.68,574.848,237.805z M686.956,456.375   l-27.842,48.223c-4.637,8.032-12.942,12.827-22.217,12.827c-9.274,0-17.579-4.795-22.217-12.827l-27.842-48.223   c-4.637-8.032-4.637-17.623,0-25.654c2.556-4.427,6.225-7.87,10.558-10.07v-91.726c0-21.78,17.72-39.5,39.5-39.5   c21.781,0,39.5,17.72,39.5,39.5v91.726c4.333,2.2,8.003,5.644,10.558,10.07C691.594,438.752,691.594,448.343,686.956,456.375z    M801.189,376.129c-2.556,4.427-6.226,7.87-10.558,10.07v91.725c0,21.78-17.72,39.5-39.501,39.5c-21.781,0-39.5-17.72-39.5-39.5   v-91.725c-4.332-2.2-8.003-5.644-10.558-10.07c-4.637-8.031-4.637-17.622,0-25.654l27.842-48.223   c4.637-8.032,12.942-12.827,22.217-12.827c9.274,0,17.58,4.795,22.217,12.827l27.842,48.223   C805.826,358.507,805.826,368.098,801.189,376.129z" style="fill:#231F20;"/></g></svg>