<?xml version="1.0" ?><svg id="Layer_2" style="enable-background:new 0 0 1000 1000;" version="1.1" viewBox="0 0 1000 1000" xml:space="preserve" xmlns="http://www.w3.org/2000/svg" xmlns:xlink="http://www.w3.org/1999/xlink"><g><path d="M187.13,704.855c0,16.57,13.43,30,30,30h217.89c0-2.16,0.28-4.34,0.85-6.48   c0.61-2.28,1.15-4.61,1.59-6.93c4.81-25.11,26.82-43.33,52.34-43.33h20.4c25.52,0,47.53,18.22,52.34,43.33   c0.44,2.32,0.98,4.65,1.59,6.93c0.57,2.14,0.85,4.32,0.85,6.48h217.89c16.57,0,30-13.43,30-30v-46.18H187.13V704.855z" style="fill:#231F20;"/><path d="M510.203,703.115L510.203,703.115h-20.406c-13.594,0-25.222,9.683-27.779,23.034   c-0.563,2.934-1.23,5.837-1.999,8.704h79.963c-0.769-2.867-1.436-5.77-1.999-8.704   C535.425,712.797,523.797,703.115,510.203,703.115z" style="fill:#231F20;"/><path d="M610.329,815.831c-26.618-11.327-47.727-31.378-60.589-55.978H450.26   c-12.863,24.6-33.972,44.65-60.589,55.978h0c-12.743,5.423-23.79,14.177-31.98,25.344c-3.107,4.237-0.082,10.208,5.172,10.208   h126.934h20.406h126.934c5.255,0,8.28-5.972,5.173-10.208C634.119,830.008,623.072,821.253,610.329,815.831z" style="fill:#231F20;"/><path d="M428.69,435.755l-13.79,56.68c0,0.03-0.01,0.05-0.02,0.08l-13.78,56.67   c-1.53,6.26,1.96,12.66,8.06,14.76l86.7,29.98c1.33,0.46,2.71,0.69,4.08,0.69h0.12c1.37,0,2.75-0.23,4.08-0.69l86.7-29.98   c6.1-2.1,9.59-8.5,8.06-14.76l-27.6-113.48c-0.01-0.03-0.01-0.05-0.02-0.08l-19.68-80.9c0.68-0.05,1.36-0.14,2.04-0.3   c6.71-1.64,10.83-8.4,9.19-15.1l-14.98-61.58c-1.36-5.61-6.38-9.55-12.14-9.55h-23.15v-32.83c7.03-4.27,11.73-12,11.73-20.83   c0-13.46-10.91-24.36-24.36-24.36c-13.45,0-24.36,10.9-24.36,24.36c0,8.88,4.76,16.66,11.87,20.91v32.75h-23.15   c-5.77,0-10.78,3.94-12.14,9.55l-14.99,61.58c-1.63,6.7,2.49,13.46,9.19,15.1c0.69,0.16,1.37,0.25,2.05,0.3l-19.67,80.84   C428.72,435.625,428.7,435.695,428.69,435.755z M512.56,293.195h13.32l8.9,36.58h-22.22V293.195z M512.56,354.775h13.33l4.58,18.85   l-17.91,6.2V354.775z M512.56,406.275l23.85-8.25l7.88,32.41l-31.73,10.97V406.275z M512.56,467.855l37.66-13.021l7.89,32.4   l-45.55,15.75V467.855z M512.56,529.435l51.48-17.8l7.88,32.4l-59.36,20.53V529.435z M487.44,379.825l-17.91-6.19l4.58-18.86h13.33   V379.825z M474.11,293.195h13.33v36.58h-22.23L474.11,293.195z M463.59,398.035l23.85,8.24v35.13l-31.73-10.97L463.59,398.035z    M449.78,454.835l37.66,13.021v35.13l-45.55-15.75L449.78,454.835z M487.44,529.435v35.13l-59.36-20.53l7.88-32.4L487.44,529.435z" style="fill:#231F20;"/><path d="M782.87,342.275H588.2c0.01,6.82-1.84,13.53-5.48,19.5c-0.83,1.37-1.74,2.67-2.72,3.91l43.19,177.59   c4.6,18.9-5.8,37.95-24.18,44.3l-86.7,29.98c-3.94,1.37-8.07,2.06-12.25,2.06h-0.12c-4.18,0-8.31-0.69-12.26-2.06l-86.69-29.98   c-18.38-6.35-28.78-25.4-24.18-44.3l43.2-177.62c-5.21-6.54-8.2-14.76-8.2-23.38H217.13c-16.57,0-30,15.44-30,34.48v256.92h625.74   v-256.92C812.87,357.715,799.44,342.275,782.87,342.275z M231.54,448.225h28.67c6.9,0,12.5,5.59,12.5,12.5   c0,6.9-5.6,12.5-12.5,12.5h-28.67c-6.91,0-12.5-5.6-12.5-12.5C219.04,453.815,224.63,448.225,231.54,448.225z M260.21,565.555   h-28.67c-6.91,0-12.5-5.6-12.5-12.5s5.59-12.5,12.5-12.5h28.67c6.9,0,12.5,5.6,12.5,12.5S267.11,565.555,260.21,565.555z    M350.21,519.385H231.54c-6.91,0-12.5-5.59-12.5-12.5c0-6.9,5.59-12.5,12.5-12.5h118.67c6.9,0,12.5,5.6,12.5,12.5   C362.71,513.795,357.11,519.385,350.21,519.385z M768.46,565.555h-28.67c-6.9,0-12.5-5.6-12.5-12.5s5.6-12.5,12.5-12.5h28.67   c6.91,0,12.5,5.6,12.5,12.5S775.37,565.555,768.46,565.555z M768.46,519.385H649.79c-6.9,0-12.5-5.59-12.5-12.5   c0-6.9,5.6-12.5,12.5-12.5h118.67c6.91,0,12.5,5.6,12.5,12.5C780.96,513.795,775.37,519.385,768.46,519.385z M768.46,473.225   h-28.67c-6.9,0-12.5-5.6-12.5-12.5c0-6.91,5.6-12.5,12.5-12.5h28.67c6.91,0,12.5,5.59,12.5,12.5   C780.96,467.625,775.37,473.225,768.46,473.225z" style="fill:#231F20;"/><path d="M432.261,241.283c6.903,0,12.5-5.597,12.5-12.5c0-30.419,24.748-55.167,55.167-55.167   c30.419,0,55.167,24.748,55.167,55.167c0,6.903,5.597,12.5,12.5,12.5c6.903,0,12.5-5.597,12.5-12.5   c0-44.204-35.963-80.167-80.167-80.167s-80.167,35.962-80.167,80.167C419.761,235.686,425.358,241.283,432.261,241.283z" style="fill:#231F20;"/></g></svg>