<?xml version="1.0" ?><svg id="Layer_2" style="enable-background:new 0 0 1000 1000;" version="1.1" viewBox="0 0 1000 1000" xml:space="preserve" xmlns="http://www.w3.org/2000/svg" xmlns:xlink="http://www.w3.org/1999/xlink"><g><path d="M576.99,471.316v-97.08v0H315.51c-16.569,0-30,13.43-30,30v412.49c0,16.57,13.431,30,30,30h368.98   c16.569,0,30-13.43,30-30v-290.41h-82.5C601.663,526.316,576.99,501.643,576.99,471.316z M437.253,433.981h85.976   c6.903,0,12.5,5.596,12.5,12.5c0,6.904-5.597,12.5-12.5,12.5h-85.976c-6.903,0-12.5-5.596-12.5-12.5   C424.753,439.578,430.35,433.981,437.253,433.981z M338.586,433.981h44.976c6.904,0,12.5,5.596,12.5,12.5   c0,6.904-5.596,12.5-12.5,12.5h-44.976c-6.903,0-12.5-5.596-12.5-12.5C326.086,439.578,331.683,433.981,338.586,433.981z    M338.586,488.648h184.643c6.903,0,12.5,5.596,12.5,12.5c0,6.904-5.597,12.5-12.5,12.5H338.586c-6.903,0-12.5-5.596-12.5-12.5   C326.086,494.245,331.683,488.648,338.586,488.648z M383.561,786.981h-44.976c-6.903,0-12.5-5.596-12.5-12.5   c0-6.904,5.597-12.5,12.5-12.5h44.976c6.904,0,12.5,5.596,12.5,12.5C396.061,781.385,390.466,786.981,383.561,786.981z    M383.561,732.315h-44.976c-6.903,0-12.5-5.596-12.5-12.5c0-6.904,5.597-12.5,12.5-12.5h44.976c6.904,0,12.5,5.596,12.5,12.5   C396.061,726.718,390.466,732.315,383.561,732.315z M383.561,677.648h-44.976c-6.903,0-12.5-5.596-12.5-12.5   c0-6.904,5.597-12.5,12.5-12.5h44.976c6.904,0,12.5,5.596,12.5,12.5C396.061,672.052,390.466,677.648,383.561,677.648z    M383.561,622.981h-44.976c-6.903,0-12.5-5.596-12.5-12.5c0-6.904,5.597-12.5,12.5-12.5h44.976c6.904,0,12.5,5.596,12.5,12.5   C396.061,617.385,390.466,622.981,383.561,622.981z M383.561,568.315h-44.976c-6.903,0-12.5-5.596-12.5-12.5   c0-6.904,5.597-12.5,12.5-12.5h44.976c6.904,0,12.5,5.596,12.5,12.5C396.061,562.718,390.466,568.315,383.561,568.315z    M523.229,786.981h-85.976c-6.903,0-12.5-5.596-12.5-12.5c0-6.904,5.597-12.5,12.5-12.5h85.976c6.903,0,12.5,5.596,12.5,12.5   C535.729,781.385,530.132,786.981,523.229,786.981z M523.229,732.315h-85.976c-6.903,0-12.5-5.596-12.5-12.5   c0-6.904,5.597-12.5,12.5-12.5h85.976c6.903,0,12.5,5.596,12.5,12.5C535.729,726.718,530.132,732.315,523.229,732.315z    M523.229,677.648h-85.976c-6.903,0-12.5-5.596-12.5-12.5c0-6.904,5.597-12.5,12.5-12.5h85.976c6.903,0,12.5,5.596,12.5,12.5   C535.729,672.052,530.132,677.648,523.229,677.648z M523.229,622.981h-85.976c-6.903,0-12.5-5.596-12.5-12.5   c0-6.904,5.597-12.5,12.5-12.5h85.976c6.903,0,12.5,5.596,12.5,12.5C535.729,617.385,530.132,622.981,523.229,622.981z    M437.253,568.315c-6.903,0-12.5-5.596-12.5-12.5c0-6.904,5.597-12.5,12.5-12.5h121.464c6.903,0,12.5,5.596,12.5,12.5   c0,6.904-5.597,12.5-12.5,12.5H437.253z M672.475,690.649l-40.19,76.39l-9.131,17.356c-1.41,2.709-4.957,3.432-7.315,1.491   l-15.153-12.467l-33.78-27.79c-5.07-4.16-5.8-11.65-1.63-16.72l0.79-0.96c4.17-5.06,11.649-5.79,16.72-1.62l29.766,24.488   c0.008,0.006,0.019,0.004,0.023-0.004l37.772-71.804c3.22-6.11,10.77-8.46,16.88-5.24c4.26,2.24,6.69,6.58,6.69,11.08   C673.914,686.809,673.444,688.799,672.475,690.649z M673.729,610.481c0,6.904-5.597,12.5-12.5,12.5h-85.976   c-6.903,0-12.5-5.596-12.5-12.5c0-6.904,5.597-12.5,12.5-12.5h85.976C668.132,597.981,673.729,603.578,673.729,610.481z" style="fill:#231F20;"/><path d="M817.769,153.274H182.231c-16.5,0-30,13.5-30,30v72.8h695.537v-72.8   C847.769,166.774,834.269,153.274,817.769,153.274z M628.749,217.173h-28c-6.875,0-12.5-5.625-12.5-12.5s5.625-12.5,12.5-12.5h28   c6.875,0,12.5,5.625,12.5,12.5S635.624,217.173,628.749,217.173z M712.249,217.173h-28c-6.875,0-12.5-5.625-12.5-12.5   s5.625-12.5,12.5-12.5h28c6.875,0,12.5,5.625,12.5,12.5S719.124,217.173,712.249,217.173z M795.749,217.173h-28   c-6.875,0-12.5-5.625-12.5-12.5s5.625-12.5,12.5-12.5h28c6.875,0,12.5,5.625,12.5,12.5S802.624,217.173,795.749,217.173z" style="fill:#231F20;"/><path d="M152.231,691.554c0,16.5,13.5,30,30,30h78.278V404.237c0-30.376,24.624-55,55-55h261.48   c0.046,0,0.092,0,0.138,0c8.243,0.044,16.481,0.044,24.725,0c0.046,0,0.092,0,0.138,0h82.5c30.376,0,55,24.624,55,55v97.08   c0,0.045,0,0.091,0,0.136c-0.045,8.244-0.045,16.483,0,24.727c0,0.046,0,0.091,0,0.137v195.237h78.278c16.5,0,30-13.5,30-30   v-410.48H152.231V691.554z" style="fill:#231F20;"/><path d="M684.49,374.237h-82.5v97.08c0,16.57,13.44,30,30,30h82.5v-97.08   C714.49,387.666,701.06,374.237,684.49,374.237z" style="fill:#231F20;"/></g></svg>