<?xml version="1.0" ?><svg id="Layer_2" style="enable-background:new 0 0 1000 1000;" version="1.1" viewBox="0 0 1000 1000" xml:space="preserve" xmlns="http://www.w3.org/2000/svg" xmlns:xlink="http://www.w3.org/1999/xlink"><g><path d="M561.997,710.499c16.26-6.63,24.92-18.33,29.23-31h-182.46c4.31,12.67,12.97,24.37,29.23,31   c22.97,9.38,20.78,30.4,11.96,50.08c-1.687,3.771-3.607,7.406-5.698,10.926h111.48c-2.092-3.52-4.013-7.155-5.702-10.926   C541.227,740.899,539.026,719.879,561.997,710.499z" style="fill:#231F20;"/><path d="M615.487,820.459l-10.22-4.69c-10.722-4.917-20.557-11.431-29.148-19.264H423.88   c-8.592,7.833-18.426,14.347-29.143,19.264l-10.22,4.69c-10.68,4.9-17.52,15.57-17.52,27.31h266c0-5.87-1.71-11.47-4.75-16.22   C625.197,826.799,620.817,822.909,615.487,820.459z" style="fill:#231F20;"/><path d="M152.232,624.499c0,16.568,13.432,30,30,30h635.537c16.569,0,30-13.432,30-30v-68.541H152.232   V624.499z" style="fill:#231F20;"/><path d="M250.333,335.696v41.654c11.215,2.583,20.048,11.379,22.684,22.574h41.544   c-7.141-16.682-15.386-29.609-25.002-39.22C279.943,351.082,267.015,342.837,250.333,335.696z" style="fill:#231F20;"/><path d="M250.333,273.478v35.29c24.426,9.211,43.111,20.457,56.903,34.258   c13.795,13.786,25.04,32.471,34.252,56.898h35.29C370.805,332.953,317.304,279.452,250.333,273.478z" style="fill:#231F20;"/><path d="M817.768,152.231H182.232c-16.568,0-30,13.432-30,30v348.728h695.537V182.231   C847.768,165.662,834.337,152.231,817.768,152.231z M402.333,424.924H267.897c-5.525,7.467-14.394,12.31-24.397,12.31   c-16.753,0-30.334-13.581-30.334-30.333c0-9.939,4.78-18.761,12.167-24.293V247.924h12.5c90.706,0,164.5,73.794,164.5,164.5   V424.924z M491.128,395.883l-7.129,6.949c-0.859,0.837-1.252,2.044-1.049,3.228l1.683,9.812c0.511,2.979-2.615,5.251-5.29,3.844   l-8.812-4.632c-1.062-0.559-2.331-0.559-3.394,0l-8.812,4.632c-2.675,1.407-5.801-0.865-5.29-3.844l1.683-9.812   c0.203-1.183-0.189-2.39-1.049-3.228l-7.129-6.949c-2.164-2.109-0.97-5.785,2.021-6.22l9.852-1.431   c1.188-0.173,2.214-0.919,2.745-1.995l4.406-8.928c1.337-2.71,5.202-2.71,6.539,0l4.406,8.928c0.531,1.076,1.558,1.822,2.745,1.995   l9.852,1.431C492.097,390.098,493.292,393.774,491.128,395.883z M481.333,320.955h-41.09c-6.904,0-12.5-5.597-12.5-12.5   c0-6.904,5.596-12.5,12.5-12.5h41.09c6.904,0,12.5,5.596,12.5,12.5C493.833,315.359,488.237,320.955,481.333,320.955z    M559.683,395.883l-7.129,6.949c-0.859,0.837-1.252,2.044-1.049,3.228l1.683,9.812c0.511,2.979-2.616,5.251-5.291,3.844   l-8.812-4.632c-1.062-0.559-2.331-0.559-3.393,0l-8.812,4.632c-2.675,1.407-5.802-0.865-5.291-3.844l1.683-9.812   c0.203-1.183-0.189-2.39-1.049-3.228l-7.129-6.949c-2.164-2.109-0.97-5.785,2.021-6.22l9.852-1.431   c1.188-0.173,2.214-0.919,2.745-1.995l4.406-8.928c1.338-2.71,5.202-2.71,6.539,0l4.406,8.928c0.531,1.076,1.558,1.822,2.745,1.995   l9.852,1.431C560.653,390.098,561.847,393.774,559.683,395.883z M540.243,320.955c-6.904,0-12.5-5.597-12.5-12.5   c0-6.904,5.596-12.5,12.5-12.5h41.09c6.904,0,12.5,5.596,12.5,12.5c0,6.903-5.596,12.5-12.5,12.5H540.243z M628.239,395.883   l-7.129,6.949c-0.859,0.837-1.251,2.044-1.049,3.228l1.683,9.812c0.511,2.979-2.616,5.251-5.291,3.844l-8.812-4.632   c-1.063-0.559-2.332-0.559-3.393,0l-8.812,4.632c-2.675,1.407-5.802-0.865-5.291-3.844l1.683-9.812   c0.203-1.183-0.189-2.39-1.048-3.228l-7.129-6.949c-2.164-2.109-0.97-5.785,2.021-6.22l9.852-1.431   c1.188-0.173,2.214-0.919,2.746-1.995l4.406-8.928c1.338-2.71,5.202-2.71,6.54,0l4.406,8.928c0.531,1.076,1.558,1.822,2.745,1.995   l9.852,1.431C629.209,390.098,630.403,393.774,628.239,395.883z M719.242,394.918l-10.896,10.621   c-1.314,1.28-1.913,3.125-1.603,4.933l2.572,14.997c0.781,4.553-3.998,8.024-8.086,5.875l-13.468-7.081   c-1.624-0.854-3.563-0.854-5.187,0l-13.468,7.081c-4.089,2.149-8.867-1.322-8.086-5.875l2.572-14.997   c0.31-1.808-0.289-3.653-1.603-4.933l-10.896-10.621c-3.308-3.224-1.482-8.842,3.089-9.506l15.058-2.188   c1.815-0.264,3.384-1.404,4.196-3.049l6.734-13.645c2.044-4.142,7.951-4.142,9.995,0l6.734,13.645   c0.812,1.645,2.381,2.785,4.196,3.049l15.058,2.188C720.724,386.076,722.549,391.694,719.242,394.918z M774.333,320.955h-134.09   c-6.904,0-12.5-5.597-12.5-12.5c0-6.904,5.596-12.5,12.5-12.5h134.09c6.904,0,12.5,5.596,12.5,12.5   C786.833,315.359,781.237,320.955,774.333,320.955z M774.333,270.955h-334.09c-6.904,0-12.5-5.597-12.5-12.5   c0-6.904,5.596-12.5,12.5-12.5h334.09c6.904,0,12.5,5.596,12.5,12.5C786.833,265.359,781.237,270.955,774.333,270.955z" style="fill:#231F20;"/></g></svg>