<?xml version="1.0" ?><svg id="Layer_2" style="enable-background:new 0 0 1000 1000;" version="1.1" viewBox="0 0 1000 1000" xml:space="preserve" xmlns="http://www.w3.org/2000/svg" xmlns:xlink="http://www.w3.org/1999/xlink"><path d="M151.86,243.23v71.97h696.28v-71.97c0-16.56-13.43-30-30-30H181.86  C165.29,213.23,151.86,226.67,151.86,243.23z M761.129,264.215c0-6.875,5.625-12.5,12.5-12.5h28c6.875,0,12.5,5.625,12.5,12.5  s-5.625,12.5-12.5,12.5h-28C766.754,276.715,761.129,271.09,761.129,264.215z M677.629,264.215c0-6.875,5.625-12.5,12.5-12.5h28  c6.875,0,12.5,5.625,12.5,12.5s-5.625,12.5-12.5,12.5h-28C683.254,276.715,677.629,271.09,677.629,264.215z M594.129,264.215  c0-6.875,5.625-12.5,12.5-12.5h28c6.875,0,12.5,5.625,12.5,12.5s-5.625,12.5-12.5,12.5h-28  C599.754,276.715,594.129,271.09,594.129,264.215z" style="fill:#231F20;"/><g><path d="M735.87,592.772c2.773-1.682,4.982-4.131,6.616-7.349c1.636-3.216,2.454-7.349,2.454-12.397   c0-3.067-0.721-6.062-2.156-8.982c-1.438-2.919-3.396-5.493-5.873-7.721c-2.479-2.226-5.428-4.008-8.848-5.344   c-3.42-1.336-7.114-2.005-11.078-2.005c-3.471,0-6.817,0.546-10.036,1.636c-3.223,1.092-6.097,2.553-8.625,4.386   c-2.527,1.835-4.561,3.992-6.097,6.468c-1.538,2.479-2.305,5.107-2.305,7.881c0,2.974,0.967,5.155,2.9,6.543   c1.933,1.389,4.037,2.082,6.319,2.082c1.981,0,3.592-0.576,4.832-1.733c1.238-1.155,2.428-2.461,3.569-3.918   c1.138-1.454,2.428-2.76,3.865-3.917c1.437-1.155,3.295-1.733,5.576-1.733c2.774,0,5.13,0.869,7.063,2.603   c1.933,1.735,2.899,3.892,2.899,6.468c0,2.676-0.397,4.735-1.189,6.17c-0.795,1.438-1.784,2.505-2.974,3.197   c-1.19,0.694-2.479,1.215-3.866,1.561c-1.39,0.349-2.677,0.795-3.866,1.338c-1.189,0.546-2.182,1.338-2.974,2.379   c-0.795,1.041-1.19,2.653-1.19,4.833c0,1.984,0.52,3.494,1.561,4.535c1.041,1.04,2.328,1.835,3.866,2.379   c1.536,0.546,3.197,1.041,4.982,1.487c1.784,0.446,3.443,1.092,4.981,1.933c1.535,0.843,2.825,2.059,3.866,3.643   c1.04,1.587,1.561,3.769,1.561,6.543c0,1.984-0.397,3.792-1.19,5.427c-0.794,1.636-1.858,3.074-3.196,4.313   c-1.339,1.241-2.9,2.207-4.685,2.899c-1.784,0.695-3.668,1.041-5.65,1.041c-3.568,0-6.245-0.692-8.029-2.082   c-1.784-1.387-3.297-2.899-4.535-4.535c-1.24-1.636-2.554-3.146-3.94-4.535c-1.39-1.387-3.42-2.082-6.097-2.082   c-2.081,0-3.991,0.794-5.725,2.379c-1.735,1.587-2.602,3.668-2.602,6.245c0,3.074,0.892,5.948,2.676,8.625   c1.784,2.676,4.138,5.032,7.063,7.063c2.923,2.033,6.245,3.643,9.962,4.833c3.718,1.189,7.458,1.784,11.227,1.784   c4.461,0,8.674-0.792,12.64-2.374c3.963-1.584,7.435-3.761,10.408-6.533c2.974-2.77,5.327-6.01,7.063-9.723   c1.732-3.713,2.602-7.746,2.602-12.103c0-5.938-1.363-10.861-4.089-14.771C742.882,597.698,739.636,594.752,735.87,592.772z" style="fill:#231F20;"/><path d="M151.86,340.2v416.57c0,16.56,13.43,30,30,30h636.28c16.57,0,30-13.44,30-30V340.2H151.86z    M757.72,474.545c1.196-1.03,2.559-1.546,4.089-1.546c1.329,0,2.543,0.366,3.64,1.097c1.098,0.733,1.812,1.929,2.145,3.59   c0.332,1.929,1.329,3.44,2.992,4.538c1.661,1.097,3.623,1.645,5.884,1.645c1.928,0,3.69-0.581,5.286-1.745   c1.596-1.163,2.393-2.942,2.393-5.336c0-1.928-0.434-3.506-1.297-4.737c-0.865-1.23-1.979-2.31-3.341-3.241   c-1.363-0.93-2.843-1.778-4.438-2.543c-1.596-0.763-3.091-1.611-4.487-2.543c-1.397-0.93-2.76-2.01-4.089-3.241   c-1.331-1.229-2.527-2.593-3.591-4.089c-1.064-1.496-1.912-3.092-2.543-4.787c-0.633-1.695-0.947-3.506-0.947-5.436   c0-2.725,0.515-5.102,1.546-7.13c1.03-2.027,2.359-3.723,3.989-5.086c1.628-1.362,3.456-2.376,5.485-3.042   c2.027-0.664,4.071-0.997,6.133-0.997c1.995,0,4.005,0.349,6.034,1.047c2.027,0.698,3.84,1.695,5.436,2.992   c1.596,1.296,2.892,2.842,3.889,4.638c0.998,1.795,1.496,3.79,1.496,5.984c0,1.729-0.583,3.208-1.745,4.438   c-1.164,1.231-2.577,1.845-4.238,1.845c-1.53,0-2.827-0.432-3.89-1.296c-1.064-0.863-1.695-2.26-1.895-4.189   c-0.135-1.196-0.766-2.094-1.895-2.692c-1.131-0.599-2.229-0.898-3.291-0.898c-1.662,0-2.909,0.433-3.74,1.296   c-0.832,0.865-1.246,1.895-1.246,3.091c0,1.53,0.364,2.81,1.097,3.84c0.731,1.032,1.661,1.929,2.793,2.693   c1.13,0.765,2.359,1.463,3.689,2.094c1.329,0.633,2.559,1.281,3.69,1.945c1.86,1.131,3.605,2.394,5.235,3.79   c1.629,1.396,3.042,2.927,4.239,4.588c1.196,1.663,2.143,3.44,2.842,5.335c0.698,1.895,1.048,3.939,1.048,6.133   c0,3.191-0.583,5.984-1.746,8.378c-1.164,2.393-2.677,4.388-4.537,5.984c-1.862,1.596-3.957,2.792-6.283,3.59   c-2.328,0.798-4.688,1.197-7.081,1.197c-2.792,0-5.436-0.499-7.929-1.496c-2.493-0.997-4.672-2.294-6.532-3.89   c-1.862-1.596-3.341-3.391-4.438-5.385c-1.098-1.995-1.646-3.989-1.646-5.984C755.925,477.055,756.523,475.576,757.72,474.545z    M708.055,474.545c1.196-1.03,2.559-1.546,4.089-1.546c1.329,0,2.543,0.366,3.64,1.097c1.098,0.733,1.812,1.929,2.144,3.59   c0.332,1.929,1.329,3.44,2.992,4.538c1.661,1.097,3.623,1.645,5.884,1.645c1.928,0,3.69-0.581,5.286-1.745   c1.596-1.163,2.394-2.942,2.394-5.336c0-1.928-0.434-3.506-1.297-4.737c-0.865-1.23-1.979-2.31-3.341-3.241   c-1.363-0.93-2.843-1.778-4.438-2.543c-1.596-0.763-3.091-1.611-4.487-2.543c-1.397-0.93-2.76-2.01-4.089-3.241   c-1.331-1.229-2.527-2.593-3.591-4.089c-1.064-1.496-1.912-3.092-2.543-4.787c-0.633-1.695-0.947-3.506-0.947-5.436   c0-2.725,0.515-5.102,1.546-7.13c1.03-2.027,2.359-3.723,3.989-5.086c1.628-1.362,3.456-2.376,5.485-3.042   c2.027-0.664,4.071-0.997,6.133-0.997c1.995,0,4.005,0.349,6.034,1.047c2.027,0.698,3.84,1.695,5.435,2.992   c1.596,1.296,2.892,2.842,3.889,4.638c0.998,1.795,1.496,3.79,1.496,5.984c0,1.729-0.583,3.208-1.745,4.438   c-1.164,1.231-2.577,1.845-4.238,1.845c-1.53,0-2.827-0.432-3.89-1.296c-1.065-0.863-1.695-2.26-1.895-4.189   c-0.135-1.196-0.766-2.094-1.895-2.692c-1.131-0.599-2.229-0.898-3.291-0.898c-1.662,0-2.909,0.433-3.74,1.296   c-0.832,0.865-1.246,1.895-1.246,3.091c0,1.53,0.364,2.81,1.097,3.84c0.731,1.032,1.661,1.929,2.793,2.693   c1.13,0.765,2.359,1.463,3.69,2.094c1.329,0.633,2.559,1.281,3.69,1.945c1.86,1.131,3.605,2.394,5.235,3.79   c1.629,1.396,3.042,2.927,4.239,4.588c1.196,1.663,2.144,3.44,2.842,5.335c0.698,1.895,1.048,3.939,1.048,6.133   c0,3.191-0.583,5.984-1.746,8.378c-1.164,2.393-2.677,4.388-4.537,5.984c-1.862,1.596-3.957,2.792-6.283,3.59   c-2.328,0.798-4.688,1.197-7.081,1.197c-2.792,0-5.435-0.499-7.929-1.496c-2.493-0.997-4.672-2.294-6.532-3.89   c-1.862-1.596-3.341-3.391-4.438-5.385c-1.098-1.995-1.645-3.989-1.645-5.984C706.26,477.055,706.857,475.576,708.055,474.545z    M642.183,450.578c1.695-4.016,4.039-7.55,7.031-10.604c2.992-3.054,6.498-5.477,10.521-7.269c4.022-1.792,8.393-2.69,13.114-2.69   c4.389,0.067,8.428,0.762,12.117,2.083c3.69,1.323,7.131,3.472,10.322,6.448c1.396,1.323,2.095,2.811,2.095,4.464   c0,1.521-0.615,2.877-1.845,4.067c-1.232,1.19-2.61,1.786-4.14,1.786c-0.997,0-1.861-0.182-2.593-0.548   c-0.732-0.365-1.363-0.814-1.894-1.347c-1.93-1.86-4.106-3.174-6.532-3.939c-2.428-0.764-4.936-1.147-7.53-1.147   c-2.991,0-5.784,0.583-8.377,1.745c-2.593,1.164-4.837,2.727-6.732,4.688c-1.896,1.962-3.392,4.238-4.488,6.831   c-1.097,2.593-1.646,5.286-1.646,8.078c0,2.926,0.564,5.669,1.695,8.228c1.13,2.56,2.658,4.787,4.588,6.682   c1.928,1.895,4.171,3.375,6.731,4.438c2.559,1.065,5.302,1.596,8.228,1.596c3.191,0,6.167-0.599,8.926-1.795   c2.759-1.196,5.103-2.925,7.031-5.186c1.263-1.462,2.759-2.194,4.488-2.194c1.728,0,3.157,0.583,4.288,1.745   c1.13,1.164,1.695,2.578,1.695,4.239c0,1.53-0.466,2.827-1.396,3.89c-3.191,3.59-6.949,6.35-11.27,8.277   c-4.323,1.928-8.877,2.892-13.663,2.892c-4.655,0-9.011-0.863-13.065-2.588c-4.056-1.727-7.579-4.083-10.571-7.07   c-2.992-2.987-5.353-6.456-7.081-10.406c-1.729-3.95-2.593-8.183-2.593-12.697C639.64,458.828,640.487,454.595,642.183,450.578z    M479.378,550.985c6.903,0,12.5,5.596,12.5,12.5c0,6.904-5.597,12.5-12.5,12.5H331.173c-6.904,0-12.5-5.596-12.5-12.5   c0-6.904,5.596-12.5,12.5-12.5H479.378z M379.931,513.485c0-6.904,5.597-12.5,12.5-12.5h86.947c6.903,0,12.5,5.596,12.5,12.5   c0,6.904-5.597,12.5-12.5,12.5h-86.947C385.527,525.985,379.931,520.388,379.931,513.485z M334.711,525.985h-32.076   c-6.903,0-12.5-5.596-12.5-12.5c0-6.904,5.597-12.5,12.5-12.5h32.076c6.903,0,12.5,5.596,12.5,12.5   C347.211,520.388,341.615,525.985,334.711,525.985z M290.135,563.485L290.135,563.485c0,6.904-5.596,12.5-12.5,12.5H245.56   c-6.903,0-12.5-5.596-12.5-12.5v0c0-6.904,5.597-12.5,12.5-12.5h32.076C284.539,550.985,290.135,556.581,290.135,563.485z    M209.969,450.985h32.076c6.904,0,12.5,5.596,12.5,12.5c0,6.904-5.596,12.5-12.5,12.5h-32.076c-6.903,0-12.5-5.596-12.5-12.5   C197.469,456.581,203.065,450.985,209.969,450.985z M197.469,613.485c0-6.904,5.597-12.5,12.5-12.5h67.667   c6.904,0,12.5,5.596,12.5,12.5c0,6.904-5.596,12.5-12.5,12.5h-67.667C203.065,625.985,197.469,620.389,197.469,613.485z    M306.173,675.985H245.56c-6.903,0-12.5-5.596-12.5-12.5c0-6.904,5.597-12.5,12.5-12.5h60.614c6.904,0,12.5,5.596,12.5,12.5   C318.673,670.389,313.077,675.985,306.173,675.985z M479.378,675.985H359.711c-6.904,0-12.5-5.596-12.5-12.5   c0-6.904,5.596-12.5,12.5-12.5h119.667c6.903,0,12.5,5.596,12.5,12.5C491.878,670.389,486.281,675.985,479.378,675.985z    M571.378,675.985h-32.076c-6.904,0-12.5-5.596-12.5-12.5c0-6.904,5.596-12.5,12.5-12.5h32.076c6.903,0,12.5,5.596,12.5,12.5   C583.878,670.389,578.281,675.985,571.378,675.985z M571.378,625.985H331.173c-6.904,0-12.5-5.596-12.5-12.5   c0-6.904,5.596-12.5,12.5-12.5h240.205c6.903,0,12.5,5.596,12.5,12.5C583.878,620.389,578.281,625.985,571.378,625.985z    M583.878,563.485c0,6.903-5.597,12.5-12.5,12.5h-32.076c-6.904,0-12.5-5.596-12.5-12.5v0c0-6.904,5.596-12.5,12.5-12.5h32.076   C578.281,550.985,583.878,556.581,583.878,563.485L583.878,563.485z M583.878,463.485c0,6.904-5.597,12.5-12.5,12.5H302.635   c-6.903,0-12.5-5.596-12.5-12.5v0c0-6.903,5.597-12.5,12.5-12.5h268.743C578.281,450.985,583.878,456.581,583.878,463.485   L583.878,463.485z M775.494,657.295l-52.385,38.06c-3.119,2.266-7.343,2.266-10.462,0l-52.385-38.06   c-22.985-16.7-32.603-46.301-23.823-73.321l20.009-61.582c1.191-3.667,4.608-6.149,8.463-6.149h105.933   c3.856,0,7.272,2.482,8.463,6.149l20.009,61.582C808.097,610.995,798.479,640.596,775.494,657.295z" style="fill:#231F20;"/></g></svg>