<?xml version="1.0" ?><svg id="Layer_2" style="enable-background:new 0 0 1000 1000;" version="1.1" viewBox="0 0 1000 1000" xml:space="preserve" xmlns="http://www.w3.org/2000/svg" xmlns:xlink="http://www.w3.org/1999/xlink"><g><path d="M817.274,618.128H645.829c0.059,0.965,0.013,1.954-0.158,2.956l-6.983,40.912   c-1.048,6.143-6.372,10.635-12.604,10.635H373.916c-6.232,0-11.555-4.492-12.604-10.635l-6.983-40.912   c-0.171-1.002-0.217-1.99-0.158-2.956H182.726c-18.887,0-33.229,16.998-30.052,35.616l16.65,97.548   c2.5,14.646,15.194,25.357,30.052,25.357h601.249c14.858,0,27.552-10.711,30.052-25.357l16.65-97.548   C850.503,635.126,836.161,618.128,817.274,618.128z M433.815,751.648h-24.296c-6.904,0-12.5-5.597-12.5-12.5   c0-6.903,5.596-12.5,12.5-12.5h24.296c6.904,0,12.5,5.597,12.5,12.5C446.315,746.052,440.718,751.648,433.815,751.648z    M512.148,751.648h-24.296c-6.904,0-12.5-5.597-12.5-12.5c0-6.903,5.596-12.5,12.5-12.5h24.296c6.904,0,12.5,5.597,12.5,12.5   C524.648,746.052,519.052,751.648,512.148,751.648z M590.482,751.648h-24.296c-6.904,0-12.5-5.597-12.5-12.5   c0-6.903,5.596-12.5,12.5-12.5h24.296c6.904,0,12.5,5.597,12.5,12.5C602.982,746.052,597.385,751.648,590.482,751.648z" style="fill:#231F20;"/><path d="M361.357,508.833V485.5c0-2.113-1.72-3.833-3.833-3.833H274.19c-2.114,0-3.833,1.72-3.833,3.833   v23.333c0,2.114,1.719,3.834,3.833,3.834h83.333C359.637,512.667,361.357,510.947,361.357,508.833z" style="fill:#231F20;"/><circle cx="498.857" cy="563.167" r="25.5" style="fill:#231F20;"/><path d="M532.857,335.418v-50.503c0-2.343-1.906-4.248-4.249-4.248h-59.503   c-2.343,0-4.249,1.905-4.249,4.248v50.503c0,2.343,1.906,4.249,4.249,4.249h59.503   C530.951,339.667,532.857,337.761,532.857,335.418z" style="fill:#231F20;"/><path d="M638.357,485.5v23.333c0,2.114,1.719,3.834,3.833,3.834h83.333c2.114,0,3.833-1.72,3.833-3.834   V485.5c0-2.113-1.719-3.833-3.833-3.833H642.19C640.076,481.667,638.357,483.387,638.357,485.5z" style="fill:#231F20;"/><path d="M372.383,600.999c4.355,4.629,6.769,10.726,6.79,17.041l5.051,29.591h231.557l5.051-29.592   c0.022-6.314,2.435-12.409,6.789-17.038c4.725-5.024,11.315-7.873,18.211-7.873h167.481V253.352c0-16.569-13.432-30-30-30H216.4   c-16.569,0-30,13.431-30,30v339.776h167.773C361.069,593.128,367.658,595.976,372.383,600.999z M749.64,343.333h-49   c-6.904,0-12.5-5.597-12.5-12.5c0-6.903,5.596-12.5,12.5-12.5h49c6.904,0,12.5,5.597,12.5,12.5   C762.14,337.736,756.543,343.333,749.64,343.333z M663.64,267h86c6.904,0,12.5,5.597,12.5,12.5s-5.596,12.5-12.5,12.5h-86   c-6.904,0-12.5-5.597-12.5-12.5S656.736,267,663.64,267z M250.073,267h86c6.904,0,12.5,5.597,12.5,12.5s-5.596,12.5-12.5,12.5h-86   c-6.904,0-12.5-5.597-12.5-12.5S243.17,267,250.073,267z M237.573,330.833c0-6.903,5.596-12.5,12.5-12.5h49   c6.904,0,12.5,5.597,12.5,12.5c0,6.903-5.596,12.5-12.5,12.5h-49C243.17,343.333,237.573,337.736,237.573,330.833z    M245.357,508.833V485.5c0-15.898,12.935-28.833,28.833-28.833h27.167V444.5c0-23.435,19.065-42.5,42.5-42.5h142.5v-37.333h-17.251   c-16.128,0-29.249-13.121-29.249-29.249v-50.503c0-16.127,13.121-29.248,29.249-29.248h59.503   c16.128,0,29.249,13.121,29.249,29.248v50.503c0,16.128-13.121,29.249-29.249,29.249h-17.251V402h142.5   c23.435,0,42.5,19.065,42.5,42.5v12.167h29.167c15.899,0,28.833,12.935,28.833,28.833v23.333c0,15.899-12.935,28.834-28.833,28.834   H642.19c-15.899,0-28.833-12.935-28.833-28.834V485.5c0-15.898,12.935-28.833,28.833-28.833h29.167V444.5   c0-9.649-7.85-17.5-17.5-17.5h-142.5v87.235c21.819,5.577,38,25.399,38,48.932c0,27.846-22.654,50.5-50.5,50.5   c-27.846,0-50.5-22.654-50.5-50.5c0-23.533,16.181-43.355,38-48.932V427h-142.5c-9.65,0-17.5,7.851-17.5,17.5v12.167h31.167   c15.899,0,28.833,12.935,28.833,28.833v23.333c0,15.899-12.935,28.834-28.833,28.834H274.19   C258.291,537.667,245.357,524.732,245.357,508.833z" style="fill:#231F20;"/></g></svg>