<?xml version="1.0" ?><svg id="Layer_2" style="enable-background:new 0 0 1000 1000;" version="1.1" viewBox="0 0 1000 1000" xml:space="preserve" xmlns="http://www.w3.org/2000/svg" xmlns:xlink="http://www.w3.org/1999/xlink"><g><path d="M285.582,678.435h-96.314c-20.163,0-36.509,16.346-36.509,36.51v96.314   c0,20.164,16.346,36.51,36.509,36.51h96.314c20.164,0,36.51-16.346,36.51-36.51v-96.314   C322.092,694.781,305.746,678.435,285.582,678.435z M214.984,775.602h-7.586c-6.903,0-12.5-5.596-12.5-12.5   c0-6.904,5.597-12.5,12.5-12.5h7.586c6.903,0,12.5,5.596,12.5,12.5C227.484,770.005,221.888,775.602,214.984,775.602z    M267.452,775.602h-7.586c-6.903,0-12.5-5.596-12.5-12.5c0-6.904,5.597-12.5,12.5-12.5h7.586c6.903,0,12.5,5.596,12.5,12.5   C279.952,770.005,274.355,775.602,267.452,775.602z" style="fill:#231F20;"/><path d="M548.156,678.435h-96.315c-20.162,0-36.508,16.346-36.508,36.51v96.314   c0,20.164,16.346,36.51,36.508,36.51h96.315c20.164,0,36.51-16.346,36.51-36.51v-96.314   C584.666,694.781,568.32,678.435,548.156,678.435z M477.559,775.602h-7.586c-6.902,0-12.5-5.596-12.5-12.5   c0-6.904,5.598-12.5,12.5-12.5h7.586c6.904,0,12.5,5.596,12.5,12.5C490.059,770.005,484.463,775.602,477.559,775.602z    M530.027,775.602h-7.586c-6.904,0-12.5-5.596-12.5-12.5c0-6.904,5.596-12.5,12.5-12.5h7.586c6.902,0,12.5,5.596,12.5,12.5   C542.527,770.005,536.93,775.602,530.027,775.602z" style="fill:#231F20;"/><path d="M810.731,678.435h-96.314c-20.163,0-36.509,16.346-36.509,36.51v96.314   c0,20.164,16.346,36.51,36.509,36.51h96.314c20.164,0,36.51-16.346,36.51-36.51v-96.314   C847.241,694.781,830.896,678.435,810.731,678.435z M740.134,775.602h-7.586c-6.903,0-12.5-5.596-12.5-12.5   c0-6.904,5.597-12.5,12.5-12.5h7.586c6.903,0,12.5,5.596,12.5,12.5C752.634,770.005,747.037,775.602,740.134,775.602z    M792.602,775.602h-7.586c-6.903,0-12.5-5.596-12.5-12.5c0-6.904,5.597-12.5,12.5-12.5h7.586c6.903,0,12.5,5.596,12.5,12.5   C805.102,770.005,799.505,775.602,792.602,775.602z" style="fill:#231F20;"/><path d="M500,225.852c-27.85,0-50.5,22.65-50.5,50.5s22.65,50.5,50.5,50.5s50.5-22.65,50.5-50.5   S527.85,225.852,500,225.852z M500,293.352c-9.39,0-17-7.61-17-17c0-9.39,7.61-17,17-17s17,7.61,17,17   C517,285.742,509.39,293.352,500,293.352z" style="fill:#231F20;"/><path d="M732.58,546.77c9.64,0,17.5,7.85,17.5,17.5v89.17h25v-89.17c0-23.44-19.07-42.5-42.5-42.5h-42   c-9.65,0-17.5-7.85-17.5-17.5V343.545c18.912-15.888,33.606-34.412,42.84-54.693h74.14c3.45,0,6.58-1.4,8.841-3.66   c2.26-2.26,3.659-5.39,3.659-8.84c0-6.9-5.6-12.5-12.5-12.5h-74.14c-28.33-62.23-108.04-107.93-203.42-111.62v14.56   c0,6.9-5.6,12.5-12.5,12.5s-12.5-5.6-12.5-12.5v-14.56c-95.38,3.69-175.09,49.39-203.42,111.62h-74.14c-3.45,0-6.58,1.4-8.841,3.66   c-2.26,2.26-3.659,5.39-3.659,8.84c0,6.9,5.6,12.5,12.5,12.5h74.14c9.233,20.282,23.928,38.805,42.84,54.693V504.27   c0,9.65-7.85,17.5-17.5,17.5h-42c-23.43,0-42.5,19.06-42.5,42.5v89.17h25v-89.17c0-9.65,7.86-17.5,17.5-17.5h42   c23.43,0,42.5-19.07,42.5-42.5V361.505c24.393,14.995,53.304,26.349,85.08,32.884V655.26c4.75-1.19,9.72-1.82,14.84-1.82H462   v-254.99c8.354,1.004,16.862,1.688,25.5,2.022v-14.56c0-6.9,5.6-12.5,12.5-12.5s12.5,5.6,12.5,12.5v14.56   c8.638-0.334,17.146-1.018,25.5-2.022v254.99h10.16c5.12,0,10.09,0.63,14.84,1.82V394.389c31.776-6.536,60.688-17.89,85.08-32.884   V504.27c0,23.43,19.07,42.5,42.5,42.5H732.58z M372.94,293.352c-4.471,0-8.53-1.72-11.56-4.54c-3.35-3.1-5.44-7.54-5.44-12.46   c0-4.92,2.09-9.36,5.44-12.46c3.03-2.82,7.09-4.54,11.56-4.54c9.38,0,17,7.61,17,17C389.94,285.742,382.32,293.352,372.94,293.352z    M500,351.852c-41.63,0-75.5-33.87-75.5-75.5c0-41.63,33.87-75.5,75.5-75.5s75.5,33.87,75.5,75.5   C575.5,317.982,541.63,351.852,500,351.852z M627.06,293.352c-9.38,0-17-7.61-17-17c0-9.39,7.62-17,17-17   c4.471,0,8.53,1.72,11.561,4.54c3.35,3.1,5.439,7.54,5.439,12.46c0,4.92-2.09,9.36-5.439,12.46   C635.59,291.632,631.53,293.352,627.06,293.352z" style="fill:#231F20;"/></g></svg>