<?xml version="1.0" ?><svg id="Layer_2" style="enable-background:new 0 0 1000 1000;" version="1.1" viewBox="0 0 1000 1000" xml:space="preserve" xmlns="http://www.w3.org/2000/svg" xmlns:xlink="http://www.w3.org/1999/xlink"><g><path d="M236.675,732.477H217.02V216.214c0-8.859,7.207-16.067,16.066-16.067h69.896c8.284,0,15-6.716,15-15   s-6.716-15-15-15h-69.896c-25.401,0-46.066,20.666-46.066,46.067v516.264h-19.656c-11.741,0-19.08,12.71-13.209,22.879   l17.328,30.013l17.328,30.013c5.871,10.169,20.547,10.169,26.418,0l17.328-30.013l17.328-30.013   C255.754,745.188,248.416,732.477,236.675,732.477z" style="fill:#231F20;"/><path d="M845.846,244.644l-17.328-30.013l-17.328-30.013c-5.871-10.169-20.547-10.169-26.418,0   l-17.328,30.013l-17.328,30.013c-5.871,10.169,1.468,22.878,13.209,22.878h19.655v516.264c0,8.859-7.207,16.067-16.066,16.067   h-69.896c-8.284,0-15,6.716-15,15c0,8.284,6.716,15,15,15h69.896c25.401,0,46.066-20.666,46.066-46.067V267.522h19.656   C844.378,267.522,851.716,254.813,845.846,244.644z" style="fill:#231F20;"/><path d="M383.899,200.146h73.496c8.284,0,15-6.716,15-15s-6.716-15-15-15h-73.496c-8.284,0-15,6.716-15,15   S375.615,200.146,383.899,200.146z" style="fill:#231F20;"/><path d="M616.388,799.854h-73.496c-8.284,0-15,6.716-15,15c0,8.284,6.716,15,15,15h73.496   c8.284,0,15-6.716,15-15C631.388,806.569,624.672,799.854,616.388,799.854z" style="fill:#231F20;"/><path d="M729.106,699.106V300.894c0-16.569-13.431-30-30-30H300.894c-16.569,0-30,13.431-30,30v398.212   c0,16.569,13.431,30,30,30h398.212C715.675,729.106,729.106,715.675,729.106,699.106z M680.741,302.699h7.519   c6.904,0,12.5,5.597,12.5,12.5c0,6.903-5.596,12.5-12.5,12.5h-7.519c-6.904,0-12.5-5.597-12.5-12.5   C668.241,308.296,673.837,302.699,680.741,302.699z M693.59,502.091c-0.075,6.903-5.731,12.439-12.634,12.364l-49.199-0.532   c-6.903-0.074-12.439-5.731-12.364-12.634c0.075-6.903,5.731-12.439,12.634-12.364l49.199,0.532   C688.129,489.531,693.664,495.188,693.59,502.091z M608.528,424.005l42.787-24.294c6.003-3.408,13.633-1.305,17.042,4.698   c3.409,6.003,1.305,13.633-4.698,17.042l-42.787,24.293c-6.003,3.409-13.633,1.305-17.042-4.698   C600.421,435.043,602.524,427.414,608.528,424.005z M555.558,379.721l24.754-42.521c3.473-5.966,11.125-7.987,17.091-4.514   c5.966,3.474,7.987,11.125,4.514,17.092l-24.754,42.521c-3.473,5.966-11.125,7.987-17.092,4.514   C554.106,393.34,552.084,385.688,555.558,379.721z M487.5,318.899c0-6.903,5.597-12.5,12.5-12.5s12.5,5.597,12.5,12.5v49.202   c0,6.903-5.597,12.5-12.5,12.5s-12.5-5.597-12.5-12.5V318.899z M333.748,400.795c3.538-5.928,11.211-7.867,17.14-4.329   l42.251,25.212c5.928,3.538,7.866,11.211,4.329,17.139c-3.537,5.928-11.211,7.867-17.139,4.329l-42.252-25.212   C332.148,414.397,330.21,406.723,333.748,400.795z M380.608,498.71c-0.075,6.903-5.731,12.439-12.634,12.364l-49.199-0.532   c-6.903-0.074-12.439-5.731-12.364-12.634c0.075-6.903,5.731-12.439,12.634-12.364l49.199,0.532   C375.147,486.15,380.683,491.807,380.608,498.71z M311.741,302.699h7.519c6.904,0,12.5,5.597,12.5,12.5   c0,6.903-5.596,12.5-12.5,12.5h-7.519c-6.904,0-12.5-5.597-12.5-12.5C299.241,308.296,304.837,302.699,311.741,302.699z    M319.259,697.301h-7.519c-6.904,0-12.5-5.597-12.5-12.5c0-6.904,5.596-12.5,12.5-12.5h7.519c6.904,0,12.5,5.596,12.5,12.5   C331.759,691.704,326.163,697.301,319.259,697.301z M391.472,575.995l-42.787,24.293c-6.003,3.409-13.633,1.305-17.041-4.698   c-3.409-6.003-1.305-13.633,4.698-17.042l42.787-24.294c6.003-3.408,13.633-1.305,17.042,4.698   C399.579,564.956,397.476,572.586,391.472,575.995z M444.442,620.278L419.688,662.8c-3.473,5.966-11.125,7.987-17.091,4.514   c-5.966-3.474-7.987-11.126-4.514-17.092l24.754-42.522c3.473-5.966,11.125-7.987,17.092-4.514   C445.895,606.66,447.915,614.313,444.442,620.278z M442.172,395.54c-6.04,3.343-13.647,1.158-16.99-4.882l-23.83-43.046   c-3.344-6.04-1.158-13.646,4.882-16.99c6.04-3.344,13.647-1.158,16.99,4.882l23.83,43.046   C450.397,384.589,448.211,392.196,442.172,395.54z M474.599,500c0-9.483,5.201-17.747,12.901-22.11v-52.991   c0-6.903,5.597-12.5,12.5-12.5s12.5,5.597,12.5,12.5v52.991c7.701,4.363,12.901,12.627,12.901,22.11   c0,0.349-0.013,0.695-0.026,1.041l59.382,34.284c5.979,3.452,8.027,11.097,4.575,17.076c-3.452,5.979-11.097,8.027-17.075,4.575   l-60.074-34.684c-3.617,1.981-7.768,3.109-12.183,3.109C485.971,525.401,474.599,514.029,474.599,500z M512.5,681.101   c0,6.903-5.597,12.5-12.5,12.5s-12.5-5.597-12.5-12.5v-49.202c0-6.903,5.597-12.5,12.5-12.5s12.5,5.597,12.5,12.5V681.101z    M593.767,669.379c-6.04,3.344-13.646,1.158-16.99-4.882l-23.83-43.046c-3.344-6.04-1.158-13.646,4.882-16.99   c6.04-3.344,13.647-1.158,16.99,4.882l23.83,43.046C601.992,658.429,599.806,666.035,593.767,669.379z M666.252,599.205   c-3.538,5.928-11.211,7.867-17.14,4.329l-42.252-25.212c-5.928-3.538-7.866-11.211-4.329-17.139   c3.537-5.929,11.211-7.867,17.139-4.329l42.252,25.212C667.852,585.603,669.79,593.277,666.252,599.205z M688.259,697.301h-7.519   c-6.904,0-12.5-5.597-12.5-12.5c0-6.904,5.596-12.5,12.5-12.5h7.519c6.904,0,12.5,5.596,12.5,12.5   C700.759,691.704,695.163,697.301,688.259,697.301z" style="fill:#231F20;"/></g></svg>