<?xml version="1.0" ?><svg id="Layer_2" style="enable-background:new 0 0 1000 1000;" version="1.1" viewBox="0 0 1000 1000" xml:space="preserve" xmlns="http://www.w3.org/2000/svg" xmlns:xlink="http://www.w3.org/1999/xlink"><g><path d="M152.23,600.68v39.27c0,16.5,13.5,30,30,30h184.91v38.26c0,6.31,5.16,11.46,11.46,11.46h67.5   l-12.2,39.81c-3.24,10.56-12.01,18.48-22.84,20.63l-53.97,10.71c-14.05,2.79-24.16,15.11-24.16,29.43v13.35h333.86v-13.35   c0-14.32-10.12-26.64-24.16-29.43l-53.97-10.71c-10.83-2.15-19.61-10.07-22.84-20.63l-12.21-39.81h67.79   c6.3,0,11.46-5.15,11.46-11.46v-38.26h184.91c16.5,0,30-13.5,30-30v-39.27H152.23z M517,683.96h-33.71c-6.91,0-12.5-5.59-12.5-12.5   c0-6.9,5.59-12.5,12.5-12.5H517c6.9,0,12.5,5.6,12.5,12.5C529.5,678.37,523.9,683.96,517,683.96z" style="fill:#231F20;"/><path d="M817.768,166.404H182.232c-16.5,0-30,13.5-30,30v39.273h695.537v-39.273   C847.768,179.904,834.268,166.404,817.768,166.404z" style="fill:#231F20;"/><path d="M152.23,260.68v315h695.54v-315H152.23z M626.27,302.21c7.45-1.08,15.2-1.83,23.05-2.23   c6.9-0.35,12.76,4.95,13.11,11.85c0.35,6.89-4.95,12.77-11.85,13.12c-7.07,0.36-14.04,1.03-20.73,2c-0.61,0.09-1.21,0.13-1.81,0.13   c-6.11,0-11.45-4.49-12.35-10.71C614.7,309.54,619.43,303.2,626.27,302.21z M386.9,399.81c2.73-6.34,10.08-9.28,16.42-6.55   c11.64,4.99,24.12,7.31,36.91,6.82c6.89-0.24,12.7,5.13,12.96,12.02c0.26,6.9-5.12,12.71-12.02,12.97   c-1.4,0.05-2.82,0.08-4.22,0.08c-15.08,0-29.71-3-43.5-8.92C387.11,413.5,384.18,406.15,386.9,399.81z M325.68,379.26   c0.67-6.88,6.77-11.91,13.65-11.24c1.03,0.1,10.45,1.11,24.24,5.95c6.52,2.28,9.95,9.42,7.66,15.93c-1.8,5.15-6.63,8.37-11.79,8.37   c-1.38,0-2.77-0.23-4.14-0.71c-11.03-3.87-18.31-4.65-18.38-4.66C330.05,392.24,325.02,386.13,325.68,379.26z M261.04,542.46   c-42.58,0-77.09-34.51-77.09-77.09c0-42.57,34.51-77.08,77.09-77.08c42.57,0,77.08,34.51,77.08,77.08   C338.12,507.95,303.61,542.46,261.04,542.46z M395.95,524.96h-33.71c-6.91,0-12.5-5.59-12.5-12.5c0-6.9,5.59-12.5,12.5-12.5h33.71   c6.9,0,12.5,5.6,12.5,12.5C408.45,519.37,402.85,524.96,395.95,524.96z M480.95,524.96h-33.71c-6.91,0-12.5-5.59-12.5-12.5   c0-6.9,5.59-12.5,12.5-12.5h33.71c6.9,0,12.5,5.6,12.5,12.5C493.45,519.37,487.85,524.96,480.95,524.96z M488.01,412.92   c-1.8,0.91-3.729,1.35-5.63,1.35c-4.56,0-8.96-2.51-11.16-6.86c-3.12-6.16-0.65-13.68,5.51-16.8   c10.82-5.48,20.29-12.99,28.13-22.34c0.5-0.59,0.99-1.17,1.5-1.76c4.5-5.23,12.39-5.83,17.63-1.33c5.23,4.5,5.83,12.39,1.33,17.63   c-0.44,0.51-0.88,1.02-1.31,1.53C513.98,396.3,501.87,405.91,488.01,412.92z M565.95,524.96h-33.71c-6.91,0-12.5-5.59-12.5-12.5   c0-6.9,5.59-12.5,12.5-12.5h33.71c6.9,0,12.5,5.6,12.5,12.5C578.45,519.37,572.85,524.96,565.95,524.96z M590.5,336.96   c-12.7,4.82-24.64,11.14-35.48,18.77c-2.19,1.54-4.7,2.28-7.19,2.28c-3.93,0-7.8-1.84-10.23-5.3c-3.97-5.65-2.62-13.44,3.02-17.42   c12.56-8.84,26.35-16.14,41.01-21.7c6.45-2.45,13.67,0.8,16.12,7.25C600.2,327.3,596.95,334.51,590.5,336.96z M650.95,524.96   h-33.71c-6.91,0-12.5-5.59-12.5-12.5c0-6.9,5.59-12.5,12.5-12.5h33.71c6.9,0,12.5,5.6,12.5,12.5   C663.45,519.37,657.85,524.96,650.95,524.96z M735.95,524.96h-33.71c-6.91,0-12.5-5.59-12.5-12.5c0-6.9,5.59-12.5,12.5-12.5h33.71   c6.9,0,12.5,5.6,12.5,12.5C748.45,519.37,742.85,524.96,735.95,524.96z M738.97,448.06c-42.58,0-77.09-34.51-77.09-77.09   c0-42.57,34.51-77.08,77.09-77.08c42.57,0,77.08,34.51,77.08,77.08C816.05,413.55,781.54,448.06,738.97,448.06z" style="fill:#231F20;"/><path d="M214.17,509.142c2.39,2.12,5.36,3.16,8.311,3.16c3.439,0,6.85-1.41,9.32-4.19   c0.11-0.13,12.09-13.1,28.28-13.64c10.26-0.34,20.64,4.47,30.83,14.29c4.97,4.79,12.88,4.64,17.67-0.33   c4.79-4.97,4.65-12.88-0.33-17.67c-15.34-14.79-31.95-21.94-49.35-21.26c-26.92,1.06-45,21.11-45.76,21.97   C208.56,496.632,209.01,504.562,214.17,509.142z" style="fill:#231F20;"/><path d="M738.83,417.862c0.75,0,1.51-0.01,2.27-0.04c26.92-1.06,45.01-21.11,45.76-21.97   c4.58-5.16,4.11-13.06-1.06-17.64c-5.16-4.58-13.06-4.11-17.64,1.06c-0.12,0.12-11.91,12.93-28.04,13.57   c-10.33,0.4-20.77-4.4-31.02-14.28c-4.98-4.79-12.89-4.65-17.68,0.33c-4.79,4.97-4.64,12.88,0.33,17.67   C706.43,410.702,722.25,417.862,738.83,417.862z" style="fill:#231F20;"/></g></svg>