<?xml version="1.0" ?><svg id="Layer_2" style="enable-background:new 0 0 1000 1000;" version="1.1" viewBox="0 0 1000 1000" xml:space="preserve" xmlns="http://www.w3.org/2000/svg" xmlns:xlink="http://www.w3.org/1999/xlink"><g><path d="M817.769,215.86H182.231c-16.5,0-30,13.5-30,30v72.8h695.537v-72.8   C847.769,229.36,834.269,215.86,817.769,215.86z M628.749,279.76h-28c-6.875,0-12.5-5.625-12.5-12.5s5.625-12.5,12.5-12.5h28   c6.875,0,12.5,5.625,12.5,12.5S635.624,279.76,628.749,279.76z M712.249,279.76h-28c-6.875,0-12.5-5.625-12.5-12.5   s5.625-12.5,12.5-12.5h28c6.875,0,12.5,5.625,12.5,12.5S719.124,279.76,712.249,279.76z M795.749,279.76h-28   c-6.875,0-12.5-5.625-12.5-12.5s5.625-12.5,12.5-12.5h28c6.875,0,12.5,5.625,12.5,12.5S802.624,279.76,795.749,279.76z" style="fill:#231F20;"/><path d="M481.91,627.368l6.417-5.245c5.345-4.369,6.136-12.244,1.767-17.589   c-4.37-5.345-12.245-6.136-17.589-1.767l-6.416,5.245c-5.345,4.369-6.136,12.244-1.767,17.589   C468.69,630.946,476.565,631.737,481.91,627.368z" style="fill:#231F20;"/><path d="M476.527,688.887l22.303-23.506c4.751-5.008,4.544-12.92-0.464-17.672   c-5.008-4.751-12.92-4.544-17.671,0.464l-22.303,23.506c-4.752,5.008-4.544,12.92,0.464,17.672   C463.863,694.102,471.775,693.894,476.527,688.887z" style="fill:#231F20;"/><path d="M220.381,699.9h103.571c2.757,0,5-2.243,5-5v-112c0-2.757-2.243-5-5-5H220.381c-2.757,0-5,2.243-5,5   v112C215.381,697.657,217.624,699.9,220.381,699.9z" style="fill:#231F20;"/><path d="M152.231,754.14c0,16.5,13.5,30,30,30h635.537c16.5,0,30-13.5,30-30V343.66H152.231V754.14z    M668.551,704.16l-1.774,1.774c-9.797,9.797-25.682,9.797-35.479,0l-56.437-56.437l-13.38,13.379   c-3.478,3.479-9.417,1.887-10.69-2.864l-11.715-43.721l-11.715-43.721c-1.273-4.751,3.075-9.099,7.826-7.826l43.721,11.715   l43.721,11.715c4.751,1.273,6.343,7.212,2.864,10.69l-13.379,13.379l56.437,56.437C678.349,678.477,678.349,694.362,668.551,704.16   z M620.41,546.726l22.912-22.912c4.882-4.881,12.796-4.881,17.678,0c4.882,4.881,4.882,12.796,0,17.678l-22.912,22.912   c-4.881,4.881-12.796,4.881-17.677,0C615.528,559.521,615.528,551.607,620.41,546.726z M585.008,415.4   c0-6.903,5.596-12.5,12.5-12.5h51.238c6.903,0,12.5,5.597,12.5,12.5v0c0,6.903-5.597,12.5-12.5,12.5h-51.238   C590.604,427.9,585.008,422.304,585.008,415.4L585.008,415.4z M597.508,452.9h199.611c6.903,0,12.5,5.597,12.5,12.5   c0,6.904-5.597,12.5-12.5,12.5H597.508c-6.904,0-12.5-5.596-12.5-12.5C585.008,458.497,590.604,452.9,597.508,452.9z    M574.804,539.729l5.075-6.552c4.227-5.457,12.079-6.455,17.537-2.227c5.457,4.227,6.455,12.079,2.228,17.537l-5.075,6.552   c-4.227,5.458-12.079,6.455-17.537,2.228C571.574,553.039,570.577,545.188,574.804,539.729z M385.381,432.9   c0-16.568,13.432-30,30-30h103.572c16.568,0,30,13.432,30,30v109.65l-7.293-1.954c-2.667-0.715-5.41-1.077-8.156-1.077   c-9.672,0-18.975,4.599-24.885,12.301c-5.982,7.796-7.952,17.718-5.405,27.22l23.431,87.444   c2.957,11.033,11.631,19.377,22.309,22.21v6.206c0,16.568-13.432,30-30,30H415.381c-16.568,0-30-13.432-30-30V432.9z    M190.381,415.4c0-6.903,5.597-12.5,12.5-12.5h138.572c6.903,0,12.5,5.597,12.5,12.5v0c0,6.903-5.597,12.5-12.5,12.5H202.881   C195.977,427.9,190.381,422.304,190.381,415.4L190.381,415.4z M202.881,452.9h51.238c6.903,0,12.5,5.596,12.5,12.5   c0,6.903-5.597,12.5-12.5,12.5h-51.238c-6.903,0-12.5-5.597-12.5-12.5C190.381,458.497,195.977,452.9,202.881,452.9z    M202.881,502.9h51.238c6.903,0,12.5,5.596,12.5,12.5c0,6.903-5.597,12.5-12.5,12.5h-51.238c-6.903,0-12.5-5.597-12.5-12.5   C190.381,508.497,195.977,502.9,202.881,502.9z M190.381,582.9c0-16.568,13.432-30,30-30h103.572c16.568,0,30,13.432,30,30v112   c0,16.568-13.432,30-30,30H220.381c-16.568,0-30-13.432-30-30V582.9z" style="fill:#231F20;"/></g></svg>