<?xml version="1.0" ?><svg id="Layer_2" style="enable-background:new 0 0 1000 1000;" version="1.1" viewBox="0 0 1000 1000" xml:space="preserve" xmlns="http://www.w3.org/2000/svg" xmlns:xlink="http://www.w3.org/1999/xlink"><g><rect height="95.5" style="fill:#231F20;" width="268.629" x="365.613" y="299.5"/><path d="M295.977,818.269c0,16.568,13.432,30,30,30h348.047c16.568,0,30-13.432,30-30v-38.529H295.977   V818.269z M500,801.337c6.996,0,12.667,5.671,12.667,12.667S506.996,826.67,500,826.67s-12.667-5.671-12.667-12.667   S493.004,801.337,500,801.337z" style="fill:#231F20;"/><path d="M705.606,303c3.315,0,6-2.686,6-6v-36c0-3.314-2.685-6-6-6h-1.583v-72.269c0-16.568-13.432-30-30-30   H325.977c-16.568,0-30,13.432-30,30V330h-1.583c-3.314,0-6,2.686-6,6v36c0,3.314,2.686,6,6,6h1.583v376.739h408.047V378h1.583   c3.315,0,6-2.686,6-6v-36c0-3.314-2.685-6-6-6h-1.583v-27H705.606z M629.432,216.063h17.311c6.875,0,12.5,5.625,12.5,12.5   s-5.625,12.5-12.5,12.5h-17.311c-6.875,0-12.5-5.625-12.5-12.5S622.557,216.063,629.432,216.063z M486.432,216.063h17.311   c6.875,0,12.5,5.625,12.5,12.5s-5.625,12.5-12.5,12.5h-17.311c-6.875,0-12.5-5.625-12.5-12.5S479.557,216.063,486.432,216.063z    M419.773,216.063h17.311c6.875,0,12.5,5.625,12.5,12.5s-5.625,12.5-12.5,12.5h-17.311c-6.875,0-12.5-5.625-12.5-12.5   S412.898,216.063,419.773,216.063z M353.113,216.063h17.31c6.875,0,12.5,5.625,12.5,12.5s-5.625,12.5-12.5,12.5h-17.31   c-6.875,0-12.5-5.625-12.5-12.5S346.238,216.063,353.113,216.063z M340.613,287c0-6.875,5.625-12.5,12.5-12.5h293.629   c6.875,0,12.5,5.625,12.5,12.5v120.5c0,6.875-5.625,12.5-12.5,12.5H353.113c-6.875,0-12.5-5.625-12.5-12.5V287z M353.113,453.436   h293.629c6.875,0,12.5,5.625,12.5,12.5s-5.625,12.5-12.5,12.5H353.113c-6.875,0-12.5-5.625-12.5-12.5   S346.238,453.436,353.113,453.436z M430.807,703.31c0,6.875-5.625,12.5-12.5,12.5h-65.191c-6.875,0-12.5-5.625-12.5-12.5v-120.5   c0-6.875,5.625-12.5,12.5-12.5h65.191c6.875,0,12.5,5.625,12.5,12.5V703.31z M421.285,536.873h-68.172   c-6.875,0-12.5-5.625-12.5-12.5s5.625-12.5,12.5-12.5h68.172c6.875,0,12.5,5.625,12.5,12.5S428.16,536.873,421.285,536.873z    M545.025,703.31c0,6.875-5.625,12.5-12.5,12.5h-65.191c-6.875,0-12.5-5.625-12.5-12.5v-120.5c0-6.875,5.625-12.5,12.5-12.5h65.191   c6.875,0,12.5,5.625,12.5,12.5V703.31z M659.387,703.31c0,6.875-5.625,12.5-12.5,12.5h-65.191c-6.875,0-12.5-5.625-12.5-12.5   v-120.5c0-6.875,5.625-12.5,12.5-12.5h65.191c6.875,0,12.5,5.625,12.5,12.5V703.31z" style="fill:#231F20;"/></g></svg>