<?xml version="1.0" ?><svg id="Layer_2" style="enable-background:new 0 0 1000 1000;" version="1.1" viewBox="0 0 1000 1000" xml:space="preserve" xmlns="http://www.w3.org/2000/svg" xmlns:xlink="http://www.w3.org/1999/xlink"><g><path d="M152.231,245.86v72.8h695.537v-72.8c0-16.5-13.5-30-30-30H182.231   C165.731,215.86,152.231,229.36,152.231,245.86z M755.249,267.26c0-6.875,5.625-12.5,12.5-12.5h28c6.875,0,12.5,5.625,12.5,12.5   s-5.625,12.5-12.5,12.5h-28C760.874,279.76,755.249,274.135,755.249,267.26z M671.749,267.26c0-6.875,5.625-12.5,12.5-12.5h28   c6.875,0,12.5,5.625,12.5,12.5s-5.625,12.5-12.5,12.5h-28C677.374,279.76,671.749,274.135,671.749,267.26z M588.249,267.26   c0-6.875,5.625-12.5,12.5-12.5h28c6.875,0,12.5,5.625,12.5,12.5s-5.625,12.5-12.5,12.5h-28   C593.874,279.76,588.249,274.135,588.249,267.26z" style="fill:#231F20;"/><path d="M152.231,754.14c0,16.5,13.5,30,30,30h635.537c16.5,0,30-13.5,30-30V343.66H152.231V754.14z    M543,446.5h244.5c6.875,0,12.5,5.625,12.5,12.5s-5.625,12.5-12.5,12.5h-19.274l0.731,2.534l5.935,20.559   c1.289,4.467-2.063,8.924-6.712,8.924h-7.734h-7.733c-4.649,0-8.002-4.457-6.713-8.924l5.936-20.559l0.731-2.534H543   c-6.875,0-12.5-5.625-12.5-12.5S536.125,446.5,543,446.5z M543,549.568h244.5c6.875,0,12.5,5.625,12.5,12.5s-5.625,12.5-12.5,12.5   H625.706l0.731,2.534l5.935,20.559c1.289,4.467-2.063,8.924-6.713,8.924h-7.734h-7.732c-4.65,0-8.002-4.457-6.713-8.924   l5.935-20.559l0.73-2.534H543c-6.875,0-12.5-5.625-12.5-12.5S536.125,549.568,543,549.568z M530.5,665.136   c0-6.875,5.625-12.5,12.5-12.5h244.5c6.875,0,12.5,5.625,12.5,12.5v0c0,6.875-5.625,12.5-12.5,12.5h-64.608l0.732,2.534   l5.935,20.559c1.289,4.467-2.063,8.924-6.712,8.924h-7.734h-7.733c-4.649,0-8.002-4.457-6.713-8.924l5.936-20.559l0.731-2.534H543   C536.125,677.636,530.5,672.012,530.5,665.136L530.5,665.136z M453.639,426.331c0-4.669,3.785-8.455,8.455-8.455h21.5   c4.67,0,8.455,3.785,8.455,8.455v21.5c0,4.669-3.785,8.455-8.455,8.455h-21.5c-4.67,0-8.455-3.785-8.455-8.455V426.331z    M453.639,489.74c0-4.669,3.785-8.455,8.455-8.455h21.5c4.67,0,8.455,3.785,8.455,8.455v21.5c0,4.669-3.785,8.455-8.455,8.455   h-21.5c-4.67,0-8.455-3.785-8.455-8.455V489.74z M453.639,553.15c0-4.669,3.785-8.455,8.455-8.455h21.5   c4.67,0,8.455,3.785,8.455,8.455v21.5c0,4.669-3.785,8.455-8.455,8.455h-21.5c-4.67,0-8.455-3.785-8.455-8.455V553.15z    M453.639,616.56c0-4.669,3.785-8.455,8.455-8.455h21.5c4.67,0,8.455,3.785,8.455,8.455v21.5c0,4.669-3.785,8.455-8.455,8.455   h-21.5c-4.67,0-8.455-3.785-8.455-8.455V616.56z M453.639,679.969c0-4.669,3.785-8.455,8.455-8.455h21.5   c4.67,0,8.455,3.785,8.455,8.455v21.5c0,4.669-3.785,8.455-8.455,8.455h-21.5c-4.67,0-8.455-3.785-8.455-8.455V679.969z    M390.229,426.331c0-4.669,3.785-8.455,8.454-8.455h21.5c4.67,0,8.455,3.785,8.455,8.455v21.5c0,4.669-3.785,8.455-8.455,8.455   h-21.5c-4.669,0-8.454-3.785-8.454-8.455V426.331z M390.229,489.74c0-4.669,3.785-8.455,8.454-8.455h21.5   c4.67,0,8.455,3.785,8.455,8.455v21.5c0,4.669-3.785,8.455-8.455,8.455h-21.5c-4.669,0-8.454-3.785-8.454-8.455V489.74z    M390.229,553.15c0-4.669,3.785-8.455,8.454-8.455h21.5c4.67,0,8.455,3.785,8.455,8.455v21.5c0,4.669-3.785,8.455-8.455,8.455   h-21.5c-4.669,0-8.454-3.785-8.454-8.455V553.15z M390.229,616.56c0-4.669,3.785-8.455,8.454-8.455h21.5   c4.67,0,8.455,3.785,8.455,8.455v21.5c0,4.669-3.785,8.455-8.455,8.455h-21.5c-4.669,0-8.454-3.785-8.454-8.455V616.56z    M390.229,679.969c0-4.669,3.785-8.455,8.454-8.455h21.5c4.67,0,8.455,3.785,8.455,8.455v21.5c0,4.669-3.785,8.455-8.455,8.455   h-21.5c-4.669,0-8.454-3.785-8.454-8.455V679.969z M326.819,426.331c0-4.669,3.785-8.455,8.455-8.455h21.5   c4.669,0,8.455,3.785,8.455,8.455v21.5c0,4.669-3.786,8.455-8.455,8.455h-21.5c-4.67,0-8.455-3.785-8.455-8.455V426.331z    M326.819,489.74c0-4.669,3.785-8.455,8.455-8.455h21.5c4.669,0,8.455,3.785,8.455,8.455v21.5c0,4.669-3.786,8.455-8.455,8.455   h-21.5c-4.67,0-8.455-3.785-8.455-8.455V489.74z M326.819,553.15c0-4.669,3.785-8.455,8.455-8.455h21.5   c4.669,0,8.455,3.785,8.455,8.455v21.5c0,4.669-3.786,8.455-8.455,8.455h-21.5c-4.67,0-8.455-3.785-8.455-8.455V553.15z    M326.819,616.56c0-4.669,3.785-8.455,8.455-8.455h21.5c4.669,0,8.455,3.785,8.455,8.455v21.5c0,4.669-3.786,8.455-8.455,8.455   h-21.5c-4.67,0-8.455-3.785-8.455-8.455V616.56z M326.819,679.969c0-4.669,3.785-8.455,8.455-8.455h21.5   c4.669,0,8.455,3.785,8.455,8.455v21.5c0,4.669-3.786,8.455-8.455,8.455h-21.5c-4.67,0-8.455-3.785-8.455-8.455V679.969z    M263.41,426.331c0-4.669,3.785-8.455,8.454-8.455h21.5c4.67,0,8.455,3.785,8.455,8.455v21.5c0,4.669-3.785,8.455-8.455,8.455   h-21.5c-4.669,0-8.454-3.785-8.454-8.455V426.331z M263.41,489.74c0-4.669,3.785-8.455,8.454-8.455h21.5   c4.67,0,8.455,3.785,8.455,8.455v21.5c0,4.669-3.785,8.455-8.455,8.455h-21.5c-4.669,0-8.454-3.785-8.454-8.455V489.74z    M263.41,553.15c0-4.669,3.785-8.455,8.454-8.455h21.5c4.67,0,8.455,3.785,8.455,8.455v21.5c0,4.669-3.785,8.455-8.455,8.455h-21.5   c-4.669,0-8.454-3.785-8.454-8.455V553.15z M263.41,616.56c0-4.669,3.785-8.455,8.454-8.455h21.5c4.67,0,8.455,3.785,8.455,8.455   v21.5c0,4.669-3.785,8.455-8.455,8.455h-21.5c-4.669,0-8.454-3.785-8.454-8.455V616.56z M263.41,679.969   c0-4.669,3.785-8.455,8.454-8.455h21.5c4.67,0,8.455,3.785,8.455,8.455v21.5c0,4.669-3.785,8.455-8.455,8.455h-21.5   c-4.669,0-8.454-3.785-8.454-8.455V679.969z M200,426.331c0-4.669,3.785-8.455,8.455-8.455h21.5c4.669,0,8.455,3.785,8.455,8.455   v21.5c0,4.669-3.786,8.455-8.455,8.455h-21.5c-4.67,0-8.455-3.785-8.455-8.455V426.331z M200,489.74   c0-4.669,3.785-8.455,8.455-8.455h21.5c4.669,0,8.455,3.785,8.455,8.455v21.5c0,4.669-3.786,8.455-8.455,8.455h-21.5   c-4.67,0-8.455-3.785-8.455-8.455V489.74z M200,553.15c0-4.669,3.785-8.455,8.455-8.455h21.5c4.669,0,8.455,3.785,8.455,8.455v21.5   c0,4.669-3.786,8.455-8.455,8.455h-21.5c-4.67,0-8.455-3.785-8.455-8.455V553.15z M200,616.56c0-4.669,3.785-8.455,8.455-8.455   h21.5c4.669,0,8.455,3.785,8.455,8.455v21.5c0,4.669-3.786,8.455-8.455,8.455h-21.5c-4.67,0-8.455-3.785-8.455-8.455V616.56z    M200,679.969c0-4.669,3.785-8.455,8.455-8.455h21.5c4.669,0,8.455,3.785,8.455,8.455v21.5c0,4.669-3.786,8.455-8.455,8.455h-21.5   c-4.67,0-8.455-3.785-8.455-8.455V679.969z" style="fill:#231F20;"/></g></svg>