<?xml version="1.0" ?><svg id="Layer_2" style="enable-background:new 0 0 1000 1000;" version="1.1" viewBox="0 0 1000 1000" xml:space="preserve" xmlns="http://www.w3.org/2000/svg" xmlns:xlink="http://www.w3.org/1999/xlink"><g><path d="M664.177,524.176c-1.713-6.684-8.518-10.721-15.212-9.005c-6.684,1.713-10.718,8.528-9.005,15.212   l0.834,3.255l-105.335,26.998c-6.694,1.716-10.718,8.528-9.005,15.212l16.443,64.156l34.321-8.797   c6.635-1.701,13.402,2.305,15.103,8.94c0.852,3.323,0.275,6.671-1.346,9.409c-1.611,2.736-4.269,4.852-7.592,5.703l-34.321,8.797   l16.443,64.156c1.713,6.684,8.518,10.721,15.212,9.005l105.335-26.998l0.832,3.245c1.716,6.693,8.528,10.718,15.212,9.005   c6.694-1.716,10.721-8.518,9.005-15.212L664.177,524.176z" style="fill:#231F20;"/><path d="M702.859,574.405l17.997,70.22c13.283-8.752,20.202-25.256,16.031-41.531   C732.719,586.83,718.714,575.688,702.859,574.405z" style="fill:#231F20;"/><path d="M586.924,761.435c-3.048,0.781-6.185,1.178-9.322,1.178c-1.12,0-2.229-0.052-3.328-0.15   l12.102,34.662c6.034,17.241,3.518,36.285-6.432,51.325h57.341h18.839c16.569,0,30-13.431,30-30v-72.859   c-4.193-1.531-8.06-3.791-11.426-6.653L586.924,761.435z" style="fill:#231F20;"/><path d="M536.006,728.702c-0.007-0.021,0.005-0.043,0.026-0.048l3.354-0.86   c0.02-0.005,0.032-0.025,0.027-0.045l-14.724-57.446l-6.164-24.052l-14.724-57.446c-0.005-0.02-0.025-0.032-0.045-0.027   l-34.055,8.728c-16.069,4.119-25.758,20.484-21.639,36.554l7.244,28.262c0.005,0.02-0.007,0.04-0.027,0.045l-20.307,5.205   c-6.761,1.733-10.799,8.666-8.951,15.414c1.822,6.654,8.911,10.404,15.594,8.692l19.871-5.093c0.02-0.005,0.04,0.007,0.045,0.027   l7.255,28.308c2.533,9.884,9.703,17.342,18.596,20.659c0.011,0.004,0.019,0.013,0.022,0.025l24.123,94.119   c0.109,0.426,0.226,0.84,0.352,1.252c5.731,18.816,30.306,23.553,43.216,8.713l1.38-1.582c7.822-8.994,10.234-21.494,6.299-32.739   L536.006,728.702z" style="fill:#231F20;"/><path d="M151.685,719.773c0,7.957,3.161,15.587,8.787,21.213l98.676,98.676   c5.626,5.626,13.257,8.787,21.213,8.787h12.988V709.005H151.685V719.773z" style="fill:#231F20;"/><path d="M759.072,515.082l29.701-29.701c4.882-4.882,4.882-12.796,0-17.678l0,0   c-4.881-4.882-12.796-4.882-17.677,0l-29.701,29.701c-4.882,4.882-4.882,12.796,0,17.678l0,0   C746.276,519.964,754.19,519.964,759.072,515.082z" style="fill:#231F20;"/><path d="M821.187,615.259l-41.479-6.622c-6.817-1.088-13.226,3.556-14.314,10.373   c-1.088,6.817,3.556,13.226,10.373,14.314l41.479,6.622c6.817,1.088,13.226-3.556,14.314-10.373v0   C832.648,622.756,828.004,616.347,821.187,615.259z" style="fill:#231F20;"/><path d="M847.68,531.385c-2.166-6.555-9.236-10.113-15.791-7.947l-74.669,24.676   c-6.555,2.166-10.113,9.236-7.946,15.791c2.166,6.555,9.236,10.113,15.791,7.947l74.669-24.676   C846.288,545.01,849.846,537.94,847.68,531.385z" style="fill:#231F20;"/><path d="M487.312,835.935l-21.463-83.743c-10.407-7.448-18.031-18.394-21.279-31.066l-1.122-4.379   c-1.692,0.229-3.399,0.343-5.108,0.343c-17.017,0-31.997-11.31-36.431-27.502c-2.676-9.776-1.348-19.985,3.742-28.746   c4.414-7.598,11.173-13.276,19.292-16.292l-1.098-4.283c-7.535-29.398,10.252-59.444,39.649-66.979l34.056-8.728   c1.496-0.383,3.028-0.625,4.569-0.727c0.869-3.535,2.263-6.963,4.169-10.184c5.102-8.623,13.258-14.743,22.966-17.23l87.791-22.501   c4.205-10.978,13.485-19.829,25.714-22.963c3.05-0.782,6.185-1.178,9.322-1.178c14.834,0,28.016,8.7,34.046,21.813V181.55   c0-16.5-13.5-30-30-30h-474.44c-16.5,0-30,13.5-30,30v502.455H305.85c6.875,0,12.5,5.625,12.5,12.5V848.45h174.012   c-1.809-3.171-3.297-6.577-4.398-10.192C487.741,837.533,487.52,836.745,487.312,835.935z M412.73,203.252h217.809   c6.903,0,12.5,5.596,12.5,12.5c0,6.904-5.597,12.5-12.5,12.5H412.73c-6.903,0-12.5-5.596-12.5-12.5   C400.23,208.848,405.827,203.252,412.73,203.252z M412.73,257.252h217.809c6.903,0,12.5,5.596,12.5,12.5   c0,6.904-5.597,12.5-12.5,12.5H412.73c-6.903,0-12.5-5.596-12.5-12.5C400.23,262.848,405.827,257.252,412.73,257.252z    M310.001,203.252h42.004c6.904,0,12.5,5.596,12.5,12.5c0,6.904-5.596,12.5-12.5,12.5h-42.004c-6.904,0-12.5-5.596-12.5-12.5   C297.501,208.848,303.097,203.252,310.001,203.252z M207.272,203.252h42.004c6.903,0,12.5,5.596,12.5,12.5   c0,6.904-5.597,12.5-12.5,12.5h-42.004c-6.903,0-12.5-5.596-12.5-12.5C194.772,208.848,200.368,203.252,207.272,203.252z    M207.272,257.252h144.733c6.904,0,12.5,5.596,12.5,12.5c0,6.904-5.596,12.5-12.5,12.5H207.272c-6.903,0-12.5-5.596-12.5-12.5   C194.772,262.848,200.368,257.252,207.272,257.252z M207.272,311.252h423.268c6.903,0,12.5,5.596,12.5,12.5   c0,6.904-5.597,12.5-12.5,12.5H207.272c-6.903,0-12.5-5.596-12.5-12.5C194.772,316.848,200.368,311.252,207.272,311.252z    M643.039,377.752c0,6.904-5.597,12.5-12.5,12.5H412.73c-6.903,0-12.5-5.596-12.5-12.5c0-6.904,5.597-12.5,12.5-12.5h217.809   C637.443,365.252,643.039,370.848,643.039,377.752z M207.272,365.252h143.911c6.903,0,12.5,5.596,12.5,12.5   c0,6.904-5.597,12.5-12.5,12.5H207.272c-6.903,0-12.5-5.596-12.5-12.5C194.772,370.848,200.368,365.252,207.272,365.252z    M207.272,419.252h42.004c6.903,0,12.5,5.596,12.5,12.5c0,6.904-5.597,12.5-12.5,12.5h-42.004c-6.903,0-12.5-5.596-12.5-12.5   C194.772,424.848,200.368,419.252,207.272,419.252z M194.772,537.48c0-6.903,5.597-12.5,12.5-12.5h42.004   c6.903,0,12.5,5.596,12.5,12.5v0c0,6.904-5.597,12.5-12.5,12.5h-42.004C200.368,549.981,194.772,544.384,194.772,537.48   L194.772,537.48z M352.005,601.276H207.272c-6.903,0-12.5-5.596-12.5-12.5c0-6.904,5.597-12.5,12.5-12.5h144.733   c6.904,0,12.5,5.596,12.5,12.5C364.505,595.68,358.909,601.276,352.005,601.276z M364.505,537.481c0,6.903-5.596,12.5-12.5,12.5   h-42.004c-6.904,0-12.5-5.596-12.5-12.5v0c0-6.904,5.596-12.5,12.5-12.5h42.004C358.909,524.98,364.505,530.577,364.505,537.481   L364.505,537.481z M352.005,444.252h-42.004c-6.904,0-12.5-5.596-12.5-12.5c0-6.904,5.596-12.5,12.5-12.5h42.004   c6.904,0,12.5,5.596,12.5,12.5C364.505,438.655,358.909,444.252,352.005,444.252z M412.73,419.252h217.809   c6.903,0,12.5,5.596,12.5,12.5c0,6.904-5.597,12.5-12.5,12.5H412.73c-6.903,0-12.5-5.596-12.5-12.5   C400.23,424.848,405.827,419.252,412.73,419.252z" style="fill:#231F20;"/></g></svg>