<?xml version="1.0" ?><svg id="Layer_2" style="enable-background:new 0 0 1000 1000;" version="1.1" viewBox="0 0 1000 1000" xml:space="preserve" xmlns="http://www.w3.org/2000/svg" xmlns:xlink="http://www.w3.org/1999/xlink"><g><path d="M501.41,359.88c28.82,0,52.26-23.45,52.26-52.26c0-28.82-23.44-52.27-52.26-52.27   c-28.82,0-52.27,23.45-52.27,52.27C449.14,336.43,472.59,359.88,501.41,359.88z M501.41,280.35c15.031,0,27.26,12.233,27.26,27.27   c0,15.031-12.229,27.26-27.26,27.26c-15.037,0-27.27-12.229-27.27-27.26C474.14,292.583,486.373,280.35,501.41,280.35z" style="fill:#231F20;"/><path d="M818.6,228.68H650.32c-0.7,5.91-2.48,11.72-5.31,17.1c0.82,1.89,1.59,3.8,2.33,5.72   c19.48,6.57,33.54,25.01,33.54,46.68v21.04c0,22.03-14.54,40.72-34.52,47c-0.79,1.96-1.62,3.9-2.49,5.82   c3.31,6.7,5.07,14.12,5.07,21.82c0,13.15-5.13,25.52-14.43,34.83l-14.88,14.87c-9.3,9.3-21.67,14.43-34.82,14.43   c-8.35,0-16.38-2.07-23.51-5.95c-0.68,0.28-1.36,0.55-2.04,0.83c-5.92,20.55-24.9,35.63-47.33,35.63h-21.04   c-22.44,0-41.41-15.08-47.34-35.63c-1.13-0.45-2.25-0.91-3.36-1.39c-7.47,4.4-16.01,6.74-24.9,6.74   c-13.16,0-25.53-5.13-34.83-14.43l-14.87-14.87c-16.11-16.11-18.71-40.68-7.8-59.52c-0.33-0.76-0.66-1.53-0.98-2.3   c-21.6-5.21-37.69-24.7-37.69-47.88v-21.04c0-22.83,15.61-42.09,36.72-47.64c0.28-0.71,0.57-1.42,0.86-2.13   c-3.7-5.99-6.06-12.69-6.92-19.73H181.4c-16.56,0-30,13.43-30,30v318.81h697.2V258.68C848.6,242.11,835.16,228.68,818.6,228.68z    M706.94,274.26c-4.88-4.88-4.88-12.79,0-17.67c4.88-4.89,12.8-4.89,17.68,0l42.19,42.19c4.88,4.88,4.88,12.79,0,17.67l-42.19,42.2   c-4.88,4.88-12.8,4.88-17.68,0c-4.88-4.89-4.88-12.8,0-17.68l33.35-33.35L706.94,274.26z M233.19,298.78l42.19-42.19   c4.88-4.89,12.8-4.89,17.68,0c4.88,4.88,4.88,12.79,0,17.67l-33.35,33.36l33.35,33.35c4.88,4.88,4.88,12.79,0,17.68   c-4.88,4.88-12.8,4.88-17.68,0l-42.19-42.2C228.31,311.57,228.31,303.66,233.19,298.78z M183.97,417.16   c2.27-2.26,5.39-3.66,8.84-3.66h48.92c6.9,0,12.5,5.6,12.5,12.5c0,3.45-1.4,6.58-3.66,8.84c-2.27,2.26-5.39,3.66-8.84,3.66h-48.92   c-6.9,0-12.5-5.6-12.5-12.5C180.31,422.55,181.71,419.42,183.97,417.16z M183.97,467.16c2.27-2.26,5.39-3.66,8.84-3.66h131.92   c6.9,0,12.5,5.6,12.5,12.5c0,3.45-1.4,6.58-3.66,8.84c-2.27,2.26-5.39,3.66-8.84,3.66H192.81c-6.9,0-12.5-5.6-12.5-12.5   C180.31,472.55,181.71,469.42,183.97,467.16z M807.19,538.5H192.81c-6.9,0-12.5-5.6-12.5-12.5c0-3.45,1.4-6.58,3.66-8.84   c2.27-2.26,5.39-3.66,8.84-3.66h614.38c3.45,0,6.57,1.4,8.84,3.66c2.26,2.26,3.66,5.39,3.66,8.84   C819.69,532.9,814.09,538.5,807.19,538.5z M807.19,488.5H675.27c-3.45,0-6.57-1.4-8.84-3.66c-2.26-2.26-3.66-5.39-3.66-8.84   c0-6.9,5.6-12.5,12.5-12.5h131.92c3.45,0,6.57,1.4,8.84,3.66c2.26,2.26,3.66,5.39,3.66,8.84   C819.69,482.9,814.09,488.5,807.19,488.5z M807.19,438.5h-48.92c-3.45,0-6.57-1.4-8.84-3.66c-2.26-2.26-3.66-5.39-3.66-8.84   c0-6.9,5.6-12.5,12.5-12.5h48.92c3.45,0,6.57,1.4,8.84,3.66c2.26,2.26,3.66,5.39,3.66,8.84C819.69,432.9,814.09,438.5,807.19,438.5   z" style="fill:#231F20;"/><path d="M151.404,672.657c0,16.569,13.431,30,30,30h637.192c16.569,0,30-13.431,30-30v-70.168H151.404   V672.657z" style="fill:#231F20;"/><path d="M726.66,777.01H618.401c-25.979,0-45.352-23.943-39.931-49.35l0,0H421.53l0,0   c5.421,25.407-13.951,49.35-39.931,49.35H273.34c-11.78,0-21.34,9.55-21.34,21.34v49.92h496v-49.92   C748,786.56,738.44,777.01,726.66,777.01z" style="fill:#231F20;"/><path d="M344.12,298.18v21.04c0,13.39,10.85,24.25,24.25,24.25c2.23,0,4.38-0.33,6.43-0.89   c3.01,10.92,7.39,21.27,12.95,30.85c-1.59,0.98-3.11,2.13-4.49,3.51c-9.47,9.47-9.47,24.83,0,34.3l14.88,14.87   c9.47,9.47,24.83,9.47,34.3,0c1.41-1.41,2.58-2.96,3.57-4.59c9.66,5.56,20.1,9.92,31.11,12.89c-0.32,1.56-0.48,3.18-0.48,4.84   c0,13.39,10.85,24.25,24.25,24.25h21.04c13.39,0,24.25-10.86,24.25-24.25c0-1.66-0.17-3.28-0.49-4.84   c10.3-2.78,20.1-6.78,29.23-11.83c0.81,1.16,1.71,2.27,2.74,3.3c4.74,4.74,10.94,7.1,17.15,7.1s12.41-2.36,17.15-7.1l14.87-14.87   c9.47-9.47,9.47-24.83,0-34.3c-0.77-0.78-1.6-1.47-2.45-2.11c5.79-9.75,10.35-20.3,13.48-31.45c1.23,0.19,2.49,0.32,3.77,0.32   c13.4,0,24.25-10.86,24.25-24.25v-21.04c0-13.39-10.85-24.25-24.25-24.25c-1.09,0-2.15,0.09-3.2,0.23   c-2.94-11.19-7.32-21.8-12.93-31.62c1.08-0.77,2.12-1.61,3.09-2.58c4.73-4.74,7.1-10.94,7.1-17.15c0-6.21-2.37-12.41-7.1-17.15   l-14.87-14.88c-9.47-9.47-24.83-9.47-34.3,0c-0.94,0.94-1.76,1.95-2.51,2.99c-9.69-5.59-20.17-9.97-31.22-12.95   c0.32-1.56,0.49-3.18,0.49-4.84c0-6.7-2.72-12.76-7.1-17.15c-4.39-4.39-10.46-7.1-17.15-7.1h-21.04   c-13.4,0-24.25,10.86-24.25,24.25c0,1.66,0.16,3.28,0.48,4.84c-11.75,3.17-22.84,7.93-33.04,14.03c-0.96-1.52-2.08-2.97-3.4-4.3   c-9.47-9.47-24.83-9.47-34.3,0l-14.88,14.88c-9.47,9.47-9.47,24.83,0,34.3c1.58,1.58,3.34,2.87,5.2,3.93   c-5.4,9.65-9.62,20.05-12.45,31.02c-1.89-0.48-3.85-0.75-5.88-0.75C354.97,273.93,344.12,284.79,344.12,298.18z M413.5,295.115   h11.662c5.239-32.186,30.355-57.674,62.338-63.492v-10.508c0-6.904,5.596-12.5,12.5-12.5c6.904,0,12.5,5.596,12.5,12.5v10.039   c33.318,4.791,59.757,30.833,65.148,63.961h8.852c6.904,0,12.5,5.596,12.5,12.5s-5.596,12.5-12.5,12.5h-8.85   c-5.388,33.124-31.829,59.169-65.15,63.961v10.039c0,6.904-5.596,12.5-12.5,12.5c-6.904,0-12.5-5.596-12.5-12.5v-10.508   c-31.985-5.818-57.103-31.309-62.339-63.492H413.5c-6.904,0-12.5-5.596-12.5-12.5S406.596,295.115,413.5,295.115z" style="fill:#231F20;"/></g></svg>