<?xml version="1.0" ?><svg id="Layer_2" style="enable-background:new 0 0 1000 1000;" version="1.1" viewBox="0 0 1000 1000" xml:space="preserve" xmlns="http://www.w3.org/2000/svg" xmlns:xlink="http://www.w3.org/1999/xlink"><g><path d="M744.401,316.468h-468.62c-16.56,0-30,13.43-30,30v2.5c0,16.03,12.57,29.11,28.39,29.96l66.34,96.94   h339.16l66.34-96.94c15.82-0.85,28.39-13.93,28.39-29.96v-2.5C774.401,329.898,760.961,316.468,744.401,316.468z" style="fill:#231F20;"/><path d="M445.321,834.393c0,9.282,9.605,15.451,18.046,11.589l100.434-45.953h-118.48V834.393z" style="fill:#231F20;"/><rect height="121" style="fill:#231F20;" width="129.54" x="445.321" y="654.028"/><polygon points="445.321,629.028 574.861,629.028 662.561,500.868 357.621,500.868  " style="fill:#231F20;"/><path d="M336.691,284.498c-1.15,2.79-2.98,5.17-5.27,6.97h29.37c5.06-9.7,15.22-16.33,26.89-16.33   c11.67,0,21.83,6.63,26.89,16.33h29.37c-2.29-1.8-4.12-4.18-5.27-6.97c-0.03-0.06-0.05-0.12-0.08-0.18   c-2.43-5.84-1.52-12.53,2.4-17.5l0.25-0.32c2.26-2.86,2.02-6.95-0.56-9.53l-4.5-4.5c-2.58-2.57-6.67-2.82-9.53-0.56l-0.32,0.25   c-4.97,3.92-11.66,4.83-17.5,2.4c-0.06-0.03-0.12-0.05-0.18-0.08c-5.82-2.4-9.87-7.78-10.6-14.03l-0.05-0.4   c-0.43-3.62-3.49-6.35-7.14-6.35h-6.36c-3.64,0-6.71,2.73-7.14,6.35l-0.05,0.4c-0.73,6.25-4.78,11.63-10.6,14.03   c-0.06,0.03-0.12,0.05-0.18,0.08c-5.84,2.43-12.53,1.52-17.5-2.4l-0.32-0.25c-2.86-2.26-6.95-2.01-9.53,0.56l-4.5,4.5   c-2.57,2.58-2.82,6.67-0.56,9.53l0.25,0.32c3.92,4.97,4.83,11.66,2.4,17.5C336.741,284.378,336.721,284.438,336.691,284.498z" style="fill:#231F20;"/><path d="M483.711,279.148l0.62,0.07c8.09,0.95,15.23,5.5,19.48,12.25h43.41c-5.98-7.83-9.52-17.61-9.52-28.2   c0-25.73,20.94-46.66,46.67-46.66s46.66,20.93,46.66,46.66c0,10.59-3.54,20.37-9.51,28.2h43.41c4.25-6.75,11.39-11.3,19.48-12.25   l0.62-0.07c5.56-0.66,9.76-5.38,9.76-10.98v-9.79c0-5.61-4.2-10.329-9.76-10.98l-0.62-0.08c-9.62-1.13-17.9-7.36-21.59-16.31   c-0.04-0.09-0.08-0.19-0.12-0.28c-3.74-8.98-2.34-19.28,3.68-26.92l0.39-0.49c3.47-4.4,3.1-10.7-0.86-14.67l-6.93-6.92   c-3.96-3.96-10.26-4.33-14.66-0.86l-0.49,0.39c-7.64,6.02-17.94,7.42-26.92,3.68c-0.09-0.04-0.19-0.08-0.28-0.12   c-8.95-3.69-15.18-11.97-16.31-21.59l-0.08-0.62c-0.65-5.56-5.37-9.76-10.98-9.76h-9.79c-5.6,0-10.32,4.2-10.98,9.76l-0.07,0.62   c-1.13,9.62-7.36,17.9-16.31,21.59c-0.1,0.04-0.19,0.08-0.29,0.12c-8.98,3.74-19.27,2.34-26.91-3.68l-0.49-0.39   c-4.4-3.47-10.7-3.1-14.67,0.86l-6.92,6.92c-3.97,3.97-4.34,10.27-0.86,14.67l0.38,0.49c6.03,7.64,7.43,17.94,3.69,26.92   c-0.04,0.09-0.08,0.19-0.12,0.28c-3.69,8.95-11.97,15.18-21.59,16.31l-0.62,0.08c-5.57,0.65-9.76,5.37-9.76,10.98v9.79   C473.951,273.768,478.141,278.488,483.711,279.148z" style="fill:#231F20;"/><path d="M258.281,514.077L258.281,514.077c6.904,0,12.5-5.597,12.5-12.5v-31.084   c0-6.903-5.596-12.5-12.5-12.5l0,0c-6.904,0-12.5,5.597-12.5,12.5v31.084C245.781,508.48,251.377,514.077,258.281,514.077z" style="fill:#231F20;"/><path d="M278.444,739.278h-7.663V551.535c0-6.903-5.596-12.5-12.5-12.5c-6.904,0-12.5,5.597-12.5,12.5   v187.744h-7.663c-9.623,0-15.637,10.417-10.825,18.75l10.081,17.462l10.082,17.462c4.811,8.333,16.839,8.333,21.65,0l10.082-17.462   l10.082-17.462C294.08,749.695,288.066,739.278,278.444,739.278z" style="fill:#231F20;"/><path d="M741.719,514.077L741.719,514.077c6.904,0,12.5-5.597,12.5-12.5v-31.084   c0-6.903-5.596-12.5-12.5-12.5l0,0c-6.904,0-12.5,5.597-12.5,12.5v31.084C729.219,508.48,734.816,514.077,741.719,514.077z" style="fill:#231F20;"/><path d="M761.882,739.278h-7.663V551.535c0-6.903-5.596-12.5-12.5-12.5c-6.904,0-12.5,5.597-12.5,12.5   v187.744h-7.663c-9.623,0-15.637,10.417-10.825,18.75l10.081,17.462l10.081,17.462c4.811,8.333,16.839,8.333,21.65,0l10.082-17.462   l10.082-17.462C777.519,749.695,771.505,739.278,761.882,739.278z" style="fill:#231F20;"/></g></svg>