<?xml version="1.0" ?><svg id="Layer_2" style="enable-background:new 0 0 1000 1000;" version="1.1" viewBox="0 0 1000 1000" xml:space="preserve" xmlns="http://www.w3.org/2000/svg" xmlns:xlink="http://www.w3.org/1999/xlink"><g><path d="M776.183,465.956h-47.366v381.811h47.366c16.5,0,30-13.5,30-30V495.956   C806.183,479.456,792.683,465.956,776.183,465.956z M780,795.132c0,6.904-5.596,12.5-12.5,12.5s-12.5-5.596-12.5-12.5v-32.54   c0-6.904,5.596-12.5,12.5-12.5s12.5,5.596,12.5,12.5V795.132z M780,551.132c0,6.904-5.596,12.5-12.5,12.5s-12.5-5.596-12.5-12.5   v-32.54c0-6.904,5.596-12.5,12.5-12.5s12.5,5.596,12.5,12.5V551.132z" style="fill:#231F20;"/><path d="M299.397,388.099c-9.65,0-17.5-7.86-17.5-17.5v-40.37h-25v40.37c0,23.43,19.06,42.5,42.5,42.5h37.49   c9.65,0,17.5,7.85,17.5,17.5v145.55c0,6.9,5.6,12.5,12.5,12.5c6.9,0,12.5-5.6,12.5-12.5v-145.55c0-23.44-19.06-42.5-42.5-42.5   H299.397z" style="fill:#231F20;"/><path d="M590.377,588.649c6.9,0,12.5-5.6,12.5-12.5v-145.55c0-9.65,7.85-17.5,17.5-17.5h37.49   c23.44,0,42.5-19.07,42.5-42.5v-40.37h-25v40.37c0,9.64-7.85,17.5-17.5,17.5h-37.49c-23.44,0-42.5,19.06-42.5,42.5v145.55   C577.877,583.049,583.477,588.649,590.377,588.649z" style="fill:#231F20;"/><path d="M627.877,576.149c0,20.68-16.82,37.5-37.5,37.5c-20.68,0-37.5-16.82-37.5-37.5v-110.19h-36.75v87.32   c0,20.68-16.82,37.5-37.5,37.5c-20.67,0-37.5-16.82-37.5-37.5v-87.32h-36.74v110.19c0,20.68-16.82,37.5-37.5,37.5   c-20.68,0-37.5-16.82-37.5-37.5v-110.19h-45.94c-16.5,0-30,13.5-30,30v321.81c0,16.5,13.5,30,30,30h420.37v-381.81h-75.94V576.149z    M288.147,669.529c-6.99,0-12.66-5.67-12.66-12.67c0-6.99,5.67-12.66,12.66-12.66c7,0,12.67,5.67,12.67,12.66   C300.817,663.859,295.147,669.529,288.147,669.529z" style="fill:#231F20;"/><path d="M478.627,565.779c6.91,0,12.5-5.59,12.5-12.5v-171.05h-25v171.05   C466.127,560.189,471.727,565.779,478.627,565.779z" style="fill:#231F20;"/><path d="M256.553,200.062c-4.21,0-8.17,1.64-11.15,4.62c-2.98,2.98-4.62,6.95-4.62,11.16   c0,4.21,1.64,8.18,4.62,11.16c2.98,2.98,6.94,4.62,11.15,4.62c0.91,0,1.82-0.08,2.7-0.23c3.19-0.54,6.13-2.06,8.46-4.39   c2.8-2.8,4.42-6.48,4.6-10.41c0.01-0.25,0.02-0.5,0.02-0.75c0-4.21-1.64-8.18-4.62-11.16   C264.733,201.702,260.773,200.062,256.553,200.062z" style="fill:#231F20;"/><path d="M346.817,275.231v-93c0-16.569-13.431-30-30-30h-93c-16.569,0-30,13.431-30,30v93   c0,16.568,13.431,30,30,30h93C333.386,305.231,346.817,291.799,346.817,275.231z M303.533,278.752l-27.22-27.22   c-15.51,8.59-35.43,6.31-48.59-6.86c-15.93-15.92-15.93-41.74,0-57.66c15.92-15.93,41.74-15.93,57.67,0   c12.51,12.51,15.19,31.14,8.03,46.27l27.79,27.79c4.86,4.86,4.86,12.82,0,17.68C316.353,283.612,308.393,283.612,303.533,278.752z" style="fill:#231F20;"/><path d="M432.132,357.231h93c16.569,0,30-13.432,30-30v-93c0-16.569-13.431-30-30-30h-93   c-16.569,0-30,13.431-30,30v93C402.132,343.799,415.564,357.231,432.132,357.231z M519.466,318.231h-11.667   c-6.904,0-12.5-5.596-12.5-12.5c0-6.904,5.596-12.5,12.5-12.5h11.667c6.904,0,12.5,5.596,12.5,12.5   C531.966,312.634,526.369,318.231,519.466,318.231z M437.799,243.231h81.667c6.904,0,12.5,5.596,12.5,12.5   c0,6.904-5.596,12.5-12.5,12.5h-81.667c-6.904,0-12.5-5.596-12.5-12.5C425.299,248.827,430.895,243.231,437.799,243.231z    M437.799,293.231h20.333c6.904,0,12.5,5.596,12.5,12.5c0,6.904-5.596,12.5-12.5,12.5h-20.333c-6.904,0-12.5-5.596-12.5-12.5   C425.299,298.827,430.895,293.231,437.799,293.231z" style="fill:#231F20;"/><path d="M641.372,305.231h93c16.568,0,30-13.432,30-30v-93c0-16.569-13.432-30-30-30h-93   c-16.568,0-30,13.431-30,30v93C611.372,291.799,624.803,305.231,641.372,305.231z M700.367,235.414v38.33   c0,6.91-5.59,12.5-12.5,12.5c-3.45,0-6.57-1.4-8.84-3.66c-2.26-2.26-3.66-5.38-3.66-8.84v-38.33l-7.79-14h7.79h25h7.79   L700.367,235.414z M649.538,171.217h76.667c6.904,0,12.5,5.596,12.5,12.5c0,6.904-5.596,12.5-12.5,12.5h-4.018l-0.11,0.197h-68.41   l-0.11-0.197h-4.019c-6.904,0-12.5-5.596-12.5-12.5C637.038,176.813,642.635,171.217,649.538,171.217z" style="fill:#231F20;"/></g></svg>