<?xml version="1.0" ?><svg id="Layer_2" style="enable-background:new 0 0 1000 1000;" version="1.1" viewBox="0 0 1000 1000" xml:space="preserve" xmlns="http://www.w3.org/2000/svg" xmlns:xlink="http://www.w3.org/1999/xlink"><g><path d="M152.23,633.56c0,16.57,13.43,30,30,30h170.99c41.67,0,75.45,33.78,75.45,75.45   c0,6.97-2.83,13.29-7.4,17.86c-4.57,4.57-10.89,7.4-17.86,7.4c-14.68,0-25.29,12.04-25.29,25.27c0,3.89,0.92,7.89,2.92,11.71   l24.63,47.02h188.66l24.63-47.02c8.81-16.82-3.38-36.98-22.37-36.98c-6.97,0-13.29-2.83-17.86-7.4c-4.57-4.57-7.4-10.89-7.4-17.86   c0-20.83,8.45-39.7,22.1-53.35c13.65-13.66,32.51-22.1,53.35-22.1h170.99c16.57,0,30-13.43,30-30V594H152.23V633.56z M500,642   c12.61,0,22.83,10.22,22.83,22.83c0,12.61-10.22,22.84-22.83,22.84c-12.61,0-22.83-10.23-22.83-22.84   C477.17,652.22,487.39,642,500,642z" style="fill:#231F20;"/><path d="M580.726,373.054c-2.107-2.245-4.622-4.041-7.554-5.388c-2.932-1.346-6.053-2.022-9.358-2.022   c-3.309,0-6.391,0.676-9.244,2.022c-2.857,1.347-5.299,3.143-7.328,5.388c-2.029,2.244-3.646,4.9-4.848,7.969   c-1.205,3.068-1.805,6.324-1.805,9.763c0,3.445,0.6,6.701,1.805,9.766c1.201,3.068,2.818,5.764,4.848,8.082s4.471,4.154,7.328,5.5   c2.854,1.346,5.935,2.019,9.244,2.019c3.305,0,6.426-0.673,9.358-2.019c2.932-1.346,5.446-3.182,7.554-5.5   c2.104-2.318,3.756-5.014,4.96-8.082c1.202-3.065,1.804-6.32,1.804-9.766c0-3.438-0.602-6.694-1.804-9.763   C584.482,377.955,582.83,375.298,580.726,373.054z" style="fill:#231F20;"/><path d="M817.77,164.08H182.23c-16.57,0-30,13.43-30,30V569h695.54V194.08   C847.77,177.51,834.34,164.08,817.77,164.08z M201.833,210.983h34.256c6.903,0,12.5,5.596,12.5,12.5c0,6.903-5.597,12.5-12.5,12.5   h-34.256c-6.904,0-12.5-5.597-12.5-12.5C189.333,216.58,194.93,210.983,201.833,210.983z M201.833,285.983   c-6.904,0-12.5-5.597-12.5-12.5c0-6.904,5.596-12.5,12.5-12.5h68.333c6.904,0,12.5,5.596,12.5,12.5c0,6.903-5.596,12.5-12.5,12.5   H201.833z M378.183,485.133c4.882,4.882,4.881,12.796,0,17.678c-4.882,4.881-12.796,4.881-17.678,0l-80.509-80.509   c-4.882-4.882-4.882-12.796,0-17.678l80.509-80.509c4.882-4.882,12.796-4.882,17.678,0c4.881,4.881,4.882,12.796,0,17.678   l-71.67,71.67L378.183,485.133z M385.089,235.983h-89.923c-6.903,0-12.5-5.597-12.5-12.5c0-6.904,5.597-12.5,12.5-12.5h89.923   c6.903,0,12.5,5.596,12.5,12.5C397.589,230.387,391.993,235.983,385.089,235.983z M488.586,321.27l-63.784,192.259   c-2.174,6.552-9.247,10.102-15.8,7.928c-6.553-2.174-10.102-9.248-7.928-15.8l63.783-192.259c2.174-6.552,9.248-10.102,15.8-7.928   C487.21,307.644,490.76,314.717,488.586,321.27z M609.034,410.472c-2.473,6.074-5.806,11.401-10.002,15.974   c-4.196,4.573-9.064,8.174-14.61,10.799c-5.545,2.621-11.39,3.936-17.53,3.936c-5.697,0-10.869-0.762-15.513-2.276   c-4.643-1.515-8.24-3.791-10.788-6.824v44.934c0,8.878-4.283,13.32-12.852,13.32c-8.269,0-12.401-4.432-12.401-13.289V355.4   c0-8.565,4.133-12.849,12.401-12.849c3.156,0,5.672,0.866,7.554,2.593c1.877,1.729,3.268,3.72,4.171,5.975   c2.695-3.424,6.44-6.031,11.238-7.821c4.795-1.786,9.967-2.681,15.513-2.681c6.292,0,12.285,1.315,17.978,3.939   c5.693,2.625,10.64,6.226,14.835,10.799c4.196,4.572,7.533,9.935,10.006,16.086c2.474,6.151,3.71,12.673,3.71,19.571   C612.744,397.909,611.507,404.399,609.034,410.472z M733.183,422.302l-80.509,80.509c-4.882,4.881-12.796,4.881-17.678,0   c-4.881-4.881-4.882-12.796,0-17.678l71.67-71.67l-71.67-71.67c-4.882-4.882-4.881-12.796,0-17.678   c4.882-4.882,12.796-4.882,17.678,0l80.509,80.509C738.065,409.506,738.065,417.42,733.183,422.302z M798.167,285.983h-32.461   c-6.904,0-12.5-5.597-12.5-12.5c0-6.904,5.596-12.5,12.5-12.5h32.461c6.904,0,12.5,5.596,12.5,12.5   C810.667,280.387,805.07,285.983,798.167,285.983z M798.167,235.983h-89.922c-6.904,0-12.5-5.597-12.5-12.5   c0-6.904,5.596-12.5,12.5-12.5h89.922c6.904,0,12.5,5.596,12.5,12.5C810.667,230.387,805.07,235.983,798.167,235.983z" style="fill:#231F20;"/></g></svg>