<?xml version="1.0" ?><svg id="Layer_2" style="enable-background:new 0 0 1000 1000;" version="1.1" viewBox="0 0 1000 1000" xml:space="preserve" xmlns="http://www.w3.org/2000/svg" xmlns:xlink="http://www.w3.org/1999/xlink"><g><path d="M499.995,750.135c16.49,0,29.27-8.2,29.27-15.26c0-7.05-12.78-15.25-29.27-15.25   c-16.48,0-29.26,8.2-29.26,15.25C470.735,741.935,483.515,750.135,499.995,750.135z" style="fill:#231F20;"/><path d="M152.235,686.976c0,16.57,13.43,30,30,30h204.56c20.37,0,33.28,21.86,23.45,39.7   c-3.13,5.69-7.69,10.29-13.08,13.48c-5.39,3.19-11.63,4.96-18.12,4.96c-9.83,0-18.74,3.99-25.19,10.43   c-6.44,6.44-10.43,15.35-10.43,25.19v12.98h313.15v-12.98c0-19.57-15.78-35.78-35.35-35.62c-13.09,0.1-25.17-6.99-31.48-18.44   c-2.31-4.19-3.36-8.59-3.36-12.89c0-14,11.22-26.81,26.82-26.81h204.56c16.57,0,30-13.43,30-30v-40.93h-695.53V686.976z    M499.995,694.625c30.43,0,54.27,17.68,54.27,40.25c0,22.58-23.84,40.26-54.27,40.26c-30.43,0-54.26-17.68-54.26-40.26   C445.735,712.305,469.565,694.625,499.995,694.625z" style="fill:#231F20;"/><path d="M448.855,257.451c0.515,0,1.017-0.089,1.507-0.233c4.33,17.609,13.961,34.3,26.426,43.997   c-0.046,13.009-7.3,24.925-18.848,30.93l-22.417,11.657c-10.703,5.566-17.786,16.251-18.743,28.277l0,0   c-2.113,26.56,18.871,49.279,45.515,49.279h35.673h3.774h35.673c26.644,0,47.628-22.719,45.515-49.279l0,0   c-0.957-12.026-8.039-22.712-18.743-28.277l-22.417-11.657c-11.548-6.005-18.803-17.921-18.848-30.93   c12.428-9.668,22.039-26.289,26.388-43.84c0.289,0.049,0.582,0.076,0.879,0.076c4.658,0,8.435-6.269,8.468-11.744   c2.025-2.35,3.336-5.85,3.336-9.072c0-5.491-3.793-9.943-8.471-9.943c-0.837,0-1.643,0.148-2.406,0.413   c-4.143-28.844-25.509-50.821-51.261-50.821c-25.828,0-47.247,22.106-51.3,51.076c-0.943-0.425-1.963-0.668-3.034-0.668   c-4.678,0-8.471,4.452-8.471,9.943c0,3.223,1.312,6.723,3.336,9.072C440.42,251.182,444.197,257.451,448.855,257.451z" style="fill:#231F20;"/><path d="M817.765,233.915h-230.87c0.07,0.89,0.1,1.8,0.1,2.72c0,6.21-1.56,12.45-4.41,17.98   c-1.91,7.98-6.28,15.55-12.66,20.77c-4.5,12.42-10.94,23.74-18.78,33.07c0.64,0.59,1.36,1.1,2.16,1.51l21.32,11.09h95.23   c23.43,0,42.5,19.06,42.5,42.5v21.95c13.76,5.36,24.17,19.31,26.63,36.43c0.58-0.2,1.2-0.31,1.84-0.31c3.57,0,6.46,3.4,6.46,7.59   c0,2.46-1,5.13-2.55,6.92c-0.02,4.18-2.9,8.97-6.46,8.97c-0.23,0-0.45-0.02-0.67-0.06c-3.32,13.4-10.66,26.08-20.14,33.46   c0.03,9.93,5.57,19.03,14.38,23.61l17.12,8.9c8.17,4.25,13.57,12.41,14.3,21.59c1.62,20.27-14.4,37.61-34.74,37.61h-57.34   c-14.91,0-27.49-9.31-32.51-22.27c-1.51-3.89-2.34-8.12-2.34-12.52c0-0.93,0.03-1.87,0.11-2.82c0.28-3.41,1.19-6.68,2.65-9.66   c2.48-5.05,6.52-9.26,11.65-11.93l17.12-8.9c8.81-4.58,14.35-13.68,14.38-23.61c-9.51-7.4-16.86-20.14-20.17-33.58   c-0.37,0.11-0.76,0.18-1.15,0.18c-3.56,0-6.44-4.79-6.46-8.97c-1.55-1.79-2.55-4.46-2.55-6.92c0-4.19,2.89-7.59,6.47-7.59   c0.81,0,1.59,0.18,2.31,0.51c2.41-17.22,12.86-31.25,26.66-36.63v-21.95c0-9.65-7.85-17.5-17.5-17.5h-69.13   c3.97,7.28,6.44,15.44,7.13,24.04c1.55,19.59-5.2,39.11-18.53,53.55c-13.34,14.43-32.26,22.71-51.91,22.71h-75.12   c-19.65,0-38.57-8.28-51.91-22.71c-13.33-14.44-20.08-33.96-18.53-53.55c0.69-8.6,3.16-16.76,7.14-24.04h-69.14   c-9.65,0-17.5,7.85-17.5,17.5v21.95c13.75,5.36,24.17,19.31,26.63,36.43c0.58-0.2,1.2-0.31,1.84-0.31c3.57,0,6.46,3.4,6.46,7.59   c0,2.46-1,5.13-2.55,6.92c-0.02,4.18-2.9,8.97-6.46,8.97c-0.23,0-0.45-0.02-0.67-0.06c-3.32,13.4-10.66,26.08-20.14,33.46   c0.03,9.93,5.57,19.03,14.38,23.61l17.12,8.9c8.17,4.25,13.57,12.41,14.3,21.59c0.08,0.95,0.11,1.89,0.11,2.82   c0,19.03-15.46,34.79-34.85,34.79h-57.34c-20.34,0-36.36-17.34-34.74-37.61c0.37-4.59,1.9-8.92,4.36-12.64   c2.46-3.72,5.85-6.82,9.94-8.95l17.12-8.9c8.81-4.58,14.35-13.68,14.38-23.61c-9.51-7.4-16.86-20.14-20.17-33.58   c-0.37,0.11-0.76,0.18-1.15,0.18c-3.56,0-6.44-4.79-6.46-8.97c-1.55-1.79-2.55-4.46-2.55-6.92c0-4.19,2.89-7.59,6.47-7.59   c0.81,0,1.59,0.18,2.31,0.51c2.41-17.22,12.85-31.25,26.66-36.63v-21.95c0-23.44,19.07-42.5,42.5-42.5h95.24l21.31-11.09   c0.8-0.41,1.52-0.92,2.16-1.51c-7.69-9.14-14.03-20.2-18.51-32.33c-6.89-5.23-11.6-13.15-13.59-21.51   c-2.85-5.53-4.41-11.77-4.41-17.98c0-0.92,0.03-1.82,0.1-2.72h-229.92c-16.57,0-30,13.43-30,30v357.13h695.53v-357.13   C847.765,247.345,834.335,233.915,817.765,233.915z M612.655,547.945h-64.11c-5.57,21.69-25.29,37.76-48.69,37.76   s-43.12-16.07-48.69-37.76h-64.14c1.22-5.65,1.62-11.48,1.16-17.33c-0.21-2.61-0.6-5.17-1.19-7.67h64.17   c5.57-21.69,25.29-37.76,48.69-37.76s43.12,16.07,48.69,37.76h64.18c-0.58,2.48-0.98,5-1.19,7.56c-0.14,1.58-0.2,3.19-0.2,4.92   C611.335,539.665,611.775,543.855,612.655,547.945z" style="fill:#231F20;"/><circle cx="499.855" cy="535.445" r="25.261" style="fill:#231F20;"/></g></svg>