<?xml version="1.0" ?><svg id="Layer_2" style="enable-background:new 0 0 1000 1000;" version="1.1" viewBox="0 0 1000 1000" xml:space="preserve" xmlns="http://www.w3.org/2000/svg" xmlns:xlink="http://www.w3.org/1999/xlink"><g><path d="M329.673,243.857l14.416,9.915c0.031,0.021,0.058,0.046,0.089,0.067l39.57,27.21   c0.059,0.04,0.121,0.074,0.18,0.114c0.041,0.027,0.077,0.059,0.118,0.085c0.061,0.04,0.125,0.069,0.187,0.108   c0.243,0.151,0.488,0.293,0.738,0.426c0.097,0.052,0.194,0.105,0.292,0.155c0.341,0.17,0.685,0.329,1.035,0.465   c0.005,0.002,0.009,0.003,0.014,0.005c0.344,0.133,0.691,0.246,1.042,0.348c0.111,0.032,0.223,0.059,0.334,0.088   c0.254,0.066,0.509,0.124,0.765,0.173c0.118,0.023,0.236,0.047,0.354,0.066c0.31,0.051,0.62,0.09,0.931,0.117   c0.052,0.004,0.104,0.013,0.155,0.017c0.309,0.023,0.618,0.035,0.927,0.035c0.035,0,0.069-0.006,0.103-0.006   c0.46-0.004,0.918-0.028,1.373-0.082c0.026-0.003,0.052-0.009,0.078-0.013c0.425-0.053,0.846-0.131,1.262-0.227   c0.14-0.032,0.277-0.073,0.415-0.11c0.305-0.082,0.607-0.172,0.906-0.276c0.152-0.053,0.302-0.108,0.451-0.168   c0.294-0.116,0.583-0.245,0.868-0.382c0.131-0.064,0.264-0.123,0.393-0.19c0.391-0.206,0.774-0.43,1.143-0.678   c0.014-0.009,0.029-0.017,0.043-0.026c0.383-0.26,0.75-0.549,1.106-0.854c0.104-0.09,0.202-0.188,0.304-0.281   c0.249-0.228,0.491-0.465,0.723-0.716c0.109-0.118,0.216-0.239,0.321-0.362c0.219-0.255,0.426-0.523,0.627-0.8   c0.062-0.086,0.134-0.16,0.194-0.248c0.034-0.049,0.06-0.102,0.093-0.151c0.034-0.051,0.073-0.096,0.106-0.147   c21.753-33.659,58.639-53.754,98.671-53.754c35.956,0,69.375,16.211,91.569,43.902l-21.224,14.597   c-17.31-20.753-42.777-32.829-70.345-32.829c-31.982,0-61.146,16.24-78.014,43.442c-0.061,0.099-0.11,0.203-0.168,0.303   c-0.105,0.181-0.207,0.362-0.302,0.545c-0.095,0.183-0.182,0.366-0.267,0.551c-0.087,0.19-0.171,0.381-0.248,0.574   c-0.075,0.188-0.142,0.375-0.207,0.565c-0.067,0.194-0.131,0.388-0.188,0.584c-0.056,0.194-0.104,0.39-0.15,0.585   c-0.046,0.193-0.091,0.386-0.127,0.58c-0.038,0.203-0.067,0.406-0.095,0.61c-0.026,0.189-0.051,0.378-0.069,0.568   c-0.019,0.21-0.027,0.419-0.035,0.628c-0.007,0.185-0.016,0.37-0.014,0.555c0.001,0.212,0.013,0.423,0.025,0.635   c0.01,0.183,0.019,0.366,0.037,0.548c0.021,0.211,0.054,0.42,0.086,0.63c0.027,0.18,0.052,0.361,0.087,0.54   c0.041,0.208,0.094,0.413,0.145,0.618c0.044,0.178,0.085,0.355,0.137,0.531c0.06,0.201,0.132,0.398,0.202,0.597   c0.062,0.175,0.119,0.351,0.189,0.523c0.078,0.193,0.169,0.381,0.256,0.57c0.079,0.171,0.153,0.343,0.24,0.511   c0.096,0.186,0.206,0.365,0.313,0.546c0.095,0.163,0.184,0.328,0.287,0.487c0.117,0.18,0.247,0.352,0.374,0.526   c0.109,0.151,0.212,0.306,0.329,0.453c0.142,0.178,0.299,0.347,0.452,0.519c0.117,0.131,0.227,0.268,0.35,0.395   c0.184,0.19,0.385,0.367,0.582,0.547c0.108,0.098,0.207,0.202,0.319,0.296c0.318,0.269,0.65,0.525,1,0.765l31.693,21.798   c-0.694,3.098-1.072,6.315-1.072,9.623c0,19.874,13.225,36.651,31.352,42.034v188.216c0,6.903,5.596,12.5,12.5,12.5   s12.5-5.597,12.5-12.5V383.235c18.127-5.383,31.352-22.16,31.352-42.034c0-3.307-0.378-6.524-1.072-9.621l73.472-50.529   c0.352-0.242,0.687-0.499,1.006-0.77c0.117-0.098,0.22-0.207,0.332-0.309c0.195-0.178,0.394-0.353,0.575-0.54   c0.126-0.13,0.237-0.27,0.356-0.404c0.152-0.171,0.309-0.339,0.45-0.517c0.118-0.15,0.221-0.308,0.332-0.461   c0.125-0.175,0.257-0.345,0.373-0.525c0.104-0.161,0.193-0.33,0.289-0.496c0.105-0.181,0.216-0.359,0.312-0.545   c0.088-0.171,0.161-0.348,0.241-0.522c0.086-0.189,0.178-0.374,0.254-0.566c0.07-0.176,0.126-0.357,0.189-0.537   c0.068-0.196,0.142-0.391,0.2-0.591c0.052-0.179,0.091-0.361,0.135-0.542c0.05-0.205,0.105-0.408,0.144-0.615   c0.035-0.181,0.056-0.364,0.083-0.546c0.031-0.211,0.066-0.42,0.086-0.631c0.017-0.183,0.022-0.367,0.031-0.551   c0.011-0.213,0.025-0.425,0.025-0.638c0-0.187-0.013-0.372-0.021-0.559c-0.009-0.211-0.016-0.422-0.036-0.633   c-0.018-0.19-0.049-0.378-0.076-0.568c-0.029-0.207-0.056-0.414-0.096-0.62c-0.037-0.192-0.087-0.382-0.134-0.574   c-0.049-0.2-0.095-0.401-0.154-0.6c-0.057-0.193-0.128-0.383-0.195-0.574c-0.068-0.194-0.134-0.388-0.212-0.58   c-0.078-0.19-0.168-0.376-0.255-0.564c-0.088-0.188-0.174-0.377-0.272-0.563c-0.096-0.181-0.204-0.358-0.31-0.537   c-0.081-0.135-0.15-0.275-0.236-0.408c-0.063-0.098-0.13-0.192-0.194-0.289c-0.002-0.003-0.003-0.006-0.005-0.008   c-0.001-0.001-0.002-0.003-0.003-0.004c-26.404-40.633-71.033-64.883-119.466-64.883c-44.241,0-85.305,20.238-112.208,54.709   l-18.989-13.061c31.255-40.694,79.443-64.648,131.196-64.648c55.852,0,107.552,27.899,138.297,74.63   c0.025,0.038,0.054,0.071,0.08,0.109c0.024,0.035,0.042,0.072,0.066,0.107c0.059,0.086,0.129,0.158,0.19,0.242   c0.208,0.287,0.423,0.565,0.65,0.829c0.106,0.124,0.214,0.242,0.324,0.36c0.226,0.242,0.459,0.473,0.7,0.693   c0.112,0.103,0.222,0.208,0.337,0.306c0.295,0.252,0.602,0.486,0.916,0.707c0.066,0.046,0.127,0.099,0.194,0.143   c0.382,0.257,0.777,0.489,1.181,0.7c0.119,0.062,0.241,0.113,0.361,0.171c0.294,0.142,0.59,0.275,0.893,0.394   c0.153,0.06,0.307,0.113,0.462,0.167c0.287,0.099,0.576,0.187,0.869,0.265c0.154,0.041,0.307,0.083,0.462,0.119   c0.338,0.076,0.679,0.135,1.023,0.184c0.107,0.015,0.213,0.038,0.321,0.05c0.45,0.051,0.903,0.078,1.357,0.081   c0.023,0,0.045,0.004,0.067,0.004c0.331,0,0.663-0.016,0.994-0.042c0.082-0.007,0.164-0.019,0.246-0.027   c0.285-0.028,0.569-0.066,0.852-0.114c0.113-0.019,0.226-0.04,0.339-0.063c0.273-0.054,0.544-0.119,0.814-0.191   c0.092-0.025,0.185-0.046,0.277-0.074c0.356-0.105,0.709-0.225,1.059-0.363c0.057-0.023,0.112-0.05,0.168-0.073   c0.292-0.121,0.581-0.253,0.866-0.398c0.105-0.053,0.209-0.109,0.313-0.165c0.247-0.134,0.49-0.277,0.73-0.429   c0.066-0.042,0.135-0.075,0.2-0.118c0.032-0.021,0.06-0.045,0.091-0.067c0.041-0.027,0.084-0.051,0.125-0.079l14.5-9.98   c5.687-3.914,7.124-11.697,3.21-17.384c-3.914-5.687-11.697-7.125-17.384-3.21l-4.341,2.988   c-35.946-47.479-91.791-75.471-151.812-75.471c-60.021,0-115.866,27.992-151.811,75.469l-4.342-2.986   c-5.687-3.914-13.469-2.477-17.384,3.21C322.549,232.16,323.986,239.943,329.673,243.857z M500,274.451   c19.243,0,37.085,8.083,49.626,22.076l-19.142,13.166c-7.892-7.636-18.635-12.344-30.484-12.344s-22.592,4.708-30.484,12.344   l-19.142-13.166C462.915,282.534,480.757,274.451,500,274.451z" style="fill:#231F20;"/><path d="M330.36,819.219c0,16.568,13.431,30,30,30H639.64c16.569,0,30-13.432,30-30v-41.423H330.36V819.219z    M469.822,801.007h60.356c6.904,0,12.5,5.597,12.5,12.5c0,6.904-5.596,12.5-12.5,12.5h-60.356c-6.904,0-12.5-5.596-12.5-12.5   C457.322,806.604,462.918,801.007,469.822,801.007z" style="fill:#231F20;"/><path d="M669.64,414.954v-43.253c0-16.57-13.43-30-30-30h-67.46l-3.4,2.34   c-0.94,22.96-13.17,43.05-31.28,54.86v172.55c0,20.68-16.82,37.5-37.5,37.5c-20.68,0-37.5-16.82-37.5-37.5v-172.55   c-18.11-11.81-30.34-31.9-31.28-54.86l-3.4-2.34h-67.46c-16.57,0-30,13.43-30,30v43.253c-6.35,0.857-11.25,6.284-11.25,12.869   v8.167c0,6.585,4.9,12.012,11.25,12.868v25.007c-6.35,0.857-11.25,6.284-11.25,12.869v8.167c0,6.585,4.9,12.012,11.25,12.869   v245.032h339.28V507.769c6.35-0.857,11.25-6.284,11.25-12.869v-67.078C680.89,421.238,675.99,415.811,669.64,414.954z    M444.81,681.46c-2.27,2.26-5.39,3.66-8.84,3.66h-35.8c-6.91,0-12.5-5.6-12.5-12.5c0-6.91,5.59-12.5,12.5-12.5h35.8   c6.9,0,12.5,5.59,12.5,12.5C448.47,676.071,447.07,679.191,444.81,681.46z M526.74,681.46c-2.26,2.26-5.39,3.66-8.84,3.66h-35.8   c-6.9,0-12.5-5.6-12.5-12.5c0-6.91,5.6-12.5,12.5-12.5h35.8c6.9,0,12.5,5.59,12.5,12.5C530.4,676.071,529,679.191,526.74,681.46z    M608.67,681.46c-2.26,2.26-5.39,3.66-8.84,3.66h-35.8c-6.9,0-12.5-5.6-12.5-12.5c0-6.91,5.6-12.5,12.5-12.5h35.8   c6.91,0,12.5,5.59,12.5,12.5C612.33,676.071,610.93,679.191,608.67,681.46z" style="fill:#231F20;"/></g></svg>