<?xml version="1.0" ?><svg id="Layer_2" style="enable-background:new 0 0 1000 1000;" version="1.1" viewBox="0 0 1000 1000" xml:space="preserve" xmlns="http://www.w3.org/2000/svg" xmlns:xlink="http://www.w3.org/1999/xlink"><g><path d="M271.465,359.13c-30.33,0-55-24.67-55-55v-71.77c0-30.33,24.67-55,55-55h243.73   c30.32,0,55,24.67,55,55v71.77c0,20.79-11.6,38.93-28.67,48.27c3.28,1.62,6.38,3.6,9.24,5.9c6.82-3.28,14.37-5.01,21.93-5.01   c1.8,0,3.59,0.09,5.35,0.28c10.74-13.62,17.15-30.8,17.15-49.44v-71.77c0-44.11-35.89-80-80-80h-243.73c-44.11,0-80,35.89-80,80   v71.77c0,44.11,35.89,80,80,80h133.03l-12.76-25H271.465z" style="fill:#231F20;"/><path d="M410.245,283.99c7.08-3.62,15.02-5.53,22.96-5.53c19.18,0,36.5,10.58,45.19,27.6l14.34,28.07h22.46   c16.56,0,30-13.43,30-30v-71.77c0-16.57-13.44-30-30-30h-243.73c-16.57,0-30,13.43-30,30v71.77c0,16.57,13.43,30,30,30h111.4   c-0.68-6.86,0.06-13.86,2.25-20.63C389.295,300.61,398.215,290.13,410.245,283.99z" style="fill:#231F20;"/><path d="M807.395,750.86l-24.35-47.69c-2.61-5.12-8.93-7.16-14.04-4.55l-158.09,80.73l-1.7,0.87   c-5.11,2.61-7.15,8.93-4.55,14.04l24.37,47.69c2.6,5.12,8.93,7.16,14.04,4.56l159.78-81.61   C807.964,762.29,810.015,755.97,807.395,750.86z M774.315,747.43c-0.99,3.04-3.12,5.72-6.19,7.29l-17.2,8.84   c-6.14,3.15-13.68,0.73-16.83-5.41c-1.58-3.07-1.77-6.49-0.79-9.53c0.99-3.05,3.12-5.72,6.19-7.3l17.21-8.83   c6.13-3.16,13.67-0.74,16.83,5.4C775.105,740.96,775.285,744.38,774.315,747.43z" style="fill:#231F20;"/><path d="M755.594,676.91l1.54-0.79c4.83-2.46,7.25-8.19,5.271-13.24c-0.33-0.83-0.76-1.59-1.25-2.28   c-0.08-0.16-0.14-0.32-0.22-0.48c-3.16-6.14-10.69-8.56-16.83-5.4l-6.25,3.21l-5.2-10.17c-7.48-14.65-8.2-31.83-1.98-47.05   c6.23-15.22,5.5-32.39-1.98-47.04l-23.14-45.32l-0.92-1.79l-39.03-76.43l-8.78-17.19l-12.86-25.18   c-6.42-12.57-21.96-17.6-34.52-11.19c-6.91,3.53-11.53,9.81-13.24,16.83l-0.58-1.14c-6.42-12.57-21.95-17.6-34.52-11.18   c-6.9,3.52-11.53,9.8-13.23,16.83l-6.03-11.79c-1.01-1.98-2.25-3.77-3.66-5.36c-7.57-8.51-20.27-11.23-30.86-5.83   c-4.26,2.18-7.64,5.4-10.01,9.2c-1.48,2.36-2.57,4.94-3.22,7.63l-3.9-7.63l-12.76-25l-12.77-25l-8.53-16.7   c-6.42-12.56-21.95-17.6-34.52-11.18c-8.86,4.52-13.97,13.58-13.97,22.93c0,1.65,0.16,3.3,0.48,4.95c0.45,2.26,1.21,4.49,2.31,6.64   l9.38,18.36l12.76,25l58.06,113.69l12.69,24.85l30.37,59.46c2.63,5.14,0.59,11.44-4.56,14.06c-1.519,0.78-3.15,1.15-4.75,1.15   c-3.8,0-7.47-2.08-9.31-5.7l-37.95-74.31c-6.59-12.9-22.54-18.06-35.44-11.47c-12.9,6.59-18.06,22.53-11.47,35.43l42.7,83.62   l13.2,25.85c9.81,19.21,27,33.62,47.64,39.92c10.31,3.15,19.77,8.33,27.87,15.12c8.1,6.79,14.86,15.2,19.76,24.8l3.42,6.7   c-3.62,3.75-4.65,9.51-2.14,14.4c0.41,0.8,0.89,1.53,1.44,2.19c0.01,0.03,0.03,0.06,0.05,0.09c2.41,3.72,6.88,5.31,11.07,4.42   c1.45-0.17,2.9-0.58,4.27-1.29l156.03-80.16C755.555,676.94,755.575,676.92,755.594,676.91z" style="fill:#231F20;"/></g></svg>