<?xml version="1.0" ?><svg id="Layer_2" style="enable-background:new 0 0 1000 1000;" version="1.1" viewBox="0 0 1000 1000" xml:space="preserve" xmlns="http://www.w3.org/2000/svg" xmlns:xlink="http://www.w3.org/1999/xlink"><g><path d="M823.58,152.732h-81.274c-13.323,0-24.114,10.802-24.114,24.115v14.926h-120.78   c-24.261,0-43.929,19.668-43.929,43.929v124.492c-9.286-2.543-18.908-4.275-28.793-5.084v130.288l118.439-60.539   c-15.833-23.653-37.884-42.781-63.805-55.08V235.701c0-9.99,8.099-18.089,18.089-18.089h120.78v36.415   c0,13.324,10.791,24.115,24.114,24.115h27.712v25.846h-38.908c-7.136,0-12.92,5.784-12.92,12.92l0,0   c0,7.136,5.785,12.92,12.92,12.92h103.664c7.136,0,12.92-5.784,12.92-12.92l0,0c0-7.136-5.784-12.92-12.92-12.92h-38.915v-25.846   h27.722c13.313,0,24.115-10.791,24.115-24.115v-77.181C847.695,163.533,836.893,152.732,823.58,152.732z M802.484,250.42   c-1.778,1.778-4.062,3.039-6.625,3.545c-0.817,0.155-1.654,0.238-2.512,0.238h-20.807c-0.858,0-1.705-0.083-2.522-0.248   c-5.923-1.168-10.398-6.399-10.398-12.673c0-3.576,1.447-6.801,3.783-9.137c1.778-1.767,4.062-3.029,6.615-3.535   c0.817-0.165,1.664-0.248,2.522-0.248h20.807c0.858,0,1.695,0.083,2.512,0.238c5.933,1.178,10.409,6.398,10.409,12.683   C806.267,244.849,804.82,248.084,802.484,250.42z M802.484,198.739c-1.778,1.778-4.062,3.039-6.625,3.545   c-0.817,0.155-1.654,0.238-2.512,0.238h-20.807c-0.858,0-1.705-0.083-2.522-0.248c-5.923-1.168-10.398-6.399-10.398-12.673   c0-3.576,1.447-6.801,3.783-9.137c2.346-2.336,5.571-3.783,9.137-3.783h20.807c7.132,0,12.92,5.778,12.92,12.92   C806.267,193.167,804.82,196.402,802.484,198.739z" style="fill:#231F20;"/><path d="M257.689,425.548c13.323,0,24.125-10.802,24.125-24.125V359.22h37.204   c5.111,0,10.005,2.176,13.429,5.971l50.35,55.793c-18.456,25.87-29.321,57.529-29.321,91.731c0,23.427,5.1,45.661,14.24,65.661   l131.133-79.155V355.083c-38.662,3.09-73.397,20.091-99.216,45.986l-48.002-53.191c-8.315-9.215-20.202-14.499-32.613-14.499   h-37.204v-9.127c0-13.324-10.801-24.125-24.125-24.125h-81.264c-13.323,0-24.115,10.801-24.115,24.125v77.171   c0,13.323,10.791,24.125,24.115,24.125h27.712v25.837h-38.911c-7.136,0-12.92,5.785-12.92,12.92l0,0   c0,7.136,5.785,12.92,12.92,12.92H268.89c7.136,0,12.92-5.784,12.92-12.92l0,0c0-7.135-5.785-12.92-12.92-12.92h-38.913v-25.837   H257.689z M197.521,327.86c2.336-2.336,5.561-3.783,9.137-3.783h20.797c7.142,0,12.92,5.788,12.92,12.92   c0,3.566-1.447,6.801-3.783,9.137c-1.788,1.788-4.114,3.059-6.708,3.556c-0.785,0.145-1.602,0.228-2.429,0.228h-20.797   c-0.827,0-1.643-0.083-2.429-0.228c-5.974-1.137-10.491-6.388-10.491-12.693C193.738,333.431,195.185,330.195,197.521,327.86z    M193.738,388.678c0-3.566,1.447-6.801,3.783-9.137c1.768-1.768,4.052-3.029,6.615-3.535c0.817-0.165,1.654-0.248,2.522-0.248   h20.797c0.868,0,1.705,0.083,2.522,0.248c5.933,1.168,10.398,6.398,10.398,12.672c0,3.566-1.447,6.801-3.783,9.137   c-1.768,1.767-4.052,3.029-6.615,3.535c-0.817,0.166-1.654,0.248-2.522,0.248h-20.797c-0.868,0-1.705-0.083-2.522-0.248   C198.204,400.182,193.738,394.952,193.738,388.678z" style="fill:#231F20;"/><path d="M823.58,670.177h-81.274c-13.323,0-24.114,10.791-24.114,24.115v25.668H567.437   c-9.99,0-18.089-8.099-18.089-18.089v-35.553c69.123-16.92,120.418-79.267,120.418-153.604c0-23.272-5.029-45.369-14.056-65.266   l-137.66,70.365l-137.7,83.118c28.402,42.18,76.595,69.928,131.271,69.928c3.999,0,7.962-0.151,11.887-0.443v31.455   c0,24.262,19.668,43.929,43.929,43.929h150.755v25.672c0,13.313,10.791,24.115,24.114,24.115h27.712v25.841h-38.908   c-7.136,0-12.92,5.785-12.92,12.92l0,0c0,7.135,5.785,12.92,12.92,12.92h103.664c7.136,0,12.92-5.785,12.92-12.92l0,0   c0-7.135-5.784-12.92-12.92-12.92h-38.915v-25.841h27.722c13.313,0,24.115-10.802,24.115-24.115v-77.181   C847.695,680.968,836.893,670.177,823.58,670.177z M802.484,767.854c-1.778,1.778-4.062,3.039-6.625,3.546   c-0.817,0.155-1.654,0.238-2.512,0.238h-20.807c-0.858,0-1.705-0.083-2.522-0.248c-5.923-1.168-10.398-6.398-10.398-12.672   c0-3.566,1.447-6.801,3.783-9.137c1.778-1.768,4.062-3.029,6.615-3.535c0.817-0.166,1.664-0.248,2.522-0.248h20.807   c0.858,0,1.695,0.083,2.512,0.238c5.933,1.179,10.409,6.409,10.409,12.683C806.267,762.294,804.82,765.519,802.484,767.854z    M802.484,716.173c-1.891,1.892-4.362,3.194-7.132,3.628c-0.651,0.103-1.323,0.155-2.005,0.155h-20.807   c-0.682,0-1.364-0.052-2.016-0.155c-6.181-0.972-10.905-6.315-10.905-12.765c0-3.566,1.447-6.801,3.783-9.137   c2.346-2.336,5.571-3.783,9.137-3.783h20.807c7.132,0,12.92,5.788,12.92,12.92C806.267,710.612,804.82,713.837,802.484,716.173z" style="fill:#231F20;"/><path d="M511.621,329.833c5.395,0,10.74,0.238,16.021,0.693v-25.934c-5.282-0.393-10.626-0.6-16.021-0.6   c-47.423,0-91.218,15.877-126.33,42.606l17.375,19.256C433.137,343.229,470.844,329.833,511.621,329.833z" style="fill:#231F20;"/><path d="M497.667,695.583c-94.494-7.153-169.184-86.318-169.184-182.611   c0-32.022,8.259-62.163,22.771-88.375l-18.171-20.135c-19.308,31.639-30.44,68.798-30.44,108.51   c0,111.508,87.796,202.901,197.888,208.69c-1.861-6.274-2.863-12.92-2.863-19.794V695.583z" style="fill:#231F20;"/><path d="M575.189,684.73v9.385h40.549C678.366,657.98,720.6,590.319,720.6,512.972   c0-81.626-47.041-152.47-115.436-186.849v29.469c53.615,31.97,89.595,90.556,89.595,157.38   C694.759,591.621,644.938,658.838,575.189,684.73z" style="fill:#231F20;"/></g></svg>