<?xml version="1.0" ?><svg id="Layer_2" style="enable-background:new 0 0 1000 1000;" version="1.1" viewBox="0 0 1000 1000" xml:space="preserve" xmlns="http://www.w3.org/2000/svg" xmlns:xlink="http://www.w3.org/1999/xlink"><g><path d="M818.6,249.499H617.56c5.31,8.22,11.6,18.93,16.95,32.31c0.74,1.85,1.44,3.7,2.1,5.56   c7.87,0.45,14.12,6.99,14.12,14.97v52.5c0,7.94-6.18,14.45-14,14.96c-0.17,0.43-0.36,0.87-0.54,1.3   c-3.66,8.53-8.4,16.52-14.12,23.77h95.55c8.28,0,15,6.71,15,15v52.49c0,8.29-6.72,15-15,15h-107.7c-8.28,0-15-6.71-15-15v-42.82   c-5.02,3.26-10.31,6.15-15.78,8.61c-3.35,1.51-6.79,2.85-10.29,4.03v30.18c0,8.29-6.72,15-15,15h-107.7c-8.28,0-15-6.71-15-15   v-34.03c-1.45-0.6-2.89-1.23-4.3-1.89c-7.64-3.55-14.96-7.84-21.77-12.8v48.72c0,8.29-6.72,15-15,15h-107.7c-8.28,0-15-6.71-15-15   v-52.49c0-8.29,6.72-15,15-15h102.11c-1.07-1.22-2.11-2.46-3.13-3.72c-5.31-6.56-9.92-13.71-13.71-21.31h-3.38   c-8.28,0-15-6.72-15-15v-52.5c0-6.47,4.1-11.99,9.84-14.09c1.99-8.4,4.77-16.9,8.24-25.3c1.98-4.78,4.07-9.27,6.19-13.45H181.4   c-16.56,0-30,13.43-30,30v343.23h697.2v-343.23C848.6,262.929,835.16,249.499,818.6,249.499z M185.5,302.339c0-8.28,6.72-15,15-15   h107.69c8.29,0,15,6.72,15,15v52.5c0,8.28-6.71,15-15,15H200.5c-8.28,0-15-6.72-15-15V302.339z M185.5,409.869   c0-8.29,6.72-15,15-15h26.88c8.29,0,15,6.71,15,15v52.49c0,8.29-6.71,15-15,15H200.5c-8.28,0-15-6.71-15-15V409.869z    M757.12,409.869c0-8.29,6.72-15,15-15H799c8.29,0,15,6.71,15,15v52.49c0,8.29-6.71,15-15,15h-26.88c-8.28,0-15-6.71-15-15V409.869   z M323.19,569.889c0,8.28-6.71,15-15,15H200.5c-8.28,0-15-6.72-15-15v-52.5c0-8.28,6.72-15,15-15h107.69c8.29,0,15,6.72,15,15   V569.889z M486.96,569.889c0,8.28-6.72,15-15,15H364.27c-8.28,0-15-6.72-15-15v-52.5c0-8.28,6.72-15,15-15h107.69   c8.28,0,15,6.72,15,15V569.889z M650.73,569.889c0,8.28-6.72,15-15,15H528.04c-8.28,0-15-6.72-15-15v-52.5c0-8.28,6.72-15,15-15   h107.69c8.28,0,15,6.72,15,15V569.889z M814.5,569.889c0,8.28-6.72,15-15,15H691.81c-8.29,0-15-6.72-15-15v-52.5   c0-8.28,6.71-15,15-15H799.5c8.28,0,15,6.72,15,15V569.889z M814.5,354.839c0,8.28-6.72,15-15,15H691.81c-8.29,0-15-6.72-15-15   v-52.5c0-8.28,6.71-15,15-15H799.5c8.28,0,15,6.72,15,15V354.839z" style="fill:#231F20;"/><path d="M151.404,719.503c0,16.569,13.432,30,30,30h637.192c16.568,0,30-13.431,30-30V647.73H151.404   V719.503z" style="fill:#231F20;"/><path d="M623.8,801.449c-17.72-4.83-33.19-14.33-45.25-26.95h-157.1c-12.06,12.62-27.53,22.12-45.25,26.95   c-17.55,4.79-27.87,10.65-27.87,16.96c0,16.22,67.91,29.36,151.67,29.36s151.67-13.14,151.67-29.36   C651.67,812.099,641.35,806.239,623.8,801.449z" style="fill:#231F20;"/><path d="M380.639,324.223c0.664,10.165,3.099,19.889,6.667,28.506c3.578,8.637,8.244,16.221,13.517,22.723   c5.256,6.517,11.068,12.032,17.228,16.691c6.151,4.666,12.619,8.509,19.326,11.618c3.785,1.756,7.654,3.261,11.594,4.534   c3.415,1.104,6.572,2.864,9.433,5.029c0.015,0.012,0.03,0.023,0.045,0.035c6.694,5.079,13.734,9.263,21.035,12.646   c7.299,3.386,14.874,5.955,22.678,7.724c7.84,1.683,15.839,2.809,24.327,2.228c-2.577-8.041-5.118-15.136-7.449-22.089   c-2.368-6.868-4.565-13.411-6.504-19.657c-1.943-6.239-3.644-12.172-4.969-17.759c-1.31-5.595-2.286-10.81-2.804-15.519   c-0.477-4.728-0.498-8.893-0.129-12.365c0.358-3.484,1.112-6.231,1.94-8.509c0.102-0.285,0.194-0.567,0.275-0.847   c0.094-0.278,0.268-0.539,0.37-0.805c0.261-0.526,0.352-1.052,0.675-1.558c0.133-0.254,0.257-0.506,0.367-0.758l0.372-0.981   c0.395-0.975,0.739-1.956,1.074-2.936c1.537-4.007,3.281-8.333,5.256-13.062c3.846-9.294,8.77-20.199,13.629-32.992   c0.675,2.027,1.36,4.017,2.057,5.937c3.833,10.524,7.752,19.474,10.796,27.087c1.541,3.818,2.899,7.308,4.095,10.542   c0.259,0.79,0.526,1.582,0.834,2.369l0.29,0.791c0.086,0.204,0.182,0.408,0.287,0.613c0.255,0.409,0.323,0.832,0.528,1.257   c0.079,0.215,0.216,0.426,0.289,0.65c0.063,0.225,0.133,0.453,0.213,0.682c0.643,1.837,1.222,4.051,1.475,6.853   c0.263,2.792,0.206,6.137-0.223,9.929c-0.462,3.776-1.295,7.956-2.403,12.436c-1.119,4.474-2.541,9.223-4.162,14.215   c-1.619,4.997-3.446,10.231-5.415,15.724c-1.939,5.562-4.048,11.235-6.195,17.668c6.81,0.548,13.246-0.279,19.559-1.554   c6.284-1.345,12.393-3.335,18.288-5.984c5.896-2.646,11.59-5.938,17.016-9.952c5.434-4.007,10.573-8.768,15.235-14.409   c4.678-5.628,8.836-12.208,12.055-19.721c3.21-7.495,5.441-15.97,6.128-24.848l0.227-3.337c0.063-1.115,0.025-2.237,0.019-3.358   c-0.05-2.241-0.028-4.509-0.316-6.731l-0.37-3.352c-0.141-1.08-0.29-2.344-0.448-3.158c-0.306-1.821-0.651-3.639-1.005-5.456   c-1.538-7.134-3.689-13.79-6.138-19.919c-4.922-12.302-10.961-22.377-16.705-31.021c-2.875-4.321-5.756-8.291-8.453-11.93   c-2.708-3.653-5.279-7.01-7.736-10.196c-4.77-6.443-9.35-11.997-12.76-20.17c-1.699-4.077-3.07-8.816-4.038-14.236   c-1.018-5.456-1.338-11.38-1.953-18.223c-6.408,2.167-12.193,5.503-17.393,9.933c-1.631,1.419-3.196,2.962-4.695,4.6   c-1.441-4.962-3.313-9.769-5.659-14.236c-4.227-8.142-9.803-15.135-16.115-20.758c-6.408-5.592-13.56-9.832-21.504-12.626   c-0.87,8.509-1.356,15.88-2.706,22.657c-0.936,4.898-2.135,9.339-3.555,13.343c-0.758-1.821-1.581-3.604-2.487-5.328   c-3.882-7.48-9.005-13.905-14.805-19.072c-5.888-5.138-12.458-9.033-19.758-11.6c-0.798,7.818-1.245,14.59-2.485,20.816   c-1.183,6.185-2.816,11.587-4.815,16.227c-4.014,9.302-9.328,15.591-14.873,22.896c-2.854,3.61-5.842,7.415-8.989,11.556   c-3.134,4.125-6.485,8.627-9.833,13.529c-6.689,9.809-13.735,21.249-19.535,35.252c-2.885,6.976-5.437,14.56-7.295,22.699   c-0.43,2.074-0.851,4.147-1.226,6.227c-0.192,0.93-0.38,2.372-0.556,3.606l-0.469,3.83c-0.36,2.537-0.366,5.131-0.454,7.694   c-0.022,1.283-0.082,2.566-0.024,3.842L380.639,324.223z" style="fill:#231F20;"/></g></svg>