<?xml version="1.0" ?><svg id="Layer_2" style="enable-background:new 0 0 1000 1000;" version="1.1" viewBox="0 0 1000 1000" xml:space="preserve" xmlns="http://www.w3.org/2000/svg" xmlns:xlink="http://www.w3.org/1999/xlink"><g><path d="M152.303,618.75v45.795c0,16.568,13.432,30,30,30H817.84c16.569,0,30-13.432,30-30V618.75H152.303z" style="fill:#231F20;"/><path d="M662.388,821.42c-5.15-13.34-17.01-22.91-31.13-25.16c-27.35-4.36-70.84-16.02-77.61-46.51   c-2.25-10.11-0.96-20.37,2.39-30.21h-111.93c3.35,9.84,4.64,20.1,2.39,30.21c-6.77,30.49-50.26,42.15-77.61,46.51   c-14.13,2.25-25.99,11.82-31.13,25.16l-3.03,7.84c-3.48,9.04,3.19,18.76,12.87,18.76h304.94c9.69,0,16.36-9.72,12.87-18.76   L662.388,821.42z" style="fill:#231F20;"/><path d="M756.686,265.022c5.947,0,10.786-4.839,10.786-10.787c0-5.947-4.839-10.786-10.786-10.786   c-5.948,0-10.787,4.839-10.787,10.786C745.899,260.184,750.738,265.022,756.686,265.022z" style="fill:#231F20;"/><ellipse cx="504.013" cy="333.315" rx="9.94" ry="9.94" style="fill:#231F20;" transform="matrix(0.9732 -0.2298 0.2298 0.9732 -63.0975 124.7157)"/><path d="M243.171,243.449c-5.948,0-10.787,4.839-10.787,10.786c0,5.948,4.839,10.787,10.787,10.787   c5.947,0,10.786-4.839,10.786-10.787C253.957,248.288,249.118,243.449,243.171,243.449z" style="fill:#231F20;"/><path d="M243.171,390.695c-5.948,0-10.787,4.839-10.787,10.787c0,5.947,4.839,10.786,10.787,10.786   c5.947,0,10.786-4.839,10.786-10.786C253.957,395.534,249.118,390.695,243.171,390.695z" style="fill:#231F20;"/><path d="M581.032,277.963l-18.048-13.352c-16.947-12.538-37.89-19.443-58.971-19.443   c-21.08,0-42.022,6.905-58.97,19.443l-18.048,13.352c-5.836,4.317-9.319,11.228-9.319,18.486v46.941   c0,31.708,13.877,61.646,38.072,82.137l48.137,40.77c0.074,0.063,0.182,0.063,0.256,0l48.136-40.769   c24.196-20.492,38.073-50.431,38.073-82.139v-46.94C590.35,289.19,586.867,282.279,581.032,277.963z M516.513,365.935v34.7   c0,6.903-5.597,12.5-12.5,12.5s-12.5-5.597-12.5-12.5v-34.7c-13.108-5.04-22.44-17.757-22.44-32.62   c0-19.267,15.674-34.94,34.94-34.94c19.267,0,34.941,15.674,34.941,34.94C538.954,348.178,529.623,360.895,516.513,365.935z" style="fill:#231F20;"/><path d="M756.686,412.269c5.947,0,10.786-4.839,10.786-10.786c0-5.948-4.839-10.787-10.786-10.787   c-5.948,0-10.787,4.839-10.787,10.787C745.899,407.43,750.738,412.269,756.686,412.269z" style="fill:#231F20;"/><path d="M847.697,181.98c0-16.568-13.432-30-30-30H182.16c-16.568,0-30,13.432-30,30v411.77h695.537V181.98z    M305.902,527.281h-87.948c-6.903,0-12.5-5.597-12.5-12.5c0-6.903,5.597-12.5,12.5-12.5h87.948c6.903,0,12.5,5.597,12.5,12.5   C318.402,521.685,312.805,527.281,305.902,527.281z M568.434,444.605L520.3,485.373c-4.718,3.996-10.503,5.995-16.286,5.995   c-5.784,0-11.567-1.998-16.286-5.995l-48.136-40.768c-22.458-19.021-37.698-44.648-43.854-72.836H354.8   c-4.746,0-8.607,3.861-8.607,8.606c0,18.531-15.076,33.607-33.606,33.607H276.7c-5.082,13.586-18.192,23.286-33.529,23.286   c-19.733,0-35.787-16.054-35.787-35.786c0-19.733,16.054-35.787,35.787-35.787c15.337,0,28.447,9.701,33.529,23.287h35.886   c4.746,0,8.606-3.861,8.606-8.607c0-18.53,15.076-33.606,33.607-33.606h37.924c-0.029-1.124-0.047-2.25-0.047-3.378v-46.941   c0-10.491,3.491-20.629,9.68-28.867H276.365c-5.302,13.14-18.179,22.44-33.194,22.44c-19.733,0-35.787-16.054-35.787-35.787   c0-19.732,16.054-35.786,35.787-35.786c15.653,0,28.981,10.106,33.828,24.133h155.9c20.721-14.464,45.832-22.415,71.114-22.415   c26.397,0,52.62,8.646,73.84,24.346l18.048,13.353c8.754,6.477,14.952,15.755,17.757,26.084h31.399c4.745,0,8.606-3.86,8.606-8.606   c0-18.531,15.076-33.607,33.607-33.607h35.886c5.081-13.586,18.191-23.286,33.529-23.286c19.732,0,35.786,16.054,35.786,35.786   c0,19.733-16.054,35.787-35.786,35.787c-15.338,0-28.448-9.701-33.53-23.287h-35.885c-4.746,0-8.607,3.861-8.607,8.607   c0,18.53-15.076,33.606-33.606,33.606H615.35v34.44c0,15.453-2.685,30.561-7.763,44.746h115.903   c5.302-13.14,18.179-22.44,33.195-22.44c19.732,0,35.786,16.054,35.786,35.787c0,19.732-16.054,35.786-35.786,35.786   c-15.653,0-28.982-10.106-33.828-24.133H595.544C588.3,424.845,579.201,435.487,568.434,444.605z M781.902,527.281h-87.948   c-6.903,0-12.5-5.597-12.5-12.5c0-6.903,5.597-12.5,12.5-12.5h87.948c6.903,0,12.5,5.597,12.5,12.5   C794.402,521.685,788.805,527.281,781.902,527.281z" style="fill:#231F20;"/></g></svg>